<?plantuml 1.2026.2?><svg xmlns="http://www.w3.org/2000/svg" xmlns:xlink="http://www.w3.org/1999/xlink" contentStyleType="text/css" data-diagram-type="TIMING" height="243px" preserveAspectRatio="none" style="width:490px;height:243px;background:#FFFFFF;" version="1.1" viewBox="0 0 490 243" width="490px" zoomAndPan="magnify"><defs/><g><line style="stroke:#333333;stroke-width:0.5;" x1="10" x2="10" y1="10" y2="214.5625"/><line style="stroke:#333333;stroke-width:0.5;" x1="473.7939" x2="473.7939" y1="10" y2="214.5625"/><line style="stroke:#333333;stroke-width:0.5;stroke-dasharray:3,5;" x1="68.7939" x2="68.7939" y1="10" y2="214.5625"/><line style="stroke:#333333;stroke-width:0.5;stroke-dasharray:3,5;" x1="118.7939" x2="118.7939" y1="10" y2="214.5625"/><line style="stroke:#333333;stroke-width:0.5;stroke-dasharray:3,5;" x1="168.7939" x2="168.7939" y1="10" y2="214.5625"/><line style="stroke:#333333;stroke-width:0.5;stroke-dasharray:3,5;" x1="218.7939" x2="218.7939" y1="10" y2="214.5625"/><line style="stroke:#333333;stroke-width:0.5;stroke-dasharray:3,5;" x1="268.7939" x2="268.7939" y1="10" y2="214.5625"/><line style="stroke:#333333;stroke-width:0.5;stroke-dasharray:3,5;" x1="318.7939" x2="318.7939" y1="10" y2="214.5625"/><line style="stroke:#333333;stroke-width:0.5;stroke-dasharray:3,5;" x1="368.7939" x2="368.7939" y1="10" y2="214.5625"/><line style="stroke:#333333;stroke-width:0.5;stroke-dasharray:3,5;" x1="418.7939" x2="418.7939" y1="10" y2="214.5625"/><line style="stroke:#333333;stroke-width:0.5;stroke-dasharray:3,5;" x1="468.7939" x2="468.7939" y1="10" y2="214.5625"/><line style="stroke:#333333;stroke-width:0.5;" x1="10" x2="473.7939" y1="10" y2="10"/><text fill="#008000" font-family="'sans-serif'" font-size="10" font-weight="bold" lengthAdjust="spacing" textLength="76.3184" x="15" y="19.2822">DNS Resolver</text><line style="stroke:#333333;stroke-width:0.5;" x1="10" x2="92.3184" y1="22.6406" y2="22.6406"/><line style="stroke:#333333;stroke-width:0.5;" x1="92.3184" x2="102.3184" y1="22.6406" y2="10"/><text fill="#008000" font-family="'sans-serif'" font-size="10" lengthAdjust="spacing" textLength="18.2275" x="15" y="57.1025">Idle</text><text fill="#008000" font-family="'sans-serif'" font-size="10" lengthAdjust="spacing" textLength="53.7939" x="15" y="37.1025">Processing</text><line style="stroke:#006400;stroke-width:2;" x1="68.7939" x2="268.7939" y1="52.6406" y2="52.6406"/><line style="stroke:#006400;stroke-width:2;" x1="268.7939" x2="418.7939" y1="32.6406" y2="32.6406"/><line style="stroke:#006400;stroke-width:2;" x1="418.7939" x2="468.7939" y1="52.6406" y2="52.6406"/><line style="stroke:#006400;stroke-width:2;" x1="268.7939" x2="268.7939" y1="32.6406" y2="52.6406"/><line style="stroke:#006400;stroke-width:2;" x1="418.7939" x2="418.7939" y1="32.6406" y2="52.6406"/><line style="stroke:#333333;stroke-width:0.5;" x1="10" x2="473.7939" y1="70.6406" y2="70.6406"/><text fill="#008000" font-family="'sans-serif'" font-size="10" font-weight="bold" lengthAdjust="spacing" textLength="74.7803" x="15" y="79.9229">Web Browser</text><line style="stroke:#333333;stroke-width:0.5;" x1="10" x2="90.7803" y1="83.2813" y2="83.2813"/><line style="stroke:#333333;stroke-width:0.5;" x1="90.7803" x2="100.7803" y1="83.2813" y2="70.6406"/><text fill="#008000" font-family="'sans-serif'" font-size="10" lengthAdjust="spacing" textLength="18.2275" x="15" y="137.7432">Idle</text><text fill="#008000" font-family="'sans-serif'" font-size="10" lengthAdjust="spacing" textLength="53.7939" x="15" y="117.7432">Processing</text><text fill="#008000" font-family="'sans-serif'" font-size="10" lengthAdjust="spacing" textLength="38.1787" x="15" y="97.7432">Waiting</text><line style="stroke:#006400;stroke-width:2;" x1="68.7939" x2="118.7939" y1="133.2813" y2="133.2813"/><line style="stroke:#006400;stroke-width:2;" x1="118.7939" x2="218.7939" y1="113.2813" y2="113.2813"/><line style="stroke:#006400;stroke-width:2;" x1="218.7939" x2="468.7939" y1="93.2813" y2="93.2813"/><line style="stroke:#006400;stroke-width:2;" x1="118.7939" x2="118.7939" y1="113.2813" y2="133.2813"/><line style="stroke:#006400;stroke-width:2;" x1="218.7939" x2="218.7939" y1="93.2813" y2="113.2813"/><line style="stroke:#333333;stroke-width:0.5;" x1="10" x2="473.7939" y1="151.2813" y2="151.2813"/><text fill="#008000" font-family="'sans-serif'" font-size="10" font-weight="bold" lengthAdjust="spacing" textLength="54.2383" x="15" y="160.5635">Web User</text><line style="stroke:#333333;stroke-width:0.5;" x1="10" x2="70.2383" y1="163.9219" y2="163.9219"/><line style="stroke:#333333;stroke-width:0.5;" x1="70.2383" x2="80.2383" y1="163.9219" y2="151.2813"/><polygon fill="#E2E2F0" points="80.7939,180.5625,106.7939,180.5625,118.7939,192.5625,106.7939,204.5625,80.7939,204.5625,68.7939,192.5625" style="stroke:#006400;stroke-width:1.5;"/><polygon fill="#E2E2F0" points="130.7939,180.5625,468.7939,180.5625,468.7939,204.5625,130.7939,204.5625,118.7939,192.5625" style="stroke:#E2E2F0;stroke-width:1.5;"/><path d="M468.7939,180.5625 L130.7939,180.5625 L118.7939,192.5625 L130.7939,204.5625 L468.7939,204.5625" fill="#E2E2F0" style="stroke:#006400;stroke-width:1.5;"/><text fill="#008000" font-family="'sans-serif'" font-size="10" font-weight="bold" lengthAdjust="spacing" textLength="21.0889" x="83.2495" y="196.0244">Idle</text><text fill="#008000" font-family="'sans-serif'" font-size="10" font-weight="bold" lengthAdjust="spacing" textLength="43.6914" x="130.7939" y="196.0244">Waiting</text><line style="stroke:#8B0000;stroke-width:1.5;" x1="169.7939" x2="242.7939" y1="172.2422" y2="172.2422"/><polygon fill="#8B0000" points="177.7939,176.2422,177.7939,168.2422,169.7939,172.2422" style="stroke:#8B0000;stroke-width:1;"/><polygon fill="#8B0000" points="234.7939,176.2422,234.7939,168.2422,242.7939,172.2422" style="stroke:#8B0000;stroke-width:1;"/><text fill="#008000" font-family="'sans-serif'" font-size="10" lengthAdjust="spacing" textLength="49.9414" x="181.3232" y="164.8838">{150 ms}</text><line style="stroke:#333333;stroke-width:2;" x1="68.7939" x2="68.7939" y1="214.5625" y2="219.5625"/><line style="stroke:#333333;stroke-width:2;" x1="118.7939" x2="118.7939" y1="214.5625" y2="219.5625"/><line style="stroke:#333333;stroke-width:2;" x1="168.7939" x2="168.7939" y1="214.5625" y2="219.5625"/><line style="stroke:#333333;stroke-width:2;" x1="218.7939" x2="218.7939" y1="214.5625" y2="219.5625"/><line style="stroke:#333333;stroke-width:2;" x1="268.7939" x2="268.7939" y1="214.5625" y2="219.5625"/><line style="stroke:#333333;stroke-width:2;" x1="318.7939" x2="318.7939" y1="214.5625" y2="219.5625"/><line style="stroke:#333333;stroke-width:2;" x1="368.7939" x2="368.7939" y1="214.5625" y2="219.5625"/><line style="stroke:#333333;stroke-width:2;" x1="418.7939" x2="418.7939" y1="214.5625" y2="219.5625"/><line style="stroke:#333333;stroke-width:2;" x1="468.7939" x2="468.7939" y1="214.5625" y2="219.5625"/><line style="stroke:#333333;stroke-width:2;" x1="68.7939" x2="468.7939" y1="214.5625" y2="214.5625"/><text fill="#008000" font-family="'sans-serif'" font-size="10" lengthAdjust="spacing" textLength="6.3623" x="65.6128" y="229.8447">0</text><text fill="#008000" font-family="'sans-serif'" font-size="10" lengthAdjust="spacing" textLength="19.0869" x="109.2505" y="229.8447">100</text><text fill="#008000" font-family="'sans-serif'" font-size="10" lengthAdjust="spacing" textLength="19.0869" x="209.2505" y="229.8447">300</text><text fill="#008000" font-family="'sans-serif'" font-size="10" lengthAdjust="spacing" textLength="19.0869" x="259.2505" y="229.8447">400</text><text fill="#008000" font-family="'sans-serif'" font-size="10" lengthAdjust="spacing" textLength="19.0869" x="409.2505" y="229.8447">700</text><line style="stroke:#00008B;stroke-width:1.5;" x1="118.7939" x2="118.7939" y1="192.5625" y2="133.2813"/><polygon fill="#00008B" points="121.5301,140.7988,116.0578,140.7988,118.7939,133.2813" style="stroke:#00008B;stroke-width:1.5;"/><text fill="#008000" font-family="'sans-serif'" font-size="10" lengthAdjust="spacing" textLength="19.8389" x="118.7939" y="150.081">URL</text><line style="stroke:#00008B;stroke-width:1.5;" x1="218.7939" x2="243.7939" y1="93.2813" y2="52.6406"/><polygon fill="#00008B" points="242.1856,60.4773,237.5246,57.6101,243.7939,52.6406" style="stroke:#00008B;stroke-width:1.5;"/><text fill="#008000" font-family="'sans-serif'" font-size="10" lengthAdjust="spacing" textLength="62.2949" x="239.8551" y="68.3259">Resolve URL</text><?plantuml-src ROz1Yy8m48Nlyok6NaMeBdiHaL9541OHIyavrb62RR9ageBYVtTQOqNnb67UUz-RyC7OV-rrXLlQwMDPpvsjbxeYZ39jEIDlTX7mDrTcBeI3-BiuTQNpkFT45i2xpP5hZ6RB3DV4hZoHZr0pog8J5MqmzUxCGLCf5CuMXkcXvPsG0oGng1mDus9R4gYq6vkAvmn9Rn2tnlv4S3Z2VFqNSagRsjXzYAwyAuYvMKXes8JI3vSWX9tqVcFXX4-qlD0IYjz9FoyXN2J79yB7iV0asDAkpLFnxGu0?></g></svg>