<svg xmlns="http://www.w3.org/2000/svg" xmlns:xlink="http://www.w3.org/1999/xlink" contentStyleType="text/css" data-diagram-type="CHEN_EER" height="875px" preserveAspectRatio="none" style="width:1492px;height:875px;background:#FFFFFF;" version="1.1" viewBox="0 0 1492 875" width="1492px" zoomAndPan="magnify"><?plantuml 1.2026.3beta5?><defs/><g><g><rect fill="#F1F1F1" height="36.2969" style="stroke:#181818;stroke-width:0.5;" width="76.5469" x="255.5" y="347"/><text fill="#000000" font-family="sans-serif" font-size="14" lengthAdjust="spacing" textLength="56.5469" x="265.5" y="369.9951">Director</text></g><g><ellipse cx="204.1087" cy="255.5236" fill="#F1F1F1" rx="19.6087" ry="14.5236" style="stroke:#181818;stroke-width:0.5;"/><text fill="#000000" font-family="sans-serif" font-size="14" lengthAdjust="spacing" text-decoration="underline" textLength="23.4883" x="192.3646" y="259.9951">No.</text></g><g><ellipse cx="117.2054" cy="255.5236" fill="#F1F1F1" rx="32.2054" ry="14.5236" style="stroke:#181818;stroke-width:0.5;"/><text fill="#000000" font-family="sans-serif" font-size="14" lengthAdjust="spacing" textLength="41.3027" x="96.5541" y="259.9951">Name</text></g><g><ellipse cx="61.7685" cy="142.0236" fill="#F1F1F1" rx="36.7685" ry="14.5236" style="stroke:#181818;stroke-width:0.5;"/><text fill="#000000" font-family="sans-serif" font-size="14" lengthAdjust="spacing" textLength="47.7559" x="37.8906" y="146.4951">Fname</text></g><g><ellipse cx="171.0896" cy="142.0236" fill="#F1F1F1" rx="36.5896" ry="14.5236" style="stroke:#181818;stroke-width:0.5;"/><text fill="#000000" font-family="sans-serif" font-size="14" lengthAdjust="spacing" textLength="47.5029" x="147.3382" y="146.4951">Lname</text></g><g><ellipse cx="422.0757" cy="255.7151" fill="#F1F1F1" rx="61.5757" ry="14.7151" style="stroke:#181818;stroke-width:0.5;"/><text fill="#000000" font-family="sans-serif" font-size="14" lengthAdjust="spacing" textLength="84.1709" x="379.9902" y="259.9951">Born : DATE</text></g><g><ellipse cx="544.2476" cy="255.5236" fill="#F1F1F1" rx="25.7476" ry="14.5236" style="stroke:#181818;stroke-width:0.5;"/><text fill="#000000" font-family="sans-serif" font-size="14" lengthAdjust="spacing" textLength="32.1699" x="528.1626" y="259.9951">Died</text></g><g><ellipse cx="28.1464" cy="255.5236" fill="#F1F1F1" rx="22.1464" ry="14.5236" style="stroke:#181818;stroke-width:0.5;"/><text fill="#000000" font-family="sans-serif" font-size="14" lengthAdjust="spacing" textLength="27.0771" x="14.6079" y="259.9951">Age</text></g><g><rect fill="#F1F1F1" height="36.2969" style="stroke:#181818;stroke-width:0.5;" width="88.0039" x="1088" y="347"/><text fill="#000000" font-family="sans-serif" font-size="14" lengthAdjust="spacing" textLength="68.0039" x="1098" y="369.9951">Customer</text></g><g><ellipse cx="969.7672" cy="255.5236" fill="#F1F1F1" rx="42.7672" ry="14.5236" style="stroke:#181818;stroke-width:0.5;"/><text fill="#000000" font-family="sans-serif" font-size="14" lengthAdjust="spacing" text-decoration="underline" textLength="56.2393" x="941.6475" y="259.9951">Number</text></g><g><ellipse cx="1082.0541" cy="255.5236" fill="#F1F1F1" rx="33.5541" ry="14.5236" style="stroke:#181818;stroke-width:0.5;stroke-dasharray:10,10;"/><text fill="#000000" font-family="sans-serif" font-size="14" lengthAdjust="spacing" textLength="43.21" x="1060.4491" y="259.9951">Bonus</text></g><g><ellipse cx="1183.2054" cy="255.5236" fill="#F1F1F1" rx="32.2054" ry="14.5236" style="stroke:#181818;stroke-width:0.5;"/><ellipse cx="1183.2054" cy="255.5236" fill="#F1F1F1" rx="29.2054" ry="11.5236" style="stroke:#181818;stroke-width:0.5;"/><text fill="#000000" font-family="sans-serif" font-size="14" lengthAdjust="spacing" textLength="41.3027" x="1162.5541" y="259.9951">Name</text></g><g><rect fill="#F1F1F1" height="36.2969" style="stroke:#181818;stroke-width:0.5;" width="61.4326" x="681.5" y="347"/><text fill="#000000" font-family="sans-serif" font-size="14" lengthAdjust="spacing" textLength="41.4326" x="691.5" y="369.9951">Movie</text></g><g><ellipse cx="784.8433" cy="255.5236" fill="#F1F1F1" rx="28.3433" ry="14.5236" style="stroke:#181818;stroke-width:0.5;"/><text fill="#000000" font-family="sans-serif" font-size="14" lengthAdjust="spacing" textLength="35.8408" x="766.9229" y="259.9951">Code</text></g><g><polygon fill="#F1F1F1" points="563.5,142.1668,639.8337,104,716.1673,142.1668,639.8337,180.3337" style="stroke:#181818;stroke-width:0.5;"/><text fill="#000000" font-family="sans-serif" font-size="14" lengthAdjust="spacing" textLength="97.7129" x="590.9772" y="147.0135">was-rented-to</text></g><g><ellipse cx="640.1611" cy="25.0236" fill="#F1F1F1" rx="26.6611" ry="14.5236" style="stroke:#181818;stroke-width:0.5;"/><text fill="#000000" font-family="sans-serif" font-size="14" lengthAdjust="spacing" textLength="33.4619" x="623.4302" y="29.4951">Date</text></g><g><rect fill="#F1F1F1" height="36.2969" style="stroke:#181818;stroke-width:0.5;" width="65.7529" x="1140" y="550"/><text fill="#000000" font-family="sans-serif" font-size="14" lengthAdjust="spacing" textLength="45.7529" x="1150" y="572.9951">Parent</text></g><g><rect fill="#F1F1F1" height="36.2969" style="stroke:#181818;stroke-width:0.5;" width="77.5859" x="1300" y="124"/><text fill="#000000" font-family="sans-serif" font-size="14" lengthAdjust="spacing" textLength="57.5859" x="1310" y="146.9951">Member</text></g><g><rect fill="#F1F1F1" height="36.2969" style="stroke:#181818;stroke-width:0.5;" width="41.957" x="1282" y="550"/><rect fill="#F1F1F1" height="30.2969" style="stroke:#181818;stroke-width:0.5;" width="35.957" x="1285" y="553"/><text fill="#000000" font-family="sans-serif" font-size="14" lengthAdjust="spacing" textLength="21.957" x="1292" y="572.9951">Kid</text></g><g><ellipse cx="1375.2054" cy="474.5236" fill="#F1F1F1" rx="32.2054" ry="14.5236" style="stroke:#181818;stroke-width:0.5;"/><text fill="#000000" font-family="sans-serif" font-size="14" lengthAdjust="spacing" text-decoration="underline" textLength="41.3027" x="1354.5541" y="478.9951">Name</text></g><g><polygon fill="#F1F1F1" points="1221,364.9832,1288.9665,331,1356.9329,364.9832,1288.9665,398.9665" style="stroke:#181818;stroke-width:0.5;"/><polygon fill="#F1F1F1" points="1231,364.9832,1288.9665,336,1346.9329,364.9832,1288.9665,393.9665" style="stroke:#181818;stroke-width:0.5;"/><text fill="#000000" font-family="sans-serif" font-size="14" lengthAdjust="spacing" textLength="80.9785" x="1248.4772" y="369.8299">is-parent-of</text></g><g><rect fill="#F1F1F1" height="36.2969" style="stroke:#181818;stroke-width:0.5;" width="81.5781" x="990" y="825"/><text fill="#000000" font-family="sans-serif" font-size="14" lengthAdjust="spacing" textLength="61.5781" x="1000" y="847.9951">Little Kid</text></g><g><ellipse cx="953.0256" cy="748.6051" fill="#F1F1F1" rx="61.0256" ry="14.6051" style="stroke:#181818;stroke-width:0.5;"/><text fill="#000000" font-family="sans-serif" font-size="14" lengthAdjust="spacing" textLength="82.6328" x="911.7092" y="752.9951">FavoriteToy</text></g><g><rect fill="#F1F1F1" height="36.2969" style="stroke:#181818;stroke-width:0.5;" width="141.7686" x="1149" y="825"/><text fill="#000000" font-family="sans-serif" font-size="14" lengthAdjust="spacing" textLength="121.7686" x="1159" y="847.9951">Primary-Aged Kid</text></g><g><ellipse cx="1185.1185" cy="748.4237" fill="#F1F1F1" rx="65.1185" ry="15.4237" style="stroke:#181818;stroke-width:0.5;"/><text fill="#000000" font-family="sans-serif" font-size="14" lengthAdjust="spacing" textLength="93.7822" x="1138.2273" y="751.9951">FavoriteColor</text></g><g><rect fill="#F1F1F1" height="36.2969" style="stroke:#181818;stroke-width:0.5;" width="86.4863" x="1392" y="825"/><text fill="#000000" font-family="sans-serif" font-size="14" lengthAdjust="spacing" textLength="66.4863" x="1402" y="847.9951">Teenager</text></g><g><ellipse cx="1390.9268" cy="748.5236" fill="#F1F1F1" rx="34.9268" ry="14.5236" style="stroke:#181818;stroke-width:0.5;"/><text fill="#000000" font-family="sans-serif" font-size="14" lengthAdjust="spacing" textLength="45.1514" x="1368.3512" y="752.9951">Hobby</text></g><g><ellipse cx="1303" cy="659.5" fill="#F1F1F1" rx="12.5" ry="12.5" style="stroke:#181818;stroke-width:0.5;"/><text fill="#000000" font-family="sans-serif" font-size="14" lengthAdjust="spacing" textLength="8.8867" x="1298.5566" y="664.3467">d</text></g><g><rect fill="#F1F1F1" height="36.2969" style="stroke:#181818;stroke-width:0.5;" width="70.4902" x="973" y="7"/><text fill="#000000" font-family="sans-serif" font-size="14" lengthAdjust="spacing" textLength="50.4902" x="983" y="29.9951">Human</text></g><g><ellipse cx="1008" cy="142" fill="#F1F1F1" rx="12.5" ry="12.5" style="stroke:#181818;stroke-width:0.5;"/><text fill="#000000" font-family="sans-serif" font-size="14" lengthAdjust="spacing" textLength="10.2471" x="1002.8765" y="146.8467">U</text></g><!--link DIRECTOR/Number to DIRECTOR--><g class="link" data-entity-1="ent0003" data-entity-2="ent0002" data-link-type="association" data-source-line="3" id="lnk4"><path d="M213.98,268.42 C229.9,287.44 261.15,324.76 279.53,346.72" fill="none" id="DIRECTOR/Number-DIRECTOR" style="stroke:#181818;stroke-width:1;"/></g><!--link DIRECTOR/Name to DIRECTOR--><g class="link" data-entity-1="ent0005" data-entity-2="ent0002" data-link-type="association" data-source-line="4" id="lnk6"><path d="M135.28,267.6 C166.28,286.43 229.37,324.75 265.98,346.98" fill="none" id="DIRECTOR/Name-DIRECTOR" style="stroke:#181818;stroke-width:1;"/></g><!--link DIRECTOR/Name/Fname to DIRECTOR/Name--><g class="link" data-entity-1="ent0007" data-entity-2="ent0005" data-link-type="association" data-source-line="5" id="lnk8"><path d="M68.74,156.67 C79.36,178.19 99.83,219.7 110.37,241.06" fill="none" id="DIRECTOR/Name/Fname-DIRECTOR/Name" style="stroke:#181818;stroke-width:1;"/></g><!--link DIRECTOR/Name/Lname to DIRECTOR/Name--><g class="link" data-entity-1="ent0009" data-entity-2="ent0005" data-link-type="association" data-source-line="6" id="lnk10"><path d="M164.38,156.67 C153.96,178.19 133.86,219.7 123.51,241.06" fill="none" id="DIRECTOR/Name/Lname-DIRECTOR/Name" style="stroke:#181818;stroke-width:1;"/></g><!--link DIRECTOR/Born : DATE to DIRECTOR--><g class="link" data-entity-1="ent0011" data-entity-2="ent0002" data-link-type="association" data-source-line="8" id="lnk12"><path d="M406.3,269.68 C383.21,289.08 340.04,325.33 314.48,346.8" fill="none" id="DIRECTOR/Born : DATE-DIRECTOR" style="stroke:#181818;stroke-width:1;"/></g><!--link DIRECTOR/Died to DIRECTOR--><g class="link" data-entity-1="ent0013" data-entity-2="ent0002" data-link-type="association" data-source-line="9" id="lnk14"><path d="M524.38,264.94 C483.17,282.66 386.96,324.03 332.81,347.31" fill="none" id="DIRECTOR/Died-DIRECTOR" style="stroke:#181818;stroke-width:1;"/></g><!--link DIRECTOR/Age to DIRECTOR--><g class="link" data-entity-1="ent0015" data-entity-2="ent0002" data-link-type="association" data-source-line="10" id="lnk16"><path d="M46.28,263.89 C89.13,281.2 196.78,324.71 255.06,348.26" fill="none" id="DIRECTOR/Age-DIRECTOR" style="stroke:#181818;stroke-width:1;"/></g><!--link CUSTOMER/Number to CUSTOMER--><g class="link" data-entity-1="ent0018" data-entity-2="ent0017" data-link-type="association" data-source-line="14" id="lnk19"><path d="M988.58,268.83 C1017.51,288.02 1073.37,325.09 1106.19,346.87" fill="none" id="CUSTOMER/Number-CUSTOMER" style="stroke:#181818;stroke-width:1;"/></g><!--link CUSTOMER/Bonus to CUSTOMER--><g class="link" data-entity-1="ent0020" data-entity-2="ent0017" data-link-type="association" data-source-line="15" id="lnk21"><path d="M1088.33,270.11 C1097.42,289.66 1114.17,325.67 1124.07,346.96" fill="none" id="CUSTOMER/Bonus-CUSTOMER" style="stroke:#181818;stroke-width:1;"/></g><!--link CUSTOMER/Name to CUSTOMER--><g class="link" data-entity-1="ent0022" data-entity-2="ent0017" data-link-type="association" data-source-line="16" id="lnk23"><path d="M1176.54,270.11 C1167.27,289.66 1150.19,325.67 1140.09,346.96" fill="none" id="CUSTOMER/Name-CUSTOMER" style="stroke:#181818;stroke-width:1;"/></g><!--link MOVIE/Code to MOVIE--><g class="link" data-entity-1="ent0025" data-entity-2="ent0024" data-link-type="association" data-source-line="20" id="lnk26"><path d="M776.05,269.68 C762.88,289.08 738.26,325.33 723.68,346.8" fill="none" id="MOVIE/Code-MOVIE" style="stroke:#181818;stroke-width:1;"/></g><!--link RENTED_TO/Date to RENTED_TO--><g class="link" data-entity-1="ent0028" data-entity-2="ent0027" data-link-type="association" data-source-line="24" id="lnk29"><path d="M640,39.64 C640,55.35 640,81.81 640,103.75" fill="none" id="RENTED_TO/Date-RENTED_TO" style="stroke:#181818;stroke-width:1;"/></g><!--link RENTED_TO to CUSTOMER--><g class="link" data-entity-1="ent0027" data-entity-2="ent0017" data-link-type="association" data-source-line="27" id="lnk30"><path d="M676.96,161.84 C727.39,187.32 820.76,233.75 902,270 C966.01,298.56 1041.43,328.74 1087.99,346.97" fill="none" id="RENTED_TO-CUSTOMER" style="stroke:#181818;stroke-width:1;"/><text fill="#000000" font-family="sans-serif" font-size="11" lengthAdjust="spacing" textLength="6.9985" x="903" y="259.7104">1</text></g><!--link RENTED_TO to MOVIE--><g class="link" data-entity-1="ent0027" data-entity-2="ent0024" data-link-type="association" data-source-line="28" id="lnk31"><path d="M650.47,175.14 C665.95,222.66 694.42,310.04 706.43,346.89" fill="none" id="RENTED_TO-MOVIE" style="stroke:#181818;stroke-width:1;"/><text fill="#000000" font-family="sans-serif" font-size="11" lengthAdjust="spacing" textLength="8.2285" x="681" y="259.7104">N</text></g><!--link RENTED_TO to DIRECTOR--><g class="link" data-entity-1="ent0027" data-entity-2="ent0002" data-link-type="association" data-source-line="29" id="lnk32"><path d="M566.33,143.41 C490.65,148.09 375.26,167.83 312,241 C286.17,270.88 288.07,320.89 291.26,346.99" fill="none" id="RENTED_TO-DIRECTOR" style="stroke:#181818;stroke-width:1;"/><text fill="#000000" font-family="sans-serif" font-size="11" lengthAdjust="spacing" textLength="29.7988" x="313" y="259.7104">(N,M)</text></g><!--link CUSTOMER to PARENT--><g class="link" data-entity-1="ent0017" data-entity-2="ent0033" data-link-type="association" data-source-line="37" id="lnk35"><path d="M1135.5,383.14 C1143.24,421.11 1161.78,511.97 1169.51,549.91" fill="none" id="CUSTOMER-PARENT" style="stroke:#181818;stroke-width:1;"/><path d="M1146.6298,467.7354 A6,6 0 0 0 1158.3877 465.3371" fill="none" style="stroke:#181818;stroke-width:1.5;"/><line style="stroke:#181818;stroke-width:1.5;" x1="1146.6298" x2="1144.6312" y1="467.7354" y2="457.9372"/><line style="stroke:#181818;stroke-width:1.5;" x1="1158.3877" x2="1156.3891" y1="465.3371" y2="455.5388"/></g><!--link MEMBER to CUSTOMER--><g class="link" data-entity-1="ent0034" data-entity-2="ent0017" data-link-type="association" data-source-line="38" id="lnk36"><path d="M1332.88,160.24 C1321.01,191.66 1292.14,258.88 1249,301 C1236.58,313.13 1198.33,332.77 1168.91,346.9" fill="none" id="MEMBER-CUSTOMER" style="stroke:#181818;stroke-width:1;"/><path d="M1253.1916,305.2931 A6,6 0 0 0 1244.8084 296.7069" fill="none" style="stroke:#181818;stroke-width:1.5;"/><line style="stroke:#181818;stroke-width:1.5;" x1="1253.1916" x2="1246.0364" y1="305.2931" y2="312.2791"/><line style="stroke:#181818;stroke-width:1.5;" x1="1244.8084" x2="1237.6533" y1="296.7069" y2="303.6929"/></g><!--link CHILD/Name to CHILD--><g class="link" data-entity-1="ent0038" data-entity-2="ent0037" data-link-type="association" data-source-line="41" id="lnk39"><path d="M1364.68,488.61 C1352.01,504.72 1330.47,532.09 1316.49,549.86" fill="none" id="CHILD/Name-CHILD" style="stroke:#181818;stroke-width:1;"/></g><!--link PARENT_OF to PARENT--><g class="link" data-entity-1="ent0040" data-entity-2="ent0033" data-link-type="association" data-source-line="47" id="lnk41"><path d="M1274.07,391.87 C1250.02,433.54 1203.34,514.42 1182.94,549.77" fill="none" id="PARENT_OF-PARENT" style="stroke:#181818;stroke-width:1;"/><text fill="#000000" font-family="sans-serif" font-size="11" lengthAdjust="spacing" textLength="6.9985" x="1235" y="478.7104">1</text></g><!--link PARENT_OF to CHILD--><g class="link" data-entity-1="ent0040" data-entity-2="ent0037" data-link-type="association" data-source-line="48" id="lnk42"><path d="M1291.25,398.29 C1294.26,441.46 1299.48,516.42 1301.81,549.94" fill="none" id="PARENT_OF-CHILD" style="stroke:#181818;stroke-width:2;"/><text fill="#000000" font-family="sans-serif" font-size="11" lengthAdjust="spacing" textLength="8.2285" x="1298" y="478.7104">N</text></g><!--link TODDLER/FavoriteToy to TODDLER--><g class="link" data-entity-1="ent0044" data-entity-2="ent0043" data-link-type="association" data-source-line="51" id="lnk45"><path d="M964.51,763.15 C978.32,779.53 1001.5,807.02 1016.52,824.83" fill="none" id="TODDLER/FavoriteToy-TODDLER" style="stroke:#181818;stroke-width:1;"/></g><!--link PRIMARY_AGE/FavoriteColor to PRIMARY_AGE--><g class="link" data-entity-1="ent0047" data-entity-2="ent0046" data-link-type="association" data-source-line="55" id="lnk48"><path d="M1190.47,763.95 C1196.7,780.42 1206.87,807.3 1213.5,824.82" fill="none" id="PRIMARY_AGE/FavoriteColor-PRIMARY_AGE" style="stroke:#181818;stroke-width:1;"/></g><!--link TEEN/Hobby to TEEN--><g class="link" data-entity-1="ent0050" data-entity-2="ent0049" data-link-type="association" data-source-line="59" id="lnk51"><path d="M1397.49,763.15 C1405.29,779.53 1418.36,807.02 1426.83,824.83" fill="none" id="TEEN/Hobby-TEEN" style="stroke:#181818;stroke-width:1;"/></g><!--link CHILD to CHILD/d TODDLER, PRIMARY_AGE, TEEN /center--><g class="link" data-entity-1="ent0037" data-entity-2="ent0052" data-link-type="association" data-source-line="62" id="lnk53"><path d="M1303,586.26 C1303,604.14 1303,631.58 1303,646.98" fill="none" id="CHILD-CHILD/d TODDLER, PRIMARY_AGE, TEEN /center" style="stroke:#181818;stroke-width:2;"/></g><!--link CHILD/d TODDLER, PRIMARY_AGE, TEEN /center to TODDLER--><g class="link" data-entity-1="ent0052" data-entity-2="ent0043" data-link-type="association" data-source-line="62" id="lnk54"><path d="M1290.42,662.25 C1256.75,667.48 1163.05,685.68 1103,733 C1071.29,757.99 1048.87,800.92 1038.15,824.77" fill="none" id="CHILD/d TODDLER, PRIMARY_AGE, TEEN /center-TODDLER" style="stroke:#181818;stroke-width:1;"/><path d="M1099.2864,728.2874 A6,6 0 0 0 1106.7136 737.7126" fill="none" style="stroke:#181818;stroke-width:1.5;"/><line style="stroke:#181818;stroke-width:1.5;" x1="1099.2864" x2="1107.1408" y1="728.2874" y2="722.098"/><line style="stroke:#181818;stroke-width:1.5;" x1="1106.7136" x2="1114.568" y1="737.7126" y2="731.5233"/></g><!--link CHILD/d TODDLER, PRIMARY_AGE, TEEN /center to PRIMARY_AGE--><g class="link" data-entity-1="ent0052" data-entity-2="ent0046" data-link-type="association" data-source-line="62" id="lnk55"><path d="M1300.11,671.7 C1294.93,691.03 1283.15,731.72 1268,764 C1257.66,786.02 1242.54,809.58 1232.04,824.98" fill="none" id="CHILD/d TODDLER, PRIMARY_AGE, TEEN /center-PRIMARY_AGE" style="stroke:#181818;stroke-width:1;"/><path d="M1262.5685,761.4508 A6,6 0 0 0 1273.4315 766.5492" fill="none" style="stroke:#181818;stroke-width:1.5;"/><line style="stroke:#181818;stroke-width:1.5;" x1="1262.5685" x2="1266.8171" y1="761.4508" y2="752.3982"/><line style="stroke:#181818;stroke-width:1.5;" x1="1273.4315" x2="1277.6802" y1="766.5492" y2="757.4966"/></g><!--link CHILD/d TODDLER, PRIMARY_AGE, TEEN /center to TEEN--><g class="link" data-entity-1="ent0052" data-entity-2="ent0049" data-link-type="association" data-source-line="62" id="lnk56"><path d="M1315.31,662.48 C1343.99,667.84 1415.04,685.54 1444,733 C1461.31,761.36 1450.75,801.89 1442.33,824.69" fill="none" id="CHILD/d TODDLER, PRIMARY_AGE, TEEN /center-TEEN" style="stroke:#181818;stroke-width:1;"/><path d="M1377.1259,687.441 A6,6 0 0 0 1381.9741 676.464" fill="none" style="stroke:#181818;stroke-width:1.5;"/><line style="stroke:#181818;stroke-width:1.5;" x1="1377.1259" x2="1367.9784" y1="687.441" y2="683.4008"/><line style="stroke:#181818;stroke-width:1.5;" x1="1381.9741" x2="1372.8266" y1="676.464" y2="672.4238"/></g><!--link PERSON to PERSON/U CUSTOMER, DIRECTOR /center--><g class="link" data-entity-1="ent0057" data-entity-2="ent0058" data-link-type="association" data-source-line="67" id="lnk59"><path d="M1008,43.47 C1008,67.22 1008,109.06 1008,129.34" fill="none" id="PERSON-PERSON/U CUSTOMER, DIRECTOR /center" style="stroke:#181818;stroke-width:1;"/><path d="M1002,87.7063 A6,6 0 0 0 1014 87.7063" fill="none" style="stroke:#181818;stroke-width:1.5;"/><line style="stroke:#181818;stroke-width:1.5;" x1="1002" x2="1002" y1="87.7063" y2="77.7063"/><line style="stroke:#181818;stroke-width:1.5;" x1="1014" x2="1014" y1="87.7063" y2="77.7063"/></g><!--link PERSON/U CUSTOMER, DIRECTOR /center to CUSTOMER--><g class="link" data-entity-1="ent0058" data-entity-2="ent0017" data-link-type="association" data-source-line="67" id="lnk60"><path d="M1020.42,143.91 C1059.95,147.57 1183.15,164.91 1233,241 C1259.5,281.45 1202.57,324.07 1163.89,347" fill="none" id="PERSON/U CUSTOMER, DIRECTOR /center-CUSTOMER" style="stroke:#181818;stroke-width:1;"/></g><!--link PERSON/U CUSTOMER, DIRECTOR /center to DIRECTOR--><g class="link" data-entity-1="ent0058" data-entity-2="ent0002" data-link-type="association" data-source-line="67" id="lnk61"><path d="M996.28,146.74 C958.46,158.91 836.47,199.04 739,241 C712.53,252.4 708.06,260.09 681,270 C557.32,315.28 403.41,345.22 332.75,357.58" fill="none" id="PERSON/U CUSTOMER, DIRECTOR /center-DIRECTOR" style="stroke:#181818;stroke-width:1;"/></g><?plantuml-src PLDTRvim57tdLrXvwgGuQZjj3nD19U0iqG94b4xQK-JKjwdLO5V6f8gg_lSQcu2dFY0kz_fy-1ZVDPeg_VWC0jNonA490X2QwpEQf5p1evPgWcY3qdL9ageeqNk0q2INCzlDsteF2eNX2voZo4noMeDTWj1IcDfMcxxwCCz2Ae5-eJIkYFbAEJ3pYWyGV8p2ITjeMOCJJXxkgo8ZJlYBtaAAjZ7V31G_0HizX67T7ZKt3OyuwtPeMRFYxvfOoaGoAwxWI3MNeddchsZoHXki30mOrj8YIf9N9DrLXKMbL5lKsCKtUF3gjtFinFpULJxDlk4Xqz7WbdQYLcyRTm0Zvlk7Rljk0oHRs53CU8W8HxZ71VqSXvwhWUSFPoxRrNgJcgZUWBv4aKlOXUVo_H8BR_2hjOZba-ToLomDXhEE_-dCnS6I6VGuxkBfhOtDUJvt7aPh6wxr4T35OLMawQO__2KzISKrLFBiXx9LlARgZCrFn0RSjbndSVbl5_yc_s4JUPJAHrS0WXxwK2j2Shjy9VTxA-8IcaTpnD3xnStKfvywb4UvQcigd0jItXTv7uMhkoDwC5INGvcEDyiikWF1khiO13Ups-lRdxFlUz3qnoS0?></g></svg>