<svg xmlns="http://www.w3.org/2000/svg" xmlns:xlink="http://www.w3.org/1999/xlink" contentStyleType="text/css" data-diagram-type="CLASS" height="312px" preserveAspectRatio="none" style="width:445px;height:312px;background:#FFFFFF;" version="1.1" viewBox="0 0 445 312" width="445px" zoomAndPan="magnify"><?plantuml 1.2026.3beta5?><defs/><g><!--class Map--><g class="entity" data-qualified-name="Map" data-source-line="1" id="ent0002"><rect fill="#F1F1F1" height="48" rx="2.5" ry="2.5" style="stroke:#181818;stroke-width:0.5;" width="85.4375" x="60.5" y="137"/><ellipse cx="75.5" cy="153" fill="#B4A7E5" rx="11" ry="11" style="stroke:#181818;stroke-width:1;"/><path d="M71.4219,148.7656 L71.4219,146.6094 L78.8125,146.6094 L78.8125,148.7656 L76.3438,148.7656 L76.3438,156.8438 L78.8125,156.8438 L78.8125,159 L71.4219,159 L71.4219,156.8438 L73.8906,156.8438 L73.8906,148.7656 L71.4219,148.7656 Z " fill="#000000"/><text fill="#000000" font-family="sans-serif" font-size="14" font-style="italic" lengthAdjust="spacing" textLength="29.5449" x="89.5" y="157.8467">Map</text><rect fill="#FFFFFF" height="15.9688" style="stroke:#181818;stroke-width:1;stroke-dasharray:2,2;" width="21.8926" x="127.0449" y="134"/><text fill="#000000" font-family="sans-serif" font-size="12" font-style="italic" lengthAdjust="spacing" textLength="19.8926" x="128.0449" y="146.1387">K,V</text><line style="stroke:#181818;stroke-width:0.5;" x1="61.5" x2="144.9375" y1="169" y2="169"/><line style="stroke:#181818;stroke-width:0.5;" x1="61.5" x2="144.9375" y1="177" y2="177"/></g><!--class HashMap--><g class="entity" data-qualified-name="HashMap" data-source-line="2" id="ent0003"><rect fill="#F1F1F1" height="48" rx="2.5" ry="2.5" style="stroke:#181818;stroke-width:0.5;" width="192.1719" x="7" y="249"/><ellipse cx="22" cy="265" fill="#ADD1B2" rx="11" ry="11" style="stroke:#181818;stroke-width:1;"/><path d="M24.9688,270.6406 Q24.3906,270.9375 23.75,271.0781 Q23.1094,271.2344 22.4063,271.2344 Q19.9063,271.2344 18.5781,269.5938 Q17.2656,267.9375 17.2656,264.8125 Q17.2656,261.6875 18.5781,260.0313 Q19.9063,258.375 22.4063,258.375 Q23.1094,258.375 23.75,258.5313 Q24.4063,258.6875 24.9688,258.9844 L24.9688,261.7031 Q24.3438,261.125 23.75,260.8594 Q23.1563,260.5781 22.5313,260.5781 Q21.1875,260.5781 20.5,261.6563 Q19.8125,262.7188 19.8125,264.8125 Q19.8125,266.9063 20.5,267.9844 Q21.1875,269.0469 22.5313,269.0469 Q23.1563,269.0469 23.75,268.7813 Q24.3438,268.5 24.9688,267.9219 L24.9688,270.6406 Z " fill="#000000"/><text fill="#000000" font-family="sans-serif" font-size="14" lengthAdjust="spacing" textLength="64.8184" x="36" y="269.8467">HashMap</text><rect fill="#FFFFFF" height="15.9688" style="stroke:#181818;stroke-width:1;stroke-dasharray:2,2;" width="93.3535" x="108.8184" y="246"/><text fill="#000000" font-family="sans-serif" font-size="12" font-style="italic" lengthAdjust="spacing" textLength="91.3535" x="109.8184" y="258.1387">Long,Customer</text><line style="stroke:#181818;stroke-width:0.5;" x1="8" x2="198.1719" y1="281" y2="281"/><line style="stroke:#181818;stroke-width:0.5;" x1="8" x2="198.1719" y1="289" y2="289"/></g><!--class Shop--><g class="entity" data-qualified-name="Shop" data-source-line="5" id="ent0005"><rect fill="#F1F1F1" height="48" rx="2.5" ry="2.5" style="stroke:#181818;stroke-width:0.5;" width="159.0202" x="272" y="7"/><ellipse cx="329.6542" cy="23" fill="#ADD1B2" rx="11" ry="11" style="stroke:#181818;stroke-width:1;"/><path d="M332.6229,28.6406 Q332.0448,28.9375 331.4042,29.0781 Q330.7635,29.2344 330.0604,29.2344 Q327.5604,29.2344 326.2323,27.5938 Q324.9198,25.9375 324.9198,22.8125 Q324.9198,19.6875 326.2323,18.0313 Q327.5604,16.375 330.0604,16.375 Q330.7635,16.375 331.4042,16.5313 Q332.0604,16.6875 332.6229,16.9844 L332.6229,19.7031 Q331.9979,19.125 331.4042,18.8594 Q330.8104,18.5781 330.1854,18.5781 Q328.8417,18.5781 328.1542,19.6563 Q327.4667,20.7188 327.4667,22.8125 Q327.4667,24.9063 328.1542,25.9844 Q328.8417,27.0469 330.1854,27.0469 Q330.8104,27.0469 331.4042,26.7813 Q331.9979,26.5 332.6229,25.9219 L332.6229,28.6406 Z " fill="#000000"/><text fill="#000000" font-family="sans-serif" font-size="14" lengthAdjust="spacing" textLength="35.2119" x="350.1542" y="27.8467">Shop</text><line style="stroke:#181818;stroke-width:0.5;" x1="273" x2="430.0202" y1="39" y2="39"/><line style="stroke:#181818;stroke-width:0.5;" x1="273" x2="430.0202" y1="47" y2="47"/></g><!--class Customer--><g class="entity" data-qualified-name="Customer" data-source-line="5" id="ent0006"><rect fill="#F1F1F1" height="48" rx="2.5" ry="2.5" style="stroke:#181818;stroke-width:0.5;" width="100.0039" x="302" y="249"/><ellipse cx="317" cy="265" fill="#ADD1B2" rx="11" ry="11" style="stroke:#181818;stroke-width:1;"/><path d="M319.9688,270.6406 Q319.3906,270.9375 318.75,271.0781 Q318.1094,271.2344 317.4063,271.2344 Q314.9063,271.2344 313.5781,269.5938 Q312.2656,267.9375 312.2656,264.8125 Q312.2656,261.6875 313.5781,260.0313 Q314.9063,258.375 317.4063,258.375 Q318.1094,258.375 318.75,258.5313 Q319.4063,258.6875 319.9688,258.9844 L319.9688,261.7031 Q319.3438,261.125 318.75,260.8594 Q318.1563,260.5781 317.5313,260.5781 Q316.1875,260.5781 315.5,261.6563 Q314.8125,262.7188 314.8125,264.8125 Q314.8125,266.9063 315.5,267.9844 Q316.1875,269.0469 317.5313,269.0469 Q318.1563,269.0469 318.75,268.7813 Q319.3438,268.5 319.9688,267.9219 L319.9688,270.6406 Z " fill="#000000"/><text fill="#000000" font-family="sans-serif" font-size="14" lengthAdjust="spacing" textLength="68.0039" x="331" y="269.8467">Customer</text><line style="stroke:#181818;stroke-width:0.5;" x1="303" x2="401.0039" y1="281" y2="281"/><line style="stroke:#181818;stroke-width:0.5;" x1="303" x2="401.0039" y1="289" y2="289"/></g><!--reverse link Map to HashMap--><g class="link" data-entity-1="ent0002" data-entity-2="ent0003" data-link-type="extension" data-source-line="4" id="lnk4"><path codeLine="4" d="M103,203.06 C103,221.83 103,230.21 103,248.97" fill="none" id="Map-backto-HashMap" style="stroke:#181818;stroke-width:1;stroke-dasharray:7,7;"/><polygon fill="none" points="103,185.06,97,203.06,109,203.06,103,185.06" style="stroke:#181818;stroke-width:1;"/></g><!--link Shop to Customer--><g class="link" data-entity-1="ent0005" data-entity-2="ent0006" data-link-type="dependency" data-source-line="5" id="lnk7"><path codeLine="5" d="M352,55.01 C352,100.77 352,196.72 352,242.7" fill="none" id="Shop-to-Customer" style="stroke:#181818;stroke-width:1;"/><polygon fill="#181818" points="352,248.7,356,239.7,352,243.7,348,239.7,352,248.7" style="stroke:#181818;stroke-width:1;"/><text fill="#000000" font-family="sans-serif" font-size="13" lengthAdjust="spacing" textLength="61.2168" x="284.7313" y="222.6887">customer</text><text fill="#000000" font-family="sans-serif" font-size="13" lengthAdjust="spacing" textLength="8.271" x="311.2042" y="237.8215">1</text><rect fill="#F1F1F1" height="18.2969" style="stroke:#181818;stroke-width:0.5;" width="122.3232" x="290.8384" y="55.01"/><text fill="#000000" font-family="sans-serif" font-size="14" lengthAdjust="spacing" textLength="118.3232" x="292.8384" y="69.0051">customerId: long</text></g><!--link HashMap to Customer--><g class="link" data-entity-1="ent0003" data-entity-2="ent0006" data-link-type="dependency" data-source-line="6" id="lnk8"><path codeLine="6" d="M199.14,285.45 C234.21,286.21 266.5054,285.9601 295.8654,283.8501" fill="none" id="HashMap-to-Customer" style="stroke:#181818;stroke-width:1;"/><polygon fill="#181818" points="301.85,283.42,292.5864,280.0754,296.8629,283.7784,293.1599,288.0548,301.85,283.42" style="stroke:#181818;stroke-width:1;"/><text fill="#000000" font-family="sans-serif" font-size="13" lengthAdjust="spacing" textLength="35.5088" x="258.6359" y="280.8509">value</text><rect fill="#F1F1F1" height="18.2969" style="stroke:#181818;stroke-width:0.5;" width="60.0684" x="199.14" y="276.3016"/><text fill="#000000" font-family="sans-serif" font-size="14" lengthAdjust="spacing" textLength="56.0684" x="201.14" y="290.2967">id: Long</text></g><?plantuml-src oymhIIrAIqnELV1DBB3nrWcpuqhEIImkLl18BCu02VdavwNhE9SMb-JdfXRPSN41nHHiQlJqO0guWZFo2nIYaw4gF5Ei57A0Mc8LT7LrxHIKOE8nUOPA2Z1ZkA1w5Q8pWSfz8CgBGChB4dDAKn4A0G00?></g></svg>