<svg xmlns="http://www.w3.org/2000/svg" xmlns:xlink="http://www.w3.org/1999/xlink" contentStyleType="text/css" data-diagram-type="SEQUENCE" height="295px" preserveAspectRatio="none" style="width:383px;height:295px;background:#FFFFFF;" version="1.1" viewBox="0 0 383 295" width="383px" zoomAndPan="magnify"><?plantuml 1.2026.3beta5?><defs/><g><g><title>Random Name</title><rect fill="#000000" fill-opacity="0.00000" height="242.9688" width="8" x="65.5112" y="41.2969"/><line style="stroke:#181818;stroke-width:0.5;stroke-dasharray:5,5;" x1="69.0112" x2="69.0112" y1="41.2969" y2="284.2656"/></g><g><title>bossrpcp</title><rect fill="#000000" fill-opacity="0.00000" height="242.9688" width="8" x="173.1558" y="41.2969"/><line style="stroke:#181818;stroke-width:0.5;stroke-dasharray:5,5;" x1="176.6558" x2="176.6558" y1="41.2969" y2="284.2656"/></g><rect fill="#E2E2F0" height="30.2969" rx="2.5" ry="2.5" style="stroke:#181818;stroke-width:0.5;" width="118.0225" x="10" y="10"/><text fill="#000000" font-family="sans-serif" font-size="14" lengthAdjust="spacing" textLength="104.0225" x="17" y="29.9951">Random Name</text><rect fill="#E2E2F0" height="30.2969" rx="2.5" ry="2.5" style="stroke:#181818;stroke-width:0.5;" width="77.2666" x="138.0225" y="10"/><text fill="#000000" font-family="sans-serif" font-size="14" lengthAdjust="spacing" textLength="63.2666" x="145.0225" y="29.9951">bossrpcp</text><line style="stroke:#181818;stroke-width:1;" x1="69.0112" x2="111.0112" y1="70.4297" y2="70.4297"/><line style="stroke:#181818;stroke-width:1;" x1="111.0112" x2="111.0112" y1="70.4297" y2="83.4297"/><line style="stroke:#181818;stroke-width:1;" x1="70.0112" x2="111.0112" y1="83.4297" y2="83.4297"/><polygon fill="#181818" points="80.0112,79.4297,70.0112,83.4297,80.0112,87.4297,76.0112,83.4297" style="stroke:#181818;stroke-width:1;"/><text fill="#000000" font-family="sans-serif" font-size="13" lengthAdjust="spacing" textLength="24.9653" x="76.0112" y="65.3638">test</text><path d="M141.6558,72.9297 L211.1069,72.9297 L211.1069,80.0625 L201.1069,90.0625 L141.6558,90.0625 L141.6558,72.9297" fill="#EEEEEE" style="stroke:#000000;stroke-width:1.5;"/><rect fill="none" height="187.3359" style="stroke:#000000;stroke-width:1.5;" width="222.2515" x="141.6558" y="72.9297"/><text fill="#000000" font-family="sans-serif" font-size="13" font-weight="700" lengthAdjust="spacing" textLength="24.4512" x="156.6558" y="85.9966">opt</text><text fill="#000000" font-family="sans-serif" font-size="11" font-weight="700" lengthAdjust="spacing" textLength="121.8003" x="226.1069" y="85.1401">[message received]</text><path d="M160.6558,104.0625 L225.0986,104.0625 L225.0986,111.1953 L215.0986,121.1953 L160.6558,121.1953 L160.6558,104.0625" fill="#EEEEEE" style="stroke:#000000;stroke-width:1.5;"/><rect fill="none" height="142.2031" style="stroke:#000000;stroke-width:1.5;" width="162.7051" x="160.6558" y="104.0625"/><text fill="#000000" font-family="sans-serif" font-size="13" font-weight="700" lengthAdjust="spacing" textLength="19.4429" x="175.6558" y="117.1294">alt</text><text fill="#000000" font-family="sans-serif" font-size="11" font-weight="700" lengthAdjust="spacing" textLength="67.2622" x="240.0986" y="116.2729">[REQUEST]</text><line style="stroke:#000000;stroke-width:1;stroke-dasharray:2,2;" x1="160.6558" x2="323.3608" y1="184.3281" y2="184.3281"/><text fill="#000000" font-family="sans-serif" font-size="11" font-weight="700" lengthAdjust="spacing" textLength="76.0171" x="165.6558" y="196.5386">[RESPONSE]</text><line style="stroke:#181818;stroke-width:1;" x1="176.6558" x2="218.6558" y1="152.3281" y2="152.3281"/><line style="stroke:#181818;stroke-width:1;" x1="218.6558" x2="218.6558" y1="152.3281" y2="165.3281"/><line style="stroke:#181818;stroke-width:1;" x1="177.6558" x2="218.6558" y1="165.3281" y2="165.3281"/><polygon fill="#181818" points="187.6558,161.3281,177.6558,165.3281,187.6558,169.3281,183.6558,165.3281" style="stroke:#181818;stroke-width:1;"/><text fill="#000000" font-family="sans-serif" font-size="13" lengthAdjust="spacing" textLength="49.7021" x="183.6558" y="147.2622">request</text><line style="stroke:#181818;stroke-width:1;" x1="176.6558" x2="218.6558" y1="225.2656" y2="225.2656"/><line style="stroke:#181818;stroke-width:1;" x1="218.6558" x2="218.6558" y1="225.2656" y2="238.2656"/><line style="stroke:#181818;stroke-width:1;" x1="177.6558" x2="218.6558" y1="238.2656" y2="238.2656"/><polygon fill="#181818" points="187.6558,234.2656,177.6558,238.2656,187.6558,242.2656,183.6558,238.2656" style="stroke:#181818;stroke-width:1;"/><text fill="#000000" font-family="sans-serif" font-size="13" lengthAdjust="spacing" textLength="52.8125" x="183.6558" y="220.1997">respond</text><?plantuml-src XOqn3i8m34Ltdy9qOEC27TYo5cZX06vhIgIc3h6B4ASd0OcLBrd-N_BxtiH4Ko0qbXTQMXaWKZ8_-4YBOTNICah0XW9NI8fN4O2R7xauw-K9a0tkzYLZdNlK0BOeqJ2mAasCYGVs3nu1isWsRDtfuhhp9nVrefhY44lDpzUPkw-bhfpmh9ovxdXeElSVr2ZBzn_dNUOD?></g></svg>