<svg xmlns="http://www.w3.org/2000/svg" xmlns:xlink="http://www.w3.org/1999/xlink" contentStyleType="text/css" data-diagram-type="SEQUENCE" height="237px" preserveAspectRatio="none" style="width:343px;height:237px;background:#FFFFFF;" version="1.1" viewBox="0 0 343 237" width="343px" zoomAndPan="magnify"><?plantuml 1.2026.3beta5?><defs/><g><g><title>Random Name</title><rect fill="#000000" fill-opacity="0.00000" height="184.8359" width="8" x="65.5112" y="41.2969"/><line style="stroke:#181818;stroke-width:0.5;stroke-dasharray:5,5;" x1="69.0112" x2="69.0112" y1="41.2969" y2="226.1328"/></g><g><title>bossrpcp</title><rect fill="#000000" fill-opacity="0.00000" height="184.8359" width="8" x="173.1558" y="41.2969"/><line style="stroke:#181818;stroke-width:0.5;stroke-dasharray:5,5;" x1="176.6558" x2="176.6558" y1="41.2969" y2="226.1328"/></g><g><title>B</title><rect fill="#000000" fill-opacity="0.00000" height="184.8359" width="8" x="246.8579" y="41.2969"/><line style="stroke:#181818;stroke-width:0.5;stroke-dasharray:5,5;" x1="250.3579" x2="250.3579" y1="41.2969" y2="226.1328"/></g><rect fill="#E2E2F0" height="30.2969" rx="2.5" ry="2.5" style="stroke:#181818;stroke-width:0.5;" width="118.0225" x="10" y="10"/><text fill="#000000" font-family="sans-serif" font-size="14" lengthAdjust="spacing" textLength="104.0225" x="17" y="29.9951">Random Name</text><rect fill="#E2E2F0" height="30.2969" rx="2.5" ry="2.5" style="stroke:#181818;stroke-width:0.5;" width="77.2666" x="138.0225" y="10"/><text fill="#000000" font-family="sans-serif" font-size="14" lengthAdjust="spacing" textLength="63.2666" x="145.0225" y="29.9951">bossrpcp</text><rect fill="#E2E2F0" height="30.2969" rx="2.5" ry="2.5" style="stroke:#181818;stroke-width:0.5;" width="23.6045" x="238.5557" y="10"/><text fill="#000000" font-family="sans-serif" font-size="14" lengthAdjust="spacing" textLength="9.6045" x="245.5557" y="29.9951">B</text><path d="M160.6558,76.9297 L225.0986,76.9297 L225.0986,84.0625 L215.0986,94.0625 L160.6558,94.0625 L160.6558,76.9297" fill="#EEEEEE" style="stroke:#000000;stroke-width:1.5;"/><rect fill="none" height="129.2031" style="stroke:#000000;stroke-width:1.5;" width="162.7051" x="160.6558" y="76.9297"/><text fill="#000000" font-family="sans-serif" font-size="13" font-weight="700" lengthAdjust="spacing" textLength="19.4429" x="175.6558" y="89.9966">alt</text><text fill="#000000" font-family="sans-serif" font-size="11" font-weight="700" lengthAdjust="spacing" textLength="67.2622" x="240.0986" y="89.1401">[REQUEST]</text><line style="stroke:#000000;stroke-width:1;stroke-dasharray:2,2;" x1="160.6558" x2="323.3608" y1="144.1953" y2="144.1953"/><text fill="#000000" font-family="sans-serif" font-size="11" font-weight="700" lengthAdjust="spacing" textLength="76.0171" x="165.6558" y="156.4058">[RESPONSE]</text><polygon fill="#181818" points="238.3579,121.1953,248.3579,125.1953,238.3579,129.1953,242.3579,125.1953" style="stroke:#181818;stroke-width:1;"/><line style="stroke:#181818;stroke-width:1;" x1="176.6558" x2="244.3579" y1="125.1953" y2="125.1953"/><text fill="#000000" font-family="sans-serif" font-size="13" lengthAdjust="spacing" textLength="49.7021" x="183.6558" y="120.1294">request</text><line style="stroke:#181818;stroke-width:1;" x1="176.6558" x2="218.6558" y1="185.1328" y2="185.1328"/><line style="stroke:#181818;stroke-width:1;" x1="218.6558" x2="218.6558" y1="185.1328" y2="198.1328"/><line style="stroke:#181818;stroke-width:1;" x1="177.6558" x2="218.6558" y1="198.1328" y2="198.1328"/><polygon fill="#181818" points="187.6558,194.1328,177.6558,198.1328,187.6558,202.1328,183.6558,198.1328" style="stroke:#181818;stroke-width:1;"/><text fill="#000000" font-family="sans-serif" font-size="13" lengthAdjust="spacing" textLength="52.8125" x="183.6558" y="180.0669">respond</text><line style="stroke:#181818;stroke-width:1;" x1="69.0112" x2="111.0112" y1="74.4297" y2="74.4297"/><line style="stroke:#181818;stroke-width:1;" x1="111.0112" x2="111.0112" y1="74.4297" y2="87.4297"/><line style="stroke:#181818;stroke-width:1;" x1="70.0112" x2="111.0112" y1="87.4297" y2="87.4297"/><polygon fill="#181818" points="80.0112,83.4297,70.0112,87.4297,80.0112,91.4297,76.0112,87.4297" style="stroke:#181818;stroke-width:1;"/><text fill="#000000" font-family="sans-serif" font-size="13" lengthAdjust="spacing" textLength="24.9653" x="76.0112" y="69.3638">test</text><?plantuml-src TOz1JyCm38Nl_XNUaDRJ9CuSa0Qg49S2A_m0DpLTj2OEZeiGlvvaI804l4Fq7ETxJrabfIaG6iixcYuCqApim87HgMqf3ApGvAEFYPG23kIEayeInskPHV7i_2I0iZRlVA9ekDvJ72LWHu7NI1cVHG0EVkJgR92tqb8SRY_h1LwK-cpGR10b6GREcIP6PSV-bKV08feDz-t3Kzi_dkQgGNBMv5B9kIeXoYzBpQahdZENz_tzNTUtVm7Vle8vIHoX-I9tDxlRxdF-7_hHLk5wRF3tjpu0?></g></svg>