<?plantuml 1.2026.2?><svg xmlns="http://www.w3.org/2000/svg" xmlns:xlink="http://www.w3.org/1999/xlink" contentStyleType="text/css" data-diagram-type="BPM" height="149px" preserveAspectRatio="none" style="width:540px;height:149px;background:#FFFFFF;" version="1.1" viewBox="0 0 540 149" width="540px" zoomAndPan="magnify"><defs/><g><line style="stroke:#000000;stroke-width:1;" x1="10" x2="528.8574" y1="10" y2="10"/><line style="stroke:#000000;stroke-width:1;" x1="10" x2="528.8574" y1="73.9688" y2="73.9688"/><line style="stroke:#000000;stroke-width:1;" x1="10" x2="10" y1="10" y2="137.9375"/><line style="stroke:#000000;stroke-width:1;" x1="60" x2="60" y1="10" y2="137.9375"/><line style="stroke:#000000;stroke-width:1;" x1="149.9082" x2="149.9082" y1="10" y2="137.9375"/><line style="stroke:#000000;stroke-width:1;" x1="203.9082" x2="203.9082" y1="10" y2="137.9375"/><line style="stroke:#000000;stroke-width:1;" x1="293.9863" x2="293.9863" y1="10" y2="137.9375"/><line style="stroke:#000000;stroke-width:1;" x1="383.918" x2="383.918" y1="10" y2="137.9375"/><line style="stroke:#000000;stroke-width:1;" x1="437.918" x2="437.918" y1="10" y2="137.9375"/><ellipse cx="35" cy="41.9844" fill="#F1F1F1" rx="10" ry="10" style="stroke:#181818;stroke-width:0.5;"/><line style="stroke:#FF0000;stroke-width:1;" x1="45" x2="55" y1="41.9844" y2="41.9844"/><rect fill="#F1F1F1" height="33.9688" rx="12.5" ry="12.5" style="stroke:#181818;stroke-width:0.5;" width="59.9082" x="75" y="25"/><text fill="#000000" font-family="sans-serif" font-size="12" lengthAdjust="spacing" textLength="39.9082" x="85" y="46.1387">Task A</text><line style="stroke:#FF0000;stroke-width:1;" x1="134.9082" x2="144.9082" y1="41.9844" y2="41.9844"/><line style="stroke:#FF0000;stroke-width:1;" x1="65" x2="75" y1="41.9844" y2="41.9844"/><polygon fill="#FEFECE" points="176.9082,29.9844,188.9082,41.9844,176.9082,53.9844,164.9082,41.9844,176.9082,29.9844" style="stroke:#A80036;stroke-width:0.5;"/><line style="stroke:#FF0000;stroke-width:1;" x1="188.9082" x2="198.9082" y1="41.9844" y2="41.9844"/><line style="stroke:#FF0000;stroke-width:1;" x1="176.9082" x2="176.9082" y1="53.9844" y2="63.9844"/><line style="stroke:#FF0000;stroke-width:1;" x1="154.9082" x2="164.9082" y1="41.9844" y2="41.9844"/><line style="stroke:#0000FF;stroke-width:1;" x1="248.9473" x2="258.9473" y1="41.9844" y2="41.9844"/><line style="stroke:#0000FF;stroke-width:1;" x1="238.9473" x2="248.9473" y1="41.9844" y2="41.9844"/><rect fill="#F1F1F1" height="33.9688" rx="12.5" ry="12.5" style="stroke:#181818;stroke-width:0.5;" width="59.9316" x="308.9863" y="25"/><text fill="#000000" font-family="sans-serif" font-size="12" lengthAdjust="spacing" textLength="39.9316" x="318.9863" y="46.1387">Task B</text><line style="stroke:#FF0000;stroke-width:1;" x1="368.918" x2="378.918" y1="41.9844" y2="41.9844"/><line style="stroke:#FF0000;stroke-width:1;" x1="298.9863" x2="308.9863" y1="41.9844" y2="41.9844"/><polygon fill="#FEFECE" points="410.918,29.9844,422.918,41.9844,410.918,53.9844,398.918,41.9844,410.918,29.9844" style="stroke:#A80036;stroke-width:0.5;"/><line style="stroke:#FF0000;stroke-width:1;" x1="422.918" x2="432.918" y1="41.9844" y2="41.9844"/><line style="stroke:#FF0000;stroke-width:1;" x1="410.918" x2="410.918" y1="53.9844" y2="63.9844"/><line style="stroke:#FF0000;stroke-width:1;" x1="388.918" x2="398.918" y1="41.9844" y2="41.9844"/><rect fill="#F1F1F1" height="33.9688" rx="12.5" ry="12.5" style="stroke:#181818;stroke-width:0.5;" width="60.9395" x="452.918" y="25"/><text fill="#000000" font-family="sans-serif" font-size="12" lengthAdjust="spacing" textLength="40.9395" x="462.918" y="46.1387">Task D</text><line style="stroke:#FF0000;stroke-width:1;" x1="442.918" x2="452.918" y1="41.9844" y2="41.9844"/><line style="stroke:#0000FF;stroke-width:1;" x1="176.9082" x2="176.9082" y1="95.9531" y2="105.9531"/><line style="stroke:#0000FF;stroke-width:1;" x1="176.9082" x2="186.9082" y1="105.9531" y2="105.9531"/><rect fill="#F1F1F1" height="33.9688" rx="12.5" ry="12.5" style="stroke:#181818;stroke-width:0.5;" width="60.0781" x="218.9082" y="88.9688"/><text fill="#000000" font-family="sans-serif" font-size="12" lengthAdjust="spacing" textLength="40.0781" x="228.9082" y="110.1074">Task C</text><line style="stroke:#FF0000;stroke-width:1;" x1="278.9863" x2="288.9863" y1="105.9531" y2="105.9531"/><line style="stroke:#FF0000;stroke-width:1;" x1="208.9082" x2="218.9082" y1="105.9531" y2="105.9531"/><line style="stroke:#0000FF;stroke-width:1;" x1="338.9521" x2="348.9521" y1="105.9531" y2="105.9531"/><line style="stroke:#0000FF;stroke-width:1;" x1="328.9521" x2="338.9521" y1="105.9531" y2="105.9531"/><line style="stroke:#0000FF;stroke-width:1;" x1="410.918" x2="410.918" y1="95.9531" y2="105.9531"/><line style="stroke:#0000FF;stroke-width:1;" x1="400.918" x2="410.918" y1="105.9531" y2="105.9531"/><?plantuml-src SoWkIImgIIh8vR8AIIpELd2qvifBBLT8AahCIyw0YZbPSwNc5AT2USv0NbuAgWeNQou7e23862v3FIC38pCz8m00?></g></svg>