<svg id="ref-ext-fixtures-cypress-er-53" width="100%" xmlns="http://www.w3.org/2000/svg" class="erDiagram" style="max-width: 16px;" viewBox="-8 -8 16 32.296875" role="graphics-document document" aria-roledescription="er"><style>#ref-ext-fixtures-cypress-er-53{font-family:"trebuchet ms",verdana,arial,sans-serif;font-size:16px;fill:#333;}@keyframes edge-animation-frame{from{stroke-dashoffset:0;}}@keyframes dash{to{stroke-dashoffset:0;}}#ref-ext-fixtures-cypress-er-53 .edge-animation-slow{stroke-dasharray:9,5!important;stroke-dashoffset:900;animation:dash 50s linear infinite;stroke-linecap:round;}#ref-ext-fixtures-cypress-er-53 .edge-animation-fast{stroke-dasharray:9,5!important;stroke-dashoffset:900;animation:dash 20s linear infinite;stroke-linecap:round;}#ref-ext-fixtures-cypress-er-53 .error-icon{fill:#552222;}#ref-ext-fixtures-cypress-er-53 .error-text{fill:#552222;stroke:#552222;}#ref-ext-fixtures-cypress-er-53 .edge-thickness-normal{stroke-width:1px;}#ref-ext-fixtures-cypress-er-53 .edge-thickness-thick{stroke-width:3.5px;}#ref-ext-fixtures-cypress-er-53 .edge-pattern-solid{stroke-dasharray:0;}#ref-ext-fixtures-cypress-er-53 .edge-thickness-invisible{stroke-width:0;fill:none;}#ref-ext-fixtures-cypress-er-53 .edge-pattern-dashed{stroke-dasharray:3;}#ref-ext-fixtures-cypress-er-53 .edge-pattern-dotted{stroke-dasharray:2;}#ref-ext-fixtures-cypress-er-53 .marker{fill:#333333;stroke:#333333;}#ref-ext-fixtures-cypress-er-53 .marker.cross{stroke:#333333;}#ref-ext-fixtures-cypress-er-53 svg{font-family:"trebuchet ms",verdana,arial,sans-serif;font-size:16px;}#ref-ext-fixtures-cypress-er-53 p{margin:0;}#ref-ext-fixtures-cypress-er-53 .entityBox{fill:#ECECFF;stroke:#9370DB;}#ref-ext-fixtures-cypress-er-53 .relationshipLabelBox{fill:hsl(80, 100%, 96.2745098039%);opacity:0.7;background-color:hsl(80, 100%, 96.2745098039%);}#ref-ext-fixtures-cypress-er-53 .relationshipLabelBox rect{opacity:0.5;}#ref-ext-fixtures-cypress-er-53 .labelBkg{background-color:rgba(248.6666666666, 255, 235.9999999999, 0.5);}#ref-ext-fixtures-cypress-er-53 .edgeLabel{background-color:rgba(232,232,232, 0.8);}#ref-ext-fixtures-cypress-er-53 .edgeLabel .label rect{fill:rgba(232,232,232, 0.8);}#ref-ext-fixtures-cypress-er-53 .edgeLabel .label text{fill:#333;}#ref-ext-fixtures-cypress-er-53 .edgeLabel .label{fill:#9370DB;font-size:14px;}#ref-ext-fixtures-cypress-er-53 .label{font-family:"trebuchet ms",verdana,arial,sans-serif;color:#333;}#ref-ext-fixtures-cypress-er-53 .edge-pattern-dashed{stroke-dasharray:8,8;}#ref-ext-fixtures-cypress-er-53 .node rect,#ref-ext-fixtures-cypress-er-53 .node circle,#ref-ext-fixtures-cypress-er-53 .node ellipse,#ref-ext-fixtures-cypress-er-53 .node polygon{fill:#ECECFF;stroke:#9370DB;stroke-width:1px;}#ref-ext-fixtures-cypress-er-53 .relationshipLine{stroke:#333333;stroke-width:1px;fill:none;}#ref-ext-fixtures-cypress-er-53 .marker{fill:none!important;stroke:#333333!important;stroke-width:1;}#ref-ext-fixtures-cypress-er-53 [data-look=neo].labelBkg{background-color:rgba(248.6666666666, 255, 235.9999999999, 0.5);}#ref-ext-fixtures-cypress-er-53 .node .neo-node{stroke:#9370DB;}#ref-ext-fixtures-cypress-er-53 [data-look="neo"].node rect,#ref-ext-fixtures-cypress-er-53 [data-look="neo"].cluster rect,#ref-ext-fixtures-cypress-er-53 [data-look="neo"].node polygon{stroke:#9370DB;filter:drop-shadow(1px 2px 2px rgba(185, 185, 185, 1));}#ref-ext-fixtures-cypress-er-53 [data-look="neo"].node path{stroke:#9370DB;stroke-width:1px;}#ref-ext-fixtures-cypress-er-53 [data-look="neo"].node .outer-path{filter:drop-shadow(1px 2px 2px rgba(185, 185, 185, 1));}#ref-ext-fixtures-cypress-er-53 [data-look="neo"].node .neo-line path{stroke:#9370DB;filter:none;}#ref-ext-fixtures-cypress-er-53 [data-look="neo"].node circle{stroke:#9370DB;filter:drop-shadow(1px 2px 2px rgba(185, 185, 185, 1));}#ref-ext-fixtures-cypress-er-53 [data-look="neo"].node circle .state-start{fill:#000000;}#ref-ext-fixtures-cypress-er-53 [data-look="neo"].icon-shape .icon{fill:#9370DB;filter:drop-shadow(1px 2px 2px rgba(185, 185, 185, 1));}#ref-ext-fixtures-cypress-er-53 [data-look="neo"].icon-shape .icon-neo path{stroke:#9370DB;filter:drop-shadow(1px 2px 2px rgba(185, 185, 185, 1));}#ref-ext-fixtures-cypress-er-53 :root{--mermaid-font-family:"trebuchet ms",verdana,arial,sans-serif;}</style><g><defs><marker id="ref-ext-fixtures-cypress-er-53_er-onlyOneStart" class="marker onlyOne er" refX="0" refY="9" markerWidth="18" markerHeight="18" orient="auto"><path d="M9,0 L9,18 M15,0 L15,18"></path></marker></defs><defs><marker id="ref-ext-fixtures-cypress-er-53_er-onlyOneEnd" class="marker onlyOne er" refX="18" refY="9" markerWidth="18" markerHeight="18" orient="auto"><path d="M3,0 L3,18 M9,0 L9,18"></path></marker></defs><defs><marker id="ref-ext-fixtures-cypress-er-53_er-zeroOrOneStart" class="marker zeroOrOne er" refX="0" refY="9" markerWidth="30" markerHeight="18" orient="auto"><circle fill="white" cx="21" cy="9" r="6"></circle><path d="M9,0 L9,18"></path></marker></defs><defs><marker id="ref-ext-fixtures-cypress-er-53_er-zeroOrOneEnd" class="marker zeroOrOne er" refX="30" refY="9" markerWidth="30" markerHeight="18" orient="auto"><circle fill="white" cx="9" cy="9" r="6"></circle><path d="M21,0 L21,18"></path></marker></defs><defs><marker id="ref-ext-fixtures-cypress-er-53_er-oneOrMoreStart" class="marker oneOrMore er" refX="18" refY="18" markerWidth="45" markerHeight="36" orient="auto"><path d="M0,18 Q 18,0 36,18 Q 18,36 0,18 M42,9 L42,27"></path></marker></defs><defs><marker id="ref-ext-fixtures-cypress-er-53_er-oneOrMoreEnd" class="marker oneOrMore er" refX="27" refY="18" markerWidth="45" markerHeight="36" orient="auto"><path d="M3,9 L3,27 M9,18 Q27,0 45,18 Q27,36 9,18"></path></marker></defs><defs><marker id="ref-ext-fixtures-cypress-er-53_er-zeroOrMoreStart" class="marker zeroOrMore er" refX="18" refY="18" markerWidth="57" markerHeight="36" orient="auto"><circle fill="white" cx="48" cy="18" r="6"></circle><path d="M0,18 Q18,0 36,18 Q18,36 0,18"></path></marker></defs><defs><marker id="ref-ext-fixtures-cypress-er-53_er-zeroOrMoreEnd" class="marker zeroOrMore er" refX="39" refY="18" markerWidth="57" markerHeight="36" orient="auto"><circle fill="white" cx="9" cy="18" r="6"></circle><path d="M21,18 Q39,0 57,18 Q39,36 21,18"></path></marker></defs><g class="root"><g class="clusters"></g><g class="edgePaths"></g><g class="edgeLabels"></g><g class="nodes"><g class="node default " id="ref-ext-fixtures-cypress-er-53-entity-BOOK-0" data-look="classic" transform="translate(8, 16.1484375)"><g class="outer-path" style=""><path d="M-25 -37.5 L25 -37.5 L25 37.5 L-25 37.5" stroke="none" stroke-width="0" fill="#ECECFF"></path><path d="M-25 -37.5 C-8.302731661825959 -37.5, 8.394536676348082 -37.5, 25 -37.5 M-25 -37.5 C-6.120609560725786 -37.5, 12.758780878548428 -37.5, 25 -37.5 M25 -37.5 C25 -16.549856801106817, 25 4.400286397786367, 25 37.5 M25 -37.5 C25 -14.460113948427121, 25 8.579772103145757, 25 37.5 M25 37.5 C7.069652964084273 37.5, -10.860694071831453 37.5, -25 37.5 M25 37.5 C11.545026078904794 37.5, -1.9099478421904124 37.5, -25 37.5 M-25 37.5 C-25 10.322762358380466, -25 -16.85447528323907, -25 -37.5 M-25 37.5 C-25 8.949038024405361, -25 -19.601923951189278, -25 -37.5" stroke="#9370DB" stroke-width="1.3" fill="none" stroke-dasharray="0 0"></path></g><g style="" class="row-rect-odd"><path d="M-25 -18.75 L25 -18.75 L25 0 L-25 0" stroke="none" stroke-width="0" fill="hsl(240, 100%, 100%)"></path><path d="M-25 -18.75 C-5.190023128792067 -18.75, 14.619953742415866 -18.75, 25 -18.75 M-25 -18.75 C-10.693003186904004 -18.75, 3.6139936261919914 -18.75, 25 -18.75 M25 -18.75 C25 -11.51003097539883, 25 -4.270061950797661, 25 0 M25 -18.75 C25 -12.83876718844731, 25 -6.927534376894622, 25 0 M25 0 C5.345846472804126 0, -14.308307054391747 0, -25 0 M25 0 C13.89682559199079 0, 2.7936511839815807 0, -25 0 M-25 0 C-25 -5.896639182385315, -25 -11.79327836477063, -25 -18.75 M-25 0 C-25 -4.303479433146535, -25 -8.60695886629307, -25 -18.75" stroke="#9370DB" stroke-width="1.3" fill="none" stroke-dasharray="0 0"></path></g><g style="" class="row-rect-even"><path d="M-25 0 L25 0 L25 18.75 L-25 18.75" stroke="none" stroke-width="0" fill="hsl(240, 100%, 97.2745098039%)"></path><path d="M-25 0 C-13.02931235837559 0, -1.0586247167511793 0, 25 0 M-25 0 C-9.962802986278607 0, 5.074394027442786 0, 25 0 M25 0 C25 6.650899626313407, 25 13.301799252626815, 25 18.75 M25 0 C25 4.251650373202906, 25 8.503300746405811, 25 18.75 M25 18.75 C12.825107200904515 18.75, 0.6502144018090306 18.75, -25 18.75 M25 18.75 C6.207348566672206 18.75, -12.585302866655589 18.75, -25 18.75 M-25 18.75 C-25 14.364790837950606, -25 9.979581675901212, -25 0 M-25 18.75 C-25 12.650922534104819, -25 6.551845068209635, -25 0" stroke="#9370DB" stroke-width="1.3" fill="none" stroke-dasharray="0 0"></path></g><g style="" class="row-rect-odd"><path d="M-25 18.75 L25 18.75 L25 37.5 L-25 37.5" stroke="none" stroke-width="0" fill="hsl(240, 100%, 100%)"></path><path d="M-25 18.75 C-10.751966154166437 18.75, 3.4960676916671254 18.75, 25 18.75 M-25 18.75 C-8.952557982345567 18.75, 7.094884035308866 18.75, 25 18.75 M25 18.75 C25 25.745083895199716, 25 32.74016779039943, 25 37.5 M25 18.75 C25 25.712599363691062, 25 32.675198727382124, 25 37.5 M25 37.5 C6.323868065492508 37.5, -12.352263869014983 37.5, -25 37.5 M25 37.5 C7.590475015668659 37.5, -9.819049968662682 37.5, -25 37.5 M-25 37.5 C-25 33.73231001505174, -25 29.96462003010348, -25 18.75 M-25 37.5 C-25 30.921081678650943, -25 24.34216335730188, -25 18.75" stroke="#9370DB" stroke-width="1.3" fill="none" stroke-dasharray="0 0"></path></g><g class="label name" transform="translate(0, -28.125)" style=""><foreignObject width="0" height="0"><div style="display: table-cell; white-space: nowrap; line-height: 1.5; max-width: 147px; text-align: start;" xmlns="http://www.w3.org/1999/xhtml"><span class="nodeLabel "><p>BOOK</p></span></div></foreignObject></g><g class="label attribute-type" transform="translate(-12.5, -9.375)" style=""><foreignObject width="0" height="0"><div style="display: table-cell; white-space: nowrap; line-height: 1.5; max-width: 146px; text-align: start;" xmlns="http://www.w3.org/1999/xhtml"><span class="nodeLabel "><p>string</p></span></div></foreignObject></g><g class="label attribute-name" transform="translate(12.5, -9.375)" style=""><foreignObject width="0" height="0"><div style="display: table-cell; white-space: nowrap; line-height: 1.5; max-width: 131px; text-align: start;" xmlns="http://www.w3.org/1999/xhtml"><span class="nodeLabel "><p>title</p></span></div></foreignObject></g><g class="label attribute-keys" transform="translate(37.5, -9.375)" style=""><foreignObject width="0" height="0"><div style="display: table-cell; white-space: nowrap; line-height: 1.5; max-width: 100px; text-align: start;" xmlns="http://www.w3.org/1999/xhtml"><span class="nodeLabel "></span></div></foreignObject></g><g class="label attribute-comment" transform="translate(37.5, -9.375)" style=""><foreignObject width="0" height="0"><div style="display: table-cell; white-space: nowrap; line-height: 1.5; max-width: 100px; text-align: start;" xmlns="http://www.w3.org/1999/xhtml"><span class="nodeLabel "></span></div></foreignObject></g><g class="label attribute-type" transform="translate(-12.5, 9.375)" style=""><foreignObject width="0" height="0"><div style="display: table-cell; white-space: nowrap; line-height: 1.5; max-width: 158px; text-align: start;" xmlns="http://www.w3.org/1999/xhtml"><span class="nodeLabel "><p>string[]</p></span></div></foreignObject></g><g class="label attribute-name" transform="translate(12.5, 9.375)" style=""><foreignObject width="0" height="0"><div style="display: table-cell; white-space: nowrap; line-height: 1.5; max-width: 161px; text-align: start;" xmlns="http://www.w3.org/1999/xhtml"><span class="nodeLabel "><p>authors</p></span></div></foreignObject></g><g class="label attribute-keys" transform="translate(37.5, 9.375)" style=""><foreignObject width="0" height="0"><div style="display: table-cell; white-space: nowrap; line-height: 1.5; max-width: 100px; text-align: start;" xmlns="http://www.w3.org/1999/xhtml"><span class="nodeLabel "></span></div></foreignObject></g><g class="label attribute-comment" transform="translate(37.5, 9.375)" style=""><foreignObject width="0" height="0"><div style="display: table-cell; white-space: nowrap; line-height: 1.5; max-width: 100px; text-align: start;" xmlns="http://www.w3.org/1999/xhtml"><span class="nodeLabel "></span></div></foreignObject></g><g class="label attribute-type" transform="translate(-12.5, 28.125)" style=""><foreignObject width="0" height="0"><div style="display: table-cell; white-space: nowrap; line-height: 1.5; max-width: 208px; text-align: start;" xmlns="http://www.w3.org/1999/xhtml">type&lt;T&gt;</div></foreignObject></g><g class="label attribute-name" transform="translate(12.5, 28.125)" style=""><foreignObject width="0" height="0"><div style="display: table-cell; white-space: nowrap; line-height: 1.5; max-width: 136px; text-align: start;" xmlns="http://www.w3.org/1999/xhtml"><span class="nodeLabel "><p>type</p></span></div></foreignObject></g><g class="label attribute-keys" transform="translate(37.5, 28.125)" style=""><foreignObject width="0" height="0"><div style="display: table-cell; white-space: nowrap; line-height: 1.5; max-width: 100px; text-align: start;" xmlns="http://www.w3.org/1999/xhtml"><span class="nodeLabel "></span></div></foreignObject></g><g class="label attribute-comment" transform="translate(37.5, 28.125)" style=""><foreignObject width="0" height="0"><div style="display: table-cell; white-space: nowrap; line-height: 1.5; max-width: 100px; text-align: start;" xmlns="http://www.w3.org/1999/xhtml"><span class="nodeLabel "></span></div></foreignObject></g><g class="divider"><path d="M-25 -18.75005 L-25 -18.74995 L25 -18.74995 L25 -18.75005" stroke="none" stroke-width="0" fill="#ECECFF" fill-rule="evenodd"></path><path d="M-25 -18.75005 C-25 -18.75001785584883, -25 -18.74998571169766, -25 -18.74995 M-25 -18.75005 C-25 -18.750026328856215, -25 -18.750002657712432, -25 -18.74995 M-25 -18.74995 C-12.938343486813743 -18.74995, -0.8766869736274856 -18.74995, 25 -18.74995 M-25 -18.74995 C-11.533481202834015 -18.74995, 1.9330375943319709 -18.74995, 25 -18.74995 M25 -18.74995 C25 -18.74998125622064, 25 -18.750012512441277, 25 -18.75005 M25 -18.74995 C25 -18.74997131053342, 25 -18.749992621066845, 25 -18.75005 M25 -18.75005 C14.94219783676098 -18.75005, 4.884395673521961 -18.75005, -25 -18.75005 M25 -18.75005 C9.655587365251645 -18.75005, -5.688825269496711 -18.75005, -25 -18.75005" stroke="#9370DB" stroke-width="1.3" fill="none" stroke-dasharray="0 0"></path></g><g class="divider"><path d="M-0.00005 -18.75 L0.00005 -18.75 L0.00005 37.5 L-0.00005 37.5" stroke="none" stroke-width="0" fill="#ECECFF" fill-rule="evenodd"></path><path d="M-0.00005 -18.75 C-0.000026456621298632505 -18.75, -0.0000029132425972650075 -18.75, 0.00005 -18.75 M-0.00005 -18.75 C-0.00002436702696800379 -18.75, 0.000001265946063992421 -18.75, 0.00005 -18.75 M0.00005 -18.75 C0.00005 0.09745134400158406, 0.00005 18.944902688003168, 0.00005 37.5 M0.00005 -18.75 C0.00005 -3.9773635071310345, 0.00005 10.795272985737931, 0.00005 37.5 M0.00005 37.5 C0.00001291053602121294 37.5, -0.000024178927957574122 37.5, -0.00005 37.5 M0.00005 37.5 C0.00001695911186804608 37.5, -0.00001608177626390784 37.5, -0.00005 37.5 M-0.00005 37.5 C-0.00005 17.7950539886874, -0.00005 -1.9098920226252005, -0.00005 -18.75 M-0.00005 37.5 C-0.00005 23.58572726386342, -0.00005 9.67145452772684, -0.00005 -18.75" stroke="#9370DB" stroke-width="1.3" fill="none" stroke-dasharray="0 0"></path></g><g class="divider"><path d="M-25 -18.75005 L-25 -18.74995 L25 -18.74995 L25 -18.75005" stroke="none" stroke-width="0" fill="#ECECFF" fill-rule="evenodd"></path><path d="M-25 -18.75005 C-25 -18.75002157651573, -25 -18.74999315303146, -25 -18.74995 M-25 -18.75005 C-25 -18.75001667553362, -25 -18.749983351067236, -25 -18.74995 M-25 -18.74995 C-10.917172268128924 -18.74995, 3.1656554637421515 -18.74995, 25 -18.74995 M-25 -18.74995 C-11.874707354335474 -18.74995, 1.2505852913290525 -18.74995, 25 -18.74995 M25 -18.74995 C25 -18.749984052433266, 25 -18.750018104866538, 25 -18.75005 M25 -18.74995 C25 -18.749983360956467, 25 -18.750016721912935, 25 -18.75005 M25 -18.75005 C6.4937236704958 -18.75005, -12.0125526590084 -18.75005, -25 -18.75005 M25 -18.75005 C14.30789250209329 -18.75005, 3.6157850041865807 -18.75005, -25 -18.75005" stroke="#9370DB" stroke-width="1.3" fill="none" stroke-dasharray="0 0"></path></g></g></g></g></g><defs><filter id="ref-ext-fixtures-cypress-er-53-drop-shadow" height="130%" width="130%"><feDropShadow dx="4" dy="4" stdDeviation="0" flood-opacity="0.06" flood-color="#000000"></feDropShadow></filter></defs><defs><filter id="ref-ext-fixtures-cypress-er-53-drop-shadow-small" height="150%" width="150%"><feDropShadow dx="2" dy="2" stdDeviation="0" flood-opacity="0.06" flood-color="#000000"></feDropShadow></filter></defs></svg>