<svg id="ref-ext-fixtures-demos-er-07" width="100%" xmlns="http://www.w3.org/2000/svg" class="erDiagram" style="max-width: 16px;" viewBox="-8 -8 16 32.296875" role="graphics-document document" aria-roledescription="er"><style>#ref-ext-fixtures-demos-er-07{font-family:"trebuchet ms",verdana,arial,sans-serif;font-size:16px;fill:#333;}@keyframes edge-animation-frame{from{stroke-dashoffset:0;}}@keyframes dash{to{stroke-dashoffset:0;}}#ref-ext-fixtures-demos-er-07 .edge-animation-slow{stroke-dasharray:9,5!important;stroke-dashoffset:900;animation:dash 50s linear infinite;stroke-linecap:round;}#ref-ext-fixtures-demos-er-07 .edge-animation-fast{stroke-dasharray:9,5!important;stroke-dashoffset:900;animation:dash 20s linear infinite;stroke-linecap:round;}#ref-ext-fixtures-demos-er-07 .error-icon{fill:#552222;}#ref-ext-fixtures-demos-er-07 .error-text{fill:#552222;stroke:#552222;}#ref-ext-fixtures-demos-er-07 .edge-thickness-normal{stroke-width:1px;}#ref-ext-fixtures-demos-er-07 .edge-thickness-thick{stroke-width:3.5px;}#ref-ext-fixtures-demos-er-07 .edge-pattern-solid{stroke-dasharray:0;}#ref-ext-fixtures-demos-er-07 .edge-thickness-invisible{stroke-width:0;fill:none;}#ref-ext-fixtures-demos-er-07 .edge-pattern-dashed{stroke-dasharray:3;}#ref-ext-fixtures-demos-er-07 .edge-pattern-dotted{stroke-dasharray:2;}#ref-ext-fixtures-demos-er-07 .marker{fill:#333333;stroke:#333333;}#ref-ext-fixtures-demos-er-07 .marker.cross{stroke:#333333;}#ref-ext-fixtures-demos-er-07 svg{font-family:"trebuchet ms",verdana,arial,sans-serif;font-size:16px;}#ref-ext-fixtures-demos-er-07 p{margin:0;}#ref-ext-fixtures-demos-er-07 .entityBox{fill:#ECECFF;stroke:#9370DB;}#ref-ext-fixtures-demos-er-07 .relationshipLabelBox{fill:hsl(80, 100%, 96.2745098039%);opacity:0.7;background-color:hsl(80, 100%, 96.2745098039%);}#ref-ext-fixtures-demos-er-07 .relationshipLabelBox rect{opacity:0.5;}#ref-ext-fixtures-demos-er-07 .labelBkg{background-color:rgba(248.6666666666, 255, 235.9999999999, 0.5);}#ref-ext-fixtures-demos-er-07 .edgeLabel{background-color:rgba(232,232,232, 0.8);}#ref-ext-fixtures-demos-er-07 .edgeLabel .label rect{fill:rgba(232,232,232, 0.8);}#ref-ext-fixtures-demos-er-07 .edgeLabel .label text{fill:#333;}#ref-ext-fixtures-demos-er-07 .edgeLabel .label{fill:#9370DB;font-size:14px;}#ref-ext-fixtures-demos-er-07 .label{font-family:"trebuchet ms",verdana,arial,sans-serif;color:#333;}#ref-ext-fixtures-demos-er-07 .edge-pattern-dashed{stroke-dasharray:8,8;}#ref-ext-fixtures-demos-er-07 .node rect,#ref-ext-fixtures-demos-er-07 .node circle,#ref-ext-fixtures-demos-er-07 .node ellipse,#ref-ext-fixtures-demos-er-07 .node polygon{fill:#ECECFF;stroke:#9370DB;stroke-width:1px;}#ref-ext-fixtures-demos-er-07 .relationshipLine{stroke:#333333;stroke-width:1px;fill:none;}#ref-ext-fixtures-demos-er-07 .marker{fill:none!important;stroke:#333333!important;stroke-width:1;}#ref-ext-fixtures-demos-er-07 [data-look=neo].labelBkg{background-color:rgba(248.6666666666, 255, 235.9999999999, 0.5);}#ref-ext-fixtures-demos-er-07 .node .neo-node{stroke:#9370DB;}#ref-ext-fixtures-demos-er-07 [data-look="neo"].node rect,#ref-ext-fixtures-demos-er-07 [data-look="neo"].cluster rect,#ref-ext-fixtures-demos-er-07 [data-look="neo"].node polygon{stroke:#9370DB;filter:drop-shadow(1px 2px 2px rgba(185, 185, 185, 1));}#ref-ext-fixtures-demos-er-07 [data-look="neo"].node path{stroke:#9370DB;stroke-width:1px;}#ref-ext-fixtures-demos-er-07 [data-look="neo"].node .outer-path{filter:drop-shadow(1px 2px 2px rgba(185, 185, 185, 1));}#ref-ext-fixtures-demos-er-07 [data-look="neo"].node .neo-line path{stroke:#9370DB;filter:none;}#ref-ext-fixtures-demos-er-07 [data-look="neo"].node circle{stroke:#9370DB;filter:drop-shadow(1px 2px 2px rgba(185, 185, 185, 1));}#ref-ext-fixtures-demos-er-07 [data-look="neo"].node circle .state-start{fill:#000000;}#ref-ext-fixtures-demos-er-07 [data-look="neo"].icon-shape .icon{fill:#9370DB;filter:drop-shadow(1px 2px 2px rgba(185, 185, 185, 1));}#ref-ext-fixtures-demos-er-07 [data-look="neo"].icon-shape .icon-neo path{stroke:#9370DB;filter:drop-shadow(1px 2px 2px rgba(185, 185, 185, 1));}#ref-ext-fixtures-demos-er-07 :root{--mermaid-font-family:"trebuchet ms",verdana,arial,sans-serif;}</style><g><defs><marker id="ref-ext-fixtures-demos-er-07_er-onlyOneStart" class="marker onlyOne er" refX="0" refY="9" markerWidth="18" markerHeight="18" orient="auto"><path d="M9,0 L9,18 M15,0 L15,18"></path></marker></defs><defs><marker id="ref-ext-fixtures-demos-er-07_er-onlyOneEnd" class="marker onlyOne er" refX="18" refY="9" markerWidth="18" markerHeight="18" orient="auto"><path d="M3,0 L3,18 M9,0 L9,18"></path></marker></defs><defs><marker id="ref-ext-fixtures-demos-er-07_er-zeroOrOneStart" class="marker zeroOrOne er" refX="0" refY="9" markerWidth="30" markerHeight="18" orient="auto"><circle fill="white" cx="21" cy="9" r="6"></circle><path d="M9,0 L9,18"></path></marker></defs><defs><marker id="ref-ext-fixtures-demos-er-07_er-zeroOrOneEnd" class="marker zeroOrOne er" refX="30" refY="9" markerWidth="30" markerHeight="18" orient="auto"><circle fill="white" cx="9" cy="9" r="6"></circle><path d="M21,0 L21,18"></path></marker></defs><defs><marker id="ref-ext-fixtures-demos-er-07_er-oneOrMoreStart" class="marker oneOrMore er" refX="18" refY="18" markerWidth="45" markerHeight="36" orient="auto"><path d="M0,18 Q 18,0 36,18 Q 18,36 0,18 M42,9 L42,27"></path></marker></defs><defs><marker id="ref-ext-fixtures-demos-er-07_er-oneOrMoreEnd" class="marker oneOrMore er" refX="27" refY="18" markerWidth="45" markerHeight="36" orient="auto"><path d="M3,9 L3,27 M9,18 Q27,0 45,18 Q27,36 9,18"></path></marker></defs><defs><marker id="ref-ext-fixtures-demos-er-07_er-zeroOrMoreStart" class="marker zeroOrMore er" refX="18" refY="18" markerWidth="57" markerHeight="36" orient="auto"><circle fill="white" cx="48" cy="18" r="6"></circle><path d="M0,18 Q18,0 36,18 Q18,36 0,18"></path></marker></defs><defs><marker id="ref-ext-fixtures-demos-er-07_er-zeroOrMoreEnd" class="marker zeroOrMore er" refX="39" refY="18" markerWidth="57" markerHeight="36" orient="auto"><circle fill="white" cx="9" cy="18" r="6"></circle><path d="M21,18 Q39,0 57,18 Q39,36 21,18"></path></marker></defs><g class="root"><g class="clusters"></g><g class="edgePaths"></g><g class="edgeLabels"></g><g class="nodes"><g class="node default " id="ref-ext-fixtures-demos-er-07-entity-_customer_order-0" data-look="classic" transform="translate(8, 16.1484375)"><g class="outer-path" style=""><path d="M-25 -84.375 L25 -84.375 L25 84.375 L-25 84.375" stroke="none" stroke-width="0" fill="#ECECFF"></path><path d="M-25 -84.375 C-14.618061149713052 -84.375, -4.236122299426103 -84.375, 25 -84.375 M-25 -84.375 C-5.763172405246507 -84.375, 13.473655189506985 -84.375, 25 -84.375 M25 -84.375 C25 -42.84629394371422, 25 -1.317587887428445, 25 84.375 M25 -84.375 C25 -22.499260752878477, 25 39.376478494243045, 25 84.375 M25 84.375 C5.442071638857765 84.375, -14.11585672228447 84.375, -25 84.375 M25 84.375 C7.732580514384143 84.375, -9.534838971231714 84.375, -25 84.375 M-25 84.375 C-25 33.68324108508871, -25 -17.00851782982258, -25 -84.375 M-25 84.375 C-25 38.23006281118825, -25 -7.914874377623505, -25 -84.375" stroke="#9370DB" stroke-width="1.3" fill="none" stroke-dasharray="0 0"></path></g><g style="" class="row-rect-odd"><path d="M-25 -65.625 L25 -65.625 L25 -46.875 L-25 -46.875" stroke="none" stroke-width="0" fill="hsl(240, 100%, 100%)"></path><path d="M-25 -65.625 C-10.465128834827587 -65.625, 4.069742330344827 -65.625, 25 -65.625 M-25 -65.625 C-6.7062593115066775 -65.625, 11.587481376986645 -65.625, 25 -65.625 M25 -65.625 C25 -59.97642776614768, 25 -54.32785553229537, 25 -46.875 M25 -65.625 C25 -60.78924510140557, 25 -55.95349020281114, 25 -46.875 M25 -46.875 C11.675473383155055 -46.875, -1.6490532336898909 -46.875, -25 -46.875 M25 -46.875 C6.855186206598411 -46.875, -11.289627586803178 -46.875, -25 -46.875 M-25 -46.875 C-25 -52.145689912432935, -25 -57.41637982486587, -25 -65.625 M-25 -46.875 C-25 -52.22326904909411, -25 -57.57153809818822, -25 -65.625" stroke="#9370DB" stroke-width="1.3" fill="none" stroke-dasharray="0 0"></path></g><g style="" class="row-rect-even"><path d="M-25 -46.875 L25 -46.875 L25 -28.125 L-25 -28.125" stroke="none" stroke-width="0" fill="hsl(240, 100%, 97.2745098039%)"></path><path d="M-25 -46.875 C-11.919611219306736 -46.875, 1.1607775613865279 -46.875, 25 -46.875 M-25 -46.875 C-12.87654904090565 -46.875, -0.7530980818112987 -46.875, 25 -46.875 M25 -46.875 C25 -42.15611661535976, 25 -37.43723323071951, 25 -28.125 M25 -46.875 C25 -40.13268772671438, 25 -33.39037545342875, 25 -28.125 M25 -28.125 C5.877904413386368 -28.125, -13.244191173227264 -28.125, -25 -28.125 M25 -28.125 C10.312476189295705 -28.125, -4.375047621408591 -28.125, -25 -28.125 M-25 -28.125 C-25 -32.92741430807928, -25 -37.72982861615856, -25 -46.875 M-25 -28.125 C-25 -33.50504922738299, -25 -38.88509845476598, -25 -46.875" stroke="#9370DB" stroke-width="1.3" fill="none" stroke-dasharray="0 0"></path></g><g style="" class="row-rect-odd"><path d="M-25 -28.125 L25 -28.125 L25 -9.375 L-25 -9.375" stroke="none" stroke-width="0" fill="hsl(240, 100%, 100%)"></path><path d="M-25 -28.125 C-8.60566663355813 -28.125, 7.7886667328837405 -28.125, 25 -28.125 M-25 -28.125 C-5.3337894713535015 -28.125, 14.332421057292997 -28.125, 25 -28.125 M25 -28.125 C25 -22.26391056001427, 25 -16.40282112002854, 25 -9.375 M25 -28.125 C25 -21.558687591946246, 25 -14.992375183892495, 25 -9.375 M25 -9.375 C6.357341749121755 -9.375, -12.28531650175649 -9.375, -25 -9.375 M25 -9.375 C13.085251992296307 -9.375, 1.1705039845926137 -9.375, -25 -9.375 M-25 -9.375 C-25 -14.393514320336978, -25 -19.412028640673956, -25 -28.125 M-25 -9.375 C-25 -13.650972485662056, -25 -17.92694497132411, -25 -28.125" stroke="#9370DB" stroke-width="1.3" fill="none" stroke-dasharray="0 0"></path></g><g style="" class="row-rect-even"><path d="M-25 -9.375 L25 -9.375 L25 9.375 L-25 9.375" stroke="none" stroke-width="0" fill="hsl(240, 100%, 97.2745098039%)"></path><path d="M-25 -9.375 C-11.282648991988777 -9.375, 2.4347020160224453 -9.375, 25 -9.375 M-25 -9.375 C-13.345930174101419 -9.375, -1.6918603482028374 -9.375, 25 -9.375 M25 -9.375 C25 -3.6642821516056765, 25 2.046435696788647, 25 9.375 M25 -9.375 C25 -4.270916202201795, 25 0.8331675955964108, 25 9.375 M25 9.375 C10.189412414011118 9.375, -4.6211751719777645 9.375, -25 9.375 M25 9.375 C14.75217141288106 9.375, 4.504342825762119 9.375, -25 9.375 M-25 9.375 C-25 4.741203426572551, -25 0.10740685314510223, -25 -9.375 M-25 9.375 C-25 5.473184435051965, -25 1.57136887010393, -25 -9.375" stroke="#9370DB" stroke-width="1.3" fill="none" stroke-dasharray="0 0"></path></g><g style="" class="row-rect-odd"><path d="M-25 9.375 L25 9.375 L25 28.125 L-25 28.125" stroke="none" stroke-width="0" fill="hsl(240, 100%, 100%)"></path><path d="M-25 9.375 C-11.730254882732188 9.375, 1.5394902345356236 9.375, 25 9.375 M-25 9.375 C-10.323619372099039 9.375, 4.352761255801923 9.375, 25 9.375 M25 9.375 C25 14.204114978974582, 25 19.033229957949164, 25 28.125 M25 9.375 C25 13.783332148305547, 25 18.191664296611094, 25 28.125 M25 28.125 C6.501893336718894 28.125, -11.996213326562213 28.125, -25 28.125 M25 28.125 C5.152471752459697 28.125, -14.695056495080607 28.125, -25 28.125 M-25 28.125 C-25 21.23372365924835, -25 14.342447318496705, -25 9.375 M-25 28.125 C-25 24.053550761165535, -25 19.98210152233107, -25 9.375" stroke="#9370DB" stroke-width="1.3" fill="none" stroke-dasharray="0 0"></path></g><g style="" class="row-rect-even"><path d="M-25 28.125 L25 28.125 L25 46.875 L-25 46.875" stroke="none" stroke-width="0" fill="hsl(240, 100%, 97.2745098039%)"></path><path d="M-25 28.125 C-7.7182720629822015 28.125, 9.563455874035597 28.125, 25 28.125 M-25 28.125 C-13.190407184721469 28.125, -1.3808143694429376 28.125, 25 28.125 M25 28.125 C25 32.599072313162935, 25 37.07314462632587, 25 46.875 M25 28.125 C25 34.41090245970834, 25 40.69680491941668, 25 46.875 M25 46.875 C10.401384569348057 46.875, -4.197230861303886 46.875, -25 46.875 M25 46.875 C8.74461863878938 46.875, -7.510762722421241 46.875, -25 46.875 M-25 46.875 C-25 39.80816576840502, -25 32.741331536810044, -25 28.125 M-25 46.875 C-25 41.14403134633208, -25 35.413062692664155, -25 28.125" stroke="#9370DB" stroke-width="1.3" fill="none" stroke-dasharray="0 0"></path></g><g style="" class="row-rect-odd"><path d="M-25 46.875 L25 46.875 L25 65.625 L-25 65.625" stroke="none" stroke-width="0" fill="hsl(240, 100%, 100%)"></path><path d="M-25 46.875 C-13.502411276507805 46.875, -2.004822553015611 46.875, 25 46.875 M-25 46.875 C-8.445884658617565 46.875, 8.10823068276487 46.875, 25 46.875 M25 46.875 C25 51.214633020085444, 25 55.55426604017089, 25 65.625 M25 46.875 C25 52.30706382818738, 25 57.73912765637476, 25 65.625 M25 65.625 C7.624294981057954 65.625, -9.751410037884092 65.625, -25 65.625 M25 65.625 C11.789036836344296 65.625, -1.4219263273114073 65.625, -25 65.625 M-25 65.625 C-25 59.699127085889714, -25 53.77325417177942, -25 46.875 M-25 65.625 C-25 58.72047791524939, -25 51.81595583049878, -25 46.875" stroke="#9370DB" stroke-width="1.3" fill="none" stroke-dasharray="0 0"></path></g><g style="" class="row-rect-even"><path d="M-25 65.625 L25 65.625 L25 84.375 L-25 84.375" stroke="none" stroke-width="0" fill="hsl(240, 100%, 97.2745098039%)"></path><path d="M-25 65.625 C-7.0780886520376605 65.625, 10.843822695924679 65.625, 25 65.625 M-25 65.625 C-11.18701389086435 65.625, 2.6259722182713006 65.625, 25 65.625 M25 65.625 C25 71.68888440389644, 25 77.75276880779286, 25 84.375 M25 65.625 C25 69.71248482851091, 25 73.7999696570218, 25 84.375 M25 84.375 C10.42395677086428 84.375, -4.152086458271441 84.375, -25 84.375 M25 84.375 C5.855965428627112 84.375, -13.288069142745776 84.375, -25 84.375 M-25 84.375 C-25 80.34595717154966, -25 76.31691434309933, -25 65.625 M-25 84.375 C-25 78.82115660787699, -25 73.26731321575396, -25 65.625" stroke="#9370DB" stroke-width="1.3" fill="none" stroke-dasharray="0 0"></path></g><g class="label name" transform="translate(0, -75)" style=""><foreignObject width="0" height="0"><div style="display: table-cell; white-space: nowrap; line-height: 1.5; max-width: 234px; text-align: start;" xmlns="http://www.w3.org/1999/xhtml"><span class="nodeLabel "><p>_customer_order</p></span></div></foreignObject></g><g class="label attribute-type" transform="translate(-12.5, -56.25)" style=""><foreignObject width="0" height="0"><div style="display: table-cell; white-space: nowrap; line-height: 1.5; max-width: 146px; text-align: start;" xmlns="http://www.w3.org/1999/xhtml"><span class="nodeLabel "><p>bigint</p></span></div></foreignObject></g><g class="label attribute-name" transform="translate(12.5, -56.25)" style=""><foreignObject width="0" height="0"><div style="display: table-cell; white-space: nowrap; line-height: 1.5; max-width: 115px; text-align: start;" xmlns="http://www.w3.org/1999/xhtml"><span class="nodeLabel "><p>id</p></span></div></foreignObject></g><g class="label attribute-keys" transform="translate(37.5, -56.25)" style=""><foreignObject width="0" height="0"><div style="display: table-cell; white-space: nowrap; line-height: 1.5; max-width: 120px; text-align: start;" xmlns="http://www.w3.org/1999/xhtml"><span class="nodeLabel "><p>PK</p></span></div></foreignObject></g><g class="label attribute-comment" transform="translate(37.5, -56.25)" style=""><foreignObject width="0" height="0"><div style="display: table-cell; white-space: nowrap; line-height: 1.5; max-width: 100px; text-align: start;" xmlns="http://www.w3.org/1999/xhtml"><span class="nodeLabel "></span></div></foreignObject></g><g class="label attribute-type" transform="translate(-12.5, -37.5)" style=""><foreignObject width="0" height="0"><div style="display: table-cell; white-space: nowrap; line-height: 1.5; max-width: 146px; text-align: start;" xmlns="http://www.w3.org/1999/xhtml"><span class="nodeLabel "><p>bigint</p></span></div></foreignObject></g><g class="label attribute-name" transform="translate(12.5, -37.5)" style=""><foreignObject width="0" height="0"><div style="display: table-cell; white-space: nowrap; line-height: 1.5; max-width: 198px; text-align: start;" xmlns="http://www.w3.org/1999/xhtml"><span class="nodeLabel "><p>customer_id</p></span></div></foreignObject></g><g class="label attribute-keys" transform="translate(37.5, -37.5)" style=""><foreignObject width="0" height="0"><div style="display: table-cell; white-space: nowrap; line-height: 1.5; max-width: 120px; text-align: start;" xmlns="http://www.w3.org/1999/xhtml"><span class="nodeLabel "><p>FK</p></span></div></foreignObject></g><g class="label attribute-comment" transform="translate(37.5, -37.5)" style=""><foreignObject width="0" height="0"><div style="display: table-cell; white-space: nowrap; line-height: 1.5; max-width: 100px; text-align: start;" xmlns="http://www.w3.org/1999/xhtml"><span class="nodeLabel "></span></div></foreignObject></g><g class="label attribute-type" transform="translate(-12.5, -18.75)" style=""><foreignObject width="0" height="0"><div style="display: table-cell; white-space: nowrap; line-height: 1.5; max-width: 132px; text-align: start;" xmlns="http://www.w3.org/1999/xhtml"><span class="nodeLabel "><p>text</p></span></div></foreignObject></g><g class="label attribute-name" transform="translate(12.5, -18.75)" style=""><foreignObject width="0" height="0"><div style="display: table-cell; white-space: nowrap; line-height: 1.5; max-width: 239px; text-align: start;" xmlns="http://www.w3.org/1999/xhtml"><span class="nodeLabel "><p>shipping_address</p></span></div></foreignObject></g><g class="label attribute-keys" transform="translate(37.5, -18.75)" style=""><foreignObject width="0" height="0"><div style="display: table-cell; white-space: nowrap; line-height: 1.5; max-width: 100px; text-align: start;" xmlns="http://www.w3.org/1999/xhtml"><span class="nodeLabel "></span></div></foreignObject></g><g class="label attribute-comment" transform="translate(37.5, -18.75)" style=""><foreignObject width="0" height="0"><div style="display: table-cell; white-space: nowrap; line-height: 1.5; max-width: 100px; text-align: start;" xmlns="http://www.w3.org/1999/xhtml"><span class="nodeLabel "></span></div></foreignObject></g><g class="label attribute-type" transform="translate(-12.5, 0)" style=""><foreignObject width="0" height="0"><div style="display: table-cell; white-space: nowrap; line-height: 1.5; max-width: 132px; text-align: start;" xmlns="http://www.w3.org/1999/xhtml"><span class="nodeLabel "><p>text</p></span></div></foreignObject></g><g class="label attribute-name" transform="translate(12.5, 0)" style=""><foreignObject width="0" height="0"><div style="display: table-cell; white-space: nowrap; line-height: 1.5; max-width: 234px; text-align: start;" xmlns="http://www.w3.org/1999/xhtml"><span class="nodeLabel "><p>delivery_method</p></span></div></foreignObject></g><g class="label attribute-keys" transform="translate(37.5, 0)" style=""><foreignObject width="0" height="0"><div style="display: table-cell; white-space: nowrap; line-height: 1.5; max-width: 100px; text-align: start;" xmlns="http://www.w3.org/1999/xhtml"><span class="nodeLabel "></span></div></foreignObject></g><g class="label attribute-comment" transform="translate(37.5, 0)" style=""><foreignObject width="0" height="0"><div style="display: table-cell; white-space: nowrap; line-height: 1.5; max-width: 100px; text-align: start;" xmlns="http://www.w3.org/1999/xhtml"><span class="nodeLabel "></span></div></foreignObject></g><g class="label attribute-type" transform="translate(-12.5, 18.75)" style=""><foreignObject width="0" height="0"><div style="display: table-cell; white-space: nowrap; line-height: 1.5; max-width: 319px; text-align: start;" xmlns="http://www.w3.org/1999/xhtml"><span class="nodeLabel "><p>timestamp_with_time_zone</p></span></div></foreignObject></g><g class="label attribute-name" transform="translate(12.5, 18.75)" style=""><foreignObject width="0" height="0"><div style="display: table-cell; white-space: nowrap; line-height: 1.5; max-width: 187px; text-align: start;" xmlns="http://www.w3.org/1999/xhtml"><span class="nodeLabel "><p>ordered_at</p></span></div></foreignObject></g><g class="label attribute-keys" transform="translate(37.5, 18.75)" style=""><foreignObject width="0" height="0"><div style="display: table-cell; white-space: nowrap; line-height: 1.5; max-width: 100px; text-align: start;" xmlns="http://www.w3.org/1999/xhtml"><span class="nodeLabel "></span></div></foreignObject></g><g class="label attribute-comment" transform="translate(37.5, 18.75)" style=""><foreignObject width="0" height="0"><div style="display: table-cell; white-space: nowrap; line-height: 1.5; max-width: 100px; text-align: start;" xmlns="http://www.w3.org/1999/xhtml"><span class="nodeLabel "></span></div></foreignObject></g><g class="label attribute-type" transform="translate(-12.5, 37.5)" style=""><foreignObject width="0" height="0"><div style="display: table-cell; white-space: nowrap; line-height: 1.5; max-width: 166px; text-align: start;" xmlns="http://www.w3.org/1999/xhtml"><span class="nodeLabel "><p>numeric</p></span></div></foreignObject></g><g class="label attribute-name" transform="translate(12.5, 37.5)" style=""><foreignObject width="0" height="0"><div style="display: table-cell; white-space: nowrap; line-height: 1.5; max-width: 240px; text-align: start;" xmlns="http://www.w3.org/1999/xhtml"><span class="nodeLabel "><p>total_tax_amount</p></span></div></foreignObject></g><g class="label attribute-keys" transform="translate(37.5, 37.5)" style=""><foreignObject width="0" height="0"><div style="display: table-cell; white-space: nowrap; line-height: 1.5; max-width: 100px; text-align: start;" xmlns="http://www.w3.org/1999/xhtml"><span class="nodeLabel "></span></div></foreignObject></g><g class="label attribute-comment" transform="translate(37.5, 37.5)" style=""><foreignObject width="0" height="0"><div style="display: table-cell; white-space: nowrap; line-height: 1.5; max-width: 100px; text-align: start;" xmlns="http://www.w3.org/1999/xhtml"><span class="nodeLabel "></span></div></foreignObject></g><g class="label attribute-type" transform="translate(-12.5, 56.25)" style=""><foreignObject width="0" height="0"><div style="display: table-cell; white-space: nowrap; line-height: 1.5; max-width: 166px; text-align: start;" xmlns="http://www.w3.org/1999/xhtml"><span class="nodeLabel "><p>numeric</p></span></div></foreignObject></g><g class="label attribute-name" transform="translate(12.5, 56.25)" style=""><foreignObject width="0" height="0"><div style="display: table-cell; white-space: nowrap; line-height: 1.5; max-width: 184px; text-align: start;" xmlns="http://www.w3.org/1999/xhtml"><span class="nodeLabel "><p>total_price</p></span></div></foreignObject></g><g class="label attribute-keys" transform="translate(37.5, 56.25)" style=""><foreignObject width="0" height="0"><div style="display: table-cell; white-space: nowrap; line-height: 1.5; max-width: 100px; text-align: start;" xmlns="http://www.w3.org/1999/xhtml"><span class="nodeLabel "></span></div></foreignObject></g><g class="label attribute-comment" transform="translate(37.5, 56.25)" style=""><foreignObject width="0" height="0"><div style="display: table-cell; white-space: nowrap; line-height: 1.5; max-width: 100px; text-align: start;" xmlns="http://www.w3.org/1999/xhtml"><span class="nodeLabel "></span></div></foreignObject></g><g class="label attribute-type" transform="translate(-12.5, 75)" style=""><foreignObject width="0" height="0"><div style="display: table-cell; white-space: nowrap; line-height: 1.5; max-width: 132px; text-align: start;" xmlns="http://www.w3.org/1999/xhtml"><span class="nodeLabel "><p>text</p></span></div></foreignObject></g><g class="label attribute-name" transform="translate(12.5, 75)" style=""><foreignObject width="0" height="0"><div style="display: table-cell; white-space: nowrap; line-height: 1.5; max-width: 241px; text-align: start;" xmlns="http://www.w3.org/1999/xhtml"><span class="nodeLabel "><p>payment_method</p></span></div></foreignObject></g><g class="label attribute-keys" transform="translate(37.5, 75)" style=""><foreignObject width="0" height="0"><div style="display: table-cell; white-space: nowrap; line-height: 1.5; max-width: 100px; text-align: start;" xmlns="http://www.w3.org/1999/xhtml"><span class="nodeLabel "></span></div></foreignObject></g><g class="label attribute-comment" transform="translate(37.5, 75)" style=""><foreignObject width="0" height="0"><div style="display: table-cell; white-space: nowrap; line-height: 1.5; max-width: 100px; text-align: start;" xmlns="http://www.w3.org/1999/xhtml"><span class="nodeLabel "></span></div></foreignObject></g><g class="divider"><path d="M-25 -65.62505 L-25 -65.62495 L25 -65.62495 L25 -65.62505" stroke="none" stroke-width="0" fill="#ECECFF" fill-rule="evenodd"></path><path d="M-25 -65.62505 C-25 -65.62501729234828, -25 -65.62498458469655, -25 -65.62495 M-25 -65.62505 C-25 -65.62502421443314, -25 -65.62499842886628, -25 -65.62495 M-25 -65.62495 C-12.04116963217327 -65.62495, 0.9176607356534596 -65.62495, 25 -65.62495 M-25 -65.62495 C-8.389022258170098 -65.62495, 8.221955483659805 -65.62495, 25 -65.62495 M25 -65.62495 C25 -65.62498840436508, 25 -65.62502680873018, 25 -65.62505 M25 -65.62495 C25 -65.62498328607008, 25 -65.62501657214014, 25 -65.62505 M25 -65.62505 C7.900958886172454 -65.62505, -9.198082227655092 -65.62505, -25 -65.62505 M25 -65.62505 C6.9287619275732695 -65.62505, -11.142476144853461 -65.62505, -25 -65.62505" stroke="#9370DB" stroke-width="1.3" fill="none" stroke-dasharray="0 0"></path></g><g class="divider"><path d="M-0.00005 -65.625 L0.00005 -65.625 L0.00005 84.375 L-0.00005 84.375" stroke="none" stroke-width="0" fill="#ECECFF" fill-rule="evenodd"></path><path d="M-0.00005 -65.625 C-0.00002611077331899242 -65.625, -0.0000022215466379848345 -65.625, 0.00005 -65.625 M-0.00005 -65.625 C-0.00002637976762204109 -65.625, -0.000002759535244082175 -65.625, 0.00005 -65.625 M0.00005 -65.625 C0.00005 -8.735078028759702, 0.00005 48.154843942480596, 0.00005 84.375 M0.00005 -65.625 C0.00005 -20.06640865332554, 0.00005 25.492182693348923, 0.00005 84.375 M0.00005 84.375 C0.000010205227586646578 84.375, -0.000029589544826706846 84.375, -0.00005 84.375 M0.00005 84.375 C0.0000248181252549609 84.375, -3.6374949007820503e-7 84.375, -0.00005 84.375 M-0.00005 84.375 C-0.00005 49.27990673721818, -0.00005 14.184813474436353, -0.00005 -65.625 M-0.00005 84.375 C-0.00005 26.17112992857932, -0.00005 -32.03274014284136, -0.00005 -65.625" stroke="#9370DB" stroke-width="1.3" fill="none" stroke-dasharray="0 0"></path></g><g class="divider"><path d="M-25 -65.62505 L-25 -65.62495 L25 -65.62495 L25 -65.62505" stroke="none" stroke-width="0" fill="#ECECFF" fill-rule="evenodd"></path><path d="M-25 -65.62505 C-25 -65.62501020570716, -25 -65.62497041141431, -25 -65.62495 M-25 -65.62505 C-25 -65.62502575128728, -25 -65.62500150257458, -25 -65.62495 M-25 -65.62495 C-9.643229903641181 -65.62495, 5.7135401927176375 -65.62495, 25 -65.62495 M-25 -65.62495 C-9.152163842921127 -65.62495, 6.695672314157747 -65.62495, 25 -65.62495 M25 -65.62495 C25 -65.62498323144442, 25 -65.62501646288884, 25 -65.62505 M25 -65.62495 C25 -65.62498501473262, 25 -65.62502002946522, 25 -65.62505 M25 -65.62505 C7.273906314615221 -65.62505, -10.452187370769558 -65.62505, -25 -65.62505 M25 -65.62505 C11.696090631221162 -65.62505, -1.6078187375576753 -65.62505, -25 -65.62505" stroke="#9370DB" stroke-width="1.3" fill="none" stroke-dasharray="0 0"></path></g></g></g></g></g><defs><filter id="ref-ext-fixtures-demos-er-07-drop-shadow" height="130%" width="130%"><feDropShadow dx="4" dy="4" stdDeviation="0" flood-opacity="0.06" flood-color="#000000"></feDropShadow></filter></defs><defs><filter id="ref-ext-fixtures-demos-er-07-drop-shadow-small" height="150%" width="150%"><feDropShadow dx="2" dy="2" stdDeviation="0" flood-opacity="0.06" flood-color="#000000"></feDropShadow></filter></defs></svg>