<svg id="ref-ext-fixtures-cypress-class-181" width="100%" xmlns="http://www.w3.org/2000/svg" class="classDiagram" style="max-width: 16px;" viewBox="-8 -8 16 32.296875" role="graphics-document document" aria-roledescription="class"><style>#ref-ext-fixtures-cypress-class-181{font-family:"trebuchet ms",verdana,arial,sans-serif;font-size:16px;fill:#333;}@keyframes edge-animation-frame{from{stroke-dashoffset:0;}}@keyframes dash{to{stroke-dashoffset:0;}}#ref-ext-fixtures-cypress-class-181 .edge-animation-slow{stroke-dasharray:9,5!important;stroke-dashoffset:900;animation:dash 50s linear infinite;stroke-linecap:round;}#ref-ext-fixtures-cypress-class-181 .edge-animation-fast{stroke-dasharray:9,5!important;stroke-dashoffset:900;animation:dash 20s linear infinite;stroke-linecap:round;}#ref-ext-fixtures-cypress-class-181 .error-icon{fill:#552222;}#ref-ext-fixtures-cypress-class-181 .error-text{fill:#552222;stroke:#552222;}#ref-ext-fixtures-cypress-class-181 .edge-thickness-normal{stroke-width:1px;}#ref-ext-fixtures-cypress-class-181 .edge-thickness-thick{stroke-width:3.5px;}#ref-ext-fixtures-cypress-class-181 .edge-pattern-solid{stroke-dasharray:0;}#ref-ext-fixtures-cypress-class-181 .edge-thickness-invisible{stroke-width:0;fill:none;}#ref-ext-fixtures-cypress-class-181 .edge-pattern-dashed{stroke-dasharray:3;}#ref-ext-fixtures-cypress-class-181 .edge-pattern-dotted{stroke-dasharray:2;}#ref-ext-fixtures-cypress-class-181 .marker{fill:#333333;stroke:#333333;}#ref-ext-fixtures-cypress-class-181 .marker.cross{stroke:#333333;}#ref-ext-fixtures-cypress-class-181 svg{font-family:"trebuchet ms",verdana,arial,sans-serif;font-size:16px;}#ref-ext-fixtures-cypress-class-181 p{margin:0;}#ref-ext-fixtures-cypress-class-181 g.classGroup text{fill:#9370DB;stroke:none;font-family:"trebuchet ms",verdana,arial,sans-serif;font-size:10px;}#ref-ext-fixtures-cypress-class-181 g.classGroup text .title{font-weight:bolder;}#ref-ext-fixtures-cypress-class-181 .cluster-label text{fill:#333;}#ref-ext-fixtures-cypress-class-181 .cluster-label span{color:#333;}#ref-ext-fixtures-cypress-class-181 .cluster-label span p{background-color:transparent;}#ref-ext-fixtures-cypress-class-181 .cluster rect{fill:#ffffde;stroke:#aaaa33;stroke-width:1px;}#ref-ext-fixtures-cypress-class-181 .cluster text{fill:#333;}#ref-ext-fixtures-cypress-class-181 .cluster span{color:#333;}#ref-ext-fixtures-cypress-class-181 .nodeLabel,#ref-ext-fixtures-cypress-class-181 .edgeLabel{color:#131300;}#ref-ext-fixtures-cypress-class-181 .noteLabel .nodeLabel,#ref-ext-fixtures-cypress-class-181 .noteLabel .edgeLabel{color:black;}#ref-ext-fixtures-cypress-class-181 .edgeLabel .label rect{fill:#ECECFF;}#ref-ext-fixtures-cypress-class-181 .label text{fill:#131300;}#ref-ext-fixtures-cypress-class-181 .labelBkg{background:#ECECFF;}#ref-ext-fixtures-cypress-class-181 .edgeLabel .label span{background:#ECECFF;}#ref-ext-fixtures-cypress-class-181 .classTitle{font-weight:bolder;}#ref-ext-fixtures-cypress-class-181 .node rect,#ref-ext-fixtures-cypress-class-181 .node circle,#ref-ext-fixtures-cypress-class-181 .node ellipse,#ref-ext-fixtures-cypress-class-181 .node polygon,#ref-ext-fixtures-cypress-class-181 .node path{fill:#ECECFF;stroke:#9370DB;stroke-width:1;}#ref-ext-fixtures-cypress-class-181 .divider{stroke:#9370DB;stroke-width:1;}#ref-ext-fixtures-cypress-class-181 g.clickable{cursor:pointer;}#ref-ext-fixtures-cypress-class-181 g.classGroup rect{fill:#ECECFF;stroke:#9370DB;}#ref-ext-fixtures-cypress-class-181 g.classGroup line{stroke:#9370DB;stroke-width:1;}#ref-ext-fixtures-cypress-class-181 .classLabel .box{stroke:none;stroke-width:0;fill:#ECECFF;opacity:0.5;}#ref-ext-fixtures-cypress-class-181 .classLabel .label{fill:#9370DB;font-size:10px;}#ref-ext-fixtures-cypress-class-181 .relation{stroke:#333333;stroke-width:1;fill:none;}#ref-ext-fixtures-cypress-class-181 .dashed-line{stroke-dasharray:3;}#ref-ext-fixtures-cypress-class-181 .dotted-line{stroke-dasharray:1 2;}#ref-ext-fixtures-cypress-class-181 [id$="-compositionStart"],#ref-ext-fixtures-cypress-class-181 .composition{fill:#333333!important;stroke:#333333!important;stroke-width:1;}#ref-ext-fixtures-cypress-class-181 [id$="-compositionEnd"],#ref-ext-fixtures-cypress-class-181 .composition{fill:#333333!important;stroke:#333333!important;stroke-width:1;}#ref-ext-fixtures-cypress-class-181 [id$="-dependencyStart"],#ref-ext-fixtures-cypress-class-181 .dependency{fill:#333333!important;stroke:#333333!important;stroke-width:1;}#ref-ext-fixtures-cypress-class-181 [id$="-dependencyEnd"],#ref-ext-fixtures-cypress-class-181 .dependency{fill:#333333!important;stroke:#333333!important;stroke-width:1;}#ref-ext-fixtures-cypress-class-181 [id$="-extensionStart"],#ref-ext-fixtures-cypress-class-181 .extension{fill:transparent!important;stroke:#333333!important;stroke-width:1;}#ref-ext-fixtures-cypress-class-181 [id$="-extensionEnd"],#ref-ext-fixtures-cypress-class-181 .extension{fill:transparent!important;stroke:#333333!important;stroke-width:1;}#ref-ext-fixtures-cypress-class-181 [id$="-aggregationStart"],#ref-ext-fixtures-cypress-class-181 .aggregation{fill:transparent!important;stroke:#333333!important;stroke-width:1;}#ref-ext-fixtures-cypress-class-181 [id$="-aggregationEnd"],#ref-ext-fixtures-cypress-class-181 .aggregation{fill:transparent!important;stroke:#333333!important;stroke-width:1;}#ref-ext-fixtures-cypress-class-181 [id$="-lollipopStart"],#ref-ext-fixtures-cypress-class-181 .lollipop{fill:#ECECFF!important;stroke:#333333!important;stroke-width:1;}#ref-ext-fixtures-cypress-class-181 [id$="-lollipopEnd"],#ref-ext-fixtures-cypress-class-181 .lollipop{fill:#ECECFF!important;stroke:#333333!important;stroke-width:1;}#ref-ext-fixtures-cypress-class-181 .edgeTerminals{font-size:11px;line-height:initial;}#ref-ext-fixtures-cypress-class-181 .classTitleText{text-anchor:middle;font-size:18px;fill:#333;}#ref-ext-fixtures-cypress-class-181 .edgeLabel[data-look="neo"]{background-color:rgba(232,232,232, 0.8);text-align:center;}#ref-ext-fixtures-cypress-class-181 .edgeLabel[data-look="neo"] p{background-color:rgba(232,232,232, 0.8);}#ref-ext-fixtures-cypress-class-181 .edgeLabel[data-look="neo"] rect{opacity:0.5;background-color:rgba(232,232,232, 0.8);fill:rgba(232,232,232, 0.8);}#ref-ext-fixtures-cypress-class-181 .label-icon{display:inline-block;height:1em;overflow:visible;vertical-align:-0.125em;}#ref-ext-fixtures-cypress-class-181 .node .label-icon path{fill:currentColor;stroke:revert;stroke-width:revert;}#ref-ext-fixtures-cypress-class-181 .node .neo-node{stroke:#9370DB;}#ref-ext-fixtures-cypress-class-181 [data-look="neo"].node rect,#ref-ext-fixtures-cypress-class-181 [data-look="neo"].cluster rect,#ref-ext-fixtures-cypress-class-181 [data-look="neo"].node polygon{stroke:#9370DB;filter:drop-shadow(1px 2px 2px rgba(185, 185, 185, 1));}#ref-ext-fixtures-cypress-class-181 [data-look="neo"].node path{stroke:#9370DB;stroke-width:1px;}#ref-ext-fixtures-cypress-class-181 [data-look="neo"].node .outer-path{filter:drop-shadow(1px 2px 2px rgba(185, 185, 185, 1));}#ref-ext-fixtures-cypress-class-181 [data-look="neo"].node .neo-line path{stroke:#9370DB;filter:none;}#ref-ext-fixtures-cypress-class-181 [data-look="neo"].node circle{stroke:#9370DB;filter:drop-shadow(1px 2px 2px rgba(185, 185, 185, 1));}#ref-ext-fixtures-cypress-class-181 [data-look="neo"].node circle .state-start{fill:#000000;}#ref-ext-fixtures-cypress-class-181 [data-look="neo"].icon-shape .icon{fill:#9370DB;filter:drop-shadow(1px 2px 2px rgba(185, 185, 185, 1));}#ref-ext-fixtures-cypress-class-181 [data-look="neo"].icon-shape .icon-neo path{stroke:#9370DB;filter:drop-shadow(1px 2px 2px rgba(185, 185, 185, 1));}#ref-ext-fixtures-cypress-class-181 :root{--mermaid-font-family:"trebuchet ms",verdana,arial,sans-serif;}</style><g><defs><marker id="ref-ext-fixtures-cypress-class-181_class-aggregationStart" class="marker aggregation class" refX="18" refY="7" markerWidth="190" markerHeight="240" orient="auto"><path d="M 18,7 L9,13 L1,7 L9,1 Z"></path></marker></defs><defs><marker id="ref-ext-fixtures-cypress-class-181_class-aggregationEnd" class="marker aggregation class" refX="1" refY="7" markerWidth="20" markerHeight="28" orient="auto"><path d="M 18,7 L9,13 L1,7 L9,1 Z"></path></marker></defs><defs><marker id="ref-ext-fixtures-cypress-class-181_class-aggregationStart-margin" class="marker aggregation class" refX="15" refY="7" markerWidth="190" markerHeight="240" orient="auto" markerUnits="userSpaceOnUse"><path style="stroke-width: 2;" d="M 18,7 L9,13 L1,7 L9,1 Z"></path></marker></defs><defs><marker id="ref-ext-fixtures-cypress-class-181_class-aggregationEnd-margin" class="marker aggregation class" refX="1" refY="7" markerWidth="20" markerHeight="28" orient="auto" markerUnits="userSpaceOnUse"><path style="stroke-width: 2;" d="M 18,7 L9,13 L1,7 L9,1 Z"></path></marker></defs><defs><marker id="ref-ext-fixtures-cypress-class-181_class-extensionStart" class="marker extension class" refX="18" refY="7" markerWidth="190" markerHeight="240" orient="auto" markerUnits="userSpaceOnUse"><path d="M 1,7 L18,13 V 1 Z"></path></marker></defs><defs><marker id="ref-ext-fixtures-cypress-class-181_class-extensionEnd" class="marker extension class" refX="1" refY="7" markerWidth="20" markerHeight="28" orient="auto"><path d="M 1,1 V 13 L18,7 Z"></path></marker></defs><marker id="ref-ext-fixtures-cypress-class-181_class-extensionStart-margin" class="marker extension class" refX="18" refY="7" markerWidth="20" markerHeight="28" orient="auto" markerUnits="userSpaceOnUse" viewBox="0 0 20 14"><polygon points="10,7 18,13 18,1" style="stroke-width: 2; stroke-dasharray: 0;"></polygon></marker><defs><marker id="ref-ext-fixtures-cypress-class-181_class-extensionEnd-margin" class="marker extension class" refX="9" refY="7" markerWidth="20" markerHeight="28" orient="auto" markerUnits="userSpaceOnUse" viewBox="0 0 20 14"><polygon points="10,1 10,13 18,7" style="stroke-width: 2; stroke-dasharray: 0;"></polygon></marker></defs><defs><marker id="ref-ext-fixtures-cypress-class-181_class-compositionStart" class="marker composition class" refX="18" refY="7" markerWidth="190" markerHeight="240" orient="auto"><path d="M 18,7 L9,13 L1,7 L9,1 Z"></path></marker></defs><defs><marker id="ref-ext-fixtures-cypress-class-181_class-compositionEnd" class="marker composition class" refX="1" refY="7" markerWidth="20" markerHeight="28" orient="auto"><path d="M 18,7 L9,13 L1,7 L9,1 Z"></path></marker></defs><defs><marker id="ref-ext-fixtures-cypress-class-181_class-compositionStart-margin" class="marker composition class" refX="15" refY="7" markerWidth="190" markerHeight="240" orient="auto" markerUnits="userSpaceOnUse"><path style="stroke-width: 0;" viewBox="0 0 15 15" d="M 18,7 L9,13 L1,7 L9,1 Z"></path></marker></defs><defs><marker id="ref-ext-fixtures-cypress-class-181_class-compositionEnd-margin" class="marker composition class" refX="3.5" refY="7" markerWidth="20" markerHeight="28" orient="auto" markerUnits="userSpaceOnUse"><path style="stroke-width: 0;" d="M 18,7 L9,13 L1,7 L9,1 Z"></path></marker></defs><defs><marker id="ref-ext-fixtures-cypress-class-181_class-dependencyStart" class="marker dependency class" refX="6" refY="7" markerWidth="190" markerHeight="240" orient="auto"><path d="M 5,7 L9,13 L1,7 L9,1 Z"></path></marker></defs><defs><marker id="ref-ext-fixtures-cypress-class-181_class-dependencyEnd" class="marker dependency class" refX="13" refY="7" markerWidth="20" markerHeight="28" orient="auto"><path d="M 18,7 L9,13 L14,7 L9,1 Z"></path></marker></defs><defs><marker id="ref-ext-fixtures-cypress-class-181_class-dependencyStart-margin" class="marker dependency class" refX="4" refY="7" markerWidth="190" markerHeight="240" orient="auto" markerUnits="userSpaceOnUse"><path style="stroke-width: 0;" d="M 5,7 L9,13 L1,7 L9,1 Z"></path></marker></defs><defs><marker id="ref-ext-fixtures-cypress-class-181_class-dependencyEnd-margin" class="marker dependency class" refX="16" refY="7" markerWidth="20" markerHeight="28" orient="auto" markerUnits="userSpaceOnUse"><path style="stroke-width: 0;" d="M 18,7 L9,13 L14,7 L9,1 Z"></path></marker></defs><defs><marker id="ref-ext-fixtures-cypress-class-181_class-lollipopStart" class="marker lollipop class" refX="13" refY="7" markerWidth="190" markerHeight="240" orient="auto"><circle fill="transparent" cx="7" cy="7" r="6"></circle></marker></defs><defs><marker id="ref-ext-fixtures-cypress-class-181_class-lollipopEnd" class="marker lollipop class" refX="1" refY="7" markerWidth="190" markerHeight="240" orient="auto"><circle fill="transparent" cx="7" cy="7" r="6"></circle></marker></defs><defs><marker id="ref-ext-fixtures-cypress-class-181_class-lollipopStart-margin" class="marker lollipop class" refX="13" refY="7" markerWidth="190" markerHeight="240" orient="auto" markerUnits="userSpaceOnUse"><circle fill="transparent" cx="7" cy="7" r="6" stroke-width="2"></circle></marker></defs><defs><marker id="ref-ext-fixtures-cypress-class-181_class-lollipopEnd-margin" class="marker lollipop class" refX="1" refY="7" markerWidth="190" markerHeight="240" orient="auto" markerUnits="userSpaceOnUse"><circle fill="transparent" cx="7" cy="7" r="6" stroke-width="2"></circle></marker></defs><g class="root"><g class="clusters"></g><g class="edgePaths"></g><g class="edgeLabels"></g><g class="nodes"><g class="node default " id="ref-ext-fixtures-cypress-class-181-classId-C1-9" data-look="classic" transform="translate(8, 16.1484375)"><g class="basic label-container outer-path"><path d="M-12 -30 L12 -30 L12 30 L-12 30" stroke="none" stroke-width="0" fill="#ECECFF" style=""></path><path d="M-12 -30 C-3.618855592597342 -30, 4.762288814805316 -30, 12 -30 M-12 -30 C-6.997688668932261 -30, -1.9953773378645216 -30, 12 -30 M12 -30 C12 -16.027999936378023, 12 -2.0559998727560505, 12 30 M12 -30 C12 -10.437709358955093, 12 9.124581282089814, 12 30 M12 30 C6.17722290024887 30, 0.3544458004977393 30, -12 30 M12 30 C6.195560083993228 30, 0.39112016798645577 30, -12 30 M-12 30 C-12 8.860861589911888, -12 -12.278276820176224, -12 -30 M-12 30 C-12 7.218834139694998, -12 -15.562331720610004, -12 -30" stroke="#9370DB" stroke-width="1.3" fill="none" stroke-dasharray="0 0" style=""></path></g><g class="annotation-group text" transform="translate(0, -6)"></g><g class="label-group text" transform="translate(0, -6)"><g class="label" style="font-weight: bolder" transform="translate(0,0)"><foreignObject width="0" height="0"><div style="display: table-cell; white-space: nowrap; line-height: 1.5; max-width: 125px; text-align: center;" xmlns="http://www.w3.org/1999/xhtml"><span class="nodeLabel markdown-node-label" style=""><p>OneWord</p></span></div></foreignObject></g></g><g class="members-group text" transform="translate(0, 18)"></g><g class="methods-group text" transform="translate(0, 48)"></g><g class="divider" style=""><path d="M0 -6 C0 -5.999714867231186, 0 -5.999429734462373, 0 -5.999 M0 -6 C0 -5.999690220620656, 0 -5.999380441241311, 0 -5.999" stroke="#9370DB" stroke-width="1.3" fill="none" stroke-dasharray="0 0" style=""></path></g><g class="divider" style=""><path d="M0 12 C0 12.000353946901505, 0 12.00070789380301, 0 12.001 M0 12 C0 12.000383746288751, 0 12.000767492577504, 0 12.001" stroke="#9370DB" stroke-width="1.3" fill="none" stroke-dasharray="0 0" style=""></path></g></g><g class="node default " id="ref-ext-fixtures-cypress-class-181-classId-C2-10" data-look="classic" transform="translate(58, 16.1484375)"><g class="basic label-container outer-path"><path d="M-12 -30 L12 -30 L12 30 L-12 30" stroke="none" stroke-width="0" fill="#ECECFF" style=""></path><path d="M-12 -30 C-4.839669209089573 -30, 2.320661581820854 -30, 12 -30 M-12 -30 C-4.433098300823325 -30, 3.1338033983533506 -30, 12 -30 M12 -30 C12 -8.685445576909455, 12 12.62910884618109, 12 30 M12 -30 C12 -14.739757319726285, 12 0.5204853605474291, 12 30 M12 30 C3.795612159075974 30, -4.408775681848052 30, -12 30 M12 30 C2.591892003078284 30, -6.816215993843432 30, -12 30 M-12 30 C-12 17.642692452668808, -12 5.285384905337615, -12 -30 M-12 30 C-12 8.685199522622604, -12 -12.629600954754792, -12 -30" stroke="#9370DB" stroke-width="1.3" fill="none" stroke-dasharray="0 0" style=""></path></g><g class="annotation-group text" transform="translate(0, -6)"></g><g class="label-group text" transform="translate(0, -6)"><g class="label" style="font-weight: bolder" transform="translate(0,0)"><foreignObject width="0" height="0"><div style="display: table-cell; white-space: nowrap; line-height: 1.5; max-width: 159px; text-align: center;" xmlns="http://www.w3.org/1999/xhtml"><span class="nodeLabel markdown-node-label" style=""><p>With, Comma</p></span></div></foreignObject></g></g><g class="members-group text" transform="translate(0, 18)"></g><g class="methods-group text" transform="translate(0, 48)"></g><g class="divider" style=""><path d="M0 -6 C0 -5.999797237630875, 0 -5.999594475261751, 0 -5.999 M0 -6 C0 -5.999652569848817, 0 -5.9993051396976345, 0 -5.999" stroke="#9370DB" stroke-width="1.3" fill="none" stroke-dasharray="0 0" style=""></path></g><g class="divider" style=""><path d="M0 12 C0 12.00021381295802, 0 12.00042762591604, 0 12.001 M0 12 C0 12.000372839744875, 0 12.000745679489748, 0 12.001" stroke="#9370DB" stroke-width="1.3" fill="none" stroke-dasharray="0 0" style=""></path></g></g><g class="node default " id="ref-ext-fixtures-cypress-class-181-classId-C3-11" data-look="classic" transform="translate(108, 16.1484375)"><g class="basic label-container outer-path"><path d="M-12 -30 L12 -30 L12 30 L-12 30" stroke="none" stroke-width="0" fill="#ECECFF" style=""></path><path d="M-12 -30 C-4.426104314052652 -30, 3.147791371894696 -30, 12 -30 M-12 -30 C-5.811469503136327 -30, 0.3770609937273459 -30, 12 -30 M12 -30 C12 -6.718503729332205, 12 16.56299254133559, 12 30 M12 -30 C12 -7.195644974763809, 12 15.608710050472382, 12 30 M12 30 C3.0819748381777217 30, -5.836050323644557 30, -12 30 M12 30 C6.279018052508662 30, 0.5580361050173241 30, -12 30 M-12 30 C-12 14.30159287605164, -12 -1.396814247896721, -12 -30 M-12 30 C-12 13.108384085258006, -12 -3.783231829483988, -12 -30" stroke="#9370DB" stroke-width="1.3" fill="none" stroke-dasharray="0 0" style=""></path></g><g class="annotation-group text" transform="translate(0, -6)"></g><g class="label-group text" transform="translate(0, -6)"><g class="label" style="font-weight: bolder" transform="translate(0,0)"><foreignObject width="0" height="0"><div style="display: table-cell; white-space: nowrap; line-height: 1.5; max-width: 174px; text-align: center;" xmlns="http://www.w3.org/1999/xhtml"><span class="nodeLabel markdown-node-label" style=""><p>With (Brackets)</p></span></div></foreignObject></g></g><g class="members-group text" transform="translate(0, 18)"></g><g class="methods-group text" transform="translate(0, 48)"></g><g class="divider" style=""><path d="M0 -6 C0 -5.999784682513191, 0 -5.999569365026381, 0 -5.999 M0 -6 C0 -5.999738242114491, 0 -5.999476484228982, 0 -5.999" stroke="#9370DB" stroke-width="1.3" fill="none" stroke-dasharray="0 0" style=""></path></g><g class="divider" style=""><path d="M0 12 C0 12.000354078626202, 0 12.000708157252404, 0 12.001 M0 12 C0 12.000236863405306, 0 12.000473726810611, 0 12.001" stroke="#9370DB" stroke-width="1.3" fill="none" stroke-dasharray="0 0" style=""></path></g></g><g class="node default " id="ref-ext-fixtures-cypress-class-181-classId-C4-12" data-look="classic" transform="translate(158, 16.1484375)"><g class="basic label-container outer-path"><path d="M-12 -30 L12 -30 L12 30 L-12 30" stroke="none" stroke-width="0" fill="#ECECFF" style=""></path><path d="M-12 -30 C-2.8432695400890466 -30, 6.313460919821907 -30, 12 -30 M-12 -30 C-3.1818442050527516 -30, 5.636311589894497 -30, 12 -30 M12 -30 C12 -13.503751146510385, 12 2.992497706979229, 12 30 M12 -30 C12 -9.029410680882911, 12 11.941178638234177, 12 30 M12 30 C3.355214836438936 30, -5.289570327122128 30, -12 30 M12 30 C4.13921072002353 30, -3.72157855995294 30, -12 30 M-12 30 C-12 9.44629684554176, -12 -11.107406308916481, -12 -30 M-12 30 C-12 17.834145671135932, -12 5.668291342271864, -12 -30" stroke="#9370DB" stroke-width="1.3" fill="none" stroke-dasharray="0 0" style=""></path></g><g class="annotation-group text" transform="translate(0, -6)"></g><g class="label-group text" transform="translate(0, -6)"><g class="label" style="font-weight: bolder" transform="translate(0,0)"><foreignObject width="0" height="0"><div style="display: table-cell; white-space: nowrap; line-height: 1.5; max-width: 174px; text-align: center;" xmlns="http://www.w3.org/1999/xhtml"><span class="nodeLabel markdown-node-label" style=""><p>With [Brackets]</p></span></div></foreignObject></g></g><g class="members-group text" transform="translate(0, 18)"></g><g class="methods-group text" transform="translate(0, 48)"></g><g class="divider" style=""><path d="M0 -6 C0 -5.99977816809971, 0 -5.99955633619942, 0 -5.999 M0 -6 C0 -5.999789316053211, 0 -5.999578632106423, 0 -5.999" stroke="#9370DB" stroke-width="1.3" fill="none" stroke-dasharray="0 0" style=""></path></g><g class="divider" style=""><path d="M0 12 C0 12.000377168940656, 0 12.000754337881311, 0 12.001 M0 12 C0 12.000298979564752, 0 12.000597959129502, 0 12.001" stroke="#9370DB" stroke-width="1.3" fill="none" stroke-dasharray="0 0" style=""></path></g></g><g class="node default " id="ref-ext-fixtures-cypress-class-181-classId-C5-13" data-look="classic" transform="translate(208, 16.1484375)"><g class="basic label-container outer-path"><path d="M-12 -30 L12 -30 L12 30 L-12 30" stroke="none" stroke-width="0" fill="#ECECFF" style=""></path><path d="M-12 -30 C-3.0802967056802775 -30, 5.839406588639445 -30, 12 -30 M-12 -30 C-6.248588034352477 -30, -0.49717606870495423 -30, 12 -30 M12 -30 C12 -6.389802177873765, 12 17.22039564425247, 12 30 M12 -30 C12 -10.39931127602797, 12 9.201377447944061, 12 30 M12 30 C5.613012116060119 30, -0.7739757678797616 30, -12 30 M12 30 C6.490051778585002 30, 0.9801035571700041 30, -12 30 M-12 30 C-12 14.072332714555172, -12 -1.8553345708896565, -12 -30 M-12 30 C-12 16.021534130433142, -12 2.043068260866285, -12 -30" stroke="#9370DB" stroke-width="1.3" fill="none" stroke-dasharray="0 0" style=""></path></g><g class="annotation-group text" transform="translate(0, -6)"></g><g class="label-group text" transform="translate(0, -6)"><g class="label" style="font-weight: bolder" transform="translate(0,0)"><foreignObject width="0" height="0"><div style="display: table-cell; white-space: nowrap; line-height: 1.5; max-width: 182px; text-align: center;" xmlns="http://www.w3.org/1999/xhtml"><span class="nodeLabel markdown-node-label" style=""><p>With {Brackets}</p></span></div></foreignObject></g></g><g class="members-group text" transform="translate(0, 18)"></g><g class="methods-group text" transform="translate(0, 48)"></g><g class="divider" style=""><path d="M0 -6 C0 -5.999767864092381, 0 -5.999535728184762, 0 -5.999 M0 -6 C0 -5.99960235376394, 0 -5.9992047075278805, 0 -5.999" stroke="#9370DB" stroke-width="1.3" fill="none" stroke-dasharray="0 0" style=""></path></g><g class="divider" style=""><path d="M0 12 C0 12.000296963250541, 0 12.000593926501082, 0 12.001 M0 12 C0 12.000395632768582, 0 12.000791265537165, 0 12.001" stroke="#9370DB" stroke-width="1.3" fill="none" stroke-dasharray="0 0" style=""></path></g></g><g class="node default " id="ref-ext-fixtures-cypress-class-181-classId-C7-14" data-look="classic" transform="translate(258, 16.1484375)"><g class="basic label-container outer-path"><path d="M-12 -30 L12 -30 L12 30 L-12 30" stroke="none" stroke-width="0" fill="#ECECFF" style=""></path><path d="M-12 -30 C-5.317942360264597 -30, 1.3641152794708056 -30, 12 -30 M-12 -30 C-5.248043712518976 -30, 1.5039125749620474 -30, 12 -30 M12 -30 C12 -15.660230098651851, 12 -1.320460197303703, 12 30 M12 -30 C12 -11.798445929882813, 12 6.403108140234373, 12 30 M12 30 C3.2616851509273133 30, -5.4766296981453735 30, -12 30 M12 30 C5.873700590197516 30, -0.2525988196049678 30, -12 30 M-12 30 C-12 8.652780414817581, -12 -12.694439170364838, -12 -30 M-12 30 C-12 6.46591013851987, -12 -17.06817972296026, -12 -30" stroke="#9370DB" stroke-width="1.3" fill="none" stroke-dasharray="0 0" style=""></path></g><g class="annotation-group text" transform="translate(0, -6)"></g><g class="label-group text" transform="translate(0, -6)"><g class="label" style="font-weight: bolder" transform="translate(0,0)"><foreignObject width="0" height="0"><div style="display: table-cell; white-space: nowrap; line-height: 1.5; max-width: 169px; text-align: center;" xmlns="http://www.w3.org/1999/xhtml"><span class="nodeLabel markdown-node-label" style=""><p>With 1 number</p></span></div></foreignObject></g></g><g class="members-group text" transform="translate(0, 18)"></g><g class="methods-group text" transform="translate(0, 48)"></g><g class="divider" style=""><path d="M0 -6 C0 -5.999778117711006, 0 -5.999556235422012, 0 -5.999 M0 -6 C0 -5.999623422914797, 0 -5.999246845829593, 0 -5.999" stroke="#9370DB" stroke-width="1.3" fill="none" stroke-dasharray="0 0" style=""></path></g><g class="divider" style=""><path d="M0 12 C0 12.000229617073613, 0 12.000459234147225, 0 12.001 M0 12 C0 12.000363190275761, 0 12.000726380551525, 0 12.001" stroke="#9370DB" stroke-width="1.3" fill="none" stroke-dasharray="0 0" style=""></path></g></g><g class="node default " id="ref-ext-fixtures-cypress-class-181-classId-C8-15" data-look="classic" transform="translate(308, 16.1484375)"><g class="basic label-container outer-path"><path d="M-12 -30 L12 -30 L12 30 L-12 30" stroke="none" stroke-width="0" fill="#ECECFF" style=""></path><path d="M-12 -30 C-6.085195985840074 -30, -0.1703919716801483 -30, 12 -30 M-12 -30 C-4.335014507596325 -30, 3.3299709848073498 -30, 12 -30 M12 -30 C12 -10.348445000075056, 12 9.303109999849887, 12 30 M12 -30 C12 -9.676155318600468, 12 10.647689362799063, 12 30 M12 30 C6.9048473517806 30, 1.8096947035612008 30, -12 30 M12 30 C5.288808711682966 30, -1.4223825766340674 30, -12 30 M-12 30 C-12 17.628861592025338, -12 5.257723184050679, -12 -30 M-12 30 C-12 17.307928755034393, -12 4.6158575100687855, -12 -30" stroke="#9370DB" stroke-width="1.3" fill="none" stroke-dasharray="0 0" style=""></path></g><g class="annotation-group text" transform="translate(0, -6)"></g><g class="label-group text" transform="translate(0, -6)"><g class="label" style="font-weight: bolder" transform="translate(0,0)"><foreignObject width="0" height="0"><div style="display: table-cell; white-space: nowrap; line-height: 1.5; max-width: 168px; text-align: center;" xmlns="http://www.w3.org/1999/xhtml"><span class="nodeLabel markdown-node-label" style=""><p>With . period...</p></span></div></foreignObject></g></g><g class="members-group text" transform="translate(0, 18)"></g><g class="methods-group text" transform="translate(0, 48)"></g><g class="divider" style=""><path d="M0 -6 C0 -5.9997695702740925, 0 -5.999539140548184, 0 -5.999 M0 -6 C0 -5.9997554099721375, 0 -5.999510819944275, 0 -5.999" stroke="#9370DB" stroke-width="1.3" fill="none" stroke-dasharray="0 0" style=""></path></g><g class="divider" style=""><path d="M0 12 C0 12.000259472853976, 0 12.000518945707954, 0 12.001 M0 12 C0 12.000348739511066, 0 12.000697479022133, 0 12.001" stroke="#9370DB" stroke-width="1.3" fill="none" stroke-dasharray="0 0" style=""></path></g></g><g class="node default " id="ref-ext-fixtures-cypress-class-181-classId-C9-16" data-look="classic" transform="translate(358, 16.1484375)"><g class="basic label-container outer-path"><path d="M-12 -30 L12 -30 L12 30 L-12 30" stroke="none" stroke-width="0" fill="#ECECFF" style=""></path><path d="M-12 -30 C-6.043892094390941 -30, -0.08778418878188177 -30, 12 -30 M-12 -30 C-2.620498549631437 -30, 6.759002900737126 -30, 12 -30 M12 -30 C12 -12.659838227139044, 12 4.680323545721912, 12 30 M12 -30 C12 -17.985754735604736, 12 -5.971509471209476, 12 30 M12 30 C5.238062665847081 30, -1.5238746683058384 30, -12 30 M12 30 C3.6762544272589004 30, -4.647491145482199 30, -12 30 M-12 30 C-12 12.280484476777769, -12 -5.4390310464444624, -12 -30 M-12 30 C-12 8.960722453592428, -12 -12.078555092815144, -12 -30" stroke="#9370DB" stroke-width="1.3" fill="none" stroke-dasharray="0 0" style=""></path></g><g class="annotation-group text" transform="translate(0, -6)"></g><g class="label-group text" transform="translate(0, -6)"><g class="label" style="font-weight: bolder" transform="translate(0,0)"><foreignObject width="0" height="0"><div style="display: table-cell; white-space: nowrap; line-height: 1.5; max-width: 141px; text-align: center;" xmlns="http://www.w3.org/1999/xhtml"><span class="nodeLabel markdown-node-label" style=""><p>With - dash</p></span></div></foreignObject></g></g><g class="members-group text" transform="translate(0, 18)"></g><g class="methods-group text" transform="translate(0, 48)"></g><g class="divider" style=""><path d="M0 -6 C0 -5.999701264411802, 0 -5.999402528823603, 0 -5.999 M0 -6 C0 -5.999783176221481, 0 -5.9995663524429625, 0 -5.999" stroke="#9370DB" stroke-width="1.3" fill="none" stroke-dasharray="0 0" style=""></path></g><g class="divider" style=""><path d="M0 12 C0 12.000338827366877, 0 12.000677654733755, 0 12.001 M0 12 C0 12.000338940127115, 0 12.000677880254228, 0 12.001" stroke="#9370DB" stroke-width="1.3" fill="none" stroke-dasharray="0 0" style=""></path></g></g><g class="node default " id="ref-ext-fixtures-cypress-class-181-classId-C10-17" data-look="classic" transform="translate(408, 16.1484375)"><g class="basic label-container outer-path"><path d="M-12 -30 L12 -30 L12 30 L-12 30" stroke="none" stroke-width="0" fill="#ECECFF" style=""></path><path d="M-12 -30 C-6.410558475921202 -30, -0.821116951842404 -30, 12 -30 M-12 -30 C-6.683716465344907 -30, -1.367432930689814 -30, 12 -30 M12 -30 C12 -14.096078029035962, 12 1.807843941928077, 12 30 M12 -30 C12 -14.249501248758548, 12 1.5009975024829032, 12 30 M12 30 C6.981171324292662 30, 1.9623426485853237 30, -12 30 M12 30 C2.9338603846276285 30, -6.132279230744743 30, -12 30 M-12 30 C-12 6.766139011210768, -12 -16.467721977578464, -12 -30 M-12 30 C-12 7.054246376197561, -12 -15.891507247604878, -12 -30" stroke="#9370DB" stroke-width="1.3" fill="none" stroke-dasharray="0 0" style=""></path></g><g class="annotation-group text" transform="translate(0, -6)"></g><g class="label-group text" transform="translate(0, -6)"><g class="label" style="font-weight: bolder" transform="translate(0,0)"><foreignObject width="0" height="0"><div style="display: table-cell; white-space: nowrap; line-height: 1.5; max-width: 195px; text-align: center;" xmlns="http://www.w3.org/1999/xhtml"><span class="nodeLabel markdown-node-label" style=""><p>With _ underscore</p></span></div></foreignObject></g></g><g class="members-group text" transform="translate(0, 18)"></g><g class="methods-group text" transform="translate(0, 48)"></g><g class="divider" style=""><path d="M0 -6 C0 -5.9997703437226, 0 -5.999540687445201, 0 -5.999 M0 -6 C0 -5.999616308466763, 0 -5.999232616933526, 0 -5.999" stroke="#9370DB" stroke-width="1.3" fill="none" stroke-dasharray="0 0" style=""></path></g><g class="divider" style=""><path d="M0 12 C0 12.000268123970844, 0 12.00053624794169, 0 12.001 M0 12 C0 12.000220574969287, 0 12.000441149938574, 0 12.001" stroke="#9370DB" stroke-width="1.3" fill="none" stroke-dasharray="0 0" style=""></path></g></g><g class="node default " id="ref-ext-fixtures-cypress-class-181-classId-C11-18" data-look="classic" transform="translate(458, 16.1484375)"><g class="basic label-container outer-path"><path d="M-12 -30 L12 -30 L12 30 L-12 30" stroke="none" stroke-width="0" fill="#ECECFF" style=""></path><path d="M-12 -30 C-6.820033039842458 -30, -1.6400660796849156 -30, 12 -30 M-12 -30 C-7.105538093525691 -30, -2.2110761870513826 -30, 12 -30 M12 -30 C12 -13.575682221229414, 12 2.848635557541172, 12 30 M12 -30 C12 -13.7846966675786, 12 2.4306066648427986, 12 30 M12 30 C3.7728634067948654 30, -4.454273186410269 30, -12 30 M12 30 C6.875232272553729 30, 1.7504645451074587 30, -12 30 M-12 30 C-12 7.481740882833591, -12 -15.036518234332817, -12 -30 M-12 30 C-12 9.318156788590898, -12 -11.363686422818205, -12 -30" stroke="#9370DB" stroke-width="1.3" fill="none" stroke-dasharray="0 0" style=""></path></g><g class="annotation-group text" transform="translate(0, -6)"></g><g class="label-group text" transform="translate(0, -6)"><g class="label" style="font-weight: bolder" transform="translate(0,0)"><foreignObject width="0" height="0"><div style="display: table-cell; white-space: nowrap; line-height: 1.5; max-width: 200px; text-align: center;" xmlns="http://www.w3.org/1999/xhtml"><span class="nodeLabel markdown-node-label" style=""><p>With ' single quote</p></span></div></foreignObject></g></g><g class="members-group text" transform="translate(0, 18)"></g><g class="methods-group text" transform="translate(0, 48)"></g><g class="divider" style=""><path d="M0 -6 C0 -5.999767412773613, 0 -5.999534825547226, 0 -5.999 M0 -6 C0 -5.999636502620176, 0 -5.999273005240353, 0 -5.999" stroke="#9370DB" stroke-width="1.3" fill="none" stroke-dasharray="0 0" style=""></path></g><g class="divider" style=""><path d="M0 12 C0 12.00028887778635, 0 12.0005777555727, 0 12.001 M0 12 C0 12.000263617221302, 0 12.000527234442604, 0 12.001" stroke="#9370DB" stroke-width="1.3" fill="none" stroke-dasharray="0 0" style=""></path></g></g><g class="node default " id="ref-ext-fixtures-cypress-class-181-classId-C12-19" data-look="classic" transform="translate(508, 16.1484375)"><g class="basic label-container outer-path"><path d="M-12 -30 L12 -30 L12 30 L-12 30" stroke="none" stroke-width="0" fill="#ECECFF" style=""></path><path d="M-12 -30 C-6.458275975563861 -30, -0.9165519511277225 -30, 12 -30 M-12 -30 C-6.376950694941577 -30, -0.7539013898831541 -30, 12 -30 M12 -30 C12 -13.458947534919144, 12 3.0821049301617123, 12 30 M12 -30 C12 -7.944715811887207, 12 14.110568376225586, 12 30 M12 30 C6.425471182158224 30, 0.8509423643164489 30, -12 30 M12 30 C6.890844291333938 30, 1.7816885826678757 30, -12 30 M-12 30 C-12 10.28213951196145, -12 -9.4357209760771, -12 -30 M-12 30 C-12 12.134603236976695, -12 -5.730793526046611, -12 -30" stroke="#9370DB" stroke-width="1.3" fill="none" stroke-dasharray="0 0" style=""></path></g><g class="annotation-group text" transform="translate(0, -6)"></g><g class="label-group text" transform="translate(0, -6)"><g class="label" style="font-weight: bolder" transform="translate(0,0)"><foreignObject width="0" height="0"><div style="display: table-cell; white-space: nowrap; line-height: 1.5; max-width: 267px; text-align: center;" xmlns="http://www.w3.org/1999/xhtml"><span class="nodeLabel markdown-node-label" style=""><p>With ~!@#$%^&amp;*()_+=-/?</p></span></div></foreignObject></g></g><g class="members-group text" transform="translate(0, 18)"></g><g class="methods-group text" transform="translate(0, 48)"></g><g class="divider" style=""><path d="M0 -6 C0 -5.999765158100356, 0 -5.999530316200711, 0 -5.999 M0 -6 C0 -5.9996521435896, 0 -5.9993042871792, 0 -5.999" stroke="#9370DB" stroke-width="1.3" fill="none" stroke-dasharray="0 0" style=""></path></g><g class="divider" style=""><path d="M0 12 C0 12.000368629034703, 0 12.000737258069408, 0 12.001 M0 12 C0 12.0002196658483, 0 12.0004393316966, 0 12.001" stroke="#9370DB" stroke-width="1.3" fill="none" stroke-dasharray="0 0" style=""></path></g></g><g class="node default " id="ref-ext-fixtures-cypress-class-181-classId-C13-20" data-look="classic" transform="translate(558, 16.1484375)"><g class="basic label-container outer-path"><path d="M-12 -30 L12 -30 L12 30 L-12 30" stroke="none" stroke-width="0" fill="#ECECFF" style=""></path><path d="M-12 -30 C-4.313988000669614 -30, 3.3720239986607723 -30, 12 -30 M-12 -30 C-4.8124649075332595 -30, 2.375070184933481 -30, 12 -30 M12 -30 C12 -16.379629065690224, 12 -2.7592581313804523, 12 30 M12 -30 C12 -15.975084879680052, 12 -1.9501697593601044, 12 30 M12 30 C4.718059598573879 30, -2.5638808028522426 30, -12 30 M12 30 C6.405961618931813 30, 0.8119232378636259 30, -12 30 M-12 30 C-12 8.526868819935476, -12 -12.946262360129047, -12 -30 M-12 30 C-12 14.39712577798587, -12 -1.2057484440282593, -12 -30" stroke="#9370DB" stroke-width="1.3" fill="none" stroke-dasharray="0 0" style=""></path></g><g class="annotation-group text" transform="translate(0, -6)"></g><g class="label-group text" transform="translate(0, -6)"><g class="label" style="font-weight: bolder" transform="translate(0,0)"><foreignObject width="0" height="0"><div style="display: table-cell; white-space: nowrap; line-height: 1.5; max-width: 271px; text-align: center;" xmlns="http://www.w3.org/1999/xhtml"><span class="nodeLabel markdown-node-label" style=""><p>With Città foreign language</p></span></div></foreignObject></g></g><g class="members-group text" transform="translate(0, 18)"></g><g class="methods-group text" transform="translate(0, 48)"></g><g class="divider" style=""><path d="M0 -6 C0 -5.999707273714535, 0 -5.999414547429071, 0 -5.999 M0 -6 C0 -5.999610958344876, 0 -5.999221916689752, 0 -5.999" stroke="#9370DB" stroke-width="1.3" fill="none" stroke-dasharray="0 0" style=""></path></g><g class="divider" style=""><path d="M0 12 C0 12.000222324463367, 0 12.000444648926734, 0 12.001 M0 12 C0 12.000355528027484, 0 12.00071105605497, 0 12.001" stroke="#9370DB" stroke-width="1.3" fill="none" stroke-dasharray="0 0" style=""></path></g></g></g></g></g><defs><filter id="ref-ext-fixtures-cypress-class-181-drop-shadow" height="130%" width="130%"><feDropShadow dx="4" dy="4" stdDeviation="0" flood-opacity="0.06" flood-color="#000000"></feDropShadow></filter></defs><defs><filter id="ref-ext-fixtures-cypress-class-181-drop-shadow-small" height="150%" width="150%"><feDropShadow dx="2" dy="2" stdDeviation="0" flood-opacity="0.06" flood-color="#000000"></feDropShadow></filter></defs></svg>