<svg id="ref-ext-fixtures-cypress-class-183" width="100%" xmlns="http://www.w3.org/2000/svg" class="classDiagram" style="max-width: 174px;" viewBox="-8 -8 174 110.296875" role="graphics-document document" aria-roledescription="class"><style>#ref-ext-fixtures-cypress-class-183{font-family:"trebuchet ms",verdana,arial,sans-serif;font-size:16px;fill:#333;}@keyframes edge-animation-frame{from{stroke-dashoffset:0;}}@keyframes dash{to{stroke-dashoffset:0;}}#ref-ext-fixtures-cypress-class-183 .edge-animation-slow{stroke-dasharray:9,5!important;stroke-dashoffset:900;animation:dash 50s linear infinite;stroke-linecap:round;}#ref-ext-fixtures-cypress-class-183 .edge-animation-fast{stroke-dasharray:9,5!important;stroke-dashoffset:900;animation:dash 20s linear infinite;stroke-linecap:round;}#ref-ext-fixtures-cypress-class-183 .error-icon{fill:#552222;}#ref-ext-fixtures-cypress-class-183 .error-text{fill:#552222;stroke:#552222;}#ref-ext-fixtures-cypress-class-183 .edge-thickness-normal{stroke-width:1px;}#ref-ext-fixtures-cypress-class-183 .edge-thickness-thick{stroke-width:3.5px;}#ref-ext-fixtures-cypress-class-183 .edge-pattern-solid{stroke-dasharray:0;}#ref-ext-fixtures-cypress-class-183 .edge-thickness-invisible{stroke-width:0;fill:none;}#ref-ext-fixtures-cypress-class-183 .edge-pattern-dashed{stroke-dasharray:3;}#ref-ext-fixtures-cypress-class-183 .edge-pattern-dotted{stroke-dasharray:2;}#ref-ext-fixtures-cypress-class-183 .marker{fill:#333333;stroke:#333333;}#ref-ext-fixtures-cypress-class-183 .marker.cross{stroke:#333333;}#ref-ext-fixtures-cypress-class-183 svg{font-family:"trebuchet ms",verdana,arial,sans-serif;font-size:16px;}#ref-ext-fixtures-cypress-class-183 p{margin:0;}#ref-ext-fixtures-cypress-class-183 g.classGroup text{fill:#9370DB;stroke:none;font-family:"trebuchet ms",verdana,arial,sans-serif;font-size:10px;}#ref-ext-fixtures-cypress-class-183 g.classGroup text .title{font-weight:bolder;}#ref-ext-fixtures-cypress-class-183 .cluster-label text{fill:#333;}#ref-ext-fixtures-cypress-class-183 .cluster-label span{color:#333;}#ref-ext-fixtures-cypress-class-183 .cluster-label span p{background-color:transparent;}#ref-ext-fixtures-cypress-class-183 .cluster rect{fill:#ffffde;stroke:#aaaa33;stroke-width:1px;}#ref-ext-fixtures-cypress-class-183 .cluster text{fill:#333;}#ref-ext-fixtures-cypress-class-183 .cluster span{color:#333;}#ref-ext-fixtures-cypress-class-183 .nodeLabel,#ref-ext-fixtures-cypress-class-183 .edgeLabel{color:#131300;}#ref-ext-fixtures-cypress-class-183 .noteLabel .nodeLabel,#ref-ext-fixtures-cypress-class-183 .noteLabel .edgeLabel{color:black;}#ref-ext-fixtures-cypress-class-183 .edgeLabel .label rect{fill:#ECECFF;}#ref-ext-fixtures-cypress-class-183 .label text{fill:#131300;}#ref-ext-fixtures-cypress-class-183 .labelBkg{background:#ECECFF;}#ref-ext-fixtures-cypress-class-183 .edgeLabel .label span{background:#ECECFF;}#ref-ext-fixtures-cypress-class-183 .classTitle{font-weight:bolder;}#ref-ext-fixtures-cypress-class-183 .node rect,#ref-ext-fixtures-cypress-class-183 .node circle,#ref-ext-fixtures-cypress-class-183 .node ellipse,#ref-ext-fixtures-cypress-class-183 .node polygon,#ref-ext-fixtures-cypress-class-183 .node path{fill:#ECECFF;stroke:#9370DB;stroke-width:1;}#ref-ext-fixtures-cypress-class-183 .divider{stroke:#9370DB;stroke-width:1;}#ref-ext-fixtures-cypress-class-183 g.clickable{cursor:pointer;}#ref-ext-fixtures-cypress-class-183 g.classGroup rect{fill:#ECECFF;stroke:#9370DB;}#ref-ext-fixtures-cypress-class-183 g.classGroup line{stroke:#9370DB;stroke-width:1;}#ref-ext-fixtures-cypress-class-183 .classLabel .box{stroke:none;stroke-width:0;fill:#ECECFF;opacity:0.5;}#ref-ext-fixtures-cypress-class-183 .classLabel .label{fill:#9370DB;font-size:10px;}#ref-ext-fixtures-cypress-class-183 .relation{stroke:#333333;stroke-width:1;fill:none;}#ref-ext-fixtures-cypress-class-183 .dashed-line{stroke-dasharray:3;}#ref-ext-fixtures-cypress-class-183 .dotted-line{stroke-dasharray:1 2;}#ref-ext-fixtures-cypress-class-183 [id$="-compositionStart"],#ref-ext-fixtures-cypress-class-183 .composition{fill:#333333!important;stroke:#333333!important;stroke-width:1;}#ref-ext-fixtures-cypress-class-183 [id$="-compositionEnd"],#ref-ext-fixtures-cypress-class-183 .composition{fill:#333333!important;stroke:#333333!important;stroke-width:1;}#ref-ext-fixtures-cypress-class-183 [id$="-dependencyStart"],#ref-ext-fixtures-cypress-class-183 .dependency{fill:#333333!important;stroke:#333333!important;stroke-width:1;}#ref-ext-fixtures-cypress-class-183 [id$="-dependencyEnd"],#ref-ext-fixtures-cypress-class-183 .dependency{fill:#333333!important;stroke:#333333!important;stroke-width:1;}#ref-ext-fixtures-cypress-class-183 [id$="-extensionStart"],#ref-ext-fixtures-cypress-class-183 .extension{fill:transparent!important;stroke:#333333!important;stroke-width:1;}#ref-ext-fixtures-cypress-class-183 [id$="-extensionEnd"],#ref-ext-fixtures-cypress-class-183 .extension{fill:transparent!important;stroke:#333333!important;stroke-width:1;}#ref-ext-fixtures-cypress-class-183 [id$="-aggregationStart"],#ref-ext-fixtures-cypress-class-183 .aggregation{fill:transparent!important;stroke:#333333!important;stroke-width:1;}#ref-ext-fixtures-cypress-class-183 [id$="-aggregationEnd"],#ref-ext-fixtures-cypress-class-183 .aggregation{fill:transparent!important;stroke:#333333!important;stroke-width:1;}#ref-ext-fixtures-cypress-class-183 [id$="-lollipopStart"],#ref-ext-fixtures-cypress-class-183 .lollipop{fill:#ECECFF!important;stroke:#333333!important;stroke-width:1;}#ref-ext-fixtures-cypress-class-183 [id$="-lollipopEnd"],#ref-ext-fixtures-cypress-class-183 .lollipop{fill:#ECECFF!important;stroke:#333333!important;stroke-width:1;}#ref-ext-fixtures-cypress-class-183 .edgeTerminals{font-size:11px;line-height:initial;}#ref-ext-fixtures-cypress-class-183 .classTitleText{text-anchor:middle;font-size:18px;fill:#333;}#ref-ext-fixtures-cypress-class-183 .edgeLabel[data-look="neo"]{background-color:rgba(232,232,232, 0.8);text-align:center;}#ref-ext-fixtures-cypress-class-183 .edgeLabel[data-look="neo"] p{background-color:rgba(232,232,232, 0.8);}#ref-ext-fixtures-cypress-class-183 .edgeLabel[data-look="neo"] rect{opacity:0.5;background-color:rgba(232,232,232, 0.8);fill:rgba(232,232,232, 0.8);}#ref-ext-fixtures-cypress-class-183 .label-icon{display:inline-block;height:1em;overflow:visible;vertical-align:-0.125em;}#ref-ext-fixtures-cypress-class-183 .node .label-icon path{fill:currentColor;stroke:revert;stroke-width:revert;}#ref-ext-fixtures-cypress-class-183 .node .neo-node{stroke:#9370DB;}#ref-ext-fixtures-cypress-class-183 [data-look="neo"].node rect,#ref-ext-fixtures-cypress-class-183 [data-look="neo"].cluster rect,#ref-ext-fixtures-cypress-class-183 [data-look="neo"].node polygon{stroke:#9370DB;filter:drop-shadow(1px 2px 2px rgba(185, 185, 185, 1));}#ref-ext-fixtures-cypress-class-183 [data-look="neo"].node path{stroke:#9370DB;stroke-width:1px;}#ref-ext-fixtures-cypress-class-183 [data-look="neo"].node .outer-path{filter:drop-shadow(1px 2px 2px rgba(185, 185, 185, 1));}#ref-ext-fixtures-cypress-class-183 [data-look="neo"].node .neo-line path{stroke:#9370DB;filter:none;}#ref-ext-fixtures-cypress-class-183 [data-look="neo"].node circle{stroke:#9370DB;filter:drop-shadow(1px 2px 2px rgba(185, 185, 185, 1));}#ref-ext-fixtures-cypress-class-183 [data-look="neo"].node circle .state-start{fill:#000000;}#ref-ext-fixtures-cypress-class-183 [data-look="neo"].icon-shape .icon{fill:#9370DB;filter:drop-shadow(1px 2px 2px rgba(185, 185, 185, 1));}#ref-ext-fixtures-cypress-class-183 [data-look="neo"].icon-shape .icon-neo path{stroke:#9370DB;filter:drop-shadow(1px 2px 2px rgba(185, 185, 185, 1));}#ref-ext-fixtures-cypress-class-183 :root{--mermaid-font-family:"trebuchet ms",verdana,arial,sans-serif;}</style><g><defs><marker id="ref-ext-fixtures-cypress-class-183_class-aggregationStart" class="marker aggregation class" refX="18" refY="7" markerWidth="190" markerHeight="240" orient="auto"><path d="M 18,7 L9,13 L1,7 L9,1 Z"></path></marker></defs><defs><marker id="ref-ext-fixtures-cypress-class-183_class-aggregationEnd" class="marker aggregation class" refX="1" refY="7" markerWidth="20" markerHeight="28" orient="auto"><path d="M 18,7 L9,13 L1,7 L9,1 Z"></path></marker></defs><defs><marker id="ref-ext-fixtures-cypress-class-183_class-aggregationStart-margin" class="marker aggregation class" refX="15" refY="7" markerWidth="190" markerHeight="240" orient="auto" markerUnits="userSpaceOnUse"><path style="stroke-width: 2;" d="M 18,7 L9,13 L1,7 L9,1 Z"></path></marker></defs><defs><marker id="ref-ext-fixtures-cypress-class-183_class-aggregationEnd-margin" class="marker aggregation class" refX="1" refY="7" markerWidth="20" markerHeight="28" orient="auto" markerUnits="userSpaceOnUse"><path style="stroke-width: 2;" d="M 18,7 L9,13 L1,7 L9,1 Z"></path></marker></defs><defs><marker id="ref-ext-fixtures-cypress-class-183_class-extensionStart" class="marker extension class" refX="18" refY="7" markerWidth="190" markerHeight="240" orient="auto" markerUnits="userSpaceOnUse"><path d="M 1,7 L18,13 V 1 Z"></path></marker></defs><defs><marker id="ref-ext-fixtures-cypress-class-183_class-extensionEnd" class="marker extension class" refX="1" refY="7" markerWidth="20" markerHeight="28" orient="auto"><path d="M 1,1 V 13 L18,7 Z"></path></marker></defs><marker id="ref-ext-fixtures-cypress-class-183_class-extensionStart-margin" class="marker extension class" refX="18" refY="7" markerWidth="20" markerHeight="28" orient="auto" markerUnits="userSpaceOnUse" viewBox="0 0 20 14"><polygon points="10,7 18,13 18,1" style="stroke-width: 2; stroke-dasharray: 0;"></polygon></marker><defs><marker id="ref-ext-fixtures-cypress-class-183_class-extensionEnd-margin" class="marker extension class" refX="9" refY="7" markerWidth="20" markerHeight="28" orient="auto" markerUnits="userSpaceOnUse" viewBox="0 0 20 14"><polygon points="10,1 10,13 18,7" style="stroke-width: 2; stroke-dasharray: 0;"></polygon></marker></defs><defs><marker id="ref-ext-fixtures-cypress-class-183_class-compositionStart" class="marker composition class" refX="18" refY="7" markerWidth="190" markerHeight="240" orient="auto"><path d="M 18,7 L9,13 L1,7 L9,1 Z"></path></marker></defs><defs><marker id="ref-ext-fixtures-cypress-class-183_class-compositionEnd" class="marker composition class" refX="1" refY="7" markerWidth="20" markerHeight="28" orient="auto"><path d="M 18,7 L9,13 L1,7 L9,1 Z"></path></marker></defs><defs><marker id="ref-ext-fixtures-cypress-class-183_class-compositionStart-margin" class="marker composition class" refX="15" refY="7" markerWidth="190" markerHeight="240" orient="auto" markerUnits="userSpaceOnUse"><path style="stroke-width: 0;" viewBox="0 0 15 15" d="M 18,7 L9,13 L1,7 L9,1 Z"></path></marker></defs><defs><marker id="ref-ext-fixtures-cypress-class-183_class-compositionEnd-margin" class="marker composition class" refX="3.5" refY="7" markerWidth="20" markerHeight="28" orient="auto" markerUnits="userSpaceOnUse"><path style="stroke-width: 0;" d="M 18,7 L9,13 L1,7 L9,1 Z"></path></marker></defs><defs><marker id="ref-ext-fixtures-cypress-class-183_class-dependencyStart" class="marker dependency class" refX="6" refY="7" markerWidth="190" markerHeight="240" orient="auto"><path d="M 5,7 L9,13 L1,7 L9,1 Z"></path></marker></defs><defs><marker id="ref-ext-fixtures-cypress-class-183_class-dependencyEnd" class="marker dependency class" refX="13" refY="7" markerWidth="20" markerHeight="28" orient="auto"><path d="M 18,7 L9,13 L14,7 L9,1 Z"></path></marker></defs><defs><marker id="ref-ext-fixtures-cypress-class-183_class-dependencyStart-margin" class="marker dependency class" refX="4" refY="7" markerWidth="190" markerHeight="240" orient="auto" markerUnits="userSpaceOnUse"><path style="stroke-width: 0;" d="M 5,7 L9,13 L1,7 L9,1 Z"></path></marker></defs><defs><marker id="ref-ext-fixtures-cypress-class-183_class-dependencyEnd-margin" class="marker dependency class" refX="16" refY="7" markerWidth="20" markerHeight="28" orient="auto" markerUnits="userSpaceOnUse"><path style="stroke-width: 0;" d="M 18,7 L9,13 L14,7 L9,1 Z"></path></marker></defs><defs><marker id="ref-ext-fixtures-cypress-class-183_class-lollipopStart" class="marker lollipop class" refX="13" refY="7" markerWidth="190" markerHeight="240" orient="auto"><circle fill="transparent" cx="7" cy="7" r="6"></circle></marker></defs><defs><marker id="ref-ext-fixtures-cypress-class-183_class-lollipopEnd" class="marker lollipop class" refX="1" refY="7" markerWidth="190" markerHeight="240" orient="auto"><circle fill="transparent" cx="7" cy="7" r="6"></circle></marker></defs><defs><marker id="ref-ext-fixtures-cypress-class-183_class-lollipopStart-margin" class="marker lollipop class" refX="13" refY="7" markerWidth="190" markerHeight="240" orient="auto" markerUnits="userSpaceOnUse"><circle fill="transparent" cx="7" cy="7" r="6" stroke-width="2"></circle></marker></defs><defs><marker id="ref-ext-fixtures-cypress-class-183_class-lollipopEnd-margin" class="marker lollipop class" refX="1" refY="7" markerWidth="190" markerHeight="240" orient="auto" markerUnits="userSpaceOnUse"><circle fill="transparent" cx="7" cy="7" r="6" stroke-width="2"></circle></marker></defs><g class="root"><g class="clusters"></g><g class="edgePaths"></g><g class="edgeLabels"></g><g class="nodes"><g class="root" transform="translate(-8, 0)"><g class="clusters"><g class="cluster undefined" id="ref-ext-fixtures-cypress-class-183-Namespace1" data-look="classic"><rect style="" x="8" y="8" width="150" height="86.296875"></rect><g class="cluster-label " transform="translate(83, 8)"><foreignObject width="0" height="0"><div style="display: table-cell; white-space: nowrap; line-height: 1.5;" xmlns="http://www.w3.org/1999/xhtml"><span class="nodeLabel "><p>Namespace1</p></span></div></foreignObject></g></g></g><g class="edgePaths"><path d="M45.5,51.148L51.75,51.148C58,51.148,70.5,51.148,82,51.148C93.5,51.148,104,51.148,109.25,51.148L114.5,51.148" id="ref-ext-fixtures-cypress-class-183-id_C1_C2_1" class=" edge-thickness-normal edge-pattern-solid relation" style=";;;" data-edge="true" data-et="edge" data-id="id_C1_C2_1" data-points="W3sieCI6NDUuNSwieSI6NTEuMTQ4NDM3NX0seyJ4Ijo4MywieSI6NTEuMTQ4NDM3NX0seyJ4IjoxMjAuNSwieSI6NTEuMTQ4NDM3NX1d" data-look="classic" marker-end="url(#ref-ext-fixtures-cypress-class-183_class-dependencyEnd)"></path></g><g class="edgeLabels"><g class="edgeLabel"><g class="label" data-id="id_C1_C2_1" transform="translate(0, 0)"><foreignObject width="0" height="0"><div style="display: table-cell; white-space: nowrap; line-height: 1.5; max-width: 200px; text-align: center;" xmlns="http://www.w3.org/1999/xhtml" class="labelBkg"><span class="edgeLabel "></span></div></foreignObject></g></g></g><g class="nodes"><g class="node default " id="ref-ext-fixtures-cypress-class-183-classId-C1-59" data-look="classic" transform="translate(45.5, 51.1484375)"><g class="basic label-container outer-path"><path d="M-12 -30 L12 -30 L12 30 L-12 30" stroke="none" stroke-width="0" fill="#ECECFF" style=""></path><path d="M-12 -30 C-2.620544100399245 -30, 6.75891179920151 -30, 12 -30 M-12 -30 C-6.476614763210272 -30, -0.9532295264205448 -30, 12 -30 M12 -30 C12 -15.144597005098415, 12 -0.2891940101968302, 12 30 M12 -30 C12 -11.177325403424817, 12 7.645349193150366, 12 30 M12 30 C6.912197246698871 30, 1.824394493397742 30, -12 30 M12 30 C6.97952829766202 30, 1.9590565953240393 30, -12 30 M-12 30 C-12 7.0482374450786835, -12 -15.903525109842633, -12 -30 M-12 30 C-12 8.802551965721431, -12 -12.394896068557138, -12 -30" stroke="#9370DB" stroke-width="1.3" fill="none" stroke-dasharray="0 0" style=""></path></g><g class="annotation-group text" transform="translate(0, -6)"></g><g class="label-group text" transform="translate(0, -6)"><g class="label" style="font-weight: bolder" transform="translate(0,0)"><foreignObject width="0" height="0"><div style="display: table-cell; white-space: nowrap; line-height: 1.5; max-width: 71px; text-align: center;" xmlns="http://www.w3.org/1999/xhtml"><span class="nodeLabel markdown-node-label" style=""><p>C1</p></span></div></foreignObject></g></g><g class="members-group text" transform="translate(0, 18)"></g><g class="methods-group text" transform="translate(0, 48)"></g><g class="divider" style=""><path d="M0 -6 C0 -5.999622617768102, 0 -5.999245235536203, 0 -5.999 M0 -6 C0 -5.999662346924896, 0 -5.999324693849791, 0 -5.999" stroke="#9370DB" stroke-width="1.3" fill="none" stroke-dasharray="0 0" style=""></path></g><g class="divider" style=""><path d="M0 12 C0 12.000293164476302, 0 12.000586328952604, 0 12.001 M0 12 C0 12.000282764243375, 0 12.00056552848675, 0 12.001" stroke="#9370DB" stroke-width="1.3" fill="none" stroke-dasharray="0 0" style=""></path></g></g><g class="node default " id="ref-ext-fixtures-cypress-class-183-classId-C2-60" data-look="classic" transform="translate(120.5, 51.1484375)"><g class="basic label-container outer-path"><path d="M-12 -30 L12 -30 L12 30 L-12 30" stroke="none" stroke-width="0" fill="#ECECFF" style=""></path><path d="M-12 -30 C-6.293662084753053 -30, -0.5873241695061058 -30, 12 -30 M-12 -30 C-5.728577357069467 -30, 0.5428452858610662 -30, 12 -30 M12 -30 C12 -11.768432664121587, 12 6.463134671756826, 12 30 M12 -30 C12 -15.899057624170783, 12 -1.798115248341567, 12 30 M12 30 C4.921068540112948 30, -2.1578629197741037 30, -12 30 M12 30 C4.603275289170444 30, -2.793449421659112 30, -12 30 M-12 30 C-12 17.25813761632667, -12 4.516275232653342, -12 -30 M-12 30 C-12 14.587740088135375, -12 -0.8245198237292506, -12 -30" stroke="#9370DB" stroke-width="1.3" fill="none" stroke-dasharray="0 0" style=""></path></g><g class="annotation-group text" transform="translate(0, -6)"></g><g class="label-group text" transform="translate(0, -6)"><g class="label" style="font-weight: bolder" transform="translate(0,0)"><foreignObject width="0" height="0"><div style="display: table-cell; white-space: nowrap; line-height: 1.5; max-width: 71px; text-align: center;" xmlns="http://www.w3.org/1999/xhtml"><span class="nodeLabel markdown-node-label" style=""><p>C2</p></span></div></foreignObject></g></g><g class="members-group text" transform="translate(0, 18)"></g><g class="methods-group text" transform="translate(0, 48)"></g><g class="divider" style=""><path d="M0 -6 C0 -5.9996737382297205, 0 -5.999347476459441, 0 -5.999 M0 -6 C0 -5.999706502658908, 0 -5.999413005317816, 0 -5.999" stroke="#9370DB" stroke-width="1.3" fill="none" stroke-dasharray="0 0" style=""></path></g><g class="divider" style=""><path d="M0 12 C0 12.000394995533103, 0 12.000789991066206, 0 12.001 M0 12 C0 12.00025010483026, 0 12.000500209660517, 0 12.001" stroke="#9370DB" stroke-width="1.3" fill="none" stroke-dasharray="0 0" style=""></path></g></g></g></g><g class="node default " id="ref-ext-fixtures-cypress-class-183-classId-C3-61" data-look="classic" transform="translate(216, 55.1484375)"><g class="basic label-container outer-path"><path d="M-12 -30 L12 -30 L12 30 L-12 30" stroke="none" stroke-width="0" fill="#ECECFF" style=""></path><path d="M-12 -30 C-4.93626298946015 -30, 2.127474021079699 -30, 12 -30 M-12 -30 C-2.4196073439661614 -30, 7.160785312067677 -30, 12 -30 M12 -30 C12 -16.09403384039596, 12 -2.1880676807919173, 12 30 M12 -30 C12 -13.44267869764818, 12 3.11464260470364, 12 30 M12 30 C2.9486144643549324 30, -6.102771071290135 30, -12 30 M12 30 C2.9530242083793006 30, -6.093951583241399 30, -12 30 M-12 30 C-12 14.591162971309725, -12 -0.8176740573805503, -12 -30 M-12 30 C-12 6.49148408159941, -12 -17.01703183680118, -12 -30" stroke="#9370DB" stroke-width="1.3" fill="none" stroke-dasharray="0 0" style=""></path></g><g class="annotation-group text" transform="translate(0, -6)"></g><g class="label-group text" transform="translate(0, -6)"><g class="label" style="font-weight: bolder" transform="translate(0,0)"><foreignObject width="0" height="0"><div style="display: table-cell; white-space: nowrap; line-height: 1.5; max-width: 71px; text-align: center;" xmlns="http://www.w3.org/1999/xhtml"><span class="nodeLabel markdown-node-label" style=""><p>C3</p></span></div></foreignObject></g></g><g class="members-group text" transform="translate(0, 18)"></g><g class="methods-group text" transform="translate(0, 48)"></g><g class="divider" style=""><path d="M0 -6 C0 -5.999618688250536, 0 -5.999237376501072, 0 -5.999 M0 -6 C0 -5.99975783800372, 0 -5.999515676007441, 0 -5.999" stroke="#9370DB" stroke-width="1.3" fill="none" stroke-dasharray="0 0" style=""></path></g><g class="divider" style=""><path d="M0 12 C0 12.00031474814592, 0 12.00062949629184, 0 12.001 M0 12 C0 12.00033475202498, 0 12.000669504049961, 0 12.001" stroke="#9370DB" stroke-width="1.3" fill="none" stroke-dasharray="0 0" style=""></path></g></g><g class="node default " id="ref-ext-fixtures-cypress-class-183-classId-C4-62" data-look="classic" transform="translate(266, 55.1484375)"><g class="basic label-container outer-path"><path d="M-12 -30 L12 -30 L12 30 L-12 30" stroke="none" stroke-width="0" fill="#ECECFF" style=""></path><path d="M-12 -30 C-5.657059863203575 -30, 0.6858802735928506 -30, 12 -30 M-12 -30 C-4.502073036873421 -30, 2.995853926253158 -30, 12 -30 M12 -30 C12 -16.03676272169837, 12 -2.07352544339674, 12 30 M12 -30 C12 -6.247313645025201, 12 17.505372709949597, 12 30 M12 30 C3.420368524763493 30, -5.159262950473014 30, -12 30 M12 30 C6.114370414364894 30, 0.22874082872978718 30, -12 30 M-12 30 C-12 15.310309689340105, -12 0.6206193786802103, -12 -30 M-12 30 C-12 17.76570670473056, -12 5.531413409461123, -12 -30" stroke="#9370DB" stroke-width="1.3" fill="none" stroke-dasharray="0 0" style=""></path></g><g class="annotation-group text" transform="translate(0, -6)"></g><g class="label-group text" transform="translate(0, -6)"><g class="label" style="font-weight: bolder" transform="translate(0,0)"><foreignObject width="0" height="0"><div style="display: table-cell; white-space: nowrap; line-height: 1.5; max-width: 71px; text-align: center;" xmlns="http://www.w3.org/1999/xhtml"><span class="nodeLabel markdown-node-label" style=""><p>C4</p></span></div></foreignObject></g></g><g class="members-group text" transform="translate(0, 18)"></g><g class="methods-group text" transform="translate(0, 48)"></g><g class="divider" style=""><path d="M0 -6 C0 -5.999761610955093, 0 -5.999523221910186, 0 -5.999 M0 -6 C0 -5.999763125985668, 0 -5.999526251971335, 0 -5.999" stroke="#9370DB" stroke-width="1.3" fill="none" stroke-dasharray="0 0" style=""></path></g><g class="divider" style=""><path d="M0 12 C0 12.000219190149144, 0 12.000438380298288, 0 12.001 M0 12 C0 12.000316001116099, 0 12.000632002232198, 0 12.001" stroke="#9370DB" stroke-width="1.3" fill="none" stroke-dasharray="0 0" style=""></path></g></g></g></g></g><defs><filter id="ref-ext-fixtures-cypress-class-183-drop-shadow" height="130%" width="130%"><feDropShadow dx="4" dy="4" stdDeviation="0" flood-opacity="0.06" flood-color="#000000"></feDropShadow></filter></defs><defs><filter id="ref-ext-fixtures-cypress-class-183-drop-shadow-small" height="150%" width="150%"><feDropShadow dx="2" dy="2" stdDeviation="0" flood-opacity="0.06" flood-color="#000000"></feDropShadow></filter></defs></svg>