<?plantuml 1.2026.2?><svg xmlns="http://www.w3.org/2000/svg" xmlns:xlink="http://www.w3.org/1999/xlink" contentStyleType="text/css" data-diagram-type="SEQUENCE" height="177px" preserveAspectRatio="none" style="width:309px;height:177px;background:#FFFFFF;" version="1.1" viewBox="0 0 309 177" width="309px" zoomAndPan="magnify"><defs/><g><g><title>foo</title><rect fill="#000000" fill-opacity="0.00000" height="105.3984" width="8" x="50.4653" y="36.2969"/><line style="stroke:#181818;stroke-width:0.5;stroke-dasharray:5,5;" x1="53.9653" x2="53.9653" y1="36.2969" y2="141.6953"/></g><g><title>Bob</title><rect fill="#000000" fill-opacity="0.00000" height="105.3984" width="8" x="99.0234" y="36.2969"/><line style="stroke:#181818;stroke-width:0.5;stroke-dasharray:5,5;" x1="102.5234" x2="102.5234" y1="36.2969" y2="141.6953"/></g><g><title>Charlie</title><rect fill="#000000" fill-opacity="0.00000" height="105.3984" width="8" x="161.2397" y="36.2969"/><line style="stroke:#181818;stroke-width:0.5;stroke-dasharray:5,5;" x1="164.7397" x2="164.7397" y1="36.2969" y2="141.6953"/></g><g><title>Alice</title><rect fill="#000000" fill-opacity="0.00000" height="105.3984" width="8" x="275.9766" y="36.2969"/><line style="stroke:#181818;stroke-width:0.5;stroke-dasharray:5,5;" x1="279.4766" x2="279.4766" y1="36.2969" y2="141.6953"/></g><rect fill="#E2E2F0" height="30.2969" rx="2.5" ry="2.5" style="stroke:#181818;stroke-width:0.5;" width="36.0596" x="35.9355" y="5"/><text fill="#000000" font-family="sans-serif" font-size="14" lengthAdjust="spacing" textLength="22.0596" x="42.9355" y="24.9951">foo</text><rect fill="#E2E2F0" height="30.2969" rx="2.5" ry="2.5" style="stroke:#181818;stroke-width:0.5;" width="41.0566" x="81.9951" y="5"/><text fill="#000000" font-family="sans-serif" font-size="14" lengthAdjust="spacing" textLength="27.0566" x="88.9951" y="24.9951">Bob</text><rect fill="#E2E2F0" height="30.2969" rx="2.5" ry="2.5" style="stroke:#181818;stroke-width:0.5;" width="63.376" x="133.0518" y="5"/><text fill="#000000" font-family="sans-serif" font-size="14" lengthAdjust="spacing" textLength="49.376" x="140.0518" y="24.9951">Charlie</text><rect fill="#E2E2F0" height="30.2969" rx="2.5" ry="2.5" style="stroke:#181818;stroke-width:0.5;" width="47.667" x="255.6431" y="5"/><text fill="#000000" font-family="sans-serif" font-size="14" lengthAdjust="spacing" textLength="33.667" x="262.6431" y="24.9951">Alice</text><rect fill="#E2E2F0" height="30.2969" rx="2.5" ry="2.5" style="stroke:#181818;stroke-width:0.5;" width="36.0596" x="35.9355" y="141.6953"/><text fill="#000000" font-family="sans-serif" font-size="14" lengthAdjust="spacing" textLength="22.0596" x="42.9355" y="161.6904">foo</text><rect fill="#E2E2F0" height="30.2969" rx="2.5" ry="2.5" style="stroke:#181818;stroke-width:0.5;" width="41.0566" x="81.9951" y="141.6953"/><text fill="#000000" font-family="sans-serif" font-size="14" lengthAdjust="spacing" textLength="27.0566" x="88.9951" y="161.6904">Bob</text><rect fill="#E2E2F0" height="30.2969" rx="2.5" ry="2.5" style="stroke:#181818;stroke-width:0.5;" width="63.376" x="133.0518" y="141.6953"/><text fill="#000000" font-family="sans-serif" font-size="14" lengthAdjust="spacing" textLength="49.376" x="140.0518" y="161.6904">Charlie</text><rect fill="#E2E2F0" height="30.2969" rx="2.5" ry="2.5" style="stroke:#181818;stroke-width:0.5;" width="47.667" x="255.6431" y="141.6953"/><text fill="#000000" font-family="sans-serif" font-size="14" lengthAdjust="spacing" textLength="33.667" x="262.6431" y="161.6904">Alice</text><polygon fill="#181818" points="41.9653,61.4297,51.9653,65.4297,41.9653,69.4297,45.9653,65.4297" style="stroke:#181818;stroke-width:1;"/><line style="stroke:#181818;stroke-width:1;" x1="5" x2="47.9653" y1="65.4297" y2="65.4297"/><text fill="#000000" font-family="sans-serif" font-size="13" lengthAdjust="spacing" textLength="24.9653" x="12" y="60.3638">test</text><polygon fill="#181818" points="152.7397,61.4297,162.7397,65.4297,152.7397,69.4297,156.7397,65.4297" style="stroke:#181818;stroke-width:1;"/><line style="stroke:#181818;stroke-width:1;" x1="102.5234" x2="158.7397" y1="65.4297" y2="65.4297"/><path d="M86.5234,65.4297 L156.0127,65.4297 L156.0127,72.5625 L146.0127,82.5625 L86.5234,82.5625 L86.5234,65.4297" fill="#EEEEEE" style="stroke:#000000;stroke-width:1.5;"/><rect fill="none" height="56.2656" style="stroke:#000000;stroke-width:1.5;" width="208.9531" x="86.5234" y="65.4297"/><text fill="#000000" font-family="sans-serif" font-size="13" font-weight="bold" lengthAdjust="spacing" textLength="24.4893" x="101.5234" y="78.4966">par</text><polygon fill="#181818" points="113.5234,109.6953,103.5234,113.6953,113.5234,117.6953,109.5234,113.6953" style="stroke:#181818;stroke-width:1;"/><line style="stroke:#181818;stroke-width:1;" x1="107.5234" x2="278.4766" y1="113.6953" y2="113.6953"/><text fill="#000000" font-family="sans-serif" font-size="13" lengthAdjust="spacing" textLength="152.9531" x="119.5234" y="108.6294">Authentication Request</text><polygon fill="#181818" points="267.4766,61.4297,277.4766,65.4297,267.4766,69.4297,271.4766,65.4297" style="stroke:#181818;stroke-width:1;"/><line style="stroke:#181818;stroke-width:1;" x1="53.9653" x2="273.4766" y1="65.4297" y2="65.4297"/><text fill="#000000" font-family="sans-serif" font-size="13" lengthAdjust="spacing" textLength="24.9653" x="60.9653" y="60.3638">test</text><?plantuml-src KomeIapFJLGeISslKYWfAatbKeZMjLD8oyzNi08A5fTmgIauvISf0CMSCnABSZ9JWG85YKLS2Y3Wc9EPd0gI0ognKd0iBSb8pIl9J4uioSpFKmXABIm56Q2k1jDAG65gNWhGS93LG8KGew5k0000?></g></svg>