<svg xmlns="http://www.w3.org/2000/svg" xmlns:xlink="http://www.w3.org/1999/xlink" contentStyleType="text/css" data-diagram-type="ACTIVITY" height="288px" preserveAspectRatio="none" style="width:266px;height:288px;background:#FFFFFF;" version="1.1" viewBox="0 0 266 288" width="266px" zoomAndPan="magnify"><?plantuml 1.2026.3beta5?><defs/><g><rect fill="none" height="20.9531" style="stroke:none;stroke-width:1;" width="219.1577" x="20" y="17.7451"/><ellipse cx="75.3242" cy="53.6982" fill="#222222" rx="10" ry="10" style="stroke:#222222;stroke-width:1;"/><rect fill="#F1F1F1" height="33.9688" rx="12.5" ry="12.5" style="stroke:#181818;stroke-width:0.5;" width="69.2422" x="40.7031" y="83.6982"/><text fill="#000000" font-family="sans-serif" font-size="12" lengthAdjust="spacing" textLength="49.2422" x="50.7031" y="104.8369">Action 1</text><rect fill="#F1F1F1" height="33.9688" rx="12.5" ry="12.5" style="stroke:#181818;stroke-width:0.5;" width="69.2422" x="40.7031" y="191.6357"/><text fill="#000000" font-family="sans-serif" font-size="12" lengthAdjust="spacing" textLength="49.2422" x="50.7031" y="212.7744">Action 3</text><ellipse cx="75.3242" cy="256.6045" fill="none" rx="11" ry="11" style="stroke:#222222;stroke-width:1;"/><ellipse cx="75.3242" cy="256.6045" fill="#222222" rx="6" ry="6" style="stroke:#222222;stroke-width:1;"/><line style="stroke:#000000;stroke-width:1.5;" x1="20" x2="20" y1="17.7451" y2="267.6045"/><rect fill="#F1F1F1" height="33.9688" rx="12.5" ry="12.5" style="stroke:#181818;stroke-width:0.5;" width="69.2422" x="149.3516" y="137.667"/><text fill="#000000" font-family="sans-serif" font-size="12" lengthAdjust="spacing" textLength="49.2422" x="159.3516" y="158.8057">Action 2</text><line style="stroke:#000000;stroke-width:1.5;" x1="128.6484" x2="128.6484" y1="17.7451" y2="267.6045"/><line style="stroke:#000000;stroke-width:1.5;" x1="237.2969" x2="237.2969" y1="17.7451" y2="267.6045"/><line style="stroke:#181818;stroke-width:1;" x1="75.3242" x2="75.3242" y1="63.6982" y2="83.6982"/><polygon fill="#181818" points="71.3242,73.6982,75.3242,83.6982,79.3242,73.6982,75.3242,77.6982" style="stroke:#181818;stroke-width:1;"/><line style="stroke:#181818;stroke-width:1;" x1="75.3242" x2="75.3242" y1="225.6045" y2="245.6045"/><polygon fill="#181818" points="71.3242,235.6045,75.3242,245.6045,79.3242,235.6045,75.3242,239.6045" style="stroke:#181818;stroke-width:1;"/><line style="stroke:#181818;stroke-width:1;" x1="75.3242" x2="75.3242" y1="117.667" y2="122.667"/><line style="stroke:#181818;stroke-width:1;" x1="75.3242" x2="183.9727" y1="122.667" y2="122.667"/><line style="stroke:#181818;stroke-width:1;" x1="183.9727" x2="183.9727" y1="122.667" y2="137.667"/><polygon fill="#181818" points="179.9727,127.667,183.9727,137.667,187.9727,127.667,183.9727,131.667" style="stroke:#181818;stroke-width:1;"/><line style="stroke:#181818;stroke-width:1;" x1="183.9727" x2="183.9727" y1="171.6357" y2="176.6357"/><line style="stroke:#181818;stroke-width:1;" x1="183.9727" x2="75.3242" y1="176.6357" y2="176.6357"/><line style="stroke:#181818;stroke-width:1;" x1="75.3242" x2="75.3242" y1="176.6357" y2="191.6357"/><polygon fill="#181818" points="71.3242,181.6357,75.3242,191.6357,79.3242,181.6357,75.3242,185.6357" style="stroke:#181818;stroke-width:1;"/><text fill="#000000" font-family="sans-serif" font-size="18" lengthAdjust="spacing" textLength="98.6484" x="25" y="34.4531">Swimlane1</text><text fill="#000000" font-family="sans-serif" font-size="18" lengthAdjust="spacing" textLength="98.6484" x="133.6484" y="34.4531">Swimlane2</text><?plantuml-src gmakpypDISnBDQpXAYv9B2hXid9CBidCprCmjEQgWKaQrS25ZP243H72njP0xVa50000?></g></svg>