<svg id="ref-ext-fixtures-cypress-requirement-03" width="100%" xmlns="http://www.w3.org/2000/svg" class="requirementDiagram" style="max-width: 16px;" viewBox="-8 -8 16 32.296875" role="graphics-document document" aria-roledescription="requirement"><style>#ref-ext-fixtures-cypress-requirement-03{font-family:"trebuchet ms",verdana,arial,sans-serif;font-size:16px;fill:#333;}@keyframes edge-animation-frame{from{stroke-dashoffset:0;}}@keyframes dash{to{stroke-dashoffset:0;}}#ref-ext-fixtures-cypress-requirement-03 .edge-animation-slow{stroke-dasharray:9,5!important;stroke-dashoffset:900;animation:dash 50s linear infinite;stroke-linecap:round;}#ref-ext-fixtures-cypress-requirement-03 .edge-animation-fast{stroke-dasharray:9,5!important;stroke-dashoffset:900;animation:dash 20s linear infinite;stroke-linecap:round;}#ref-ext-fixtures-cypress-requirement-03 .error-icon{fill:#552222;}#ref-ext-fixtures-cypress-requirement-03 .error-text{fill:#552222;stroke:#552222;}#ref-ext-fixtures-cypress-requirement-03 .edge-thickness-normal{stroke-width:1px;}#ref-ext-fixtures-cypress-requirement-03 .edge-thickness-thick{stroke-width:3.5px;}#ref-ext-fixtures-cypress-requirement-03 .edge-pattern-solid{stroke-dasharray:0;}#ref-ext-fixtures-cypress-requirement-03 .edge-thickness-invisible{stroke-width:0;fill:none;}#ref-ext-fixtures-cypress-requirement-03 .edge-pattern-dashed{stroke-dasharray:3;}#ref-ext-fixtures-cypress-requirement-03 .edge-pattern-dotted{stroke-dasharray:2;}#ref-ext-fixtures-cypress-requirement-03 .marker{fill:#333333;stroke:#333333;}#ref-ext-fixtures-cypress-requirement-03 .marker.cross{stroke:#333333;}#ref-ext-fixtures-cypress-requirement-03 svg{font-family:"trebuchet ms",verdana,arial,sans-serif;font-size:16px;}#ref-ext-fixtures-cypress-requirement-03 p{margin:0;}#ref-ext-fixtures-cypress-requirement-03 marker{fill:#333333;stroke:#333333;}#ref-ext-fixtures-cypress-requirement-03 marker.cross{stroke:#333333;}#ref-ext-fixtures-cypress-requirement-03 svg{font-family:"trebuchet ms",verdana,arial,sans-serif;font-size:16px;}#ref-ext-fixtures-cypress-requirement-03 .reqBox{fill:#ECECFF;fill-opacity:1.0;stroke:hsl(240, 60%, 86.2745098039%);stroke-width:1;}#ref-ext-fixtures-cypress-requirement-03 .reqTitle,#ref-ext-fixtures-cypress-requirement-03 .reqLabel{fill:#131300;}#ref-ext-fixtures-cypress-requirement-03 .reqLabelBox{fill:rgba(232,232,232, 0.8);fill-opacity:1.0;}#ref-ext-fixtures-cypress-requirement-03 .req-title-line{stroke:hsl(240, 60%, 86.2745098039%);stroke-width:1;}#ref-ext-fixtures-cypress-requirement-03 .relationshipLine{stroke:#333333;stroke-width:1px;}#ref-ext-fixtures-cypress-requirement-03 .relationshipLabel{fill:black;}#ref-ext-fixtures-cypress-requirement-03 .edgeLabel{background-color:rgba(232,232,232, 0.8);}#ref-ext-fixtures-cypress-requirement-03 .edgeLabel .label rect{fill:rgba(232,232,232, 0.8);}#ref-ext-fixtures-cypress-requirement-03 .edgeLabel .label text{fill:black;}#ref-ext-fixtures-cypress-requirement-03 .divider{stroke:#9370DB;stroke-width:1;}#ref-ext-fixtures-cypress-requirement-03 .label{font-family:"trebuchet ms",verdana,arial,sans-serif;color:#333;}#ref-ext-fixtures-cypress-requirement-03 .label text,#ref-ext-fixtures-cypress-requirement-03 span{fill:#333;color:#333;}#ref-ext-fixtures-cypress-requirement-03 .labelBkg{background-color:rgba(232,232,232, 0.8);}#ref-ext-fixtures-cypress-requirement-03 .node .neo-node{stroke:#9370DB;}#ref-ext-fixtures-cypress-requirement-03 [data-look="neo"].node rect,#ref-ext-fixtures-cypress-requirement-03 [data-look="neo"].cluster rect,#ref-ext-fixtures-cypress-requirement-03 [data-look="neo"].node polygon{stroke:#9370DB;filter:drop-shadow(1px 2px 2px rgba(185, 185, 185, 1));}#ref-ext-fixtures-cypress-requirement-03 [data-look="neo"].node path{stroke:#9370DB;stroke-width:1px;}#ref-ext-fixtures-cypress-requirement-03 [data-look="neo"].node .outer-path{filter:drop-shadow(1px 2px 2px rgba(185, 185, 185, 1));}#ref-ext-fixtures-cypress-requirement-03 [data-look="neo"].node .neo-line path{stroke:#9370DB;filter:none;}#ref-ext-fixtures-cypress-requirement-03 [data-look="neo"].node circle{stroke:#9370DB;filter:drop-shadow(1px 2px 2px rgba(185, 185, 185, 1));}#ref-ext-fixtures-cypress-requirement-03 [data-look="neo"].node circle .state-start{fill:#000000;}#ref-ext-fixtures-cypress-requirement-03 [data-look="neo"].icon-shape .icon{fill:#9370DB;filter:drop-shadow(1px 2px 2px rgba(185, 185, 185, 1));}#ref-ext-fixtures-cypress-requirement-03 [data-look="neo"].icon-shape .icon-neo path{stroke:#9370DB;filter:drop-shadow(1px 2px 2px rgba(185, 185, 185, 1));}#ref-ext-fixtures-cypress-requirement-03 :root{--mermaid-font-family:"trebuchet ms",verdana,arial,sans-serif;}</style><g><defs><marker id="ref-ext-fixtures-cypress-requirement-03_requirement-requirement_containsStart" refX="0" refY="10" markerWidth="20" markerHeight="20" orient="auto"><g><circle cx="10" cy="10" r="9" fill="none"></circle><line x1="1" x2="19" y1="10" y2="10"></line><line y1="1" y2="19" x1="10" x2="10"></line></g></marker></defs><defs><marker id="ref-ext-fixtures-cypress-requirement-03_requirement-requirement_arrowEnd" refX="20" refY="10" markerWidth="20" markerHeight="20" orient="auto"><path d="M0,0
      L20,10
      M20,10
      L0,20"></path></marker></defs><g class="root"><g class="clusters"></g><g class="edgePaths"></g><g class="edgeLabels"></g><g class="nodes"><g class="node default " id="ref-ext-fixtures-cypress-requirement-03-req1" data-look="classic" transform="translate(8, 16.1484375)"><g class="basic label-container outer-path" style=""><path d="M-10 -10 L10 -10 L10 10 L-10 10" stroke="none" stroke-width="0" fill="#ECECFF"></path><path d="M-10 -10 C-2.1338785736983485 -10, 5.732242852603303 -10, 10 -10 M-10 -10 C-4.579571312504672 -10, 0.8408573749906552 -10, 10 -10 M10 -10 C10 -3.9970808191502227, 10 2.0058383616995545, 10 10 M10 -10 C10 -4.763205349953765, 10 0.47358930009247047, 10 10 M10 10 C4.549445134993874 10, -0.9011097300122515 10, -10 10 M10 10 C3.1105382305096443 10, -3.7789235389807114 10, -10 10 M-10 10 C-10 4.506353896695514, -10 -0.9872922066089718, -10 -10 M-10 10 C-10 2.9547880025397335, -10 -4.090423994920533, -10 -10" stroke="#9370DB" stroke-width="1.3" fill="none" stroke-dasharray="0 0"></path></g><g class="label" style="" transform="translate(0, 10)"><foreignObject width="0" height="0"><div style="display: table-cell; white-space: nowrap; line-height: 1.5; max-width: 280px; text-align: center;" xmlns="http://www.w3.org/1999/xhtml"><span class="nodeLabel markdown-node-label"><p>&lt;&lt;Requirement&gt;&gt;</p></span></div></foreignObject></g><g class="label" style="; font-weight: bold;" transform="translate(0, 10)"><foreignObject width="0" height="0"><div style="display: table-cell; white-space: nowrap; line-height: 1.5; max-width: 87px; text-align: center;" xmlns="http://www.w3.org/1999/xhtml"><span style="; font-weight: bold;" class="nodeLabel markdown-node-label"><p>req1</p></span></div></foreignObject></g><g class="label" style="" transform="translate(0, 30)"><foreignObject width="0" height="0"><div style="display: table-cell; white-space: nowrap; line-height: 1.5; max-width: 88px; text-align: center;" xmlns="http://www.w3.org/1999/xhtml"><span class="nodeLabel markdown-node-label"><p>ID: 1</p></span></div></foreignObject></g><g class="label" style="" transform="translate(0, 30)"><foreignObject width="0" height="0"><div style="display: table-cell; white-space: nowrap; line-height: 1.5; max-width: 247px; text-align: center;" xmlns="http://www.w3.org/1999/xhtml"><span class="nodeLabel markdown-node-label"><p>Text: basic requirement.</p></span></div></foreignObject></g><g class="label" style="" transform="translate(0, 30)"><foreignObject width="0" height="0"><div style="display: table-cell; white-space: nowrap; line-height: 1.5; max-width: 125px; text-align: center;" xmlns="http://www.w3.org/1999/xhtml"><span class="nodeLabel markdown-node-label"><p>Risk: Low</p></span></div></foreignObject></g><g class="label" style="" transform="translate(0, 30)"><foreignObject width="0" height="0"><div style="display: table-cell; white-space: nowrap; line-height: 1.5; max-width: 218px; text-align: center;" xmlns="http://www.w3.org/1999/xhtml"><span class="nodeLabel markdown-node-label"><p>Verification: Analysis</p></span></div></foreignObject></g></g><g class="node default " id="ref-ext-fixtures-cypress-requirement-03-req2" data-look="classic" transform="translate(58, 16.1484375)"><g class="basic label-container outer-path" style=""><path d="M-10 -10 L10 -10 L10 10 L-10 10" stroke="none" stroke-width="0" fill="#ECECFF"></path><path d="M-10 -10 C-2.3995786090970057 -10, 5.200842781805989 -10, 10 -10 M-10 -10 C-5.350625240174956 -10, -0.7012504803499127 -10, 10 -10 M10 -10 C10 -5.210595482765926, 10 -0.42119096553185287, 10 10 M10 -10 C10 -5.010950096998978, 10 -0.021900193997955952, 10 10 M10 10 C5.414711125141174 10, 0.8294222502823487 10, -10 10 M10 10 C4.447707726446493 10, -1.1045845471070148 10, -10 10 M-10 10 C-10 4.717763144632897, -10 -0.5644737107342053, -10 -10 M-10 10 C-10 4.497458656186972, -10 -1.0050826876260555, -10 -10" stroke="#9370DB" stroke-width="1.3" fill="none" stroke-dasharray="0 0"></path></g><g class="label" style="" transform="translate(0, 10)"><foreignObject width="0" height="0"><div style="display: table-cell; white-space: nowrap; line-height: 1.5; max-width: 368px; text-align: center;" xmlns="http://www.w3.org/1999/xhtml"><span class="nodeLabel markdown-node-label"><p>&lt;&lt;Functional Requirement&gt;&gt;</p></span></div></foreignObject></g><g class="label" style="; font-weight: bold;" transform="translate(0, 10)"><foreignObject width="0" height="0"><div style="display: table-cell; white-space: nowrap; line-height: 1.5; max-width: 87px; text-align: center;" xmlns="http://www.w3.org/1999/xhtml"><span style="; font-weight: bold;" class="nodeLabel markdown-node-label"><p>req2</p></span></div></foreignObject></g><g class="label" style="" transform="translate(0, 30)"><foreignObject width="0" height="0"><div style="display: table-cell; white-space: nowrap; line-height: 1.5; max-width: 88px; text-align: center;" xmlns="http://www.w3.org/1999/xhtml"><span class="nodeLabel markdown-node-label"><p>ID: 2</p></span></div></foreignObject></g><g class="label" style="" transform="translate(0, 30)"><foreignObject width="0" height="0"><div style="display: table-cell; white-space: nowrap; line-height: 1.5; max-width: 285px; text-align: center;" xmlns="http://www.w3.org/1999/xhtml"><span class="nodeLabel markdown-node-label"><p>Text: functional requirement.</p></span></div></foreignObject></g><g class="label" style="" transform="translate(0, 30)"><foreignObject width="0" height="0"><div style="display: table-cell; white-space: nowrap; line-height: 1.5; max-width: 158px; text-align: center;" xmlns="http://www.w3.org/1999/xhtml"><span class="nodeLabel markdown-node-label"><p>Risk: Medium</p></span></div></foreignObject></g><g class="label" style="" transform="translate(0, 30)"><foreignObject width="0" height="0"><div style="display: table-cell; white-space: nowrap; line-height: 1.5; max-width: 271px; text-align: center;" xmlns="http://www.w3.org/1999/xhtml"><span class="nodeLabel markdown-node-label"><p>Verification: Demonstration</p></span></div></foreignObject></g></g><g class="node default " id="ref-ext-fixtures-cypress-requirement-03-req3" data-look="classic" transform="translate(108, 16.1484375)"><g class="basic label-container outer-path" style=""><path d="M-10 -10 L10 -10 L10 10 L-10 10" stroke="none" stroke-width="0" fill="#ECECFF"></path><path d="M-10 -10 C-2.9367700072916536 -10, 4.126459985416693 -10, 10 -10 M-10 -10 C-4.138150075258081 -10, 1.7236998494838378 -10, 10 -10 M10 -10 C10 -3.8215508467304016, 10 2.356898306539197, 10 10 M10 -10 C10 -2.674381450078222, 10 4.651237099843556, 10 10 M10 10 C4.87948438570522 10, -0.24103122858955928 10, -10 10 M10 10 C4.973200627265646 10, -0.05359874546870813 10, -10 10 M-10 10 C-10 3.5347201121093352, -10 -2.9305597757813295, -10 -10 M-10 10 C-10 4.35901436227165, -10 -1.2819712754566996, -10 -10" stroke="#9370DB" stroke-width="1.3" fill="none" stroke-dasharray="0 0"></path></g><g class="label" style="" transform="translate(0, 10)"><foreignObject width="0" height="0"><div style="display: table-cell; white-space: nowrap; line-height: 1.5; max-width: 356px; text-align: center;" xmlns="http://www.w3.org/1999/xhtml"><span class="nodeLabel markdown-node-label"><p>&lt;&lt;Interface Requirement&gt;&gt;</p></span></div></foreignObject></g><g class="label" style="; font-weight: bold;" transform="translate(0, 10)"><foreignObject width="0" height="0"><div style="display: table-cell; white-space: nowrap; line-height: 1.5; max-width: 87px; text-align: center;" xmlns="http://www.w3.org/1999/xhtml"><span style="; font-weight: bold;" class="nodeLabel markdown-node-label"><p>req3</p></span></div></foreignObject></g><g class="label" style="" transform="translate(0, 30)"><foreignObject width="0" height="0"><div style="display: table-cell; white-space: nowrap; line-height: 1.5; max-width: 88px; text-align: center;" xmlns="http://www.w3.org/1999/xhtml"><span class="nodeLabel markdown-node-label"><p>ID: 3</p></span></div></foreignObject></g><g class="label" style="" transform="translate(0, 30)"><foreignObject width="0" height="0"><div style="display: table-cell; white-space: nowrap; line-height: 1.5; max-width: 277px; text-align: center;" xmlns="http://www.w3.org/1999/xhtml"><span class="nodeLabel markdown-node-label"><p>Text: interface requirement.</p></span></div></foreignObject></g><g class="label" style="" transform="translate(0, 30)"><foreignObject width="0" height="0"><div style="display: table-cell; white-space: nowrap; line-height: 1.5; max-width: 130px; text-align: center;" xmlns="http://www.w3.org/1999/xhtml"><span class="nodeLabel markdown-node-label"><p>Risk: High</p></span></div></foreignObject></g><g class="label" style="" transform="translate(0, 30)"><foreignObject width="0" height="0"><div style="display: table-cell; white-space: nowrap; line-height: 1.5; max-width: 234px; text-align: center;" xmlns="http://www.w3.org/1999/xhtml"><span class="nodeLabel markdown-node-label"><p>Verification: Inspection</p></span></div></foreignObject></g></g><g class="node default " id="ref-ext-fixtures-cypress-requirement-03-req4" data-look="classic" transform="translate(158, 16.1484375)"><g class="basic label-container outer-path" style=""><path d="M-10 -10 L10 -10 L10 10 L-10 10" stroke="none" stroke-width="0" fill="#ECECFF"></path><path d="M-10 -10 C-5.38118719347626 -10, -0.7623743869525192 -10, 10 -10 M-10 -10 C-2.510733707286051 -10, 4.978532585427898 -10, 10 -10 M10 -10 C10 -5.544481625450466, 10 -1.0889632509009317, 10 10 M10 -10 C10 -2.186641675213923, 10 5.626716649572154, 10 10 M10 10 C4.900935248393151 10, -0.19812950321369804 10, -10 10 M10 10 C3.075630835161051 10, -3.8487383296778983 10, -10 10 M-10 10 C-10 3.5643950477168707, -10 -2.8712099045662587, -10 -10 M-10 10 C-10 2.3715899170618515, -10 -5.256820165876297, -10 -10" stroke="#9370DB" stroke-width="1.3" fill="none" stroke-dasharray="0 0"></path></g><g class="label" style="" transform="translate(0, 10)"><foreignObject width="0" height="0"><div style="display: table-cell; white-space: nowrap; line-height: 1.5; max-width: 387px; text-align: center;" xmlns="http://www.w3.org/1999/xhtml"><span class="nodeLabel markdown-node-label"><p>&lt;&lt;Performance Requirement&gt;&gt;</p></span></div></foreignObject></g><g class="label" style="; font-weight: bold;" transform="translate(0, 10)"><foreignObject width="0" height="0"><div style="display: table-cell; white-space: nowrap; line-height: 1.5; max-width: 87px; text-align: center;" xmlns="http://www.w3.org/1999/xhtml"><span style="; font-weight: bold;" class="nodeLabel markdown-node-label"><p>req4</p></span></div></foreignObject></g><g class="label" style="" transform="translate(0, 30)"><foreignObject width="0" height="0"><div style="display: table-cell; white-space: nowrap; line-height: 1.5; max-width: 88px; text-align: center;" xmlns="http://www.w3.org/1999/xhtml"><span class="nodeLabel markdown-node-label"><p>ID: 4</p></span></div></foreignObject></g><g class="label" style="" transform="translate(0, 30)"><foreignObject width="0" height="0"><div style="display: table-cell; white-space: nowrap; line-height: 1.5; max-width: 308px; text-align: center;" xmlns="http://www.w3.org/1999/xhtml"><span class="nodeLabel markdown-node-label"><p>Text: performance requirement.</p></span></div></foreignObject></g><g class="label" style="" transform="translate(0, 30)"><foreignObject width="0" height="0"><div style="display: table-cell; white-space: nowrap; line-height: 1.5; max-width: 158px; text-align: center;" xmlns="http://www.w3.org/1999/xhtml"><span class="nodeLabel markdown-node-label"><p>Risk: Medium</p></span></div></foreignObject></g><g class="label" style="" transform="translate(0, 30)"><foreignObject width="0" height="0"><div style="display: table-cell; white-space: nowrap; line-height: 1.5; max-width: 186px; text-align: center;" xmlns="http://www.w3.org/1999/xhtml"><span class="nodeLabel markdown-node-label"><p>Verification: Test</p></span></div></foreignObject></g></g><g class="node default " id="ref-ext-fixtures-cypress-requirement-03-req5" data-look="classic" transform="translate(208, 16.1484375)"><g class="basic label-container outer-path" style=""><path d="M-10 -10 L10 -10 L10 10 L-10 10" stroke="none" stroke-width="0" fill="#ECECFF"></path><path d="M-10 -10 C-5.711646814759807 -10, -1.4232936295196144 -10, 10 -10 M-10 -10 C-3.783918542424969 -10, 2.4321629151500623 -10, 10 -10 M10 -10 C10 -2.064363048252754, 10 5.871273903494492, 10 10 M10 -10 C10 -2.5101251839023186, 10 4.979749632195363, 10 10 M10 10 C5.164674949390205 10, 0.32934989878041065 10, -10 10 M10 10 C2.8332683039295725 10, -4.333463392140855 10, -10 10 M-10 10 C-10 3.9862205236845636, -10 -2.027558952630873, -10 -10 M-10 10 C-10 2.1972448566710456, -10 -5.605510286657909, -10 -10" stroke="#9370DB" stroke-width="1.3" fill="none" stroke-dasharray="0 0"></path></g><g class="label" style="" transform="translate(0, 10)"><foreignObject width="0" height="0"><div style="display: table-cell; white-space: nowrap; line-height: 1.5; max-width: 350px; text-align: center;" xmlns="http://www.w3.org/1999/xhtml"><span class="nodeLabel markdown-node-label"><p>&lt;&lt;Physical Requirement&gt;&gt;</p></span></div></foreignObject></g><g class="label" style="; font-weight: bold;" transform="translate(0, 10)"><foreignObject width="0" height="0"><div style="display: table-cell; white-space: nowrap; line-height: 1.5; max-width: 87px; text-align: center;" xmlns="http://www.w3.org/1999/xhtml"><span style="; font-weight: bold;" class="nodeLabel markdown-node-label"><p>req5</p></span></div></foreignObject></g><g class="label" style="" transform="translate(0, 30)"><foreignObject width="0" height="0"><div style="display: table-cell; white-space: nowrap; line-height: 1.5; max-width: 88px; text-align: center;" xmlns="http://www.w3.org/1999/xhtml"><span class="nodeLabel markdown-node-label"><p>ID: 5</p></span></div></foreignObject></g><g class="label" style="" transform="translate(0, 30)"><foreignObject width="0" height="0"><div style="display: table-cell; white-space: nowrap; line-height: 1.5; max-width: 271px; text-align: center;" xmlns="http://www.w3.org/1999/xhtml"><span class="nodeLabel markdown-node-label"><p>Text: physical requirement.</p></span></div></foreignObject></g><g class="label" style="" transform="translate(0, 30)"><foreignObject width="0" height="0"><div style="display: table-cell; white-space: nowrap; line-height: 1.5; max-width: 125px; text-align: center;" xmlns="http://www.w3.org/1999/xhtml"><span class="nodeLabel markdown-node-label"><p>Risk: Low</p></span></div></foreignObject></g><g class="label" style="" transform="translate(0, 30)"><foreignObject width="0" height="0"><div style="display: table-cell; white-space: nowrap; line-height: 1.5; max-width: 218px; text-align: center;" xmlns="http://www.w3.org/1999/xhtml"><span class="nodeLabel markdown-node-label"><p>Verification: Analysis</p></span></div></foreignObject></g></g><g class="node default " id="ref-ext-fixtures-cypress-requirement-03-req6" data-look="classic" transform="translate(258, 16.1484375)"><g class="basic label-container outer-path" style=""><path d="M-10 -10 L10 -10 L10 10 L-10 10" stroke="none" stroke-width="0" fill="#ECECFF"></path><path d="M-10 -10 C-3.969203920193575 -10, 2.06159215961285 -10, 10 -10 M-10 -10 C-3.547798295364048 -10, 2.9044034092719038 -10, 10 -10 M10 -10 C10 -3.89135736571148, 10 2.21728526857704, 10 10 M10 -10 C10 -3.3963268526885715, 10 3.207346294622857, 10 10 M10 10 C3.8199196563833144 10, -2.360160687233371 10, -10 10 M10 10 C5.308613335515813 10, 0.6172266710316254 10, -10 10 M-10 10 C-10 2.446625634078617, -10 -5.106748731842766, -10 -10 M-10 10 C-10 2.6521223433203396, -10 -4.695755313359321, -10 -10" stroke="#9370DB" stroke-width="1.3" fill="none" stroke-dasharray="0 0"></path></g><g class="label" style="" transform="translate(0, 10)"><foreignObject width="0" height="0"><div style="display: table-cell; white-space: nowrap; line-height: 1.5; max-width: 319px; text-align: center;" xmlns="http://www.w3.org/1999/xhtml"><span class="nodeLabel markdown-node-label"><p>&lt;&lt;Design Constraint&gt;&gt;</p></span></div></foreignObject></g><g class="label" style="; font-weight: bold;" transform="translate(0, 10)"><foreignObject width="0" height="0"><div style="display: table-cell; white-space: nowrap; line-height: 1.5; max-width: 87px; text-align: center;" xmlns="http://www.w3.org/1999/xhtml"><span style="; font-weight: bold;" class="nodeLabel markdown-node-label"><p>req6</p></span></div></foreignObject></g><g class="label" style="" transform="translate(0, 30)"><foreignObject width="0" height="0"><div style="display: table-cell; white-space: nowrap; line-height: 1.5; max-width: 88px; text-align: center;" xmlns="http://www.w3.org/1999/xhtml"><span class="nodeLabel markdown-node-label"><p>ID: 6</p></span></div></foreignObject></g><g class="label" style="" transform="translate(0, 30)"><foreignObject width="0" height="0"><div style="display: table-cell; white-space: nowrap; line-height: 1.5; max-width: 240px; text-align: center;" xmlns="http://www.w3.org/1999/xhtml"><span class="nodeLabel markdown-node-label"><p>Text: design constraint.</p></span></div></foreignObject></g><g class="label" style="" transform="translate(0, 30)"><foreignObject width="0" height="0"><div style="display: table-cell; white-space: nowrap; line-height: 1.5; max-width: 130px; text-align: center;" xmlns="http://www.w3.org/1999/xhtml"><span class="nodeLabel markdown-node-label"><p>Risk: High</p></span></div></foreignObject></g><g class="label" style="" transform="translate(0, 30)"><foreignObject width="0" height="0"><div style="display: table-cell; white-space: nowrap; line-height: 1.5; max-width: 186px; text-align: center;" xmlns="http://www.w3.org/1999/xhtml"><span class="nodeLabel markdown-node-label"><p>Verification: Test</p></span></div></foreignObject></g></g></g></g></g><defs><filter id="ref-ext-fixtures-cypress-requirement-03-drop-shadow" height="130%" width="130%"><feDropShadow dx="4" dy="4" stdDeviation="0" flood-opacity="0.06" flood-color="#000000"></feDropShadow></filter></defs><defs><filter id="ref-ext-fixtures-cypress-requirement-03-drop-shadow-small" height="150%" width="150%"><feDropShadow dx="2" dy="2" stdDeviation="0" flood-opacity="0.06" flood-color="#000000"></feDropShadow></filter></defs></svg>