<svg id="ref-ext-fixtures-demos-class-01" width="100%" xmlns="http://www.w3.org/2000/svg" class="classDiagram" style="max-width: 163.4375px;" viewBox="-8 -8 163.4375 32.296875" role="graphics-document document" aria-roledescription="class" aria-describedby="chart-desc-ref-ext-fixtures-demos-class-01" aria-labelledby="chart-title-ref-ext-fixtures-demos-class-01"><title id="chart-title-ref-ext-fixtures-demos-class-01">Demo Class Diagram</title><desc id="chart-desc-ref-ext-fixtures-demos-class-01">This class diagram show the abstract Animal class, and 3 classes that inherit from it: Duck, Fish, and Zebra.</desc><style>#ref-ext-fixtures-demos-class-01{font-family:"trebuchet ms",verdana,arial,sans-serif;font-size:16px;fill:#333;}@keyframes edge-animation-frame{from{stroke-dashoffset:0;}}@keyframes dash{to{stroke-dashoffset:0;}}#ref-ext-fixtures-demos-class-01 .edge-animation-slow{stroke-dasharray:9,5!important;stroke-dashoffset:900;animation:dash 50s linear infinite;stroke-linecap:round;}#ref-ext-fixtures-demos-class-01 .edge-animation-fast{stroke-dasharray:9,5!important;stroke-dashoffset:900;animation:dash 20s linear infinite;stroke-linecap:round;}#ref-ext-fixtures-demos-class-01 .error-icon{fill:#552222;}#ref-ext-fixtures-demos-class-01 .error-text{fill:#552222;stroke:#552222;}#ref-ext-fixtures-demos-class-01 .edge-thickness-normal{stroke-width:1px;}#ref-ext-fixtures-demos-class-01 .edge-thickness-thick{stroke-width:3.5px;}#ref-ext-fixtures-demos-class-01 .edge-pattern-solid{stroke-dasharray:0;}#ref-ext-fixtures-demos-class-01 .edge-thickness-invisible{stroke-width:0;fill:none;}#ref-ext-fixtures-demos-class-01 .edge-pattern-dashed{stroke-dasharray:3;}#ref-ext-fixtures-demos-class-01 .edge-pattern-dotted{stroke-dasharray:2;}#ref-ext-fixtures-demos-class-01 .marker{fill:#333333;stroke:#333333;}#ref-ext-fixtures-demos-class-01 .marker.cross{stroke:#333333;}#ref-ext-fixtures-demos-class-01 svg{font-family:"trebuchet ms",verdana,arial,sans-serif;font-size:16px;}#ref-ext-fixtures-demos-class-01 p{margin:0;}#ref-ext-fixtures-demos-class-01 g.classGroup text{fill:#9370DB;stroke:none;font-family:"trebuchet ms",verdana,arial,sans-serif;font-size:10px;}#ref-ext-fixtures-demos-class-01 g.classGroup text .title{font-weight:bolder;}#ref-ext-fixtures-demos-class-01 .cluster-label text{fill:#333;}#ref-ext-fixtures-demos-class-01 .cluster-label span{color:#333;}#ref-ext-fixtures-demos-class-01 .cluster-label span p{background-color:transparent;}#ref-ext-fixtures-demos-class-01 .cluster rect{fill:#ffffde;stroke:#aaaa33;stroke-width:1px;}#ref-ext-fixtures-demos-class-01 .cluster text{fill:#333;}#ref-ext-fixtures-demos-class-01 .cluster span{color:#333;}#ref-ext-fixtures-demos-class-01 .nodeLabel,#ref-ext-fixtures-demos-class-01 .edgeLabel{color:#131300;}#ref-ext-fixtures-demos-class-01 .noteLabel .nodeLabel,#ref-ext-fixtures-demos-class-01 .noteLabel .edgeLabel{color:black;}#ref-ext-fixtures-demos-class-01 .edgeLabel .label rect{fill:#ECECFF;}#ref-ext-fixtures-demos-class-01 .label text{fill:#131300;}#ref-ext-fixtures-demos-class-01 .labelBkg{background:#ECECFF;}#ref-ext-fixtures-demos-class-01 .edgeLabel .label span{background:#ECECFF;}#ref-ext-fixtures-demos-class-01 .classTitle{font-weight:bolder;}#ref-ext-fixtures-demos-class-01 .node rect,#ref-ext-fixtures-demos-class-01 .node circle,#ref-ext-fixtures-demos-class-01 .node ellipse,#ref-ext-fixtures-demos-class-01 .node polygon,#ref-ext-fixtures-demos-class-01 .node path{fill:#ECECFF;stroke:#9370DB;stroke-width:1;}#ref-ext-fixtures-demos-class-01 .divider{stroke:#9370DB;stroke-width:1;}#ref-ext-fixtures-demos-class-01 g.clickable{cursor:pointer;}#ref-ext-fixtures-demos-class-01 g.classGroup rect{fill:#ECECFF;stroke:#9370DB;}#ref-ext-fixtures-demos-class-01 g.classGroup line{stroke:#9370DB;stroke-width:1;}#ref-ext-fixtures-demos-class-01 .classLabel .box{stroke:none;stroke-width:0;fill:#ECECFF;opacity:0.5;}#ref-ext-fixtures-demos-class-01 .classLabel .label{fill:#9370DB;font-size:10px;}#ref-ext-fixtures-demos-class-01 .relation{stroke:#333333;stroke-width:1;fill:none;}#ref-ext-fixtures-demos-class-01 .dashed-line{stroke-dasharray:3;}#ref-ext-fixtures-demos-class-01 .dotted-line{stroke-dasharray:1 2;}#ref-ext-fixtures-demos-class-01 [id$="-compositionStart"],#ref-ext-fixtures-demos-class-01 .composition{fill:#333333!important;stroke:#333333!important;stroke-width:1;}#ref-ext-fixtures-demos-class-01 [id$="-compositionEnd"],#ref-ext-fixtures-demos-class-01 .composition{fill:#333333!important;stroke:#333333!important;stroke-width:1;}#ref-ext-fixtures-demos-class-01 [id$="-dependencyStart"],#ref-ext-fixtures-demos-class-01 .dependency{fill:#333333!important;stroke:#333333!important;stroke-width:1;}#ref-ext-fixtures-demos-class-01 [id$="-dependencyEnd"],#ref-ext-fixtures-demos-class-01 .dependency{fill:#333333!important;stroke:#333333!important;stroke-width:1;}#ref-ext-fixtures-demos-class-01 [id$="-extensionStart"],#ref-ext-fixtures-demos-class-01 .extension{fill:transparent!important;stroke:#333333!important;stroke-width:1;}#ref-ext-fixtures-demos-class-01 [id$="-extensionEnd"],#ref-ext-fixtures-demos-class-01 .extension{fill:transparent!important;stroke:#333333!important;stroke-width:1;}#ref-ext-fixtures-demos-class-01 [id$="-aggregationStart"],#ref-ext-fixtures-demos-class-01 .aggregation{fill:transparent!important;stroke:#333333!important;stroke-width:1;}#ref-ext-fixtures-demos-class-01 [id$="-aggregationEnd"],#ref-ext-fixtures-demos-class-01 .aggregation{fill:transparent!important;stroke:#333333!important;stroke-width:1;}#ref-ext-fixtures-demos-class-01 [id$="-lollipopStart"],#ref-ext-fixtures-demos-class-01 .lollipop{fill:#ECECFF!important;stroke:#333333!important;stroke-width:1;}#ref-ext-fixtures-demos-class-01 [id$="-lollipopEnd"],#ref-ext-fixtures-demos-class-01 .lollipop{fill:#ECECFF!important;stroke:#333333!important;stroke-width:1;}#ref-ext-fixtures-demos-class-01 .edgeTerminals{font-size:11px;line-height:initial;}#ref-ext-fixtures-demos-class-01 .classTitleText{text-anchor:middle;font-size:18px;fill:#333;}#ref-ext-fixtures-demos-class-01 .edgeLabel[data-look="neo"]{background-color:rgba(232,232,232, 0.8);text-align:center;}#ref-ext-fixtures-demos-class-01 .edgeLabel[data-look="neo"] p{background-color:rgba(232,232,232, 0.8);}#ref-ext-fixtures-demos-class-01 .edgeLabel[data-look="neo"] rect{opacity:0.5;background-color:rgba(232,232,232, 0.8);fill:rgba(232,232,232, 0.8);}#ref-ext-fixtures-demos-class-01 .label-icon{display:inline-block;height:1em;overflow:visible;vertical-align:-0.125em;}#ref-ext-fixtures-demos-class-01 .node .label-icon path{fill:currentColor;stroke:revert;stroke-width:revert;}#ref-ext-fixtures-demos-class-01 .node .neo-node{stroke:#9370DB;}#ref-ext-fixtures-demos-class-01 [data-look="neo"].node rect,#ref-ext-fixtures-demos-class-01 [data-look="neo"].cluster rect,#ref-ext-fixtures-demos-class-01 [data-look="neo"].node polygon{stroke:#9370DB;filter:drop-shadow(1px 2px 2px rgba(185, 185, 185, 1));}#ref-ext-fixtures-demos-class-01 [data-look="neo"].node path{stroke:#9370DB;stroke-width:1px;}#ref-ext-fixtures-demos-class-01 [data-look="neo"].node .outer-path{filter:drop-shadow(1px 2px 2px rgba(185, 185, 185, 1));}#ref-ext-fixtures-demos-class-01 [data-look="neo"].node .neo-line path{stroke:#9370DB;filter:none;}#ref-ext-fixtures-demos-class-01 [data-look="neo"].node circle{stroke:#9370DB;filter:drop-shadow(1px 2px 2px rgba(185, 185, 185, 1));}#ref-ext-fixtures-demos-class-01 [data-look="neo"].node circle .state-start{fill:#000000;}#ref-ext-fixtures-demos-class-01 [data-look="neo"].icon-shape .icon{fill:#9370DB;filter:drop-shadow(1px 2px 2px rgba(185, 185, 185, 1));}#ref-ext-fixtures-demos-class-01 [data-look="neo"].icon-shape .icon-neo path{stroke:#9370DB;filter:drop-shadow(1px 2px 2px rgba(185, 185, 185, 1));}#ref-ext-fixtures-demos-class-01 :root{--mermaid-font-family:"trebuchet ms",verdana,arial,sans-serif;}</style><g><defs><marker id="ref-ext-fixtures-demos-class-01_class-aggregationStart" class="marker aggregation class" refX="18" refY="7" markerWidth="190" markerHeight="240" orient="auto"><path d="M 18,7 L9,13 L1,7 L9,1 Z"></path></marker></defs><defs><marker id="ref-ext-fixtures-demos-class-01_class-aggregationEnd" class="marker aggregation class" refX="1" refY="7" markerWidth="20" markerHeight="28" orient="auto"><path d="M 18,7 L9,13 L1,7 L9,1 Z"></path></marker></defs><defs><marker id="ref-ext-fixtures-demos-class-01_class-aggregationStart-margin" class="marker aggregation class" refX="15" refY="7" markerWidth="190" markerHeight="240" orient="auto" markerUnits="userSpaceOnUse"><path style="stroke-width: 2;" d="M 18,7 L9,13 L1,7 L9,1 Z"></path></marker></defs><defs><marker id="ref-ext-fixtures-demos-class-01_class-aggregationEnd-margin" class="marker aggregation class" refX="1" refY="7" markerWidth="20" markerHeight="28" orient="auto" markerUnits="userSpaceOnUse"><path style="stroke-width: 2;" d="M 18,7 L9,13 L1,7 L9,1 Z"></path></marker></defs><defs><marker id="ref-ext-fixtures-demos-class-01_class-extensionStart" class="marker extension class" refX="18" refY="7" markerWidth="190" markerHeight="240" orient="auto" markerUnits="userSpaceOnUse"><path d="M 1,7 L18,13 V 1 Z"></path></marker></defs><defs><marker id="ref-ext-fixtures-demos-class-01_class-extensionEnd" class="marker extension class" refX="1" refY="7" markerWidth="20" markerHeight="28" orient="auto"><path d="M 1,1 V 13 L18,7 Z"></path></marker></defs><marker id="ref-ext-fixtures-demos-class-01_class-extensionStart-margin" class="marker extension class" refX="18" refY="7" markerWidth="20" markerHeight="28" orient="auto" markerUnits="userSpaceOnUse" viewBox="0 0 20 14"><polygon points="10,7 18,13 18,1" style="stroke-width: 2; stroke-dasharray: 0;"></polygon></marker><defs><marker id="ref-ext-fixtures-demos-class-01_class-extensionEnd-margin" class="marker extension class" refX="9" refY="7" markerWidth="20" markerHeight="28" orient="auto" markerUnits="userSpaceOnUse" viewBox="0 0 20 14"><polygon points="10,1 10,13 18,7" style="stroke-width: 2; stroke-dasharray: 0;"></polygon></marker></defs><defs><marker id="ref-ext-fixtures-demos-class-01_class-compositionStart" class="marker composition class" refX="18" refY="7" markerWidth="190" markerHeight="240" orient="auto"><path d="M 18,7 L9,13 L1,7 L9,1 Z"></path></marker></defs><defs><marker id="ref-ext-fixtures-demos-class-01_class-compositionEnd" class="marker composition class" refX="1" refY="7" markerWidth="20" markerHeight="28" orient="auto"><path d="M 18,7 L9,13 L1,7 L9,1 Z"></path></marker></defs><defs><marker id="ref-ext-fixtures-demos-class-01_class-compositionStart-margin" class="marker composition class" refX="15" refY="7" markerWidth="190" markerHeight="240" orient="auto" markerUnits="userSpaceOnUse"><path style="stroke-width: 0;" viewBox="0 0 15 15" d="M 18,7 L9,13 L1,7 L9,1 Z"></path></marker></defs><defs><marker id="ref-ext-fixtures-demos-class-01_class-compositionEnd-margin" class="marker composition class" refX="3.5" refY="7" markerWidth="20" markerHeight="28" orient="auto" markerUnits="userSpaceOnUse"><path style="stroke-width: 0;" d="M 18,7 L9,13 L1,7 L9,1 Z"></path></marker></defs><defs><marker id="ref-ext-fixtures-demos-class-01_class-dependencyStart" class="marker dependency class" refX="6" refY="7" markerWidth="190" markerHeight="240" orient="auto"><path d="M 5,7 L9,13 L1,7 L9,1 Z"></path></marker></defs><defs><marker id="ref-ext-fixtures-demos-class-01_class-dependencyEnd" class="marker dependency class" refX="13" refY="7" markerWidth="20" markerHeight="28" orient="auto"><path d="M 18,7 L9,13 L14,7 L9,1 Z"></path></marker></defs><defs><marker id="ref-ext-fixtures-demos-class-01_class-dependencyStart-margin" class="marker dependency class" refX="4" refY="7" markerWidth="190" markerHeight="240" orient="auto" markerUnits="userSpaceOnUse"><path style="stroke-width: 0;" d="M 5,7 L9,13 L1,7 L9,1 Z"></path></marker></defs><defs><marker id="ref-ext-fixtures-demos-class-01_class-dependencyEnd-margin" class="marker dependency class" refX="16" refY="7" markerWidth="20" markerHeight="28" orient="auto" markerUnits="userSpaceOnUse"><path style="stroke-width: 0;" d="M 18,7 L9,13 L14,7 L9,1 Z"></path></marker></defs><defs><marker id="ref-ext-fixtures-demos-class-01_class-lollipopStart" class="marker lollipop class" refX="13" refY="7" markerWidth="190" markerHeight="240" orient="auto"><circle fill="transparent" cx="7" cy="7" r="6"></circle></marker></defs><defs><marker id="ref-ext-fixtures-demos-class-01_class-lollipopEnd" class="marker lollipop class" refX="1" refY="7" markerWidth="190" markerHeight="240" orient="auto"><circle fill="transparent" cx="7" cy="7" r="6"></circle></marker></defs><defs><marker id="ref-ext-fixtures-demos-class-01_class-lollipopStart-margin" class="marker lollipop class" refX="13" refY="7" markerWidth="190" markerHeight="240" orient="auto" markerUnits="userSpaceOnUse"><circle fill="transparent" cx="7" cy="7" r="6" stroke-width="2"></circle></marker></defs><defs><marker id="ref-ext-fixtures-demos-class-01_class-lollipopEnd-margin" class="marker lollipop class" refX="1" refY="7" markerWidth="190" markerHeight="240" orient="auto" markerUnits="userSpaceOnUse"><circle fill="transparent" cx="7" cy="7" r="6" stroke-width="2"></circle></marker></defs><g class="root"><g class="clusters"></g><g class="edgePaths"><path d="M43.623,25.68L37.686,29.616C31.748,33.552,19.874,41.425,13.937,50.885C8,60.346,8,71.396,8,76.921L8,82.445" id="ref-ext-fixtures-demos-class-01-id_Animal_Duck_1" class=" edge-thickness-normal edge-pattern-solid relation" style=";;;" data-edge="true" data-et="edge" data-id="id_Animal_Duck_1" data-points="W3sieCI6NTgsInkiOjE2LjE0ODQzNzV9LHsieCI6OCwieSI6NDkuMjk2ODc1fSx7IngiOjgsInkiOjgyLjQ0NTMxMjV9XQ==" data-look="classic" marker-start="url(#ref-ext-fixtures-demos-class-01_class-extensionStart)"></path><path d="M58,33.398L58,36.048C58,38.698,58,43.997,58,52.172C58,60.346,58,71.396,58,76.921L58,82.445" id="ref-ext-fixtures-demos-class-01-id_Animal_Fish_2" class=" edge-thickness-normal edge-pattern-solid relation" style=";;;" data-edge="true" data-et="edge" data-id="id_Animal_Fish_2" data-points="W3sieCI6NTgsInkiOjE2LjE0ODQzNzV9LHsieCI6NTgsInkiOjQ5LjI5Njg3NX0seyJ4Ijo1OCwieSI6ODIuNDQ1MzEyNX1d" data-look="classic" marker-start="url(#ref-ext-fixtures-demos-class-01_class-extensionStart)"></path><path d="M72.377,25.68L78.314,29.616C84.252,33.552,96.126,41.425,102.063,50.885C108,60.346,108,71.396,108,76.921L108,82.445" id="ref-ext-fixtures-demos-class-01-id_Animal_Zebra_3" class=" edge-thickness-normal edge-pattern-solid relation" style=";;;" data-edge="true" data-et="edge" data-id="id_Animal_Zebra_3" data-points="W3sieCI6NTgsInkiOjE2LjE0ODQzNzV9LHsieCI6MTA4LCJ5Ijo0OS4yOTY4NzV9LHsieCI6MTA4LCJ5Ijo4Mi40NDUzMTI1fV0=" data-look="classic" marker-start="url(#ref-ext-fixtures-demos-class-01_class-extensionStart)"></path></g><g class="edgeLabels"><g class="edgeLabel"><g class="label" data-id="id_Animal_Duck_1" transform="translate(0, 0)"><foreignObject width="0" height="0"><div style="display: table-cell; white-space: nowrap; line-height: 1.5; max-width: 200px; text-align: center;" xmlns="http://www.w3.org/1999/xhtml" class="labelBkg"><span class="edgeLabel "></span></div></foreignObject></g></g><g class="edgeLabel"><g class="label" data-id="id_Animal_Fish_2" transform="translate(0, 0)"><foreignObject width="0" height="0"><div style="display: table-cell; white-space: nowrap; line-height: 1.5; max-width: 200px; text-align: center;" xmlns="http://www.w3.org/1999/xhtml" class="labelBkg"><span class="edgeLabel "></span></div></foreignObject></g></g><g class="edgeLabel"><g class="label" data-id="id_Animal_Zebra_3" transform="translate(0, 0)"><foreignObject width="0" height="0"><div style="display: table-cell; white-space: nowrap; line-height: 1.5; max-width: 200px; text-align: center;" xmlns="http://www.w3.org/1999/xhtml" class="labelBkg"><span class="edgeLabel "></span></div></foreignObject></g></g></g><g class="nodes"><g class="node default " id="ref-ext-fixtures-demos-class-01-classId-Animal-4" data-look="classic" transform="translate(58, 16.1484375)"><g class="basic label-container outer-path"><path d="M-12 -12 L12 -12 L12 12 L-12 12" stroke="none" stroke-width="0" fill="#ECECFF" style=""></path><path d="M-12 -12 C-4.881415640044187 -12, 2.237168719911626 -12, 12 -12 M-12 -12 C-5.015816505533662 -12, 1.9683669889326758 -12, 12 -12 M12 -12 C12 -4.412224312871624, 12 3.1755513742567523, 12 12 M12 -12 C12 -6.360478447087033, 12 -0.7209568941740656, 12 12 M12 12 C4.487325495635853 12, -3.025349008728295 12, -12 12 M12 12 C4.164247650924767 12, -3.671504698150466 12, -12 12 M-12 12 C-12 6.687599289009714, -12 1.3751985780194271, -12 -12 M-12 12 C-12 3.644431944900685, -12 -4.71113611019863, -12 -12" stroke="#9370DB" stroke-width="1.3" fill="none" stroke-dasharray="0 0" style=""></path></g><g class="annotation-group text" transform="translate(0, 12)"></g><g class="label-group text" transform="translate(0, 12)"><g class="label" style="font-weight: bolder" transform="translate(0,0)"><foreignObject width="0" height="0"><div style="display: table-cell; white-space: nowrap; line-height: 1.5; max-width: 105px; text-align: center;" xmlns="http://www.w3.org/1999/xhtml"><span class="nodeLabel markdown-node-label" style=""><p>Animal</p></span></div></foreignObject></g></g><g class="members-group text" transform="translate(0, 36)"><g class="label" style="" transform="translate(0,0)"><foreignObject width="0" height="0"><div style="display: table-cell; white-space: nowrap; line-height: 1.5; max-width: 125px; text-align: center;" xmlns="http://www.w3.org/1999/xhtml"><span class="nodeLabel markdown-node-label" style=""><p>+int age</p></span></div></foreignObject></g><g class="label" style="" transform="translate(0,0)"><foreignObject width="0" height="0"><div style="display: table-cell; white-space: nowrap; line-height: 1.5; max-width: 178px; text-align: center;" xmlns="http://www.w3.org/1999/xhtml"><span class="nodeLabel markdown-node-label" style=""><p>+String gender</p></span></div></foreignObject></g></g><g class="methods-group text" transform="translate(0, 66)"><g class="label" style="" transform="translate(0,0)"><foreignObject width="0" height="0"><div style="display: table-cell; white-space: nowrap; line-height: 1.5; max-width: 163px; text-align: center;" xmlns="http://www.w3.org/1999/xhtml"><span class="nodeLabel markdown-node-label" style=""><p>+isMammal()</p></span></div></foreignObject></g><g class="label" style="" transform="translate(0,0)"><foreignObject width="0" height="0"><div style="display: table-cell; white-space: nowrap; line-height: 1.5; max-width: 123px; text-align: center;" xmlns="http://www.w3.org/1999/xhtml"><span class="nodeLabel markdown-node-label" style=""><p>+mate()</p></span></div></foreignObject></g></g><g class="divider" style=""><path d="M0 12 C0 12.00020006014733, 0 12.00040012029466, 0 12.001 M0 12 C0 12.00035993497502, 0 12.00071986995004, 0 12.001" stroke="#9370DB" stroke-width="1.3" fill="none" stroke-dasharray="0 0" style=""></path></g><g class="divider" style=""><path d="M0 36 C0 36.00038481593379, 0 36.000769631867584, 0 36.001 M0 36 C0 36.00026116848646, 0 36.00052233697292, 0 36.001" stroke="#9370DB" stroke-width="1.3" fill="none" stroke-dasharray="0 0" style=""></path></g></g><g class="node default " id="ref-ext-fixtures-demos-class-01-classId-Duck-5" data-look="classic" transform="translate(8, 82.4453125)"><g class="basic label-container outer-path"><path d="M-12 -12 L12 -12 L12 12 L-12 12" stroke="none" stroke-width="0" fill="#ECECFF" style=""></path><path d="M-12 -12 C-3.930448472882457 -12, 4.139103054235086 -12, 12 -12 M-12 -12 C-4.266600977001973 -12, 3.466798045996054 -12, 12 -12 M12 -12 C12 -3.882838091685276, 12 4.234323816629448, 12 12 M12 -12 C12 -3.2569868685212846, 12 5.486026262957431, 12 12 M12 12 C5.015392566963701 12, -1.9692148660725977 12, -12 12 M12 12 C2.787821740982954 12, -6.424356518034092 12, -12 12 M-12 12 C-12 3.1675962200061143, -12 -5.664807559987771, -12 -12 M-12 12 C-12 6.910532294764931, -12 1.8210645895298612, -12 -12" stroke="#9370DB" stroke-width="1.3" fill="none" stroke-dasharray="0 0" style=""></path></g><g class="annotation-group text" transform="translate(0, 12)"></g><g class="label-group text" transform="translate(0, 12)"><g class="label" style="font-weight: bolder" transform="translate(0,0)"><foreignObject width="0" height="0"><div style="display: table-cell; white-space: nowrap; line-height: 1.5; max-width: 91px; text-align: center;" xmlns="http://www.w3.org/1999/xhtml"><span class="nodeLabel markdown-node-label" style=""><p>Duck</p></span></div></foreignObject></g></g><g class="members-group text" transform="translate(0, 36)"><g class="label" style="" transform="translate(0,0)"><foreignObject width="0" height="0"><div style="display: table-cell; white-space: nowrap; line-height: 1.5; max-width: 202px; text-align: center;" xmlns="http://www.w3.org/1999/xhtml"><span class="nodeLabel markdown-node-label" style=""><p>+String beakColor</p></span></div></foreignObject></g></g><g class="methods-group text" transform="translate(0, 66)"><g class="label" style="" transform="translate(0,0)"><foreignObject width="0" height="0"><div style="display: table-cell; white-space: nowrap; line-height: 1.5; max-width: 123px; text-align: center;" xmlns="http://www.w3.org/1999/xhtml"><span class="nodeLabel markdown-node-label" style=""><p>+swim()</p></span></div></foreignObject></g><g class="label" style="" transform="translate(0,0)"><foreignObject width="0" height="0"><div style="display: table-cell; white-space: nowrap; line-height: 1.5; max-width: 129px; text-align: center;" xmlns="http://www.w3.org/1999/xhtml"><span class="nodeLabel markdown-node-label" style=""><p>+quack()</p></span></div></foreignObject></g></g><g class="divider" style=""><path d="M0 12 C0 12.000306910464557, 0 12.000613820929116, 0 12.001 M0 12 C0 12.000394448827294, 0 12.000788897654585, 0 12.001" stroke="#9370DB" stroke-width="1.3" fill="none" stroke-dasharray="0 0" style=""></path></g><g class="divider" style=""><path d="M0 36 C0 36.00036841956611, 0 36.00073683913221, 0 36.001 M0 36 C0 36.000284200165254, 0 36.00056840033051, 0 36.001" stroke="#9370DB" stroke-width="1.3" fill="none" stroke-dasharray="0 0" style=""></path></g></g><g class="node default " id="ref-ext-fixtures-demos-class-01-classId-Fish-6" data-look="classic" transform="translate(58, 82.4453125)"><g class="basic label-container outer-path"><path d="M-12 -12 L12 -12 L12 12 L-12 12" stroke="none" stroke-width="0" fill="#ECECFF" style=""></path><path d="M-12 -12 C-6.94814266154054 -12, -1.8962853230810808 -12, 12 -12 M-12 -12 C-2.5579947228938202 -12, 6.8840105542123595 -12, 12 -12 M12 -12 C12 -7.1765642992086445, 12 -2.353128598417289, 12 12 M12 -12 C12 -6.458487365350677, 12 -0.9169747307013534, 12 12 M12 12 C2.8776296457834736 12, -6.244740708433053 12, -12 12 M12 12 C3.8942488952069354 12, -4.211502209586129 12, -12 12 M-12 12 C-12 5.889716738144129, -12 -0.22056652371174224, -12 -12 M-12 12 C-12 6.453600988588939, -12 0.9072019771778788, -12 -12" stroke="#9370DB" stroke-width="1.3" fill="none" stroke-dasharray="0 0" style=""></path></g><g class="annotation-group text" transform="translate(0, 12)"></g><g class="label-group text" transform="translate(0, 12)"><g class="label" style="font-weight: bolder" transform="translate(0,0)"><foreignObject width="0" height="0"><div style="display: table-cell; white-space: nowrap; line-height: 1.5; max-width: 82px; text-align: center;" xmlns="http://www.w3.org/1999/xhtml"><span class="nodeLabel markdown-node-label" style=""><p>Fish</p></span></div></foreignObject></g></g><g class="members-group text" transform="translate(0, 36)"><g class="label" style="" transform="translate(0,0)"><foreignObject width="0" height="0"><div style="display: table-cell; white-space: nowrap; line-height: 1.5; max-width: 196px; text-align: center;" xmlns="http://www.w3.org/1999/xhtml"><span class="nodeLabel markdown-node-label" style=""><p>-Listint sizeInFeet</p></span></div></foreignObject></g></g><g class="methods-group text" transform="translate(0, 66)"><g class="label" style="" transform="translate(0,0)"><foreignObject width="0" height="0"><div style="display: table-cell; white-space: nowrap; line-height: 1.5; max-width: 129px; text-align: center;" xmlns="http://www.w3.org/1999/xhtml"><span class="nodeLabel markdown-node-label" style=""><p>-canEat()</p></span></div></foreignObject></g></g><g class="divider" style=""><path d="M0 12 C0 12.000383959385376, 0 12.000767918770752, 0 12.001 M0 12 C0 12.000376131874985, 0 12.00075226374997, 0 12.001" stroke="#9370DB" stroke-width="1.3" fill="none" stroke-dasharray="0 0" style=""></path></g><g class="divider" style=""><path d="M0 36 C0 36.000278107787494, 0 36.00055621557498, 0 36.001 M0 36 C0 36.000303254103606, 0 36.00060650820721, 0 36.001" stroke="#9370DB" stroke-width="1.3" fill="none" stroke-dasharray="0 0" style=""></path></g></g><g class="node default " id="ref-ext-fixtures-demos-class-01-classId-Zebra-7" data-look="classic" transform="translate(108, 82.4453125)"><g class="basic label-container outer-path"><path d="M-12 -12 L12 -12 L12 12 L-12 12" stroke="none" stroke-width="0" fill="#ECECFF" style=""></path><path d="M-12 -12 C-7.03670600992204 -12, -2.0734120198440795 -12, 12 -12 M-12 -12 C-3.2841319586876097 -12, 5.431736082624781 -12, 12 -12 M12 -12 C12 -2.9591894711397018, 12 6.0816210577205965, 12 12 M12 -12 C12 -5.643795881234377, 12 0.7124082375312462, 12 12 M12 12 C5.499927931632933 12, -1.000144136734134 12, -12 12 M12 12 C2.5440801565338322 12, -6.9118396869323355 12, -12 12 M-12 12 C-12 6.440313307684619, -12 0.8806266153692377, -12 -12 M-12 12 C-12 2.908405955657777, -12 -6.183188088684446, -12 -12" stroke="#9370DB" stroke-width="1.3" fill="none" stroke-dasharray="0 0" style=""></path></g><g class="annotation-group text" transform="translate(0, 12)"></g><g class="label-group text" transform="translate(0, 12)"><g class="label" style="font-weight: bolder" transform="translate(0,0)"><foreignObject width="0" height="0"><div style="display: table-cell; white-space: nowrap; line-height: 1.5; max-width: 97px; text-align: center;" xmlns="http://www.w3.org/1999/xhtml"><span class="nodeLabel markdown-node-label" style=""><p>Zebra</p></span></div></foreignObject></g></g><g class="members-group text" transform="translate(0, 36)"><g class="label" style="" transform="translate(0,0)"><foreignObject width="0" height="0"><div style="display: table-cell; white-space: nowrap; line-height: 1.5; max-width: 161px; text-align: center;" xmlns="http://www.w3.org/1999/xhtml"><span class="nodeLabel markdown-node-label" style=""><p>+bool is_wild</p></span></div></foreignObject></g></g><g class="methods-group text" transform="translate(0, 66)"><g class="label" style="" transform="translate(0,0)"><foreignObject width="0" height="0"><div style="display: table-cell; white-space: nowrap; line-height: 1.5; max-width: 332px; text-align: center;" xmlns="http://www.w3.org/1999/xhtml"><span class="nodeLabel markdown-node-label" style=""><p>+run(List&lt;T&gt;, List&lt;OT&gt;)</p></span></div></foreignObject></g><g class="label" style="" transform="translate(0,0)"><foreignObject width="0" height="0"><div style="display: table-cell; white-space: nowrap; line-height: 1.5; max-width: 373px; text-align: center;" xmlns="http://www.w3.org/1999/xhtml"><span class="nodeLabel markdown-node-label" style=""><p>+run-nested(List&lt;List&lt;OT&gt;&gt;)</p></span></div></foreignObject></g></g><g class="divider" style=""><path d="M0 12 C0 12.000303660558233, 0 12.000607321116465, 0 12.001 M0 12 C0 12.000222445765452, 0 12.000444891530904, 0 12.001" stroke="#9370DB" stroke-width="1.3" fill="none" stroke-dasharray="0 0" style=""></path></g><g class="divider" style=""><path d="M0 36 C0 36.000269037631995, 0 36.000538075264, 0 36.001 M0 36 C0 36.00029374782166, 0 36.00058749564332, 0 36.001" stroke="#9370DB" stroke-width="1.3" fill="none" stroke-dasharray="0 0" style=""></path></g></g></g></g></g><defs><filter id="ref-ext-fixtures-demos-class-01-drop-shadow" height="130%" width="130%"><feDropShadow dx="4" dy="4" stdDeviation="0" flood-opacity="0.06" flood-color="#000000"></feDropShadow></filter></defs><defs><filter id="ref-ext-fixtures-demos-class-01-drop-shadow-small" height="150%" width="150%"><feDropShadow dx="2" dy="2" stdDeviation="0" flood-opacity="0.06" flood-color="#000000"></feDropShadow></filter></defs><text text-anchor="middle" x="0" y="-25" class="classDiagramTitleText">Demo Class Diagram</text></svg>