<svg id="ref-ext-fixtures-demos-ishikawa-04" width="100%" xmlns="http://www.w3.org/2000/svg" style="max-width: 196.994140625px;" viewBox="-20 -20 196.994140625 56.296875" role="graphics-document document" aria-roledescription="ishikawa"><style>#ref-ext-fixtures-demos-ishikawa-04{font-family:"trebuchet ms",verdana,arial,sans-serif;font-size:16px;fill:#333;}@keyframes edge-animation-frame{from{stroke-dashoffset:0;}}@keyframes dash{to{stroke-dashoffset:0;}}#ref-ext-fixtures-demos-ishikawa-04 .edge-animation-slow{stroke-dasharray:9,5!important;stroke-dashoffset:900;animation:dash 50s linear infinite;stroke-linecap:round;}#ref-ext-fixtures-demos-ishikawa-04 .edge-animation-fast{stroke-dasharray:9,5!important;stroke-dashoffset:900;animation:dash 20s linear infinite;stroke-linecap:round;}#ref-ext-fixtures-demos-ishikawa-04 .error-icon{fill:#552222;}#ref-ext-fixtures-demos-ishikawa-04 .error-text{fill:#552222;stroke:#552222;}#ref-ext-fixtures-demos-ishikawa-04 .edge-thickness-normal{stroke-width:1px;}#ref-ext-fixtures-demos-ishikawa-04 .edge-thickness-thick{stroke-width:3.5px;}#ref-ext-fixtures-demos-ishikawa-04 .edge-pattern-solid{stroke-dasharray:0;}#ref-ext-fixtures-demos-ishikawa-04 .edge-thickness-invisible{stroke-width:0;fill:none;}#ref-ext-fixtures-demos-ishikawa-04 .edge-pattern-dashed{stroke-dasharray:3;}#ref-ext-fixtures-demos-ishikawa-04 .edge-pattern-dotted{stroke-dasharray:2;}#ref-ext-fixtures-demos-ishikawa-04 .marker{fill:#333333;stroke:#333333;}#ref-ext-fixtures-demos-ishikawa-04 .marker.cross{stroke:#333333;}#ref-ext-fixtures-demos-ishikawa-04 svg{font-family:"trebuchet ms",verdana,arial,sans-serif;font-size:16px;}#ref-ext-fixtures-demos-ishikawa-04 p{margin:0;}#ref-ext-fixtures-demos-ishikawa-04 .ishikawa .ishikawa-spine,#ref-ext-fixtures-demos-ishikawa-04 .ishikawa .ishikawa-branch,#ref-ext-fixtures-demos-ishikawa-04 .ishikawa .ishikawa-sub-branch{stroke:#333333;stroke-width:2;fill:none;}#ref-ext-fixtures-demos-ishikawa-04 .ishikawa .ishikawa-sub-branch{stroke-width:1;}#ref-ext-fixtures-demos-ishikawa-04 .ishikawa .ishikawa-arrow{fill:#333333;}#ref-ext-fixtures-demos-ishikawa-04 .ishikawa .ishikawa-head{fill:#ECECFF;stroke:#333333;stroke-width:2;}#ref-ext-fixtures-demos-ishikawa-04 .ishikawa .ishikawa-label-box{fill:#ECECFF;stroke:#333333;stroke-width:2;}#ref-ext-fixtures-demos-ishikawa-04 .ishikawa text{font-family:"trebuchet ms",verdana,arial,sans-serif;font-size:16px;fill:#333;}#ref-ext-fixtures-demos-ishikawa-04 .ishikawa .ishikawa-head-label{font-weight:600;text-anchor:middle;dominant-baseline:middle;font-size:14px;}#ref-ext-fixtures-demos-ishikawa-04 .ishikawa .ishikawa-label{text-anchor:end;}#ref-ext-fixtures-demos-ishikawa-04 .ishikawa .ishikawa-label.cause{text-anchor:middle;dominant-baseline:middle;}#ref-ext-fixtures-demos-ishikawa-04 .ishikawa .ishikawa-label.align{text-anchor:end;dominant-baseline:middle;}#ref-ext-fixtures-demos-ishikawa-04 .ishikawa .ishikawa-label.up{dominant-baseline:baseline;}#ref-ext-fixtures-demos-ishikawa-04 .ishikawa .ishikawa-label.down{dominant-baseline:hanging;}#ref-ext-fixtures-demos-ishikawa-04 .node .neo-node{stroke:#9370DB;}#ref-ext-fixtures-demos-ishikawa-04 [data-look="neo"].node rect,#ref-ext-fixtures-demos-ishikawa-04 [data-look="neo"].cluster rect,#ref-ext-fixtures-demos-ishikawa-04 [data-look="neo"].node polygon{stroke:#9370DB;filter:drop-shadow(1px 2px 2px rgba(185, 185, 185, 1));}#ref-ext-fixtures-demos-ishikawa-04 [data-look="neo"].node path{stroke:#9370DB;stroke-width:1px;}#ref-ext-fixtures-demos-ishikawa-04 [data-look="neo"].node .outer-path{filter:drop-shadow(1px 2px 2px rgba(185, 185, 185, 1));}#ref-ext-fixtures-demos-ishikawa-04 [data-look="neo"].node .neo-line path{stroke:#9370DB;filter:none;}#ref-ext-fixtures-demos-ishikawa-04 [data-look="neo"].node circle{stroke:#9370DB;filter:drop-shadow(1px 2px 2px rgba(185, 185, 185, 1));}#ref-ext-fixtures-demos-ishikawa-04 [data-look="neo"].node circle .state-start{fill:#000000;}#ref-ext-fixtures-demos-ishikawa-04 [data-look="neo"].icon-shape .icon{fill:#9370DB;filter:drop-shadow(1px 2px 2px rgba(185, 185, 185, 1));}#ref-ext-fixtures-demos-ishikawa-04 [data-look="neo"].icon-shape .icon-neo path{stroke:#9370DB;filter:drop-shadow(1px 2px 2px rgba(185, 185, 185, 1));}#ref-ext-fixtures-demos-ishikawa-04 :root{--mermaid-font-family:"trebuchet ms",verdana,arial,sans-serif;}</style><g></g><g class="ishikawa"><g class="ishikawa-head-group" transform="translate(0,375)"><g class="ishikawa-head"><path d="M-0.2582243710583967 -35.99982184155991 C-0.2582243710583967 -35.99982184155991, -0.2582243710583967 -35.99982184155991, -0.2582243710583967 -35.99982184155991 M-0.2582243710583967 -35.99982184155991 C-0.2582243710583967 -35.99982184155991, -0.2582243710583967 -35.99982184155991, -0.2582243710583967 -35.99982184155991 M-0.08861687992495187 -30.026566956321265 C2.932630040902696 -30.12285780932556, 3.542011437813609 -34.06951935608512, 6.110831449582878 -33.89703713190548 M0.6947733159290563 -29.39842288749155 C2.027347175569805 -30.277769324025098, 3.749365054140531 -33.04254899991499, 4.902724063239696 -35.24868330360196 M-1.5329229086489022 -18.792731126245855 C5.226251635846039 -26.624313260745293, 7.975096074303744 -27.736720080341353, 10.04835856696112 -33.61628763194592 M-0.9839106568685336 -22.122325436083415 C3.6079260939121762 -24.336112404323625, 6.296337442769051 -29.70202973756506, 10.67977315906422 -34.75251222314243 M1.7431745931689564 -13.960072512584812 C3.188317150615793 -18.526176047215365, 5.334165397173761 -24.942402070551715, 15.359235177429422 -34.98215718153919 M0.0564278063547734 -11.914218820012248 C4.252841478024011 -17.23487273725627, 7.270482684452681 -22.069290780020133, 16.680035366823926 -31.636214919444726 M0.5974291068254454 -5.610295436422674 C5.242889611658898 -13.112571290828335, 10.773426940505582 -16.77747424053373, 22.13707631851659 -29.603169228077803 M1.1408139014369292 -4.882874745487569 C6.731436050350009 -15.763526534206605, 15.7501026126788 -23.894639239367816, 23.12151457813681 -32.78393910046381 M1.736897808469023 0.9334519835279238 C9.96978446839275 -7.633762926594178, 14.295162032477291 -15.566674669787394, 26.825841417428464 -30.013813118183307 M0.9494863166167693 1.7933287833907556 C11.270319232053422 -10.948846312769035, 19.171390373606116 -22.395308470218204, 27.452006603017807 -32.39413953499242 M3.0557919858218003 11.904435343259399 C10.981956479800244 -5.83555914099529, 27.080539228655056 -16.995209393163307, 34.23049263236817 -31.88575022880883 M-1.2504646320632826 8.59123341241983 C9.831872461103 -1.22470590939532, 21.45566579193575 -14.202987287250144, 34.693590909240356 -30.668827331428986 M1.3198203260774104 17.446596185595855 C10.76721225345594 6.1081474921312005, 21.984222922933377 -2.776585722447738, 40.34056243403884 -28.4970872494075 M-0.12074419783928114 16.956462202978447 C13.213017001013295 1.6568378178612395, 28.145532652735074 -14.493523170175152, 39.5807493083279 -27.43647844192195 M2.5732027999389757 22.102140321084164 C10.025691277246425 12.873370394301045, 26.74422285515632 -6.490692843301218, 47.705344576653076 -27.508916601709664 M-1.6417143191877912 23.837882952918164 C13.953091545030047 7.176463988019595, 28.01731866609156 -9.216536047980014, 45.638681926563365 -28.381699082146973 M-2.5179612803998683 31.770868667548434 C13.531711793729977 14.730439828384107, 31.34842947382537 -0.10449670882722017, 51.089380213895026 -26.515404760614 M0.9340994381551351 31.19381403611778 C13.876038522465395 16.008119599325642, 29.380306916159547 1.5657329196128487, 50.0419183209512 -26.548439052198045 M5.021615767735522 38.42421766986722 C20.261632518171737 16.33012743641196, 41.305497821321936 -7.959285457733351, 54.9112946959868 -25.292075192628076 M3.972441910184454 36.75293982226053 C17.00989067546821 18.165656791789004, 30.082259294587317 3.350163504875166, 55.75627927628382 -25.041399675028046 M9.851600968510308 33.32871888019631 C24.225480184798933 16.125696143254657, 41.65454704005885 -0.1475733519950353, 61.523519801612544 -22.364734997650576 M12.535644305635639 33.7846452570569 C22.54675518298879 22.347272890892356, 30.916719325858217 10.75185183680107, 62.0217240370657 -24.548085438230974 M20.162464281713035 33.08068308108753 C36.21591419937071 13.59590668484736, 50.109288143570055 -4.954992818061349, 63.99507150599436 -20.503048267189072 M19.43217280011755 34.18057498536339 C33.94582337911009 15.189885848969993, 49.65419959717148 -2.3918128211982435, 66.83825307558925 -21.285502352259712 M26.79608626953735 32.71662994036498 C44.17822920800032 11.654791202775005, 58.80575452805536 -4.772521298588664, 69.73521318382588 -22.534753145919456 M28.040361202894143 32.11193800605881 C38.00626833943987 20.027777489496003, 48.01914893136245 8.5392446112782, 71.7926962948684 -20.767500011985465 M33.71641780667688 28.72913381335276 C48.582169663297734 16.711984269507674, 60.68682488872528 -1.7574008417639426, 78.55652852230074 -16.61278309101764 M36.98219566697936 30.09222847427192 C44.89975897625786 18.846742077886507, 55.0050975295747 6.479515137579952, 78.82491094166713 -18.525017856029457 M42.07255299335373 27.7997024835433 C53.18761632498259 17.0005186672571, 67.1641191318432 5.614055091610442, 81.73799443414106 -18.48238813149119 M42.88951260216562 28.256979442049854 C59.319904030792316 9.579082909198881, 72.92254913375642 -7.519618404728231, 82.49397951952784 -18.32633142609457 M49.822392358252046 26.984560101037914 C58.56511729817219 15.064336903788593, 70.25635114435725 3.07509257900103, 87.33652620254995 -14.78593276929324 M51.23078687795737 25.59642079679861 C62.7736389894126 12.154681314834786, 75.4705761112822 -3.4596813326854985, 86.99287993372397 -15.934975268079242 M57.82753868457496 24.711654663883493 C71.68893447461693 13.156814574723542, 80.86684057530618 1.0292848880550878, 91.21822748121156 -13.594145979322455 M62.10915264962807 23.49936174261977 C73.20685098491496 10.424088019746673, 83.06987426345572 -4.924636047101902, 91.38286049125998 -13.59411793207746 M70.88454701004457 24.249408018072444 C80.20129347460033 11.579564753995538, 90.51903166678753 -2.051322345349572, 95.15328612034797 -9.409113728086425 M67.49677835822013 20.26881580031042 C78.41307925013172 13.116427704049872, 86.3249231866314 2.6047076184073106, 96.39146072692826 -10.48267949104212 M75.69252880084501 17.64720837620611 C84.38045109548105 10.530149147862685, 90.56474567369003 6.6444620197191036, 100.43963736965284 -8.978496035261031 M77.90559590448798 17.609368326026598 C83.18557783398018 12.17977473181493, 87.31851035183949 8.0927906901706, 100.23929960624278 -7.48267360234442 M85.94804777767942 17.732417798831356 C93.85918245723909 8.849577444857324, 101.2407570168587 0.9714945865725397, 102.65391873333881 -3.0532290725766345 M88.68532147495509 16.671058992619855 C92.70894098797456 11.013403601382539, 94.98815003991876 5.2290220235112645, 106.0941553804865 -4.390034606660031" stroke="#ECECFF" stroke-width="2.5" fill="none"></path><path d="M1.2858951715752482 -34.85104789119214 C-1.3833522561528662 -20.03304175893718, -1.7439070406892279 -9.853969762119231, -1.1903919847682118 36.885378253646195 M-0.9729983448050916 -35.899977086577564 C0.41059733115471314 -19.007561918572172, -0.1189929924126773 -3.793306941149055, -0.8705614297650754 37.426098810043186 M0 36.296875 C141.64368452448397 14.404014699471492, 138.3352248551324 -10.450601237205166, -2.47493081074208 -37.682040330953896 M1.8453872026875615 38.982535931281745 C139.45973773649894 11.00861187352178, 142.0454134365078 -14.137589665021125, -2.830364013696089 -33.8981801239308 M0 -36.296875 C0 -36.296875, 0 -36.296875, 0 -36.296875 M0 -36.296875 C0 -36.296875, 0 -36.296875, 0 -36.296875" stroke="#333333" stroke-width="2" fill="none"></path></g><text class="ishikawa-head-label" text-anchor="start" x="0" y="-8.4" transform="translate(6,-8.1484375)"><tspan x="0" dy="0">Blurry</tspan><tspan x="0" dy="16.8">Photo</tspan></text></g><g class="ishikawa-pair"><g class="ishikawa-branch"><path d="M-19.21781054145352 375.8794734970541 C-27.917900828987136 301.8860369502589, -38.5754377318532 224.97430714706712, -72.91400925808738 4.007451335052057 M-20.59185932517142 375.2414266503682 C-30.377868623416113 293.74887971655266, -42.25234589080781 211.02995419157315, -72.71946144876786 4.336362997979443" stroke="#333333" stroke-width="2" fill="none"></path></g><g><path d="M-20.870112690266197 374.6601340109013 C-20.805080703717593 369.9772167367456, -25.08005601655883 368.8713216483547, -26.897100505049487 362.4955073476542 C-24.983105631264294 362.07564094792576, -19.567314623776696 360.9355718595334, -14.77646916896289 364.4158895355705 C-18.866659215340576 366.2373461724564, -15.823576129378253 366.09652492037384, -19.71328400135511 377.3848986277177" stroke="none" stroke-width="0" fill="#333333"></path><path d="M-19.4249301968838 375.64659353980124 C-21.64517602036436 373.5860192604683, -23.328792365722084 369.4354249966343, -28.144045103532733 364.2150084368881 M-20.435138088195792 375.17749814290806 C-21.36484589896629 373.13317188435394, -23.28654690473794 370.3054887268881, -28.001012531079034 364.45682602107513 M-26.689663077514947 362.9021617229145 C-24.360004609560267 364.2996250218681, -21.36045600971821 362.2137500560273, -14.894140146525556 361.76013160812295 M-27.433078998137592 363.47225734713044 C-24.282318609414908 363.0577284500709, -21.678794780352387 363.1419449130731, -15.484342691341395 362.4930908027906 M-15.02222800843195 362.1385645627178 C-15.925277023722632 364.9374912042865, -18.667149868747202 367.3158614084622, -18.768067462264234 374.7293082226112 M-16.361338578586313 362.1853262056104 C-17.423290289665328 367.2445609885863, -18.436144072102778 371.84340939780196, -19.370133380835362 375.028070036017" stroke="#333333" stroke-width="1" fill="none"></path></g><g class="ishikawa-label-group"><g class="ishikawa-label-box"><path d="M-20.254707426228315 -1.7069926237823747 C-20.254707426228315 -1.7069926237823747, -20.254707426228315 -1.7069926237823747, -20.254707426228315 -1.7069926237823747 M-20.254707426228315 -1.7069926237823747 C-20.254707426228315 -1.7069926237823747, -20.254707426228315 -1.7069926237823747, -20.254707426228315 -1.7069926237823747 M-19.500966511509425 6.370752154456838 C-17.624326304826074 1.416908290017119, -16.219177024502162 0.13552434715928108, -12.205066725082403 -3.051637036733627 M-20.264049833250276 5.57572840184757 C-17.306244540959984 3.866738174596951, -16.39516755332625 1.2577895484410937, -13.300191273150674 -2.8086968401990084 M-22.3389606938486 15.183724824180956 C-15.726621649582516 10.182318677388544, -11.061869457939913 8.084210198157576, -5.809313029869063 -1.7958468397551521 M-21.360027131789643 13.285698972018565 C-17.456505023517945 8.910397798919764, -12.10608516132412 4.407108113891299, -8.07171287795396 -1.098913745808725 M-16.77458954854285 19.433134298590794 C-15.742743282806355 15.716073315946748, -7.109515530063852 5.69029575706265, -3.254200854176154 -1.1468454135380184 M-18.717099493559203 17.535578414151296 C-13.857662152368963 14.093418164840799, -8.931722424610378 8.846617288654004, -0.8302823494425617 -2.176703418305466 M-9.936526017869475 20.426991987014958 C-7.045670045874343 14.19828245495532, -0.4260914184763056 8.933909761018974, 4.7911120817694695 -4.397043809548051 M-10.672991810506794 17.486715591019788 C-7.7474495538883215 15.380841632152679, -0.9435907307122413 7.404644015510794, 6.167462697408709 -1.5764762878157503 M-4.527451180068382 17.327558056336954 C0.28680375633643784 8.249463356564265, 7.282226244122766 1.440388830767862, 15.221813628189917 -1.173527994292832 M-5.442271757552006 18.023462344312236 C-0.15131442005570594 13.103931964215747, 6.162162600645374 6.553634291115676, 13.086561797392275 -0.9146524272924728 M2.6525103150825355 16.078059040049208 C7.4361115197837275 10.726609698093277, 15.032678178245707 1.8034959654483824, 18.46083903477882 0.6510420125517431 M1.3002564500975762 18.43174235107575 C5.972618547884682 15.693877850042925, 7.657899461590663 9.012016330837266, 20.58513391602208 -0.5107454941068408 M9.080981217276909 21.626147418475817 C9.419892891786828 11.9814480300086, 13.007016292718863 10.248152448118361, 24.521943863729817 -4.308689121190222 M7.997868027955898 19.66938570393912 C14.408081081404202 11.650287590378198, 18.641412787528886 6.3225400842566675, 26.580575362562072 -1.1076089893800631 M14.576404588708373 16.65678035944088 C19.155794610776145 12.26594318856194, 26.80583063227369 1.1627155637504352, 32.072776902765014 -1.2178932995263132 M15.978115535286905 19.64588265178113 C21.61986642309255 11.383004664406696, 30.46696982831452 2.060481624260653, 33.515757703054675 -1.0916825173150393 M20.361116717099033 21.32509845893682 C29.08878301169682 14.948939635632296, 31.98872364069497 10.22765005109762, 37.05854336806854 -1.835776059855192 M21.719026788133018 19.00213734039889 C25.677850614497757 12.458802159118218, 30.79072695937532 6.5121904337784144, 39.68581596325433 -2.760333846755742 M25.028951289642528 17.196918259787743 C34.861316905494554 13.5479437250719, 39.63423337353607 5.409033406537386, 46.48478267236253 -5.009149931184446 M28.519834033258185 18.59783533117119 C34.908687137064184 13.209874415462671, 39.15453442918967 6.7828111647230696, 46.22405139670347 -2.768557269405072 M35.60831230603249 18.981610992317748 C37.80241037625177 12.671769019826367, 48.070896760951314 6.03607417087836, 51.04103162784059 -1.4866514956899692 M35.76717186117635 19.29119734172682 C37.568709255845874 13.670042462510542, 43.641770788937215 10.135412623739771, 51.42871968766604 -1.3963156613842358 M39.62524699149102 17.264981315019256 C43.736016296333375 15.296096595816138, 52.38503087175895 7.512896978280816, 60.16389735919637 -4.185862648047657 M41.70127511917993 20.218732986612892 C47.99389248716162 10.319485053779017, 54.49392864369058 3.6652725553838756, 61.02922886415598 -2.7687867425644406 M46.07104997071176 19.449759833216376 C52.77880597417681 15.9033669369073, 59.04114322223728 5.767632236309817, 68.10013021665198 -3.460431854765094 M47.586708085282886 17.782608295958198 C53.23551897656626 11.744209193855786, 58.92596140951848 4.737410027813887, 66.95233721096572 -1.5766093358985849 M57.46533618088834 16.488481839733197 C63.942920062357814 9.881391405493563, 69.03542506861805 3.265628920849064, 70.87422794990104 -4.1595816355181725 M54.47856238124915 18.930399456141515 C59.36016222447715 12.440828046038256, 64.75474910565347 6.579094714975554, 72.4928824436092 -2.088515848757872 M62.837095805111666 18.62647127788605 C64.76054662282608 14.361463337473387, 66.52491123953754 8.54526977306202, 74.41182227935842 2.0262480034364216 M61.47815985094602 19.879027748038975 C63.95900672933389 14.150727062991624, 67.97529557977236 12.70092577024324, 74.15386972956092 4.898716729144735 M68.76817077006817 20.075273246193277 C69.3425627890405 18.3916189544336, 71.257290336672 15.883133322070186, 74.14581609382844 11.271814649308016 M68.02741162350539 18.99050951436252 C68.79583404987531 17.943242699937525, 71.15112211220342 16.2238854179577, 73.80473208779553 12.755759434879673" stroke="#ECECFF" stroke-width="2.5" fill="none"></path><path d="M-18.71410482842475 -0.5541728911921382 C-1.7467877945227883 -0.5399615440406254, 16.625500362120874 -4.879965898755973, 72.47171739023179 -1.411496746353805 M-20.97299834480509 -1.6031020865775645 C1.3914639191270943 -1.3859819450883606, 21.594158700301712 -2.2404908665923813, 72.79154794523492 -0.870776189956814 M75.96716574113816 -4.624150144867599 C75.16989383324464 4.260004326044873, 76.20719766839822 4.368048147848459, 75.74793100636452 16.992842596955597 M74.10862593958154 -3.1989110843278468 C74.1209977263392 2.157418754864193, 72.65629492642293 8.936159082184895, 74.27242464432493 18.82524058362469 M75.24131179135293 17.976714772172272 C55.00741281995488 19.3971735202334, 30.73604112364228 18.58188649645067, -17.24531510192901 17.691589784808457 M72.24696952709928 18.081276984419674 C38.321533835734044 18.853410408020363, 4.438462741689364 18.446213841557846, -18.5915754227899 18.359641508664936 M-21.080906179733574 17.8746730806306 C-18.329802063013847 10.182970866006507, -20.92845213105851 6.924203412429778, -19.112299499101937 -3.8091211495921016 M-19.673064628150314 19.794209556188434 C-21.35094415015941 9.9326486435908, -20.59186250335937 2.179502857793704, -19.338889145758003 -0.5179548845626414" stroke="#333333" stroke-width="2" fill="none"></path></g><text class="ishikawa-label cause" text-anchor="middle" x="-72.18991286002463" y="-7.3505257780888655"><tspan x="-72.18991286002463" dy="0">Process</tspan></text></g><g class="ishikawa-sub-group"><g class="ishikawa-sub-branch"><path d="M-36.11074244843296 252.66231851611158 C-43.87640322332702 253.05244369125796, -50.23709287547938 248.71243933654262, -68.58702960477642 251.80499466094992 M-38.3696359648133 251.61338932072616 C-43.37801556109882 252.63131268071814, -50.54816264014191 251.77680375921412, -68.26719904977328 252.3457152173469" stroke="#333333" stroke-width="2" fill="none"></path></g><g><path d="M-38.2667503102744 250.876625418205 C-39.23762360928209 251.0783387792401, -44.77120837405357 254.8620200534734, -48.68205250108748 255.7601769740963 C-51.20516438037029 251.43878883585205, -50.11208680897823 246.54104228608182, -48.44463798989973 247.35063637353352 C-48.92037231504392 247.54106655040044, -42.297804815798735 245.92233333652752, -37.10992162136332 253.60139003502138" stroke="none" stroke-width="0" fill="#333333"></path><path d="M-36.821567816892006 251.863084947105 C-40.060985059043965 253.22111615451334, -42.622284007657576 252.4802341760788, -49.92899709957073 257.47967806333025 M-37.831775708204 251.3939895502118 C-39.771763723189736 253.14225483769985, -42.664826418124576 254.08821818162235, -49.78596452711703 257.72149564751726 M-48.47461507355295 256.16683134935664 C-48.681888168318785 255.34461861267556, -48.26696663425736 251.0119616163509, -48.5623089674624 244.69487844608597 M-49.21803099417559 256.73692697357257 C-49.289193505770186 253.47967181760686, -49.875074625736694 250.79138085689266, -49.15251151227824 245.4278376407536 M-48.690396829368794 245.0733114006808 C-46.10166777095071 246.26232765137146, -45.33421918548016 247.19175506908044, -36.16470508227244 250.94579962991494 M-50.02950739952315 245.1200730435734 C-44.95885843077568 247.63520682183096, -39.85503889063691 249.7085784790726, -36.76677100084357 251.24456144332075" stroke="#333333" stroke-width="1" fill="none"></path></g><text class="ishikawa-label align" text-anchor="end" x="-67.3966376200082" y="242.81649140730372"><tspan x="-67.3966376200082" dy="0">Shutter speed</tspan><tspan x="-67.3966376200082" dy="16.8">too slow</tspan></text></g><g class="ishikawa-sub-group"><g class="ishikawa-sub-branch"><path d="M-53.50738006844117 128.8788099234153 C-61.27304084333523 129.26893509856168, -67.63373049548758 124.92893074384634, -85.98366722478463 128.02148606825364 M-55.76627358482151 127.82988072802988 C-60.774653181107034 128.84780408802186, -67.94480026015012 127.99329516651784, -85.66383666978149 128.56220662465063" stroke="#333333" stroke-width="2" fill="none"></path></g><g><path d="M-55.66338793028262 127.09311682550873 C-56.634261229290296 127.29483018654382, -62.167845994061786 131.07851146077712, -66.07869012109569 131.97666838140006 C-68.60180200037851 127.65528024315577, -67.50872442898645 122.75753369338555, -65.84127560990794 123.56712778083724 C-66.31700993505211 123.7575579577042, -59.69444243580694 122.13882474383124, -54.506559241371534 129.8178814423251" stroke="none" stroke-width="0" fill="#333333"></path><path d="M-54.21820543690022 128.07957635440872 C-57.45762267905217 129.43760756181706, -60.0189216276658 128.69672558338252, -67.32563471957894 133.69616947063398 M-55.22841332821221 127.61048095751552 C-57.16840134319795 129.35874624500357, -60.06146403813278 130.3047095889261, -67.18260214712524 133.937987054821 M-65.87125269356115 132.3833227566604 C-66.07852578832698 131.56111001997928, -65.66360425426555 127.22845302365465, -65.9589465874706 120.91136985338969 M-66.6146686141838 132.95341838087631 C-66.68583112577839 129.6961632249106, -67.2717122457449 127.0078722641964, -66.54914913228644 121.64432904805732 M-66.087034449377 121.28980280798451 C-63.49830539095891 122.47881905867523, -62.730856805488365 123.40824647638418, -53.561342702280655 127.16229103721867 M-67.42614501953136 121.3365644508771 C-62.355496050783884 123.85169822913466, -57.251676510645126 125.92506988637629, -54.16340862085178 127.46105285062447" stroke="#333333" stroke-width="1" fill="none"></path></g><text class="ishikawa-label align" text-anchor="end" x="-84.79327524001641" y="127.43298281460744"><tspan x="-84.79327524001641" dy="0">Out of focus</tspan></text></g><g class="ishikawa-branch"><path d="M-18.71410482842475 376.44582710880786 C-25.50002065159625 401.5548981952729, -29.339981168235663 421.97215203865363, -38.58702960477642 499.3720118463425 M-20.97299834480509 375.39689791342244 C-23.615469495098 403.73291902806807, -27.995838467668996 430.2781239132878, -38.26719904977328 499.9127324027395" stroke="#333333" stroke-width="2" fill="none"></path></g><g><path d="M-20.870112690266197 374.6601340109013 C-17.086397154207674 376.80704400378653, -17.95315515772169 382.51758353405006, -15.013883680150638 386.26194099745186 C-21.74531567855652 385.5543860434474, -24.974951543259998 384.414316955055, -26.659685993861736 388.18232318536826 C-28.012038554010214 384.66371252820016, -22.35483213330246 379.29464460662666, -19.713284001355113 377.3848986277177" stroke="none" stroke-width="0" fill="#333333"></path><path d="M-19.424930196883796 375.6465935398013 C-19.465725208872314 378.31533073127207, -18.77264476721281 378.9181300414725, -16.260828278633888 387.98144208668583 M-20.435138088195792 375.17749814290806 C-18.78872869006218 378.34261521570374, -18.080057170388343 380.7756771091288, -16.11779570618019 388.22325967087284 M-14.8064462526161 386.6685953727122 C-17.646041916222675 388.12027066136443, -19.81574744794187 386.03439569552364, -26.7773569714244 385.52656525792065 M-15.549862173238747 387.23869099692814 C-18.77791168257412 386.683724429489, -22.55319775156966 386.7679408924912, -27.367559516240238 386.2595244525883 M-26.905444833330797 385.9049982125155 C-25.307672251882906 383.4606034465814, -25.4866622955361 380.7132080480142, -18.768067462264238 374.7293082226112 M-28.244555403485155 385.9517598554081 C-24.783111923221682 382.0632917507942, -21.328914975049386 377.72803869879044, -19.370133380835362 375.028070036017" stroke="#333333" stroke-width="1" fill="none"></path></g><g class="ishikawa-label-group"><g class="ishikawa-label-box"><path d="M-20.254707426228315 -1.7069926237823747 C-20.254707426228315 -1.7069926237823747, -20.254707426228315 -1.7069926237823747, -20.254707426228315 -1.7069926237823747 M-20.254707426228315 -1.7069926237823747 C-20.254707426228315 -1.7069926237823747, -20.254707426228315 -1.7069926237823747, -20.254707426228315 -1.7069926237823747 M-19.500966511509425 6.370752154456838 C-17.624326304826074 1.416908290017119, -16.219177024502162 0.13552434715928108, -12.205066725082403 -3.051637036733627 M-20.264049833250276 5.57572840184757 C-17.306244540959984 3.866738174596951, -16.39516755332625 1.2577895484410937, -13.300191273150674 -2.8086968401990084 M-22.3389606938486 15.183724824180956 C-15.726621649582516 10.182318677388544, -11.061869457939913 8.084210198157576, -5.809313029869063 -1.7958468397551521 M-21.360027131789643 13.285698972018565 C-17.456505023517945 8.910397798919764, -12.10608516132412 4.407108113891299, -8.07171287795396 -1.098913745808725 M-16.77458954854285 19.433134298590794 C-15.742743282806355 15.716073315946748, -7.109515530063852 5.69029575706265, -3.254200854176154 -1.1468454135380184 M-18.717099493559203 17.535578414151296 C-13.857662152368963 14.093418164840799, -8.931722424610378 8.846617288654004, -0.8302823494425617 -2.176703418305466 M-9.936526017869475 20.426991987014958 C-7.045670045874343 14.19828245495532, -0.4260914184763056 8.933909761018974, 4.7911120817694695 -4.397043809548051 M-10.672991810506794 17.486715591019788 C-7.7474495538883215 15.380841632152679, -0.9435907307122413 7.404644015510794, 6.167462697408709 -1.5764762878157503 M-4.527451180068382 17.327558056336954 C0.28680375633643784 8.249463356564265, 7.282226244122766 1.440388830767862, 15.221813628189917 -1.173527994292832 M-5.442271757552006 18.023462344312236 C-0.15131442005570594 13.103931964215747, 6.162162600645374 6.553634291115676, 13.086561797392275 -0.9146524272924728 M2.6525103150825355 16.078059040049208 C7.4361115197837275 10.726609698093277, 15.032678178245707 1.8034959654483824, 18.46083903477882 0.6510420125517431 M1.3002564500975762 18.43174235107575 C5.972618547884682 15.693877850042925, 7.657899461590663 9.012016330837266, 20.58513391602208 -0.5107454941068408 M9.080981217276909 21.626147418475817 C9.419892891786828 11.9814480300086, 13.007016292718863 10.248152448118361, 24.521943863729817 -4.308689121190222 M7.997868027955898 19.66938570393912 C14.408081081404202 11.650287590378198, 18.641412787528886 6.3225400842566675, 26.580575362562072 -1.1076089893800631 M14.576404588708373 16.65678035944088 C19.155794610776145 12.26594318856194, 26.80583063227369 1.1627155637504352, 32.072776902765014 -1.2178932995263132 M15.978115535286905 19.64588265178113 C21.61986642309255 11.383004664406696, 30.46696982831452 2.060481624260653, 33.515757703054675 -1.0916825173150393 M20.361116717099033 21.32509845893682 C29.08878301169682 14.948939635632296, 31.98872364069497 10.22765005109762, 37.05854336806854 -1.835776059855192 M21.719026788133018 19.00213734039889 C25.677850614497757 12.458802159118218, 30.79072695937532 6.5121904337784144, 39.68581596325433 -2.760333846755742 M25.028951289642528 17.196918259787743 C34.861316905494554 13.5479437250719, 39.63423337353607 5.409033406537386, 46.48478267236253 -5.009149931184446 M28.519834033258185 18.59783533117119 C34.908687137064184 13.209874415462671, 39.15453442918967 6.7828111647230696, 46.22405139670347 -2.768557269405072 M35.60831230603249 18.981610992317748 C37.80241037625177 12.671769019826367, 48.070896760951314 6.03607417087836, 51.04103162784059 -1.4866514956899692 M35.76717186117635 19.29119734172682 C37.568709255845874 13.670042462510542, 43.641770788937215 10.135412623739771, 51.42871968766604 -1.3963156613842358 M39.89586140955247 17.49355555927818 C42.17031291826538 17.10169053355373, 48.35422827667271 11.829310150397216, 52.89251282496657 4.392363336186152 M41.66048531808804 20.004244480132773 C45.37399448325514 13.42845261068395, 49.262129807461314 9.655404751306698, 53.62804460418224 5.596877855846886 M47.212500123583894 19.19008912381687 C49.059633520826765 18.557198395071367, 50.7397249924326 15.59836532362168, 53.08571292848954 13.284708857647118 M47.742980463683786 18.606586085776506 C49.166626272473124 17.166189095444825, 50.57688097643004 15.382633749055637, 52.68398537649936 13.944046739250396" stroke="#ECECFF" stroke-width="2.5" fill="none"></path><path d="M-18.71410482842475 -0.5541728911921382 C-6.09727620732483 -0.47383894588254405, 7.924523536516791 -4.813843300597892, 50.71976426523179 -1.411496746353805 M-20.97299834480509 -1.6031020865775645 C-3.423372056506558 -1.2451220312533224, 11.964486749034407 -2.099630952757343, 51.039594820234925 -0.870776189956814 M54.21521261613816 -4.624150144867599 C53.41794070824464 4.260004326044873, 54.45524454339822 4.368048147848459, 53.995977881364524 16.992842596955597 M52.35667281458154 -3.1989110843278468 C52.36904460133919 2.157418754864193, 50.90434180142292 8.936159082184895, 52.52047151932493 18.82524058362469 M53.48935866635293 17.976714772172272 C37.94675729406045 19.074398754057857, 18.36668319685341 18.259111730275126, -17.24531510192901 17.691589784808457 M50.49501640209928 18.081276984419674 C24.746413594539263 18.816064764176755, -0.9598246157001995 18.408868197714238, -18.5915754227899 18.359641508664936 M-21.080906179733574 17.8746730806306 C-18.329802063013847 10.182970866006507, -20.92845213105851 6.924203412429778, -19.112299499101937 -3.8091211495921016 M-19.673064628150314 19.794209556188434 C-21.35094415015941 9.9326486435908, -20.59186250335937 2.179502857793704, -19.338889145758003 -0.5179548845626414" stroke="#333333" stroke-width="2" fill="none"></path></g><text class="ishikawa-label cause" text-anchor="middle" x="-37.39663762000821" y="509.7835085926963"><tspan x="-37.39663762000821" dy="0">User</tspan></text></g><g class="ishikawa-sub-group"><g class="ishikawa-sub-branch"><path d="M-27.412423638428855 438.337581405156 C-35.178084413322914 438.7277065803024, -41.53877406547527 434.3877022255871, -59.888710794772315 437.48025754999435 M-29.671317154809195 437.2886522097706 C-34.67969675109472 438.3065755697626, -41.84984383013781 437.45206664825855, -59.56888023976918 438.02097810639134" stroke="#333333" stroke-width="2" fill="none"></path></g><g><path d="M-29.5684315002703 436.55188830724944 C-30.539304799277986 436.75360166828455, -36.07288956404948 440.5372829425178, -39.98373369108338 441.4354398631408 C-42.50684557036619 437.11405172489646, -41.41376799897413 432.21630517512625, -39.74631917989563 433.0258992625779 C-40.22205350503982 433.2163294394449, -33.59948600579464 431.5975962255719, -28.411602811359217 439.27665292406584" stroke="none" stroke-width="0" fill="#333333"></path><path d="M-28.123249006887903 437.5383478361494 C-31.362666249039858 438.8963790435578, -33.92396519765348 438.15549706512326, -41.230678289566626 443.1549409523747 M-29.133456898199896 437.0692524392562 C-31.073444913185632 438.81751772674426, -33.96650760812047 439.76348107066684, -41.08764571711293 443.3967585365617 M-39.776296263548836 441.8420942384011 C-39.98356935831468 441.01988150172, -39.56864782425325 436.6872245053953, -39.863990157458296 430.37014133513037 M-40.51971218417149 442.412189862617 C-40.59087469576608 439.1549347066514, -41.17675581573259 436.4666437459371, -40.454192702274135 431.10310052979804 M-39.99207801936469 430.74857428972524 C-37.40334896094661 431.93759054041595, -36.63590037547605 432.8670179581249, -27.46638627226834 436.6210625189594 M-41.331188589519044 430.79533593261783 C-36.260539620771574 433.3104697108754, -31.156720080632812 435.38384136811703, -28.068452190839466 436.9198243323652" stroke="#333333" stroke-width="1" fill="none"></path></g><text class="ishikawa-label align" text-anchor="end" x="-58.6983188100041" y="436.89175429634815"><tspan x="-58.6983188100041" dy="0">Shaky hands</tspan></text></g></g><g class="ishikawa-pair"><g class="ishikawa-branch"><path d="M0.782189458546478 375.8794734970541 C-7.917900828987133 301.8860369502589, -18.5754377318532 224.97430714706712, -52.91400925808738 4.007451335052057 M-0.5918593251714201 375.2414266503682 C-10.377868623416111 293.74887971655266, -22.252345890807803 211.02995419157315, -52.71946144876785 4.336362997979443" stroke="#333333" stroke-width="2" fill="none"></path></g><g><path d="M-0.8701126902661953 374.6601340109013 C-0.8050807037175911 369.9772167367456, -5.080056016558827 368.8713216483547, -6.897100505049483 362.4955073476542 C-4.983105631264292 362.07564094792576, 0.43268537622330316 360.9355718595334, 5.22353083103711 364.4158895355705 C1.1333407846594268 366.2373461724564, 4.176423870621747 366.09652492037384, 0.286715998644889 377.3848986277177" stroke="none" stroke-width="0" fill="#333333"></path><path d="M0.5750698031162016 375.64659353980124 C-1.645176020364361 373.5860192604683, -3.328792365722083 369.4354249966343, -8.144045103532731 364.2150084368881 M-0.4351380881957924 375.17749814290806 C-1.3648458989662897 373.13317188435394, -3.2865469047379365 370.3054887268881, -8.00101253107903 364.45682602107513 M-6.689663077514943 362.9021617229145 C-4.360004609560267 364.2996250218681, -1.360456009718209 362.2137500560273, 5.105859853474444 361.76013160812295 M-7.433078998137591 363.47225734713044 C-4.282318609414906 363.0577284500709, -1.6787947803523848 363.1419449130731, 4.5156573086586045 362.4930908027906 M4.97777199156805 362.1385645627178 C4.074722976277367 364.9374912042865, 1.3328501312527974 367.3158614084622, 1.2319325377357657 374.7293082226112 M3.638661421413688 362.1853262056104 C2.576709710334672 367.2445609885863, 1.5638559278972195 371.84340939780196, 0.6298666191646376 375.028070036017" stroke="#333333" stroke-width="1" fill="none"></path></g><g class="ishikawa-label-group"><g class="ishikawa-label-box"><path d="M-20.254707426228315 -1.7069926237823747 C-20.254707426228315 -1.7069926237823747, -20.254707426228315 -1.7069926237823747, -20.254707426228315 -1.7069926237823747 M-20.254707426228315 -1.7069926237823747 C-20.254707426228315 -1.7069926237823747, -20.254707426228315 -1.7069926237823747, -20.254707426228315 -1.7069926237823747 M-19.500966511509425 6.370752154456838 C-17.624326304826074 1.416908290017119, -16.219177024502162 0.13552434715928108, -12.205066725082403 -3.051637036733627 M-20.264049833250276 5.57572840184757 C-17.306244540959984 3.866738174596951, -16.39516755332625 1.2577895484410937, -13.300191273150674 -2.8086968401990084 M-22.3389606938486 15.183724824180956 C-15.726621649582516 10.182318677388544, -11.061869457939913 8.084210198157576, -5.809313029869063 -1.7958468397551521 M-21.360027131789643 13.285698972018565 C-17.456505023517945 8.910397798919764, -12.10608516132412 4.407108113891299, -8.07171287795396 -1.098913745808725 M-16.77458954854285 19.433134298590794 C-15.742743282806355 15.716073315946748, -7.109515530063852 5.69029575706265, -3.254200854176154 -1.1468454135380184 M-18.717099493559203 17.535578414151296 C-13.857662152368963 14.093418164840799, -8.931722424610378 8.846617288654004, -0.8302823494425617 -2.176703418305466 M-9.936526017869475 20.426991987014958 C-7.045670045874343 14.19828245495532, -0.4260914184763056 8.933909761018974, 4.7911120817694695 -4.397043809548051 M-10.672991810506794 17.486715591019788 C-7.7474495538883215 15.380841632152679, -0.9435907307122413 7.404644015510794, 6.167462697408709 -1.5764762878157503 M-4.527451180068382 17.327558056336954 C0.28680375633643784 8.249463356564265, 7.282226244122766 1.440388830767862, 15.221813628189917 -1.173527994292832 M-5.442271757552006 18.023462344312236 C-0.15131442005570594 13.103931964215747, 6.162162600645374 6.553634291115676, 13.086561797392275 -0.9146524272924728 M2.6525103150825355 16.078059040049208 C7.4361115197837275 10.726609698093277, 15.032678178245707 1.8034959654483824, 18.46083903477882 0.6510420125517431 M1.3002564500975762 18.43174235107575 C5.972618547884682 15.693877850042925, 7.657899461590663 9.012016330837266, 20.58513391602208 -0.5107454941068408 M9.080981217276909 21.626147418475817 C9.419892891786828 11.9814480300086, 13.007016292718863 10.248152448118361, 24.521943863729817 -4.308689121190222 M7.997868027955898 19.66938570393912 C14.408081081404202 11.650287590378198, 18.641412787528886 6.3225400842566675, 26.580575362562072 -1.1076089893800631 M14.576404588708373 16.65678035944088 C19.155794610776145 12.26594318856194, 26.80583063227369 1.1627155637504352, 32.072776902765014 -1.2178932995263132 M15.978115535286905 19.64588265178113 C21.61986642309255 11.383004664406696, 30.46696982831452 2.060481624260653, 33.515757703054675 -1.0916825173150393 M20.361116717099033 21.32509845893682 C29.08878301169682 14.948939635632296, 31.98872364069497 10.22765005109762, 37.05854336806854 -1.835776059855192 M21.719026788133018 19.00213734039889 C25.677850614497757 12.458802159118218, 30.79072695937532 6.5121904337784144, 39.68581596325433 -2.760333846755742 M25.028951289642528 17.196918259787743 C34.861316905494554 13.5479437250719, 39.63423337353607 5.409033406537386, 46.48478267236253 -5.009149931184446 M28.519834033258185 18.59783533117119 C34.908687137064184 13.209874415462671, 39.15453442918967 6.7828111647230696, 46.22405139670347 -2.768557269405072 M35.60831230603249 18.981610992317748 C37.80241037625177 12.671769019826367, 48.070896760951314 6.03607417087836, 51.04103162784059 -1.4866514956899692 M35.76717186117635 19.29119734172682 C37.568709255845874 13.670042462510542, 43.641770788937215 10.135412623739771, 51.42871968766604 -1.3963156613842358 M39.62524699149102 17.264981315019256 C43.736016296333375 15.296096595816138, 52.38503087175895 7.512896978280816, 60.16389735919637 -4.185862648047657 M41.70127511917993 20.218732986612892 C47.99389248716162 10.319485053779017, 54.49392864369058 3.6652725553838756, 61.02922886415598 -2.7687867425644406 M46.07104997071176 19.449759833216376 C52.77880597417681 15.9033669369073, 59.04114322223728 5.767632236309817, 68.10013021665198 -3.460431854765094 M47.586708085282886 17.782608295958198 C53.23551897656626 11.744209193855786, 58.92596140951848 4.737410027813887, 66.95233721096572 -1.5766093358985849 M57.46533618088834 16.488481839733197 C63.942920062357814 9.881391405493563, 69.03542506861805 3.265628920849064, 70.87422794990104 -4.1595816355181725 M54.47856238124915 18.930399456141515 C59.36016222447715 12.440828046038256, 64.75474910565347 6.579094714975554, 72.4928824436092 -2.088515848757872 M62.91911378474287 18.616366055562143 C66.32331110102804 12.537439650958875, 69.56969637786361 4.817085590264135, 80.35150862113719 -4.895229822482797 M61.48865488562114 19.934846550459955 C65.39330673095675 12.496541920796396, 70.91275927221254 9.484412318569538, 80.07997962135036 -1.87157853226352 M70.10238834446899 21.291807148527326 C72.99936246955824 15.740637225771398, 78.8481613640258 8.332711417092588, 87.30118351808254 -4.309110819666543 M68.45625690766282 18.88122107779232 C71.45851679419692 15.162216935198483, 77.94368751414639 9.90208518981663, 86.54321906023164 -1.0114557406184161 M74.30723573476031 16.929254473952845 C77.9857493221279 10.450050764424365, 81.21701729869189 10.89389195534533, 93.36396132793072 0.8677169157546984 M74.2142921003881 18.44707969326739 C78.52037138991003 12.720939608967448, 82.48451860691006 9.228206855022338, 91.78339550701696 -1.6250244124437643 M78.51087505583897 21.632090815331107 C89.1152986719599 12.506973353621508, 89.70801155832065 7.77756145317306, 94.83482590542283 1.3212975152188733 M82.35553437358945 18.182017948932266 C86.66490882569379 11.778646525030247, 93.23335444227763 6.230943450380119, 96.75841090726774 1.692921571003069 M86.7572095761036 19.774887063263225 C88.52512012741539 17.19274901923772, 94.96686671920828 13.604754120765481, 96.85550549245897 7.375791700500535 M87.44625134535204 19.360130454392415 C89.94415920628487 16.75011708312142, 91.81981998408327 13.417526692680429, 95.245691528581 9.495941347083548 M94.21535585540234 18.303005665828074 C94.90529437727716 18.004347880256695, 95.26909855975246 17.500016247209512, 96.6448898847295 16.599841373909776 M94.72949811524133 18.514030353756223 C94.96862375485703 17.87715388188274, 95.4882331829029 17.6056347220774, 96.68939874338321 16.336957447470674" stroke="#ECECFF" stroke-width="2.5" fill="none"></path><path d="M-18.71410482842475 -0.5541728911921382 C2.719914167961271 -0.607850459245669, 25.558904287088993 -4.947854813961016, 94.80472520273179 -1.411496746353805 M-20.97299834480509 -1.6031020865775645 C6.334917449106708 -1.5306046158925941, 31.48106576026094 -2.385113537396615, 95.12455575773492 -0.870776189956814 M98.30017355363816 -4.624150144867599 C97.50290164574464 4.260004326044873, 98.54020548089822 4.368048147848459, 98.08093881886452 16.992842596955597 M96.44163375208154 -3.1989110843278468 C96.4540055388392 2.157418754864193, 94.98930273892293 8.936159082184895, 96.60543245682493 18.82524058362469 M97.57431960385293 17.976714772172272 C72.52380552991626 19.728570491036514, 43.43581873106504 18.913283467253784, -17.24531510192901 17.691589784808457 M94.57997733959928 18.081276984419674 C52.25928299600537 18.891753657057784, 9.98095324973201 18.484557090595267, -18.5915754227899 18.359641508664936 M-21.080906179733574 17.8746730806306 C-18.329802063013847 10.182970866006507, -20.92845213105851 6.924203412429778, -19.112299499101937 -3.8091211495921016 M-19.673064628150314 19.794209556188434 C-21.35094415015941 9.9326486435908, -20.59186250335937 2.179502857793704, -19.338889145758003 -0.5179548845626414" stroke="#333333" stroke-width="2" fill="none"></path></g><text class="ishikawa-label cause" text-anchor="middle" x="-52.189912860024634" y="-7.3505257780888655"><tspan x="-52.189912860024634" dy="0">Equipment</tspan></text></g><g class="ishikawa-sub-group"><g class="ishikawa-sub-branch"><path d="M-9.15208740042968 302.1757219531901 C-23.917905520875735 302.6722417551653, -37.27875251858009 298.33223740044997, -76.62837455677314 301.3183980980284 M-11.41098091681002 301.12679275780465 C-24.166676727817194 302.3713668905293, -39.08414002158194 301.5168579690253, -76.30854400177 301.8591186544254" stroke="#333333" stroke-width="2" fill="none"></path></g><g><path d="M-11.308095262271124 300.3900288552835 C-12.278968561278813 300.5917422163186, -17.812553326050303 304.37542349055184, -21.7233974530842 305.27358041117486 C-24.246509332367015 300.9521922729305, -23.153431760974954 296.0544457231603, -21.485982941896452 296.864039810612 C-21.961717267040637 297.05446998747897, -15.339149767795456 295.435736773606, -10.15126657336004 303.1147934720999" stroke="none" stroke-width="0" fill="#333333"></path><path d="M-9.862912768888727 301.37648838418346 C-13.102330011040685 302.73451959159183, -15.663628959654304 301.9936376131573, -22.97034205156745 306.9930815004088 M-10.87312066020072 300.9073929872903 C-12.813108675186456 302.6556582747783, -15.706171370121293 303.6016216187009, -22.82730947911375 307.2348990845958 M-21.515960025549663 305.68023478643516 C-21.723233120315506 304.8580220497541, -21.308311586254074 300.52536505342937, -21.603653919459116 294.20828188316443 M-22.25937594617231 306.2503304106511 C-22.330538457766902 302.99307525468544, -22.91641957773341 300.3047842939712, -22.193856464274955 294.9412410778321 M-21.731741781365514 294.5867148377593 C-19.14301272294743 295.77573108845, -18.375564137476875 296.70515850615897, -9.206050034269165 300.45920306699344 M-23.07085235151987 294.6334764806519 C-18.000203382772398 297.14861025890946, -12.896383842633636 299.2219819161511, -9.808115952840293 300.75796488039924" stroke="#333333" stroke-width="1" fill="none"></path></g><text class="ishikawa-label align" text-anchor="end" x="-75.43798257200493" y="300.7298948443822"><tspan x="-75.43798257200493" dy="0">SENSOR</tspan></text></g><g class="ishikawa-sub-group"><g class="ishikawa-sub-branch"><path d="M-41.65208740042968 302.1757219531901 C-44.580666236695336 287.6520266796425, -47.02886446049352 268.4576674060695, -54.566357128778066 227.04829294241065 M-43.91098091681002 301.12679275780465 C-44.334949150734325 285.5782093661548, -47.175006663703876 268.2838721606165, -54.24652657377493 227.58901349880765" stroke="#333333" stroke-width="2" fill="none"></path></g><g><path d="M-43.808095262271124 300.3900288552835 C-43.74306327572251 295.70711158112783, -48.018038588563755 294.6012164927369, -49.83508307705441 288.2254021920364 C-47.92108820326922 287.805535792308, -42.50529719578163 286.6654667039156, -37.714451740967824 290.1457843799527 C-41.8046417873455 291.9672410168386, -38.76155870138318 291.82641976475605, -42.65126657336004 303.1147934720999" stroke="none" stroke-width="0" fill="#333333"></path><path d="M-42.36291276888873 301.37648838418346 C-44.58315859236929 299.3159141048505, -46.26677493772701 295.1653198410165, -51.08202767553766 289.94490328127034 M-43.37312066020072 300.9073929872903 C-44.30282847097122 298.86306672873616, -46.224529476742866 296.0353835712703, -50.93899510308396 290.18672086545735 M-49.62764564951987 288.63205656729673 C-47.2979871815652 290.0295198662503, -44.29843858172313 287.94364490040954, -37.83212271853049 287.49002645250516 M-50.37106157014252 289.20215219151265 C-47.220301181419835 288.7876232944531, -44.61677735235731 288.8718397574553, -38.42232526334633 288.22298564717283 M-37.960210580436886 287.86845940710003 C-38.863259595727556 290.66738604866873, -41.60513244075213 293.0457562528444, -41.70605003426916 300.45920306699344 M-39.29932115059125 287.9152210499926 C-40.36127286167026 292.9744558329685, -41.37412664410771 297.5733042421842, -42.30811595284029 300.75796488039924" stroke="#333333" stroke-width="1" fill="none"></path></g><text class="ishikawa-label up" text-anchor="end" x="-53.375965144009854" y="226.45978968876446"><tspan x="-53.375965144009854" dy="0">Damaged sensor</tspan></text></g><g class="ishikawa-sub-group"><g class="ishikawa-sub-branch"><path d="M-30.028052544439532 153.63551164195454 C-44.79387066488559 154.13203144392978, -58.154717662589945 149.79202708921443, -97.50433970078299 152.77818778679287 M-32.28694606081987 152.5865824465691 C-45.042641871827044 153.83115657929378, -59.960105165591784 152.97664765778975, -97.18450914577986 153.31890834318986" stroke="#333333" stroke-width="2" fill="none"></path></g><g><path d="M-32.18406040628098 151.84981854404796 C-33.15493370528866 152.05153190508304, -38.68851847006016 155.83521317931636, -42.59936259709406 156.7333700999393 C-45.122474476376865 152.411981961695, -44.02939690498481 147.51423541192477, -42.361948085906306 148.32382949937647 C-42.837682411050494 148.5142596762434, -36.21511491180531 146.89552646237047, -31.027231717369894 154.57458316086434" stroke="none" stroke-width="0" fill="#333333"></path><path d="M-30.73887791289858 152.83627807294795 C-33.97829515505054 154.1943092803563, -36.53959410366416 153.45342730192175, -43.8463071955773 158.4528711891732 M-31.749085804210573 152.36718267605477 C-33.68907381919631 154.1154479635428, -36.58213651413115 155.06141130746533, -43.703274623123605 158.69468877336024 M-42.391925169559514 157.14002447519962 C-42.59919826432536 156.31781173851851, -42.184276730263925 151.98515474219388, -42.479619063468974 145.66807157192892 M-43.135341090182166 157.71012009941555 C-43.20650360177676 154.45286494344984, -43.79238472174327 151.7645739827356, -43.06982160828481 146.40103076659656 M-42.60770692537537 146.04650452652376 C-40.018977866957286 147.23552077721442, -39.25152928148673 148.1649481949234, -30.08201517827902 151.9189927557579 M-43.94681749552972 146.09326616941635 C-38.87616852678225 148.60839994767392, -33.772348986643486 150.68177160491555, -30.684081096850143 152.2177545691637" stroke="#333333" stroke-width="1" fill="none"></path></g><text class="ishikawa-label align" text-anchor="end" x="-96.31394771601478" y="152.18968453314667"><tspan x="-96.31394771601478" dy="0">LENS</tspan></text></g><g class="ishikawa-sub-group"><g class="ishikawa-sub-branch"><path d="M-62.52805254443953 153.63551164195454 C-65.45663138070519 139.11181636840698, -67.90482960450338 119.91745709483402, -75.44232227278792 78.50808263117511 M-64.78694606081987 152.5865824465691 C-65.21091429474417 137.03799905491925, -68.05097180771374 119.74366184938096, -75.12249171778478 79.0488031875721" stroke="#333333" stroke-width="2" fill="none"></path></g><g><path d="M-64.68406040628098 151.84981854404796 C-64.61902841973237 147.16690126989224, -68.89400373257361 146.06100618150137, -70.71104822106427 139.68519188080083 C-68.79705334727907 139.26532548107247, -63.381262339791476 138.1252563926801, -58.59041688497768 141.60557406871723 C-62.680606931355356 143.42703070560313, -59.63752384539304 143.28620945352054, -63.527231717369894 154.57458316086436" stroke="none" stroke-width="0" fill="#333333"></path><path d="M-63.23887791289858 152.83627807294795 C-65.45912373637915 150.775703793615, -67.14274008173686 146.625109529781, -71.95799281954753 141.40469297003474 M-64.24908580421058 152.36718267605477 C-65.17879361498107 150.32285641750062, -67.10049462075273 147.4951732600347, -71.81496024709382 141.64651055422178 M-70.50361079352973 140.09184625606116 C-68.17395232557506 141.48930955501476, -65.174403725733 139.40343458917408, -58.708087862540346 138.94981614126968 M-71.24702671415238 140.66194188027708 C-68.0962663254297 140.24741298321754, -65.49274249636716 140.3316294462197, -59.298290407356184 139.68277533593732 M-58.83617572444674 139.32824909586452 C-59.739224739737416 142.12717573743316, -62.48109758476198 144.5055459416088, -62.582015178279015 151.9189927557579 M-60.175286294601094 139.3750107387571 C-61.23723800568011 144.43424552173295, -62.250091788117565 149.03309393094867, -63.18408109685014 152.2177545691637" stroke="#333333" stroke-width="1" fill="none"></path></g><text class="ishikawa-label up" text-anchor="end" x="-74.25193028801971" y="77.91957937752892"><tspan x="-74.25193028801971" dy="0">Dirty lens</tspan></text></g><g class="ishikawa-branch"><path d="M1.2858951715752482 376.44582710880786 C-5.5000206515962535 401.5548981952729, -9.339981168235663 421.97215203865363, -18.587029604776422 499.3720118463425 M-0.9729983448050916 375.39689791342244 C-3.615469495097999 403.73291902806807, -7.995838467668998 430.2781239132878, -18.267199049773286 499.9127324027395" stroke="#333333" stroke-width="2" fill="none"></path></g><g><path d="M-0.8701126902661979 374.6601340109013 C2.9136028457923233 376.80704400378653, 2.04684484227831 382.51758353405006, 4.98611631984936 386.26194099745186 C-1.745315678556521 385.5543860434474, -4.974951543259997 384.414316955055, -6.659685993861734 388.1823231853682 C-8.012038554010214 384.66371252820016, -2.354832133302457 379.29464460662666, 0.2867159986448882 377.3848986277177" stroke="none" stroke-width="0" fill="#333333"></path><path d="M0.5750698031162034 375.6465935398013 C0.5342747911276883 378.31533073127207, 1.2273552327871866 378.9181300414725, 3.739171721366109 387.98144208668583 M-0.4351380881957938 375.17749814290806 C1.2112713099378216 378.34261521570374, 1.9199428296116579 380.7756771091288, 3.882204293819809 388.22325967087284 M5.193553747383898 386.6685953727122 C2.3539580837773233 388.12027066136443, 0.1842525520581293 386.03439569552364, -6.7773569714244 385.52656525792065 M4.45013782676125 387.23869099692814 C1.2220883174258783 386.683724429489, -2.5531977515696576 386.7679408924912, -7.367559516240239 386.2595244525883 M-6.9054448333307965 385.9049982125155 C-5.3076722518829085 383.4606034465814, -5.4866622955360995 380.7132080480142, 1.2319325377357622 374.7293082226112 M-8.244555403485153 385.9517598554081 C-4.783111923221679 382.0632917507942, -1.3289149750493827 377.72803869879044, 0.6298666191646358 375.028070036017" stroke="#333333" stroke-width="1" fill="none"></path></g><g class="ishikawa-label-group"><g class="ishikawa-label-box"><path d="M-20.254707426228315 -1.7069926237823747 C-20.254707426228315 -1.7069926237823747, -20.254707426228315 -1.7069926237823747, -20.254707426228315 -1.7069926237823747 M-20.254707426228315 -1.7069926237823747 C-20.254707426228315 -1.7069926237823747, -20.254707426228315 -1.7069926237823747, -20.254707426228315 -1.7069926237823747 M-19.500966511509425 6.370752154456838 C-17.624326304826074 1.416908290017119, -16.219177024502162 0.13552434715928108, -12.205066725082403 -3.051637036733627 M-20.264049833250276 5.57572840184757 C-17.306244540959984 3.866738174596951, -16.39516755332625 1.2577895484410937, -13.300191273150674 -2.8086968401990084 M-22.3389606938486 15.183724824180956 C-15.726621649582516 10.182318677388544, -11.061869457939913 8.084210198157576, -5.809313029869063 -1.7958468397551521 M-21.360027131789643 13.285698972018565 C-17.456505023517945 8.910397798919764, -12.10608516132412 4.407108113891299, -8.07171287795396 -1.098913745808725 M-16.77458954854285 19.433134298590794 C-15.742743282806355 15.716073315946748, -7.109515530063852 5.69029575706265, -3.254200854176154 -1.1468454135380184 M-18.717099493559203 17.535578414151296 C-13.857662152368963 14.093418164840799, -8.931722424610378 8.846617288654004, -0.8302823494425617 -2.176703418305466 M-9.936526017869475 20.426991987014958 C-7.045670045874343 14.19828245495532, -0.4260914184763056 8.933909761018974, 4.7911120817694695 -4.397043809548051 M-10.672991810506794 17.486715591019788 C-7.7474495538883215 15.380841632152679, -0.9435907307122413 7.404644015510794, 6.167462697408709 -1.5764762878157503 M-4.527451180068382 17.327558056336954 C0.28680375633643784 8.249463356564265, 7.282226244122766 1.440388830767862, 15.221813628189917 -1.173527994292832 M-5.442271757552006 18.023462344312236 C-0.15131442005570594 13.103931964215747, 6.162162600645374 6.553634291115676, 13.086561797392275 -0.9146524272924728 M2.6525103150825355 16.078059040049208 C7.4361115197837275 10.726609698093277, 15.032678178245707 1.8034959654483824, 18.46083903477882 0.6510420125517431 M1.3002564500975762 18.43174235107575 C5.972618547884682 15.693877850042925, 7.657899461590663 9.012016330837266, 20.58513391602208 -0.5107454941068408 M9.080981217276909 21.626147418475817 C9.419892891786828 11.9814480300086, 13.007016292718863 10.248152448118361, 24.521943863729817 -4.308689121190222 M7.997868027955898 19.66938570393912 C14.408081081404202 11.650287590378198, 18.641412787528886 6.3225400842566675, 26.580575362562072 -1.1076089893800631 M14.576404588708373 16.65678035944088 C19.155794610776145 12.26594318856194, 26.80583063227369 1.1627155637504352, 32.072776902765014 -1.2178932995263132 M15.978115535286905 19.64588265178113 C21.61986642309255 11.383004664406696, 30.46696982831452 2.060481624260653, 33.515757703054675 -1.0916825173150393 M20.361116717099033 21.32509845893682 C29.08878301169682 14.948939635632296, 31.98872364069497 10.22765005109762, 37.05854336806854 -1.835776059855192 M21.719026788133018 19.00213734039889 C25.677850614497757 12.458802159118218, 30.79072695937532 6.5121904337784144, 39.68581596325433 -2.760333846755742 M25.028951289642528 17.196918259787743 C34.861316905494554 13.5479437250719, 39.63423337353607 5.409033406537386, 46.48478267236253 -5.009149931184446 M28.519834033258185 18.59783533117119 C34.908687137064184 13.209874415462671, 39.15453442918967 6.7828111647230696, 46.22405139670347 -2.768557269405072 M35.60831230603249 18.981610992317748 C37.80241037625177 12.671769019826367, 48.070896760951314 6.03607417087836, 51.04103162784059 -1.4866514956899692 M35.76717186117635 19.29119734172682 C37.568709255845874 13.670042462510542, 43.641770788937215 10.135412623739771, 51.42871968766604 -1.3963156613842358 M39.62524699149102 17.264981315019256 C43.736016296333375 15.296096595816138, 52.38503087175895 7.512896978280816, 60.16389735919637 -4.185862648047657 M41.70127511917993 20.218732986612892 C47.99389248716162 10.319485053779017, 54.49392864369058 3.6652725553838756, 61.02922886415598 -2.7687867425644406 M46.07104997071176 19.449759833216376 C52.77880597417681 15.9033669369073, 59.04114322223728 5.767632236309817, 68.10013021665198 -3.460431854765094 M47.586708085282886 17.782608295958198 C53.23551897656626 11.744209193855786, 58.92596140951848 4.737410027813887, 66.95233721096572 -1.5766093358985849 M57.46533618088834 16.488481839733197 C63.942920062357814 9.881391405493563, 69.03542506861805 3.265628920849064, 70.87422794990104 -4.1595816355181725 M54.47856238124915 18.930399456141515 C59.36016222447715 12.440828046038256, 64.75474910565347 6.579094714975554, 72.4928824436092 -2.088515848757872 M62.91911378474287 18.616366055562143 C66.32331110102804 12.537439650958875, 69.56969637786361 4.817085590264135, 80.35150862113719 -4.895229822482797 M61.48865488562114 19.934846550459955 C65.39330673095675 12.496541920796396, 70.91275927221254 9.484412318569538, 80.07997962135036 -1.87157853226352 M70.10238834446899 21.291807148527326 C72.99936246955824 15.740637225771398, 78.8481613640258 8.332711417092588, 87.30118351808254 -4.309110819666543 M68.45625690766282 18.88122107779232 C71.45851679419692 15.162216935198483, 77.94368751414639 9.90208518981663, 86.54321906023164 -1.0114557406184161 M74.30723573476031 16.929254473952845 C77.9857493221279 10.450050764424365, 81.21701729869189 10.89389195534533, 93.36396132793072 0.8677169157546984 M74.2142921003881 18.44707969326739 C78.52037138991003 12.720939608967448, 82.48451860691006 9.228206855022338, 91.78339550701696 -1.6250244124437643 M78.51087505583897 21.632090815331107 C90.30701745843746 11.169408621157087, 92.08159630931011 5.0804154535643455, 98.11512105037536 -2.452250385894992 M82.35553437358945 18.182017948932266 C87.86031111047453 10.429824534423258, 95.59689352644155 3.5383337904504657, 100.03870605222028 -2.080626330110796 M86.34327280739858 20.133124902986232 C90.82228239105993 14.175038463797899, 102.4289727091751 6.703663791055497, 107.12758491063859 -4.980083066123164 M87.40333706778078 19.495037812415752 C92.71945382428925 13.692351472818942, 97.16030523863895 6.776214013821981, 104.65094804313402 -1.7183143790723747 M92.15021580163277 16.52747015474231 C97.3178942753027 13.907044107236537, 100.29773661227739 9.9069756568631, 110.31528641745199 2.9089128012853465 M95.57783086722604 17.934301407596628 C97.6307085238016 13.150193197626955, 101.58564319565305 10.775382033924686, 110.6120121418101 1.156353291691353 M99.07880137296571 17.01075252087187 C105.06781954050864 17.276927136212368, 107.90049496390507 10.22336802310781, 110.65697027897563 7.1607407724585395 M101.6825308368233 18.28570239101402 C104.31918328588168 15.398886711432198, 107.57251167477997 11.696623860217034, 110.22396430427776 9.529336131071487 M108.41505860344968 18.63259578550222 C108.74426978313478 17.67921941144452, 108.93306645555549 17.124568349663914, 109.93572031450903 16.15375638753534 M108.22606833969238 18.283573957071514 C108.59580515148046 17.2887088203879, 109.46693402969532 16.585497264926868, 109.77674927369671 16.312645335987998" stroke="#ECECFF" stroke-width="2.5" fill="none"></path><path d="M-18.71410482842475 -0.5541728911921382 C5.4611867222252855 -0.6495147613534482, 31.041449395617022 -4.989519116068795, 108.51077989023179 -1.411496746353805 M-20.97299834480509 -1.6031020865775645 C9.368778583973292 -1.619361412636545, 37.54878802999411 -2.4738703341405657, 108.83061044523492 -0.870776189956814 M112.00622824113816 -4.624150144867599 C111.20895633324464 4.260004326044873, 112.24626016839822 4.368048147848459, 111.78699350636452 16.992842596955597 M110.14768843958154 -3.1989110843278468 C110.1600602263392 2.157418754864193, 108.69535742642293 8.936159082184895, 110.31148714432493 18.82524058362469 M111.28037429135293 17.976714772172272 C83.27384145996602 19.931953082545615, 51.229835903664565 19.116666058762885, -17.24531510192901 17.691589784808457 M108.28603202709928 18.081276984419674 C60.813059263634386 18.915285403100032, 13.382451097490048 18.508088836637516, -18.5915754227899 18.359641508664936 M-21.080906179733574 17.8746730806306 C-18.329802063013847 10.182970866006507, -20.92845213105851 6.924203412429778, -19.112299499101937 -3.8091211495921016 M-19.673064628150314 19.794209556188434 C-21.35094415015941 9.9326486435908, -20.59186250335937 2.179502857793704, -19.338889145758003 -0.5179548845626414" stroke="#333333" stroke-width="2" fill="none"></path></g><text class="ishikawa-label cause" text-anchor="middle" x="-17.39663762000821" y="509.7835085926963"><tspan x="-17.39663762000821" dy="0">Environment</tspan></text></g><g class="ishikawa-sub-group"><g class="ishikawa-sub-branch"><path d="M-7.412423638428857 438.337581405156 C-15.178084413322916 438.7277065803024, -21.538774065475273 434.3877022255871, -39.888710794772315 437.48025754999435 M-9.671317154809197 437.2886522097706 C-14.67969675109472 438.3065755697626, -21.84984383013781 437.45206664825855, -39.56888023976918 438.02097810639134" stroke="#333333" stroke-width="2" fill="none"></path></g><g><path d="M-9.5684315002703 436.55188830724944 C-10.53930479927799 436.75360166828455, -16.07288956404948 440.5372829425178, -19.983733691083376 441.4354398631408 C-22.506845570366192 437.11405172489646, -21.41376799897413 432.21630517512625, -19.74631917989563 433.0258992625779 C-20.222053505039813 433.2163294394449, -13.599486005794633 431.5975962255719, -8.411602811359217 439.27665292406584" stroke="none" stroke-width="0" fill="#333333"></path><path d="M-8.123249006887903 437.5383478361494 C-11.362666249039862 438.8963790435578, -13.92396519765348 438.15549706512326, -21.230678289566626 443.1549409523747 M-9.133456898199897 437.0692524392562 C-11.073444913185632 438.81751772674426, -13.96650760812047 439.76348107066684, -21.087645717112927 443.3967585365617 M-19.77629626354884 441.8420942384011 C-19.983569358314682 441.01988150172, -19.56864782425325 436.6872245053953, -19.863990157458293 430.37014133513037 M-20.519712184171485 442.412189862617 C-20.59087469576608 439.1549347066514, -21.176755815732587 436.4666437459371, -20.45419270227413 431.10310052979804 M-19.99207801936469 430.74857428972524 C-17.403348960946605 431.93759054041595, -16.63590037547605 432.8670179581249, -7.466386272268342 436.6210625189594 M-21.331188589519048 430.79533593261783 C-16.260539620771574 433.3104697108754, -11.156720080632812 435.38384136811703, -8.06845219083947 436.9198243323652" stroke="#333333" stroke-width="1" fill="none"></path></g><text class="ishikawa-label align" text-anchor="end" x="-38.6983188100041" y="436.89175429634815"><tspan x="-38.6983188100041" dy="0">Too dark</tspan></text></g></g><g class="ishikawa-spine"><path d="M0 375 C0 375, 0 375, 0 375 M0 375 C0 375, 0 375, 0 375" stroke="#333333" stroke-width="2" fill="none"></path></g></g></svg>