<?plantuml 1.2026.2?><svg xmlns="http://www.w3.org/2000/svg" xmlns:xlink="http://www.w3.org/1999/xlink" contentStyleType="text/css" data-diagram-type="CLASS" height="85px" preserveAspectRatio="none" style="width:111px;height:85px;background:#FFFFFF;" version="1.1" viewBox="0 0 111 85" width="111px" zoomAndPan="magnify"><defs><linearGradient id="gifipk7p93o6v0" x1="0%" x2="100%" y1="0%" y2="100%"><stop offset="0%" stop-color="#AAFFAA"/><stop offset="100%" stop-color="#55AA55"/></linearGradient></defs><g><!--class Foo--><g class="entity" data-qualified-name="Foo" data-source-line="3" id="ent0002"><rect fill="url(#gifipk7p93o6v0)" height="64.2969" rx="2.5" ry="2.5" style="stroke:#FF0000;stroke-width:0.5;" width="90.9893" x="7" y="7"/><rect fill="url(#gifipk7p93o6v0)" height="32" rx="2.5" ry="2.5" style="stroke:url(#gifipk7p93o6v0);stroke-width:0.5;" width="90.9893" x="7" y="7"/><rect fill="url(#gifipk7p93o6v0)" height="2.5" style="stroke:url(#gifipk7p93o6v0);stroke-width:0.5;" width="90.9893" x="7" y="36.5"/><rect fill="none" height="64.2969" rx="2.5" ry="2.5" style="stroke:#FF0000;stroke-width:0.5;" width="90.9893" x="7" y="7"/><ellipse cx="37.2125" cy="23" fill="#ADD1B2" rx="11" ry="11" style="stroke:#181818;stroke-width:1;"/><path d="M40.1813,28.6406 Q39.6032,28.9375 38.9625,29.0781 Q38.3219,29.2344 37.6188,29.2344 Q35.1188,29.2344 33.7907,27.5938 Q32.4782,25.9375 32.4782,22.8125 Q32.4782,19.6875 33.7907,18.0313 Q35.1188,16.375 37.6188,16.375 Q38.3219,16.375 38.9625,16.5313 Q39.6188,16.6875 40.1813,16.9844 L40.1813,19.7031 Q39.5563,19.125 38.9625,18.8594 Q38.3688,18.5781 37.7438,18.5781 Q36.4,18.5781 35.7125,19.6563 Q35.025,20.7188 35.025,22.8125 Q35.025,24.9063 35.7125,25.9844 Q36.4,27.0469 37.7438,27.0469 Q38.3688,27.0469 38.9625,26.7813 Q39.5563,26.5 40.1813,25.9219 L40.1813,28.6406 Z " fill="#000000"/><text fill="#000000" font-family="sans-serif" font-size="14" lengthAdjust="spacing" textLength="25.1836" x="54.5931" y="27.8467">Foo</text><line style="stroke:#FF0000;stroke-width:0.5;" x1="8" x2="96.9893" y1="39" y2="39"/><line style="stroke:#FF0000;stroke-width:0.5;" x1="8" x2="96.9893" y1="47" y2="47"/><g data-visibility-modifier="PUBLIC_METHOD"><ellipse cx="18" cy="60.6484" fill="#84BE84" rx="3" ry="3" style="stroke:#038048;stroke-width:1;"/></g><text fill="#000000" font-family="sans-serif" font-size="14" lengthAdjust="spacing" textLength="64.9893" x="27" y="63.9951">method()</text></g><?plantuml-src AyxEp2j8B4hCLKZEIImkTielIaajSixFoIzIK7PpCm02hc8q9Od9sUb5-QLvAL1bZevkRewE-igcfewEfgPSO4KARldv2jLS2WhQkQab6Vaf6ffSjG00?></g></svg>