<?plantuml 1.2026.2?><svg xmlns="http://www.w3.org/2000/svg" xmlns:xlink="http://www.w3.org/1999/xlink" contentStyleType="text/css" data-diagram-type="SEQUENCE" height="141px" preserveAspectRatio="none" style="width:219px;height:141px;background:#FFFFFF;" version="1.1" viewBox="0 0 219 141" width="219px" zoomAndPan="magnify"><defs/><g><g class="participant-lifeline" data-entity-uid="part1" data-qualified-name="Alice" id="part1-lifeline"><g><title>Alice</title><rect fill="#000000" fill-opacity="0.00000" height="70.2656" width="8" x="24.8335" y="36.2969"/><line style="stroke:#181818;stroke-width:0.5;stroke-dasharray:5,5;" x1="28" x2="28" y1="36.2969" y2="106.5625"/></g></g><g class="participant-lifeline" data-entity-uid="part2" data-qualified-name="Bob" id="part2-lifeline"><g><title>Bob</title><rect fill="#000000" fill-opacity="0.00000" height="70.2656" width="8" x="96.0754" y="36.2969"/><line style="stroke:#181818;stroke-width:0.5;stroke-dasharray:5,5;" x1="99.547" x2="99.547" y1="36.2969" y2="106.5625"/></g></g><g class="participant participant-head" data-entity-uid="part1" data-qualified-name="Alice" id="part1-head"><rect fill="#E2E2F0" height="30.2969" rx="2.5" ry="2.5" style="stroke:#181818;stroke-width:0.5;" width="47.667" x="5" y="5"/><text fill="#000000" font-family="sans-serif" font-size="14" lengthAdjust="spacing" textLength="33.667" x="12" y="24.9951">Alice</text></g><g class="participant participant-tail" data-entity-uid="part1" data-qualified-name="Alice" id="part1-tail"><rect fill="#E2E2F0" height="30.2969" rx="2.5" ry="2.5" style="stroke:#181818;stroke-width:0.5;" width="47.667" x="5" y="105.5625"/><text fill="#000000" font-family="sans-serif" font-size="14" lengthAdjust="spacing" textLength="33.667" x="12" y="125.5576">Alice</text></g><g class="participant participant-head" data-entity-uid="part2" data-qualified-name="Bob" id="part2-head"><rect fill="#E2E2F0" height="30.2969" rx="2.5" ry="2.5" style="stroke:#181818;stroke-width:0.5;" width="41.0566" x="79.547" y="5"/><text fill="#000000" font-family="sans-serif" font-size="14" lengthAdjust="spacing" textLength="27.0566" x="86.547" y="24.9951">Bob</text></g><g class="participant participant-tail" data-entity-uid="part2" data-qualified-name="Bob" id="part2-tail"><rect fill="#E2E2F0" height="30.2969" rx="2.5" ry="2.5" style="stroke:#181818;stroke-width:0.5;" width="41.0566" x="79.547" y="105.5625"/><text fill="#000000" font-family="sans-serif" font-size="14" lengthAdjust="spacing" textLength="27.0566" x="86.547" y="125.5576">Bob</text></g><g class="message" data-entity-1="part1" data-entity-2="part2" id="msg1"><polygon fill="#181818" points="88.0754,73.9961,98.0754,77.9961,88.0754,81.9961,92.0754,77.9961" style="stroke:#181818;stroke-width:1;"/><line style="stroke:#181818;stroke-width:1;" x1="28.8335" x2="94.0754" y1="77.9961" y2="77.9961"/><path d="M43.7777,65.1628 L43.0302,65.9428 L40.0185,68.9544 L39.141,68.1094 L38.361,67.3294 L36.8335,68.8569 L37.6135,69.6369 L39.2385,71.2619 L39.986,72.0419 L40.766,71.2619 L44.5577,67.4703 L45.3377,66.6903 L43.7777,65.1628" fill="#000000"/><text fill="#000000" font-family="sans-serif" font-size="13" lengthAdjust="spacing" textLength="32.4429" x="50.6325" y="72.9302">done</text></g><path d="M105,51.2969 L105,91.2969 L212,91.2969 L212,61.2969 L202,51.2969 L105,51.2969" fill="#FEFFDD" style="stroke:#181818;stroke-width:0.5;"/><path d="M202,51.2969 L202,61.2969 L212,61.2969 L202,51.2969" fill="#FEFFDD" style="stroke:#181818;stroke-width:0.5;"/><path d="M115.3475,59.513 C115.2825,59.513 115.2392,59.5564 115.2067,59.6105 L112.0217,66.988 C112,67.0422 111.9892,67.1289 111.9892,67.1939 L111.9892,68.0714 C111.9892,68.1255 112.0325,68.1689 112.0867,68.1689 L119.4642,68.1689 C119.5183,68.1689 119.5617,68.1255 119.5617,68.0714 L119.5617,67.1939 C119.5617,67.1397 119.5508,67.0422 119.5292,66.988 L116.3442,59.6105 C116.3225,59.5564 116.2683,59.513 116.2033,59.513 L115.3258,59.513 M115.25,62.763 L116.3333,62.763 L116.3333,64.9297 L115.25,64.9297 L115.25,62.763 M115.25,66.013 L116.3333,66.013 L116.3333,67.0964 L115.25,67.0964 L115.25,66.013" fill="#000000"/><text fill="#000000" font-family="sans-serif" font-size="13" lengthAdjust="spacing" textLength="71.938" x="125.799" y="68.3638">Watch out!</text><path d="M114.1667,75.7292 C113.5708,75.7292 113.04,75.9783 112.6392,76.3683 C112.2492,76.7583 112,77.2892 112,77.8958 C112,78.4917 112.2492,79.0225 112.6392,79.4233 L116.3333,83.1175 L120.0275,79.4233 C120.4175,79.0333 120.6667,78.5025 120.6667,77.8958 C120.6667,77.3 120.4175,76.7692 120.0275,76.3683 C119.6375,75.9783 119.1067,75.7292 118.5,75.7292 C117.9042,75.7292 117.3733,75.9783 116.9725,76.3683 C116.5825,76.7583 116.3333,77.2892 116.3333,77.8958 C116.3333,77.3 116.0842,76.7692 115.6942,76.3683 C115.3042,75.9783 114.7733,75.7292 114.1667,75.7292" fill="#000000"/><text fill="#000000" font-family="sans-serif" font-size="13" lengthAdjust="spacing" textLength="30.8877" x="125.799" y="83.4966">Love</text><?plantuml-src 7Skx2e0m34RXlK_nkxZv0Y81dTsTQmrDKH8eKL_Vote-pdYKnEW8awteCRH9EEs4pPI3cZDgoU81BzsnQj5CMA8dWPtU_5quLYVCTd5WtV1j3m00?></g></svg>