<svg xmlns="http://www.w3.org/2000/svg" xmlns:xlink="http://www.w3.org/1999/xlink" contentStyleType="text/css" data-diagram-type="CLASS" height="84px" preserveAspectRatio="none" style="width:156px;height:84px;background:#FFFFFF;" version="1.1" viewBox="0 0 156 84" width="156px" zoomAndPan="magnify"><?plantuml 1.2026.3beta5?><defs/><g><!--class MoveDeltaTest--><g class="entity" data-qualified-name="MoveDeltaTest" data-source-line="1" id="ent0002"><rect fill="#F1F1F1" height="64.2969" rx="2.5" ry="2.5" style="stroke:#181818;stroke-width:0.5;" width="136.8428" x="7" y="7"/><ellipse cx="22" cy="23" fill="#ADD1B2" rx="11" ry="11" style="stroke:#181818;stroke-width:1;"/><path d="M24.9688,28.6406 Q24.3906,28.9375 23.75,29.0781 Q23.1094,29.2344 22.4063,29.2344 Q19.9063,29.2344 18.5781,27.5938 Q17.2656,25.9375 17.2656,22.8125 Q17.2656,19.6875 18.5781,18.0313 Q19.9063,16.375 22.4063,16.375 Q23.1094,16.375 23.75,16.5313 Q24.4063,16.6875 24.9688,16.9844 L24.9688,19.7031 Q24.3438,19.125 23.75,18.8594 Q23.1563,18.5781 22.5313,18.5781 Q21.1875,18.5781 20.5,19.6563 Q19.8125,20.7188 19.8125,22.8125 Q19.8125,24.9063 20.5,25.9844 Q21.1875,27.0469 22.5313,27.0469 Q23.1563,27.0469 23.75,26.7813 Q24.3438,26.5 24.9688,25.9219 L24.9688,28.6406 Z " fill="#000000"/><text fill="#000000" font-family="sans-serif" font-size="14" lengthAdjust="spacing" textLength="104.8428" x="36" y="27.8467">MoveDeltaTest</text><line style="stroke:#181818;stroke-width:0.5;" x1="8" x2="142.8428" y1="39" y2="39"/><g data-visibility-modifier="PUBLIC_FIELD"><ellipse cx="18" cy="52.6484" fill="none" rx="3" ry="3" style="stroke:#038048;stroke-width:1;"/></g><text fill="#000000" font-family="sans-serif" font-size="14" lengthAdjust="spacing" textLength="89.1885" x="27" y="55.9951">value: String</text><line style="stroke:#181818;stroke-width:0.5;" x1="8" x2="142.8428" y1="63.2969" y2="63.2969"/></g><?plantuml-src Iyv9B2vMyCqlItL9pIb934ajBb6evb9Gq2vBp2bDjL88BYdAp4ldgWK0?></g></svg>