<svg id="ref-ext-fixtures-cypress-flowchart-91" width="100%" xmlns="http://www.w3.org/2000/svg" class="flowchart" style="max-width: 104.1396484375px;" viewBox="-38 -23 104.1396484375 47.296875" role="graphics-document document" aria-roledescription="flowchart-v2"><style>#ref-ext-fixtures-cypress-flowchart-91{font-family:"trebuchet ms",verdana,arial,sans-serif;font-size:16px;fill:#333;}@keyframes edge-animation-frame{from{stroke-dashoffset:0;}}@keyframes dash{to{stroke-dashoffset:0;}}#ref-ext-fixtures-cypress-flowchart-91 .edge-animation-slow{stroke-dasharray:9,5!important;stroke-dashoffset:900;animation:dash 50s linear infinite;stroke-linecap:round;}#ref-ext-fixtures-cypress-flowchart-91 .edge-animation-fast{stroke-dasharray:9,5!important;stroke-dashoffset:900;animation:dash 20s linear infinite;stroke-linecap:round;}#ref-ext-fixtures-cypress-flowchart-91 .error-icon{fill:#552222;}#ref-ext-fixtures-cypress-flowchart-91 .error-text{fill:#552222;stroke:#552222;}#ref-ext-fixtures-cypress-flowchart-91 .edge-thickness-normal{stroke-width:1px;}#ref-ext-fixtures-cypress-flowchart-91 .edge-thickness-thick{stroke-width:3.5px;}#ref-ext-fixtures-cypress-flowchart-91 .edge-pattern-solid{stroke-dasharray:0;}#ref-ext-fixtures-cypress-flowchart-91 .edge-thickness-invisible{stroke-width:0;fill:none;}#ref-ext-fixtures-cypress-flowchart-91 .edge-pattern-dashed{stroke-dasharray:3;}#ref-ext-fixtures-cypress-flowchart-91 .edge-pattern-dotted{stroke-dasharray:2;}#ref-ext-fixtures-cypress-flowchart-91 .marker{fill:#333333;stroke:#333333;}#ref-ext-fixtures-cypress-flowchart-91 .marker.cross{stroke:#333333;}#ref-ext-fixtures-cypress-flowchart-91 svg{font-family:"trebuchet ms",verdana,arial,sans-serif;font-size:16px;}#ref-ext-fixtures-cypress-flowchart-91 p{margin:0;}#ref-ext-fixtures-cypress-flowchart-91 .label{font-family:"trebuchet ms",verdana,arial,sans-serif;color:#333;}#ref-ext-fixtures-cypress-flowchart-91 .cluster-label text{fill:#333;}#ref-ext-fixtures-cypress-flowchart-91 .cluster-label span{color:#333;}#ref-ext-fixtures-cypress-flowchart-91 .cluster-label span p{background-color:transparent;}#ref-ext-fixtures-cypress-flowchart-91 .label text,#ref-ext-fixtures-cypress-flowchart-91 span{fill:#333;color:#333;}#ref-ext-fixtures-cypress-flowchart-91 .node rect,#ref-ext-fixtures-cypress-flowchart-91 .node circle,#ref-ext-fixtures-cypress-flowchart-91 .node ellipse,#ref-ext-fixtures-cypress-flowchart-91 .node polygon,#ref-ext-fixtures-cypress-flowchart-91 .node path{fill:#ECECFF;stroke:#9370DB;stroke-width:1px;}#ref-ext-fixtures-cypress-flowchart-91 .rough-node .label text,#ref-ext-fixtures-cypress-flowchart-91 .node .label text,#ref-ext-fixtures-cypress-flowchart-91 .image-shape .label,#ref-ext-fixtures-cypress-flowchart-91 .icon-shape .label{text-anchor:middle;}#ref-ext-fixtures-cypress-flowchart-91 .node .katex path{fill:#000;stroke:#000;stroke-width:1px;}#ref-ext-fixtures-cypress-flowchart-91 .rough-node .label,#ref-ext-fixtures-cypress-flowchart-91 .node .label,#ref-ext-fixtures-cypress-flowchart-91 .image-shape .label,#ref-ext-fixtures-cypress-flowchart-91 .icon-shape .label{text-align:center;}#ref-ext-fixtures-cypress-flowchart-91 .node.clickable{cursor:pointer;}#ref-ext-fixtures-cypress-flowchart-91 .root .anchor path{fill:#333333!important;stroke-width:0;stroke:#333333;}#ref-ext-fixtures-cypress-flowchart-91 .arrowheadPath{fill:#333333;}#ref-ext-fixtures-cypress-flowchart-91 .edgePath .path{stroke:#333333;stroke-width:1px;}#ref-ext-fixtures-cypress-flowchart-91 .flowchart-link{stroke:#333333;fill:none;}#ref-ext-fixtures-cypress-flowchart-91 .edgeLabel{background-color:rgba(232,232,232, 0.8);text-align:center;}#ref-ext-fixtures-cypress-flowchart-91 .edgeLabel p{background-color:rgba(232,232,232, 0.8);}#ref-ext-fixtures-cypress-flowchart-91 .edgeLabel rect{opacity:0.5;background-color:rgba(232,232,232, 0.8);fill:rgba(232,232,232, 0.8);}#ref-ext-fixtures-cypress-flowchart-91 .labelBkg{background-color:rgba(232, 232, 232, 0.5);}#ref-ext-fixtures-cypress-flowchart-91 .cluster rect{fill:#ffffde;stroke:#aaaa33;stroke-width:1px;}#ref-ext-fixtures-cypress-flowchart-91 .cluster text{fill:#333;}#ref-ext-fixtures-cypress-flowchart-91 .cluster span{color:#333;}#ref-ext-fixtures-cypress-flowchart-91 div.mermaidTooltip{position:absolute;text-align:center;max-width:200px;padding:2px;font-family:"trebuchet ms",verdana,arial,sans-serif;font-size:12px;background:hsl(80, 100%, 96.2745098039%);border:1px solid #aaaa33;border-radius:2px;pointer-events:none;z-index:100;}#ref-ext-fixtures-cypress-flowchart-91 .flowchartTitleText{text-anchor:middle;font-size:18px;fill:#333;}#ref-ext-fixtures-cypress-flowchart-91 rect.text{fill:none;stroke-width:0;}#ref-ext-fixtures-cypress-flowchart-91 .icon-shape,#ref-ext-fixtures-cypress-flowchart-91 .image-shape{background-color:rgba(232,232,232, 0.8);text-align:center;}#ref-ext-fixtures-cypress-flowchart-91 .icon-shape p,#ref-ext-fixtures-cypress-flowchart-91 .image-shape p{background-color:rgba(232,232,232, 0.8);padding:2px;}#ref-ext-fixtures-cypress-flowchart-91 .icon-shape .label rect,#ref-ext-fixtures-cypress-flowchart-91 .image-shape .label rect{opacity:0.5;background-color:rgba(232,232,232, 0.8);fill:rgba(232,232,232, 0.8);}#ref-ext-fixtures-cypress-flowchart-91 .label-icon{display:inline-block;height:1em;overflow:visible;vertical-align:-0.125em;}#ref-ext-fixtures-cypress-flowchart-91 .node .label-icon path{fill:currentColor;stroke:revert;stroke-width:revert;}#ref-ext-fixtures-cypress-flowchart-91 .node .neo-node{stroke:#9370DB;}#ref-ext-fixtures-cypress-flowchart-91 [data-look="neo"].node rect,#ref-ext-fixtures-cypress-flowchart-91 [data-look="neo"].cluster rect,#ref-ext-fixtures-cypress-flowchart-91 [data-look="neo"].node polygon{stroke:#9370DB;filter:drop-shadow(1px 2px 2px rgba(185, 185, 185, 1));}#ref-ext-fixtures-cypress-flowchart-91 [data-look="neo"].node path{stroke:#9370DB;stroke-width:1px;}#ref-ext-fixtures-cypress-flowchart-91 [data-look="neo"].node .outer-path{filter:drop-shadow(1px 2px 2px rgba(185, 185, 185, 1));}#ref-ext-fixtures-cypress-flowchart-91 [data-look="neo"].node .neo-line path{stroke:#9370DB;filter:none;}#ref-ext-fixtures-cypress-flowchart-91 [data-look="neo"].node circle{stroke:#9370DB;filter:drop-shadow(1px 2px 2px rgba(185, 185, 185, 1));}#ref-ext-fixtures-cypress-flowchart-91 [data-look="neo"].node circle .state-start{fill:#000000;}#ref-ext-fixtures-cypress-flowchart-91 [data-look="neo"].icon-shape .icon{fill:#9370DB;filter:drop-shadow(1px 2px 2px rgba(185, 185, 185, 1));}#ref-ext-fixtures-cypress-flowchart-91 [data-look="neo"].icon-shape .icon-neo path{stroke:#9370DB;filter:drop-shadow(1px 2px 2px rgba(185, 185, 185, 1));}#ref-ext-fixtures-cypress-flowchart-91 :root{--mermaid-font-family:"trebuchet ms",verdana,arial,sans-serif;}</style><g><marker id="ref-ext-fixtures-cypress-flowchart-91_flowchart-v2-pointEnd" class="marker flowchart-v2" viewBox="0 0 10 10" refX="5" refY="5" markerUnits="userSpaceOnUse" markerWidth="8" markerHeight="8" orient="auto"><path d="M 0 0 L 10 5 L 0 10 z" class="arrowMarkerPath" style="stroke-width: 1; stroke-dasharray: 1,0;"></path></marker><marker id="ref-ext-fixtures-cypress-flowchart-91_flowchart-v2-pointStart" class="marker flowchart-v2" viewBox="0 0 10 10" refX="4.5" refY="5" markerUnits="userSpaceOnUse" markerWidth="8" markerHeight="8" orient="auto"><path d="M 0 5 L 10 10 L 10 0 z" class="arrowMarkerPath" style="stroke-width: 1; stroke-dasharray: 1,0;"></path></marker><marker id="ref-ext-fixtures-cypress-flowchart-91_flowchart-v2-pointEnd-margin" class="marker flowchart-v2" viewBox="0 0 11.5 14" refX="11.5" refY="7" markerUnits="userSpaceOnUse" markerWidth="10.5" markerHeight="14" orient="auto"><path d="M 0 0 L 11.5 7 L 0 14 z" class="arrowMarkerPath" style="stroke-width: 0; stroke-dasharray: 1,0;"></path></marker><marker id="ref-ext-fixtures-cypress-flowchart-91_flowchart-v2-pointStart-margin" class="marker flowchart-v2" viewBox="0 0 11.5 14" refX="1" refY="7" markerUnits="userSpaceOnUse" markerWidth="11.5" markerHeight="14" orient="auto"><polygon points="0,7 11.5,14 11.5,0" class="arrowMarkerPath" style="stroke-width: 0; stroke-dasharray: 1,0;"></polygon></marker><marker id="ref-ext-fixtures-cypress-flowchart-91_flowchart-v2-circleEnd" class="marker flowchart-v2" viewBox="0 0 10 10" refX="11" refY="5" markerUnits="userSpaceOnUse" markerWidth="11" markerHeight="11" orient="auto"><circle cx="5" cy="5" r="5" class="arrowMarkerPath" style="stroke-width: 1; stroke-dasharray: 1,0;"></circle></marker><marker id="ref-ext-fixtures-cypress-flowchart-91_flowchart-v2-circleStart" class="marker flowchart-v2" viewBox="0 0 10 10" refX="-1" refY="5" markerUnits="userSpaceOnUse" markerWidth="11" markerHeight="11" orient="auto"><circle cx="5" cy="5" r="5" class="arrowMarkerPath" style="stroke-width: 1; stroke-dasharray: 1,0;"></circle></marker><marker id="ref-ext-fixtures-cypress-flowchart-91_flowchart-v2-circleEnd-margin" class="marker flowchart-v2" viewBox="0 0 10 10" refY="5" refX="12.25" markerUnits="userSpaceOnUse" markerWidth="14" markerHeight="14" orient="auto"><circle cx="5" cy="5" r="5" class="arrowMarkerPath" style="stroke-width: 0; stroke-dasharray: 1,0;"></circle></marker><marker id="ref-ext-fixtures-cypress-flowchart-91_flowchart-v2-circleStart-margin" class="marker flowchart-v2" viewBox="0 0 10 10" refX="-2" refY="5" markerUnits="userSpaceOnUse" markerWidth="14" markerHeight="14" orient="auto"><circle cx="5" cy="5" r="5" class="arrowMarkerPath" style="stroke-width: 0; stroke-dasharray: 1,0;"></circle></marker><marker id="ref-ext-fixtures-cypress-flowchart-91_flowchart-v2-crossEnd" class="marker cross flowchart-v2" viewBox="0 0 11 11" refX="12" refY="5.2" markerUnits="userSpaceOnUse" markerWidth="11" markerHeight="11" orient="auto"><path d="M 1,1 l 9,9 M 10,1 l -9,9" class="arrowMarkerPath" style="stroke-width: 2; stroke-dasharray: 1,0;"></path></marker><marker id="ref-ext-fixtures-cypress-flowchart-91_flowchart-v2-crossStart" class="marker cross flowchart-v2" viewBox="0 0 11 11" refX="-1" refY="5.2" markerUnits="userSpaceOnUse" markerWidth="11" markerHeight="11" orient="auto"><path d="M 1,1 l 9,9 M 10,1 l -9,9" class="arrowMarkerPath" style="stroke-width: 2; stroke-dasharray: 1,0;"></path></marker><marker id="ref-ext-fixtures-cypress-flowchart-91_flowchart-v2-crossEnd-margin" class="marker cross flowchart-v2" viewBox="0 0 15 15" refX="17.7" refY="7.5" markerUnits="userSpaceOnUse" markerWidth="12" markerHeight="12" orient="auto"><path d="M 1,1 L 14,14 M 1,14 L 14,1" class="arrowMarkerPath" style="stroke-width: 2.5;"></path></marker><marker id="ref-ext-fixtures-cypress-flowchart-91_flowchart-v2-crossStart-margin" class="marker cross flowchart-v2" viewBox="0 0 15 15" refX="-3.5" refY="7.5" markerUnits="userSpaceOnUse" markerWidth="12" markerHeight="12" orient="auto"><path d="M 1,1 L 14,14 M 1,14 L 14,1" class="arrowMarkerPath" style="stroke-width: 2.5; stroke-dasharray: 1,0;"></path></marker><g class="root"><g class="clusters"></g><g class="edgePaths"><path d="M68,23L72.167,23C76.333,23,84.667,23,92.333,23C100,23,107,23,110.5,23L114,23" id="ref-ext-fixtures-cypress-flowchart-91-L_A_B_0" class=" edge-thickness-normal edge-pattern-solid edge-thickness-normal edge-pattern-solid flowchart-link" style="color:Sienna;color:red;fill:none;;;color:Sienna;color:red;fill:none" data-edge="true" data-et="edge" data-id="L_A_B_0" data-points="W3sieCI6NjgsInkiOjIzfSx7IngiOjkzLCJ5IjoyM30seyJ4IjoxMTgsInkiOjIzfV0=" data-look="classic" marker-end="url(#ref-ext-fixtures-cypress-flowchart-91_flowchart-v2-pointEnd)"></path><path d="M64.426,96.648L69.188,96.565C73.951,96.482,83.475,96.315,94.154,96.157C104.833,95.999,116.667,95.849,122.584,95.774L128.5,95.699" id="ref-ext-fixtures-cypress-flowchart-91-L_C_D_0" class=" edge-thickness-normal edge-pattern-solid edge-thickness-normal edge-pattern-solid flowchart-link" style="color:Sienna;stroke:DarkGray;stroke-width:2px;color:#0000ff;fill:none;;;color:Sienna;stroke:DarkGray;stroke-width:2px;color:#0000ff;fill:none" data-edge="true" data-et="edge" data-id="L_C_D_0" data-points="W3sieCI6NjQuNDI1NzgxMjUsInkiOjk2LjY0ODQzNzV9LHsieCI6OTMsInkiOjk2LjE0ODQzNzV9LHsieCI6MTMyLjUsInkiOjk1LjY0ODQzNzV9XQ==" data-look="classic" marker-end="url(#ref-ext-fixtures-cypress-flowchart-91_flowchart-v2-pointEnd_DarkGray)"></path><path d="M60.676,162.945L66.063,162.862C71.451,162.779,82.225,162.612,93.7,162.604C105.176,162.596,117.351,162.746,123.439,162.821L129.527,162.896" id="ref-ext-fixtures-cypress-flowchart-91-L_E_F_0" class=" edge-thickness-normal edge-pattern-solid edge-thickness-normal edge-pattern-solid flowchart-link" style="color:Sienna;;;color:Sienna" data-edge="true" data-et="edge" data-id="L_E_F_0" data-points="W3sieCI6NjAuNjc1NzgxMjUsInkiOjE2Mi45NDUzMTI1fSx7IngiOjkzLCJ5IjoxNjIuNDQ1MzEyNX0seyJ4IjoxMzMuNTI2MTk3NzIyMTA5ODYsInkiOjE2Mi45NDUzMTI1fV0=" data-look="classic" marker-end="url(#ref-ext-fixtures-cypress-flowchart-91_flowchart-v2-pointEnd)"></path></g><g class="edgeLabels"><g class="edgeLabel" transform="translate(undefined, NaN)"><g class="label" data-id="L_A_B_0" transform="translate(0, 0)"><foreignObject width="0" height="0"><div style="color: red !important; display: table-cell; white-space: nowrap; line-height: 1.5; max-width: 200px; text-align: center;" xmlns="http://www.w3.org/1999/xhtml" class="labelBkg"><span style="color:red !important" class="edgeLabel "><p>red<br/>text</p></span></div></foreignObject></g></g><g class="edgeLabel" transform="translate(undefined, NaN)"><g class="label" data-id="L_C_D_0" transform="translate(0, 0)"><foreignObject width="0" height="0"><div style="color: rgb(0, 0, 255) !important; display: table-cell; white-space: nowrap; line-height: 1.5; max-width: 200px; text-align: center;" xmlns="http://www.w3.org/1999/xhtml" class="labelBkg"><span style="color:#0000ff !important" class="edgeLabel "><p>blue<br/>text</p></span></div></foreignObject></g></g><g class="edgeLabel" transform="translate(97.10029, 162.4959)"><g class="label" data-id="L_E_F_0" transform="translate(0, 0)"><foreignObject width="0" height="0"><div style="color: sienna !important; display: table-cell; white-space: nowrap; line-height: 1.5; max-width: 200px; text-align: center;" xmlns="http://www.w3.org/1999/xhtml" class="labelBkg"><span style="color:Sienna !important" class="edgeLabel "><p>default<br/>style</p></span></div></foreignObject></g></g></g><g class="nodes"><g class="node default  " id="ref-ext-fixtures-cypress-flowchart-91-flowchart-A-0" data-look="classic" transform="translate(38, 23)"><rect class="basic label-container" style="" x="-30" y="-15" width="60" height="30"></rect><g class="label" style="color:red !important" transform="translate(0, 0)"><rect></rect><foreignObject width="0" height="0"><div style="color: red !important; display: table-cell; white-space: nowrap; line-height: 1.5; max-width: 200px; text-align: center;" xmlns="http://www.w3.org/1999/xhtml"><span style="color:red !important" class="nodeLabel "><p>red<br/>text</p></span></div></foreignObject></g></g><a href="index.html#link-clicked" data-look="classic" transform="translate(133, 23)"><g class="node default clickable " id="ref-ext-fixtures-cypress-flowchart-91-flowchart-B-1" title="link test"><rect class="basic label-container" style="" rx="5" ry="5" x="-15" y="-15" width="30" height="30"></rect><g class="label" style="color:blue !important" transform="translate(0, 0)"><rect></rect><foreignObject width="0" height="0"><div style="color: blue !important; display: table-cell; white-space: nowrap; line-height: 1.5; max-width: 200px; text-align: center;" xmlns="http://www.w3.org/1999/xhtml"><span style="color:blue !important" class="nodeLabel "><p>blue<br/>text</p></span></div></foreignObject></g></g></a><g class="node default  " id="ref-ext-fixtures-cypress-flowchart-91-flowchart-C-2" data-look="classic" transform="translate(38, 96.1484375)"><polygon points="-7.5,0 15,0 22.5,-15 0,-15" class="label-container" transform="translate(-7.5,7.5)" style="stroke:#ff0000 !important;fill:#ffcccc !important"></polygon><g class="label" style="color:#ff0000 !important" transform="translate(0, 0)"><rect></rect><foreignObject width="0" height="0"><div style="color: rgb(255, 0, 0) !important; display: table-cell; white-space: nowrap; line-height: 1.5; max-width: 200px; text-align: center;" xmlns="http://www.w3.org/1999/xhtml"><span style="color:#ff0000 !important" class="nodeLabel "><p>red<br/>text</p></span></div></foreignObject></g></g><g class="node default clickable " id="ref-ext-fixtures-cypress-flowchart-91-flowchart-D-3" data-look="classic" title="click test" transform="translate(133, 96.1484375)"><polygon points="15,0 30,-15 15,-30 0,-15" class="label-container" transform="translate(-14.5, 15)" style="stroke:#0000ff !important;fill:#ccccff !important"></polygon><g class="label" style="color:#0000ff !important" transform="translate(0, 0)"><rect></rect><foreignObject width="0" height="0"><div style="color: rgb(0, 0, 255) !important; display: table-cell; white-space: nowrap; line-height: 1.5; max-width: 200px; text-align: center;" xmlns="http://www.w3.org/1999/xhtml"><span style="color:#0000ff !important" class="nodeLabel "><p>blue<br/>text</p></span></div></foreignObject></g></g><g class="node default  " id="ref-ext-fixtures-cypress-flowchart-91-flowchart-E-4" data-look="classic" transform="translate(38, 162.4453125)"><polygon points="3.75,0 18.75,0 22.5,-7.5 18.75,-15 3.75,-15 0,-7.5" class="label-container" transform="translate(-11.25,7.5)"></polygon><g class="label" style="" transform="translate(0, 0)"><rect></rect><foreignObject width="0" height="0"><div style="display: table-cell; white-space: nowrap; line-height: 1.5; max-width: 200px; text-align: center;" xmlns="http://www.w3.org/1999/xhtml"><span class="nodeLabel "><p>default<br/>style</p></span></div></foreignObject></g></g><g class="node default  " id="ref-ext-fixtures-cypress-flowchart-91-flowchart-F-5" data-look="classic" transform="translate(133, 162.4453125)"><g class="basic label-container outer-path"><path d="M-1.875 -7.5 C-0.5894404865435736 -7.5, 0.6961190269128528 -7.5, 1.875 -7.5 C1.8749999999999998 -7.5, 1.8749999999999998 -7.5, 1.8749999999999996 -7.5 C2.0093268729926903 -7.495692398634521, 2.143653745985381 -7.491384797269043, 2.355526649855346 -7.484590445627522 C2.518240355800747 -7.468893650106832, 2.6809540617461476 -7.453196854586141, 2.834078712633794 -7.438425103674346 C2.9339725575693145 -7.422275041513509, 3.0338664025048354 -7.406124979352671, 3.308689715260291 -7.36169367743299 C3.4243357061355804 -7.335298234676323, 3.5399816970108695 -7.308902791919655, 3.7774093793213037 -7.254711472792721 C3.920425727743361 -7.212264971289186, 4.063442076165418 -7.1698184697856515, 4.238311635177155 -7.117918102580015 C4.416059963959939 -7.052505074500411, 4.5938082927427235 -6.987092046420807, 4.689502536595306 -6.9518756800951635 C4.8295379169556565 -6.889886171211603, 4.969573297316006 -6.827896662328042, 5.1291280433816855 -6.757266509268144 C5.292374789646673 -6.672100786306231, 5.45562153591166 -6.586935063344319, 5.555381640029532 -6.5348902809254215 C5.709546114011624 -6.441434870826467, 5.863710587993716 -6.347979460727513, 5.966511759079115 -6.285660786688806 C6.103511745914795 -6.19009552650608, 6.240511732750475 -6.094530266323355, 6.36082897868412 -6.010602164009675 C6.502813791604639 -5.897373054080114, 6.644798604525158 -5.7841439441505536, 6.736712964808412 -5.710844687768509 C6.810940217527239 -5.643433460794755, 6.885167470246067 -5.576022233821003, 7.092619129526148 -5.387620125732957 C7.191834828985852 -5.285171770280396, 7.291050528445556 -5.182723414827836, 7.427084978064865 -5.042256676959878 C7.497122915937895 -4.959986129862654, 7.567160853810925 -4.87771558276543, 7.738736118510222 -4.676173513940502 C7.849057958344613 -4.528352299088786, 7.959379798179004 -4.38053108423707, 8.026291909477166 -4.290874950916274 C8.110091330503797 -4.162136536924065, 8.193890751530429 -4.033398122931855, 8.288570722540095 -3.8879442623289386 C8.380428056053418 -3.724842265112389, 8.472285389566741 -3.5617402678958396, 8.524494797797502 -3.4690371768062644 C8.585986252824169 -3.3413488547370234, 8.647477707850838 -3.213660532667782, 8.733094672618593 -3.0358750734179556 C8.77379872937056 -2.9353352662811982, 8.814502786122524 -2.834795459144441, 8.913513165373201 -2.5902379081598106 C8.95587783890151 -2.462642261386624, 8.998242512429815 -2.335046614613438, 9.065008897774955 -2.1339568997327456 C9.107021948881131 -1.9737429272933604, 9.14903499998731 -1.8135289548539755, 9.186959341363677 -1.6689070046723589 C9.215332167017205 -1.5232185415403154, 9.243704992670734 -1.377530078408272, 9.278863375608376 -1.196999212750347 C9.298272645428641 -1.046464748818218, 9.317681915248905 -0.8959302848860888, 9.340343347118987 -0.7201726943076145 C9.351146216650006 -0.551909281442649, 9.361949086181024 -0.38364586857768335, 9.371146621505158 -0.24038683178741374 C9.371146621505158 -0.07110194000742359, 9.371146621505158 0.09818295177256656, 9.371146621505158 0.2403868317874119 C9.362875664877878 0.369213657453337, 9.354604708250596 0.4980404831192621, 9.340343347118987 0.7201726943076094 C9.318652725471011 0.8884008725115884, 9.296962103823038 1.0566290507155673, 9.278863375608378 1.1969992127503417 C9.24847691787383 1.353027251037124, 9.218090460139283 1.509055289323906, 9.186959341363677 1.668907004672357 C9.157528948289212 1.7811378486783371, 9.128098555214747 1.8933686926843172, 9.065008897774955 2.1339568997327403 C9.01615801024625 2.281087989637268, 8.967307122717546 2.4282190795417957, 8.913513165373203 2.5902379081598057 C8.841714981999623 2.767580809215995, 8.769916798626042 2.9449237102721835, 8.733094672618595 3.0358750734179534 C8.657982378286963 3.191847359743226, 8.582870083955331 3.3478196460684986, 8.524494797797502 3.4690371768062627 C8.43088085273671 3.6352582157015503, 8.33726690767592 3.8014792545968374, 8.288570722540097 3.887944262328937 C8.227739387297593 3.981397528762121, 8.166908052055089 4.074850795195305, 8.02629190947717 4.29087495091627 C7.922406264930759 4.430072250431546, 7.818520620384349 4.569269549946822, 7.738736118510224 4.6761735139405 C7.663830812158424 4.764161549014, 7.588925505806624 4.852149584087499, 7.427084978064869 5.042256676959873 C7.302811747489229 5.170578990551203, 7.178538516913588 5.298901304142532, 7.09261912952615 5.387620125732956 C7.011183163099284 5.461578115764236, 6.929747196672419 5.535536105795516, 6.736712964808418 5.710844687768504 C6.648275088032917 5.781371541066228, 6.559837211257415 5.8518983943639515, 6.360828978684122 6.010602164009674 C6.259834295628958 6.081051682919591, 6.158839612573794 6.151501201829507, 5.966511759079118 6.285660786688803 C5.8268763428004675 6.370308596625711, 5.687240926521817 6.45495640656262, 5.555381640029534 6.534890280925421 C5.468516388093008 6.580207827220857, 5.381651136156481 6.625525373516293, 5.129128043381687 6.757266509268143 C4.984270317261141 6.821390727569938, 4.839412591140595 6.8855149458717335, 4.68950253659531 6.951875680095163 C4.559446388217153 6.999737544924181, 4.429390239838996 7.047599409753198, 4.23831163517716 7.117918102580013 C4.101674168022499 7.158471385606815, 3.965036700867839 7.199024668633618, 3.777409379321312 7.254711472792719 C3.642954971340306 7.285399814017375, 3.5085005633593 7.3160881552420305, 3.3086897152602948 7.36169367743299 C3.1798994669291307 7.38251548599988, 3.0511092185979662 7.40333729456677, 2.8340787126337994 7.438425103674345 C2.717290868399219 7.449691486549723, 2.6005030241646385 7.4609578694251, 2.3555266498553467 7.484590445627522 C2.2035238370147296 7.489464879979794, 2.051521024174112 7.494339314332066, 1.8750000000000013 7.5 C1.8750000000000009 7.5, 1.8750000000000004 7.5, 1.875 7.5 C0.548070658879771 7.5, -0.778858682240458 7.5, -1.8749999999999987 7.5 C-2.0039247282062065 7.495865634903187, -2.1328494564124143 7.491731269806373, -2.3555266498553435 7.484590445627522 C-2.453586911505108 7.4751306901208885, -2.5516471731548727 7.465670934614255, -2.8340787126337963 7.438425103674345 C-2.992918305835686 7.412745150064906, -3.151757899037576 7.387065196455468, -3.3086897152602917 7.36169367743299 C-3.4241164201586844 7.335348285269575, -3.5395431250570777 7.309002893106158, -3.777409379321303 7.254711472792721 C-3.886316616651186 7.222388376418966, -3.995223853981069 7.190065280045212, -4.238311635177151 7.117918102580017 C-4.3995361384741765 7.058585995023741, -4.560760641771201 6.999253887467464, -4.689502536595306 6.9518756800951635 C-4.779524207910533 6.912025756601913, -4.869545879225759 6.872175833108662, -5.129128043381685 6.7572665092681445 C-5.249550724786189 6.694442073513824, -5.3699734061906925 6.631617637759502, -5.555381640029531 6.534890280925422 C-5.693160208308454 6.451368103157999, -5.830938776587377 6.367845925390576, -5.96651175907911 6.2856607866888075 C-6.061508847126738 6.2193949304244445, -6.156505935174367 6.153129074160081, -6.360828978684119 6.010602164009676 C-6.46103159302709 5.930693245574711, -6.5612342073700605 5.8507843271397455, -6.736712964808412 5.7108446877685095 C-6.872646859558599 5.587393121170156, -7.0085807543087855 5.463941554571802, -7.0926191295261445 5.387620125732959 C-7.207636005683432 5.268855758039411, -7.32265288184072 5.150091390345862, -7.427084978064867 5.042256676959876 C-7.51109852776847 4.9435695809716185, -7.595112077472074 4.844882484983362, -7.738736118510222 4.676173513940503 C-7.84468662119574 4.534209492631271, -7.950637123881257 4.392245471322038, -8.026291909477166 4.290874950916275 C-8.088687687791133 4.195018279813539, -8.1510834661051 4.099161608710802, -8.288570722540094 3.8879442623289426 C-8.34534993292883 3.787127024765233, -8.402129143317566 3.686309787201523, -8.5244947977975 3.4690371768062653 C-8.568913302178892 3.376801202054563, -8.613331806560284 3.2845652273028607, -8.733094672618591 3.035875073417956 C-8.771202676477234 2.9417475671189752, -8.809310680335878 2.847620060819995, -8.913513165373201 2.5902379081598115 C-8.965078070305303 2.434932630256203, -9.016642975237405 2.279627352352595, -9.065008897774955 2.1339568997327434 C-9.091334355919411 2.0335665183022034, -9.117659814063865 1.9331761368716631, -9.186959341363677 1.6689070046723598 C-9.218773504443943 1.5055480011809412, -9.25058766752421 1.3421889976895227, -9.278863375608376 1.1969992127503477 C-9.29518463091144 1.0704147796161825, -9.311505886214505 0.9438303464820174, -9.340343347118985 0.7201726943076189 C-9.350286025328423 0.5653074556102412, -9.360228703537858 0.4104422169128636, -9.371146621505158 0.24038683178741468 C-9.371146621505158 0.05889705614300758, -9.371146621505158 -0.12259271950139952, -9.371146621505158 -0.24038683178741105 C-9.364730990246985 -0.34031546723780454, -9.358315358988811 -0.440244102688198, -9.340343347118987 -0.7201726943076086 C-9.317317389079573 -0.8987574778715945, -9.29429143104016 -1.0773422614355805, -9.278863375608378 -1.1969992127503444 C-9.251755889688274 -1.3361904237808944, -9.224648403768171 -1.4753816348114444, -9.186959341363677 -1.6689070046723562 C-9.143984983471544 -1.8327868565195873, -9.101010625579411 -1.9966667083668184, -9.065008897774955 -2.1339568997327394 C-9.022589206140577 -2.2617182522754695, -8.9801695145062 -2.3894796048181997, -8.913513165373205 -2.590237908159802 C-8.862301417478939 -2.716731915570428, -8.811089669584673 -2.843225922981054, -8.733094672618595 -3.035875073417953 C-8.655827141805883 -3.1963227544108603, -8.578559610993171 -3.3567704354037673, -8.524494797797502 -3.469037176806262 C-8.449920348323614 -3.6014516633290126, -8.375345898849726 -3.733866149851764, -8.288570722540095 -3.8879442623289395 C-8.200511117084503 -4.023227463623731, -8.11245151162891 -4.158510664918522, -8.02629190947717 -4.2908749509162725 C-7.950286351325364 -4.392715474590899, -7.874280793173559 -4.4945559982655245, -7.738736118510224 -4.6761735139405 C-7.618053443296856 -4.8179342512848775, -7.497370768083487 -4.959694988629255, -7.42708497806487 -5.042256676959872 C-7.358868594710249 -5.11269569344275, -7.290652211355629 -5.1831347099256275, -7.0926191295261525 -5.387620125732953 C-6.966899609699864 -5.501795267282972, -6.841180089873576 -5.615970408832991, -6.736712964808419 -5.710844687768503 C-6.59130793065021 -5.826801333119212, -6.445902896492002 -5.9427579784699205, -6.360828978684123 -6.010602164009673 C-6.227894954385355 -6.1033311847393295, -6.094960930086588 -6.196060205468986, -5.966511759079119 -6.285660786688802 C-5.875304806200976 -6.340950977515082, -5.784097853322833 -6.396241168341361, -5.555381640029534 -6.53489028092542 C-5.425697730444064 -6.6025462934896515, -5.296013820858594 -6.670202306053883, -5.129128043381688 -6.757266509268143 C-4.973956485474425 -6.825956354952968, -4.818784927567162 -6.894646200637792, -4.68950253659531 -6.951875680095162 C-4.565595591604477 -6.997474581235032, -4.441688646613644 -7.043073482374902, -4.23831163517716 -7.117918102580013 C-4.057926435036138 -7.171455483120631, -3.877541234895116 -7.224992863661249, -3.777409379321313 -7.254711472792718 C-3.6026778537714272 -7.294592803269716, -3.427946328221542 -7.334474133746713, -3.308689715260295 -7.36169367743299 C-3.188503357319776 -7.381124475725687, -3.068316999379257 -7.400555274018384, -2.8340787126338003 -7.438425103674345 C-2.6721572264388307 -7.454045474708495, -2.5102357402438615 -7.469665845742646, -2.355526649855347 -7.484590445627522 C-2.212573731353586 -7.489174667482898, -2.069620812851825 -7.493758889338273, -1.8750000000000022 -7.5 C-1.8750000000000013 -7.5, -1.8750000000000004 -7.5, -1.875 -7.5" stroke="none" stroke-width="0" fill="#ECECFF" style=""></path><path d="M-1.875 -7.5 C-1.005656623212228 -7.5, -0.13631324642445586 -7.5, 1.875 -7.5 M-1.875 -7.5 C-1.074590193954878 -7.5, -0.2741803879097562 -7.5, 1.875 -7.5 M1.875 -7.5 C1.8749999999999998 -7.5, 1.8749999999999998 -7.5, 1.8749999999999996 -7.5 M1.875 -7.5 C1.8749999999999998 -7.5, 1.8749999999999996 -7.5, 1.8749999999999996 -7.5 M1.8749999999999996 -7.5 C2.0350179373647945 -7.494868536204732, 2.19503587472959 -7.489737072409462, 2.355526649855346 -7.484590445627522 M1.8749999999999996 -7.5 C2.0067216168125728 -7.495775944129394, 2.138443233625146 -7.491551888258789, 2.355526649855346 -7.484590445627522 M2.355526649855346 -7.484590445627522 C2.5193108443246155 -7.468790381366385, 2.6830950387938852 -7.452990317105248, 2.834078712633794 -7.438425103674346 M2.355526649855346 -7.484590445627522 C2.4940156252427594 -7.47123058072926, 2.6325046006301727 -7.457870715830997, 2.834078712633794 -7.438425103674346 M2.834078712633794 -7.438425103674346 C2.936847527836308 -7.421810238616469, 3.039616343038822 -7.405195373558591, 3.308689715260291 -7.36169367743299 M2.834078712633794 -7.438425103674346 C2.9651700847920615 -7.417231267252572, 3.096261456950329 -7.3960374308307975, 3.308689715260291 -7.36169367743299 M3.308689715260291 -7.36169367743299 C3.468838478931066 -7.325140767193486, 3.6289872426018404 -7.288587856953981, 3.7774093793213037 -7.254711472792721 M3.308689715260291 -7.36169367743299 C3.419468356539782 -7.336409175459139, 3.530246997819273 -7.311124673485288, 3.7774093793213037 -7.254711472792721 M3.7774093793213037 -7.254711472792721 C3.8725642399670406 -7.2264700096311225, 3.9677191006127774 -7.198228546469524, 4.238311635177155 -7.117918102580015 M3.7774093793213037 -7.254711472792721 C3.8835682735895456 -7.223204070213314, 3.9897271678577875 -7.191696667633907, 4.238311635177155 -7.117918102580015 M4.238311635177155 -7.117918102580015 C4.370158535739043 -7.069397224393851, 4.502005436300932 -7.020876346207689, 4.689502536595306 -6.9518756800951635 M4.238311635177155 -7.117918102580015 C4.361239309215659 -7.072679582202883, 4.484166983254163 -7.027441061825752, 4.689502536595306 -6.9518756800951635 M4.689502536595306 -6.9518756800951635 C4.864072696272011 -6.874598648846083, 5.038642855948715 -6.797321617597002, 5.1291280433816855 -6.757266509268144 M4.689502536595306 -6.9518756800951635 C4.7918460523459965 -6.906571241584862, 4.894189568096687 -6.861266803074559, 5.1291280433816855 -6.757266509268144 M5.1291280433816855 -6.757266509268144 C5.250197899594315 -6.694104442830959, 5.371267755806944 -6.630942376393774, 5.555381640029532 -6.5348902809254215 M5.1291280433816855 -6.757266509268144 C5.250520215553437 -6.693936290801538, 5.371912387725188 -6.630606072334933, 5.555381640029532 -6.5348902809254215 M5.555381640029532 -6.5348902809254215 C5.676142860660109 -6.461684119307462, 5.796904081290685 -6.388477957689501, 5.966511759079115 -6.285660786688806 M5.555381640029532 -6.5348902809254215 C5.698669473388111 -6.448028354290676, 5.841957306746688 -6.361166427655931, 5.966511759079115 -6.285660786688806 M5.966511759079115 -6.285660786688806 C6.072251177649173 -6.211901545679988, 6.177990596219231 -6.138142304671171, 6.36082897868412 -6.010602164009675 M5.966511759079115 -6.285660786688806 C6.091517577960038 -6.198462138852157, 6.21652339684096 -6.1112634910155075, 6.36082897868412 -6.010602164009675 M6.36082897868412 -6.010602164009675 C6.495527371678506 -5.903183780071427, 6.6302257646728915 -5.795765396133181, 6.736712964808412 -5.710844687768509 M6.36082897868412 -6.010602164009675 C6.4746892536313965 -5.919801624688388, 6.588549528578674 -5.8290010853671, 6.736712964808412 -5.710844687768509 M6.736712964808412 -5.710844687768509 C6.862184295303795 -5.596894945202088, 6.987655625799177 -5.482945202635667, 7.092619129526148 -5.387620125732957 M6.736712964808412 -5.710844687768509 C6.827227734895478 -5.6286415684650155, 6.917742504982544 -5.546438449161522, 7.092619129526148 -5.387620125732957 M7.092619129526148 -5.387620125732957 C7.217094933014416 -5.2590886389777936, 7.3415707365026845 -5.130557152222631, 7.427084978064865 -5.042256676959878 M7.092619129526148 -5.387620125732957 C7.206048948604795 -5.270494524772914, 7.319478767683441 -5.153368923812871, 7.427084978064865 -5.042256676959878 M7.427084978064865 -5.042256676959878 C7.497822934439956 -4.959163848297952, 7.568560890815046 -4.876071019636027, 7.738736118510222 -4.676173513940502 M7.427084978064865 -5.042256676959878 C7.533049888820513 -4.91778426321206, 7.639014799576161 -4.793311849464244, 7.738736118510222 -4.676173513940502 M7.738736118510222 -4.676173513940502 C7.8068352134855665 -4.584926930628721, 7.87493430846091 -4.493680347316939, 8.026291909477166 -4.290874950916274 M7.738736118510222 -4.676173513940502 C7.81739713270972 -4.570774921078989, 7.896058146909219 -4.465376328217477, 8.026291909477166 -4.290874950916274 M8.026291909477166 -4.290874950916274 C8.116161945940469 -4.152810441424845, 8.206031982403772 -4.014745931933415, 8.288570722540095 -3.8879442623289386 M8.026291909477166 -4.290874950916274 C8.117828793731125 -4.150249715607096, 8.209365677985081 -4.009624480297917, 8.288570722540095 -3.8879442623289386 M8.288570722540095 -3.8879442623289386 C8.34260216784544 -3.7920059599121774, 8.396633613150785 -3.696067657495416, 8.524494797797502 -3.4690371768062644 M8.288570722540095 -3.8879442623289386 C8.379862011358348 -3.725847334786727, 8.471153300176601 -3.563750407244516, 8.524494797797502 -3.4690371768062644 M8.524494797797502 -3.4690371768062644 C8.587898378774202 -3.337378284288839, 8.651301959750903 -3.2057193917714133, 8.733094672618593 -3.0358750734179556 M8.524494797797502 -3.4690371768062644 C8.605022845512147 -3.301818962702604, 8.685550893226793 -3.1346007485989436, 8.733094672618593 -3.0358750734179556 M8.733094672618593 -3.0358750734179556 C8.784465884427723 -2.9089871870545907, 8.835837096236853 -2.782099300691226, 8.913513165373201 -2.5902379081598106 M8.733094672618593 -3.0358750734179556 C8.792320184047345 -2.889586915141571, 8.851545695476098 -2.743298756865186, 8.913513165373201 -2.5902379081598106 M8.913513165373201 -2.5902379081598106 C8.961567905977768 -2.4455046859420007, 9.009622646582336 -2.300771463724191, 9.065008897774955 -2.1339568997327456 M8.913513165373201 -2.5902379081598106 C8.957863394263104 -2.4566620849927827, 9.002213623153008 -2.3230862618257553, 9.065008897774955 -2.1339568997327456 M9.065008897774955 -2.1339568997327456 C9.104606957640303 -1.982952335558468, 9.14420501750565 -1.8319477713841903, 9.186959341363677 -1.6689070046723589 M9.065008897774955 -2.1339568997327456 C9.103877721135902 -1.9857332304028463, 9.14274654449685 -1.8375095610729468, 9.186959341363677 -1.6689070046723589 M9.186959341363677 -1.6689070046723589 C9.207361451193442 -1.5641464826839497, 9.22776356102321 -1.4593859606955408, 9.278863375608376 -1.196999212750347 M9.186959341363677 -1.6689070046723589 C9.21925764801525 -1.503062026266063, 9.251555954666822 -1.3372170478597671, 9.278863375608376 -1.196999212750347 M9.278863375608376 -1.196999212750347 C9.292707290554224 -1.0896285422205694, 9.306551205500071 -0.9822578716907918, 9.340343347118987 -0.7201726943076145 M9.278863375608376 -1.196999212750347 C9.296641309199712 -1.0591170704660036, 9.31441924279105 -0.9212349281816602, 9.340343347118987 -0.7201726943076145 M9.340343347118987 -0.7201726943076145 C9.348961464250202 -0.5859385635699781, 9.357579581381419 -0.4517044328323415, 9.371146621505158 -0.24038683178741374 M9.340343347118987 -0.7201726943076145 C9.349831347488065 -0.5723894299831527, 9.359319347857145 -0.42460616565869075, 9.371146621505158 -0.24038683178741374 M9.371146621505158 -0.24038683178741374 C9.371146621505158 -0.08959284805176668, 9.371146621505158 0.06120113568388039, 9.371146621505158 0.2403868317874119 M9.371146621505158 -0.24038683178741374 C9.371146621505158 -0.06879372351808413, 9.371146621505158 0.10279938475124548, 9.371146621505158 0.2403868317874119 M9.371146621505158 0.2403868317874119 C9.361028780290923 0.3979803756735518, 9.35091093907669 0.5555739195596917, 9.340343347118987 0.7201726943076094 M9.371146621505158 0.2403868317874119 C9.363996511187544 0.35175557144942715, 9.35684640086993 0.46312431111144237, 9.340343347118987 0.7201726943076094 M9.340343347118987 0.7201726943076094 C9.318418288361235 0.8902191204401803, 9.296493229603483 1.060265546572751, 9.278863375608378 1.1969992127503417 M9.340343347118987 0.7201726943076094 C9.322470100144768 0.8587940683678312, 9.30459685317055 0.9974154424280531, 9.278863375608378 1.1969992127503417 M9.278863375608378 1.1969992127503417 C9.254353022933495 1.3228546934709897, 9.229842670258613 1.448710174191638, 9.186959341363677 1.668907004672357 M9.278863375608378 1.1969992127503417 C9.259924306042349 1.2942473321981283, 9.24098523647632 1.391495451645915, 9.186959341363677 1.668907004672357 M9.186959341363677 1.668907004672357 C9.140796401691786 1.8449463007858915, 9.094633462019894 2.020985596899426, 9.065008897774955 2.1339568997327403 M9.186959341363677 1.668907004672357 C9.154319062635038 1.7933785338509436, 9.121678783906399 1.91785006302953, 9.065008897774955 2.1339568997327403 M9.065008897774955 2.1339568997327403 C9.029592516588057 2.2406253970336487, 8.994176135401158 2.347293894334557, 8.913513165373203 2.5902379081598057 M9.065008897774955 2.1339568997327403 C9.019045334992393 2.2723918275346136, 8.973081772209829 2.410826755336487, 8.913513165373203 2.5902379081598057 M8.913513165373203 2.5902379081598057 C8.874764415942213 2.6859480684104593, 8.836015666511223 2.7816582286611125, 8.733094672618595 3.0358750734179534 M8.913513165373203 2.5902379081598057 C8.867820228505508 2.7031003456358498, 8.822127291637813 2.8159627831118934, 8.733094672618595 3.0358750734179534 M8.733094672618595 3.0358750734179534 C8.67117289131802 3.1644569772024664, 8.609251110017448 3.2930388809869795, 8.524494797797502 3.4690371768062627 M8.733094672618595 3.0358750734179534 C8.650055284063109 3.2083081405117015, 8.567015895507625 3.38074120760545, 8.524494797797502 3.4690371768062627 M8.524494797797502 3.4690371768062627 C8.457543174551548 3.5879165634664605, 8.390591551305594 3.7067959501266587, 8.288570722540097 3.887944262328937 M8.524494797797502 3.4690371768062627 C8.464464658359585 3.5756267680890543, 8.404434518921668 3.682216359371846, 8.288570722540097 3.887944262328937 M8.288570722540097 3.887944262328937 C8.206960699177316 4.0133191735738825, 8.125350675814532 4.138694084818828, 8.02629190947717 4.29087495091627 M8.288570722540097 3.887944262328937 C8.216332405029313 3.9989217167298263, 8.14409408751853 4.109899171130716, 8.02629190947717 4.29087495091627 M8.02629190947717 4.29087495091627 C7.945630355941677 4.398954084235132, 7.864968802406184 4.507033217553994, 7.738736118510224 4.6761735139405 M8.02629190947717 4.29087495091627 C7.91354047104673 4.441951606545706, 7.80078903261629 4.593028262175142, 7.738736118510224 4.6761735139405 M7.738736118510224 4.6761735139405 C7.655973943926639 4.773390673507522, 7.573211769343055 4.870607833074542, 7.427084978064869 5.042256676959873 M7.738736118510224 4.6761735139405 C7.6613159698882605 4.767115625843114, 7.583895821266296 4.858057737745727, 7.427084978064869 5.042256676959873 M7.427084978064869 5.042256676959873 C7.330302910442442 5.142192107735555, 7.233520842820015 5.242127538511237, 7.09261912952615 5.387620125732956 M7.427084978064869 5.042256676959873 C7.3245749918170295 5.148106653987159, 7.22206500556919 5.253956631014445, 7.09261912952615 5.387620125732956 M7.09261912952615 5.387620125732956 C6.955315978980498 5.512315214216227, 6.8180128284348465 5.637010302699498, 6.736712964808418 5.710844687768504 M7.09261912952615 5.387620125732956 C7.016153430638473 5.457064250291218, 6.939687731750796 5.526508374849479, 6.736712964808418 5.710844687768504 M6.736712964808418 5.710844687768504 C6.6418123266588625 5.786525421280733, 6.546911688509307 5.862206154792962, 6.360828978684122 6.010602164009674 M6.736712964808418 5.710844687768504 C6.591424924652926 5.826708033515388, 6.446136884497434 5.9425713792622705, 6.360828978684122 6.010602164009674 M6.360828978684122 6.010602164009674 C6.228759432636649 6.102728162133888, 6.096689886589177 6.194854160258101, 5.966511759079118 6.285660786688803 M6.360828978684122 6.010602164009674 C6.241283154669178 6.093992155787184, 6.121737330654235 6.177382147564694, 5.966511759079118 6.285660786688803 M5.966511759079118 6.285660786688803 C5.8583881312342205 6.351205965293347, 5.750264503389322 6.41675114389789, 5.555381640029534 6.534890280925421 M5.966511759079118 6.285660786688803 C5.846708786030735 6.35828605299115, 5.726905812982351 6.4309113192934975, 5.555381640029534 6.534890280925421 M5.555381640029534 6.534890280925421 C5.405815698329339 6.6129187369088545, 5.256249756629143 6.690947192892288, 5.129128043381687 6.757266509268143 M5.555381640029534 6.534890280925421 C5.423660715517258 6.603609002872196, 5.291939791004983 6.672327724818971, 5.129128043381687 6.757266509268143 M5.129128043381687 6.757266509268143 C5.023131007634003 6.804188252703294, 4.91713397188632 6.851109996138446, 4.68950253659531 6.951875680095163 M5.129128043381687 6.757266509268143 C5.021505890944122 6.804907643654531, 4.9138837385065575 6.852548778040918, 4.68950253659531 6.951875680095163 M4.68950253659531 6.951875680095163 C4.575675323488571 6.993765146725665, 4.461848110381834 7.035654613356169, 4.23831163517716 7.117918102580013 M4.68950253659531 6.951875680095163 C4.5231893234645915 7.013080479909756, 4.356876110333874 7.074285279724349, 4.23831163517716 7.117918102580013 M4.23831163517716 7.117918102580013 C4.1126272305415155 7.155220574144971, 3.9869428259058703 7.192523045709927, 3.777409379321312 7.254711472792719 M4.23831163517716 7.117918102580013 C4.1151955885622655 7.154458298965998, 3.992079541947371 7.190998495351983, 3.777409379321312 7.254711472792719 M3.777409379321312 7.254711472792719 C3.6501387253001516 7.283760169054416, 3.5228680712789906 7.3128088653161125, 3.3086897152602948 7.36169367743299 M3.777409379321312 7.254711472792719 C3.6387068107740133 7.286369428944793, 3.500004242226714 7.318027385096866, 3.3086897152602948 7.36169367743299 M3.3086897152602948 7.36169367743299 C3.141042228729066 7.388797622929684, 2.9733947421978373 7.415901568426377, 2.8340787126337994 7.438425103674345 M3.3086897152602948 7.36169367743299 C3.147879191630719 7.387692275789184, 2.9870686680011436 7.413690874145377, 2.8340787126337994 7.438425103674345 M2.8340787126337994 7.438425103674345 C2.663222774848633 7.454907370508152, 2.4923668370634666 7.471389637341958, 2.3555266498553467 7.484590445627522 M2.8340787126337994 7.438425103674345 C2.688978622151038 7.452422734894827, 2.5438785316682764 7.466420366115309, 2.3555266498553467 7.484590445627522 M2.3555266498553467 7.484590445627522 C2.244139171048684 7.488162425270277, 2.132751692242022 7.491734404913032, 1.8750000000000013 7.5 M2.3555266498553467 7.484590445627522 C2.180079627258279 7.490216690155298, 2.0046326046612117 7.495842934683073, 1.8750000000000013 7.5 M1.8750000000000013 7.5 C1.8750000000000009 7.5, 1.8750000000000002 7.5, 1.875 7.5 M1.8750000000000013 7.5 C1.875000000000001 7.5, 1.8750000000000007 7.5, 1.875 7.5 M1.875 7.5 C0.6492551947784218 7.5, -0.5764896104431565 7.5, -1.8749999999999987 7.5 M1.875 7.5 C0.7326080404270474 7.5, -0.4097839191459052 7.5, -1.8749999999999987 7.5 M-1.8749999999999987 7.5 C-2.067099817422166 7.493839732754883, -2.2591996348443337 7.487679465509765, -2.3555266498553435 7.484590445627522 M-1.8749999999999987 7.5 C-1.9764170301390769 7.496747753239713, -2.077834060278155 7.4934955064794275, -2.3555266498553435 7.484590445627522 M-2.3555266498553435 7.484590445627522 C-2.5247951994623063 7.468261312222154, -2.6940637490692687 7.451932178816785, -2.8340787126337963 7.438425103674345 M-2.3555266498553435 7.484590445627522 C-2.4902524265735355 7.471593611978971, -2.624978203291727 7.45859677833042, -2.8340787126337963 7.438425103674345 M-2.8340787126337963 7.438425103674345 C-2.9572522713175537 7.418511357931569, -3.0804258300013116 7.3985976121887935, -3.3086897152602917 7.36169367743299 M-2.8340787126337963 7.438425103674345 C-2.9918314038306075 7.4129208719520365, -3.1495840950274183 7.387416640229728, -3.3086897152602917 7.36169367743299 M-3.3086897152602917 7.36169367743299 C-3.429171483665037 7.3341945000116215, -3.5496532520697825 7.306695322590254, -3.777409379321303 7.254711472792721 M-3.3086897152602917 7.36169367743299 C-3.413698369974579 7.337726137239966, -3.518707024688867 7.313758597046941, -3.777409379321303 7.254711472792721 M-3.777409379321303 7.254711472792721 C-3.9338470552893856 7.208281591723512, -4.090284731257468 7.161851710654304, -4.238311635177151 7.117918102580017 M-3.777409379321303 7.254711472792721 C-3.92988447341052 7.209457665225143, -4.082359567499737 7.164203857657565, -4.238311635177151 7.117918102580017 M-4.238311635177151 7.117918102580017 C-4.330207205769618 7.084099683128646, -4.4221027763620855 7.0502812636772765, -4.689502536595306 6.9518756800951635 M-4.238311635177151 7.117918102580017 C-4.360909956590931 7.072800787013286, -4.48350827800471 7.027683471446555, -4.689502536595306 6.9518756800951635 M-4.689502536595306 6.9518756800951635 C-4.83964758685547 6.885410920239658, -4.989792637115634 6.818946160384153, -5.129128043381685 6.7572665092681445 M-4.689502536595306 6.9518756800951635 C-4.785528973664746 6.90936762492757, -4.881555410734186 6.866859569759977, -5.129128043381685 6.7572665092681445 M-5.129128043381685 6.7572665092681445 C-5.265291099301255 6.6862303302115045, -5.401454155220825 6.615194151154864, -5.555381640029531 6.534890280925422 M-5.129128043381685 6.7572665092681445 C-5.248519325182289 6.694980154026535, -5.3679106069828935 6.632693798784926, -5.555381640029531 6.534890280925422 M-5.555381640029531 6.534890280925422 C-5.64823661361757 6.478601050259959, -5.741091587205609 6.422311819594495, -5.96651175907911 6.2856607866888075 M-5.555381640029531 6.534890280925422 C-5.7116893970985165 6.440135600023863, -5.867997154167502 6.345380919122304, -5.96651175907911 6.2856607866888075 M-5.96651175907911 6.2856607866888075 C-6.073897204242926 6.210753348783529, -6.181282649406741 6.135845910878249, -6.360828978684119 6.010602164009676 M-5.96651175907911 6.2856607866888075 C-6.089773149084373 6.19967897692071, -6.2130345390896355 6.113697167152613, -6.360828978684119 6.010602164009676 M-6.360828978684119 6.010602164009676 C-6.507635791329246 5.893527637618542, -6.654442603974373 5.776453111227409, -6.736712964808412 5.7108446877685095 M-6.360828978684119 6.010602164009676 C-6.468911125404827 5.924409528186628, -6.576993272125535 5.8382168923635795, -6.736712964808412 5.7108446877685095 M-6.736712964808412 5.7108446877685095 C-6.827102256796229 5.628755524354785, -6.917491548784047 5.546666360941061, -7.0926191295261445 5.387620125732959 M-6.736712964808412 5.7108446877685095 C-6.838247415317618 5.6186337862703954, -6.939781865826824 5.526422884772281, -7.0926191295261445 5.387620125732959 M-7.0926191295261445 5.387620125732959 C-7.182662317268936 5.294643141705328, -7.272705505011729 5.201666157677697, -7.427084978064867 5.042256676959876 M-7.0926191295261445 5.387620125732959 C-7.194005201920308 5.282930682034638, -7.295391274314472 5.178241238336317, -7.427084978064867 5.042256676959876 M-7.427084978064867 5.042256676959876 C-7.531774662090795 4.9192822170912445, -7.636464346116723 4.796307757222614, -7.738736118510222 4.676173513940503 M-7.427084978064867 5.042256676959876 C-7.513228772086208 4.94106727478167, -7.599372566107548 4.839877872603464, -7.738736118510222 4.676173513940503 M-7.738736118510222 4.676173513940503 C-7.851283180529571 4.525370704082855, -7.963830242548919 4.374567894225207, -8.026291909477166 4.290874950916275 M-7.738736118510222 4.676173513940503 C-7.852056588732714 4.5243344075495795, -7.965377058955206 4.372495301158656, -8.026291909477166 4.290874950916275 M-8.026291909477166 4.290874950916275 C-8.113629361154898 4.15670117174972, -8.200966812832629 4.022527392583166, -8.288570722540094 3.8879442623289426 M-8.026291909477166 4.290874950916275 C-8.109215908643803 4.163481419984702, -8.19213990781044 4.036087889053129, -8.288570722540094 3.8879442623289426 M-8.288570722540094 3.8879442623289426 C-8.37062603341733 3.7422467488651843, -8.452681344294568 3.5965492354014263, -8.5244947977975 3.4690371768062653 M-8.288570722540094 3.8879442623289426 C-8.372489463488137 3.7389380400817127, -8.45640820443618 3.5899318178344832, -8.5244947977975 3.4690371768062653 M-8.5244947977975 3.4690371768062653 C-8.602599848671131 3.3068503674867995, -8.68070489954476 3.1446635581673332, -8.733094672618591 3.035875073417956 M-8.5244947977975 3.4690371768062653 C-8.573153158726187 3.3679970492157065, -8.621811519654875 3.2669569216251473, -8.733094672618591 3.035875073417956 M-8.733094672618591 3.035875073417956 C-8.80282005384236 2.8636520337467095, -8.87254543506613 2.6914289940754625, -8.913513165373201 2.5902379081598115 M-8.733094672618591 3.035875073417956 C-8.778456012751965 2.923831686286676, -8.823817352885337 2.8117882991553955, -8.913513165373201 2.5902379081598115 M-8.913513165373201 2.5902379081598115 C-8.949412728103013 2.4821141450361726, -8.985312290832825 2.3739903819125336, -9.065008897774955 2.1339568997327434 M-8.913513165373201 2.5902379081598115 C-8.955383813974482 2.4641301857546463, -8.997254462575762 2.338022463349481, -9.065008897774955 2.1339568997327434 M-9.065008897774955 2.1339568997327434 C-9.10850220783414 1.9680980583572485, -9.151995517893326 1.8022392169817538, -9.186959341363677 1.6689070046723598 M-9.065008897774955 2.1339568997327434 C-9.108999421043793 1.9662019688952777, -9.15298994431263 1.798447038057812, -9.186959341363677 1.6689070046723598 M-9.186959341363677 1.6689070046723598 C-9.222188622904126 1.488012089673447, -9.257417904444575 1.3071171746745343, -9.278863375608376 1.1969992127503477 M-9.186959341363677 1.6689070046723598 C-9.215965506981078 1.5199664746822776, -9.24497167259848 1.3710259446921955, -9.278863375608376 1.1969992127503477 M-9.278863375608376 1.1969992127503477 C-9.296516726732493 1.0600833074801679, -9.31417007785661 0.923167402209988, -9.340343347118985 0.7201726943076189 M-9.278863375608376 1.1969992127503477 C-9.298528323004263 1.0444817640309414, -9.31819327040015 0.8919643153115351, -9.340343347118985 0.7201726943076189 M-9.340343347118985 0.7201726943076189 C-9.347703057092177 0.6055392708241719, -9.355062767065371 0.490905847340725, -9.371146621505158 0.24038683178741468 M-9.340343347118985 0.7201726943076189 C-9.351307450003237 0.5493979418208517, -9.362271552887487 0.3786231893340845, -9.371146621505158 0.24038683178741468 M-9.371146621505158 0.24038683178741468 C-9.371146621505158 0.07846113986627024, -9.371146621505158 -0.08346455205487421, -9.371146621505158 -0.24038683178741105 M-9.371146621505158 0.24038683178741468 C-9.371146621505158 0.13158688816149608, -9.371146621505158 0.022786944535577475, -9.371146621505158 -0.24038683178741105 M-9.371146621505158 -0.24038683178741105 C-9.361013480583939 -0.39821868095955065, -9.350880339662718 -0.5560505301316903, -9.340343347118987 -0.7201726943076086 M-9.371146621505158 -0.24038683178741105 C-9.361111687295145 -0.3966890321614811, -9.351076753085131 -0.5529912325355512, -9.340343347118987 -0.7201726943076086 M-9.340343347118987 -0.7201726943076086 C-9.318281305456063 -0.8912815328023637, -9.296219263793137 -1.0623903712971188, -9.278863375608378 -1.1969992127503444 M-9.340343347118987 -0.7201726943076086 C-9.322524689329338 -0.8583706854321514, -9.304706031539691 -0.9965686765566943, -9.278863375608378 -1.1969992127503444 M-9.278863375608378 -1.1969992127503444 C-9.259843699603351 -1.2946612292262032, -9.240824023598325 -1.3923232457020618, -9.186959341363677 -1.6689070046723562 M-9.278863375608378 -1.1969992127503444 C-9.25975930754637 -1.2950945646025347, -9.240655239484363 -1.3931899164547252, -9.186959341363677 -1.6689070046723562 M-9.186959341363677 -1.6689070046723562 C-9.155913553433434 -1.7872980493799737, -9.124867765503192 -1.9056890940875912, -9.065008897774955 -2.1339568997327394 M-9.186959341363677 -1.6689070046723562 C-9.161501889177826 -1.765987303186575, -9.136044436991975 -1.8630676017007934, -9.065008897774955 -2.1339568997327394 M-9.065008897774955 -2.1339568997327394 C-9.02286999265108 -2.260872568043094, -8.980731087527202 -2.3877882363534484, -8.913513165373205 -2.590237908159802 M-9.065008897774955 -2.1339568997327394 C-9.033371312362515 -2.2292442662303236, -9.001733726950075 -2.324531632727908, -8.913513165373205 -2.590237908159802 M-8.913513165373205 -2.590237908159802 C-8.843802186854562 -2.762425372870932, -8.774091208335921 -2.934612837582061, -8.733094672618595 -3.035875073417953 M-8.913513165373205 -2.590237908159802 C-8.872643626458547 -2.6911864594377866, -8.831774087543891 -2.792135010715771, -8.733094672618595 -3.035875073417953 M-8.733094672618595 -3.035875073417953 C-8.672042890041 -3.162650406239212, -8.610991107463404 -3.28942573906047, -8.524494797797502 -3.469037176806262 M-8.733094672618595 -3.035875073417953 C-8.689095095607142 -3.1272411365223687, -8.645095518595687 -3.2186071996267844, -8.524494797797502 -3.469037176806262 M-8.524494797797502 -3.469037176806262 C-8.431357210159337 -3.6344123948612563, -8.338219622521173 -3.7997876129162504, -8.288570722540095 -3.8879442623289395 M-8.524494797797502 -3.469037176806262 C-8.456915248588567 -3.58903150959813, -8.389335699379632 -3.709025842389999, -8.288570722540095 -3.8879442623289395 M-8.288570722540095 -3.8879442623289395 C-8.211715343677913 -4.006014762820147, -8.13485996481573 -4.124085263311354, -8.02629190947717 -4.2908749509162725 M-8.288570722540095 -3.8879442623289395 C-8.185264500481475 -4.046650361015794, -8.081958278422857 -4.205356459702648, -8.02629190947717 -4.2908749509162725 M-8.02629190947717 -4.2908749509162725 C-7.943695056277117 -4.401547209476218, -7.861098203077065 -4.512219468036163, -7.738736118510224 -4.6761735139405 M-8.02629190947717 -4.2908749509162725 C-7.915221535825923 -4.439699132889741, -7.804151162174676 -4.58852331486321, -7.738736118510224 -4.6761735139405 M-7.738736118510224 -4.6761735139405 C-7.669168926309975 -4.757891096384288, -7.5996017341097275 -4.839608678828075, -7.42708497806487 -5.042256676959872 M-7.738736118510224 -4.6761735139405 C-7.618955293203115 -4.816874887068272, -7.4991744678960055 -4.957576260196044, -7.42708497806487 -5.042256676959872 M-7.42708497806487 -5.042256676959872 C-7.357012088434232 -5.114612688594738, -7.286939198803593 -5.186968700229603, -7.0926191295261525 -5.387620125732953 M-7.42708497806487 -5.042256676959872 C-7.326096458974085 -5.1465356142327225, -7.2251079398833005 -5.250814551505573, -7.0926191295261525 -5.387620125732953 M-7.0926191295261525 -5.387620125732953 C-6.979334042644026 -5.490502644280151, -6.8660489557619 -5.59338516282735, -6.736712964808419 -5.710844687768503 M-7.0926191295261525 -5.387620125732953 C-6.956495209484759 -5.5112442682729865, -6.820371289443366 -5.634868410813019, -6.736712964808419 -5.710844687768503 M-6.736712964808419 -5.710844687768503 C-6.618423199810002 -5.8051776275318945, -6.500133434811586 -5.899510567295285, -6.360828978684123 -6.010602164009673 M-6.736712964808419 -5.710844687768503 C-6.644518269169339 -5.784367504136783, -6.552323573530258 -5.857890320505062, -6.360828978684123 -6.010602164009673 M-6.360828978684123 -6.010602164009673 C-6.2507229533481015 -6.087407360871066, -6.140616928012079 -6.1642125577324585, -5.966511759079119 -6.285660786688802 M-6.360828978684123 -6.010602164009673 C-6.2782787235658715 -6.0681856484372165, -6.195728468447619 -6.12576913286476, -5.966511759079119 -6.285660786688802 M-5.966511759079119 -6.285660786688802 C-5.864299797154815 -6.347622278671476, -5.762087835230511 -6.409583770654151, -5.555381640029534 -6.53489028092542 M-5.966511759079119 -6.285660786688802 C-5.83189555729022 -6.3672659193058445, -5.69727935550132 -6.448871051922887, -5.555381640029534 -6.53489028092542 M-5.555381640029534 -6.53489028092542 C-5.446500728442855 -6.591693382758638, -5.337619816856176 -6.648496484591857, -5.129128043381688 -6.757266509268143 M-5.555381640029534 -6.53489028092542 C-5.451134170502525 -6.589276119003969, -5.346886700975515 -6.64366195708252, -5.129128043381688 -6.757266509268143 M-5.129128043381688 -6.757266509268143 C-4.960738452483569 -6.831807586059003, -4.79234886158545 -6.906348662849862, -4.68950253659531 -6.951875680095162 M-5.129128043381688 -6.757266509268143 C-4.95483411738879 -6.8344212600595835, -4.780540191395892 -6.911576010851023, -4.68950253659531 -6.951875680095162 M-4.68950253659531 -6.951875680095162 C-4.518351569382634 -7.014860818131624, -4.347200602169959 -7.077845956168086, -4.23831163517716 -7.117918102580013 M-4.68950253659531 -6.951875680095162 C-4.580033135447085 -6.99216143164176, -4.47056373429886 -7.032447183188358, -4.23831163517716 -7.117918102580013 M-4.23831163517716 -7.117918102580013 C-4.123176557474959 -7.152089589285671, -4.008041479772756 -7.18626107599133, -3.777409379321313 -7.254711472792718 M-4.23831163517716 -7.117918102580013 C-4.081556900768163 -7.164442084930212, -3.9248021663591652 -7.210966067280411, -3.777409379321313 -7.254711472792718 M-3.777409379321313 -7.254711472792718 C-3.6301202105283235 -7.288329264418068, -3.4828310417353334 -7.321947056043418, -3.308689715260295 -7.36169367743299 M-3.777409379321313 -7.254711472792718 C-3.6256559675349194 -7.289348198749404, -3.4739025557485252 -7.323984924706091, -3.308689715260295 -7.36169367743299 M-3.308689715260295 -7.36169367743299 C-3.1776379840245688 -7.382881105017828, -3.0465862527888428 -7.404068532602666, -2.8340787126338003 -7.438425103674345 M-3.308689715260295 -7.36169367743299 C-3.1525945704299176 -7.386929929913238, -2.9964994255995396 -7.412166182393486, -2.8340787126338003 -7.438425103674345 M-2.8340787126338003 -7.438425103674345 C-2.66880926054662 -7.454368448951599, -2.5035398084594394 -7.470311794228853, -2.355526649855347 -7.484590445627522 M-2.8340787126338003 -7.438425103674345 C-2.6500636837266516 -7.456176812202567, -2.4660486548195024 -7.473928520730788, -2.355526649855347 -7.484590445627522 M-2.355526649855347 -7.484590445627522 C-2.1759191643241413 -7.490350108103746, -1.9963116787929354 -7.496109770579969, -1.8750000000000022 -7.5 M-2.355526649855347 -7.484590445627522 C-2.222464261915936 -7.488857497418513, -2.089401873976525 -7.4931245492095035, -1.8750000000000022 -7.5 M-1.8750000000000022 -7.5 C-1.8750000000000018 -7.5, -1.8750000000000013 -7.5, -1.875 -7.5 M-1.8750000000000022 -7.5 C-1.8750000000000018 -7.5, -1.8750000000000013 -7.5, -1.875 -7.5" stroke="#9370DB" stroke-width="1.3" fill="none" stroke-dasharray="0 0" style=""></path></g><g class="label" style="" transform="translate(0, 0)"><rect></rect><foreignObject width="0" height="0"><div style="display: table-cell; white-space: nowrap; line-height: 1.5; max-width: 200px; text-align: center;" xmlns="http://www.w3.org/1999/xhtml"><span class="nodeLabel "><p>default<br/>style</p></span></div></foreignObject></g></g></g></g><marker id="ref-ext-fixtures-cypress-flowchart-91_flowchart-v2-pointEnd_DarkGray" class="marker flowchart-v2" viewBox="0 0 10 10" refX="5" refY="5" markerUnits="userSpaceOnUse" markerWidth="8" markerHeight="8" orient="auto"><path d="M 0 0 L 10 5 L 0 10 z" class="arrowMarkerPath" style="stroke-width: 1; stroke-dasharray: 1,0;" stroke="DarkGray" fill="DarkGray"></path></marker></g><defs><filter id="ref-ext-fixtures-cypress-flowchart-91-drop-shadow" height="130%" width="130%"><feDropShadow dx="4" dy="4" stdDeviation="0" flood-opacity="0.06" flood-color="#000000"></feDropShadow></filter></defs><defs><filter id="ref-ext-fixtures-cypress-flowchart-91-drop-shadow-small" height="150%" width="150%"><feDropShadow dx="2" dy="2" stdDeviation="0" flood-opacity="0.06" flood-color="#000000"></feDropShadow></filter></defs></svg>